<?xml version="1.0" encoding="UTF-8" standalone="no"?>
<!DOCTYPE svg PUBLIC "-//W3C//DTD SVG 1.1//EN"
 "http://www.w3.org/Graphics/SVG/1.1/DTD/svg11.dtd">
<!-- Generated by graphviz version 2.40.1 (20161225.0304)
 -->
<!-- Title: public.banned_frauds Pages: 1 -->
<svg width="721pt" height="2242pt"
 viewBox="0.00 0.00 720.50 2242.00" xmlns="http://www.w3.org/2000/svg" xmlns:xlink="http://www.w3.org/1999/xlink">
<g id="graph0" class="graph" transform="scale(1 1) rotate(0) translate(4 2238)">
<title>public.banned_frauds</title>
<polygon fill="#ffffff" stroke="transparent" points="-4,4 -4,-2238 716.5,-2238 716.5,4 -4,4"/>
<!-- public.banned_frauds -->
<g id="node1" class="node">
<title>public.banned_frauds</title>
<polygon fill="#efefef" stroke="transparent" points="339,-435.5 339,-470.5 652,-470.5 652,-435.5 339,-435.5"/>
<polygon fill="none" stroke="#000000" points="339,-435.5 339,-470.5 652,-470.5 652,-435.5 339,-435.5"/>
<text text-anchor="start" x="345.6832" y="-448.3" font-family="Arial Bold" font-size="18.00" fill="#000000">public.banned_frauds</text>
<text text-anchor="start" x="517.7488" y="-448.3" font-family="Arial" font-size="14.00" fill="#000000">    </text>
<text text-anchor="start" x="551.9536" y="-448.3" font-family="Arial" font-size="14.00" fill="#666666">[BASE TABLE]</text>
<polygon fill="none" stroke="#000000" points="339,-405.5 339,-435.5 652,-435.5 652,-405.5 339,-405.5"/>
<text text-anchor="start" x="346" y="-416.9" font-family="Arial" font-size="14.00" fill="#000000">id </text>
<text text-anchor="start" x="360.7798" y="-416.9" font-family="Arial" font-size="14.00" fill="#666666">[bigint]</text>
<polygon fill="none" stroke="#000000" points="339,-375.5 339,-405.5 652,-405.5 652,-375.5 339,-375.5"/>
<text text-anchor="start" x="346" y="-386.9" font-family="Arial" font-size="14.00" fill="#000000">banned_fraud_upload_id </text>
<text text-anchor="start" x="504.7418" y="-386.9" font-family="Arial" font-size="14.00" fill="#666666">[bigint]</text>
<polygon fill="none" stroke="#000000" points="339,-345.5 339,-375.5 652,-375.5 652,-345.5 339,-345.5"/>
<text text-anchor="start" x="346" y="-356.9" font-family="Arial" font-size="14.00" fill="#000000">partner_id </text>
<text text-anchor="start" x="412.9046" y="-356.9" font-family="Arial" font-size="14.00" fill="#666666">[bigint]</text>
<polygon fill="none" stroke="#000000" points="339,-315.5 339,-345.5 652,-345.5 652,-315.5 339,-315.5"/>
<text text-anchor="start" x="346" y="-326.9" font-family="Arial" font-size="14.00" fill="#000000">web_id </text>
<text text-anchor="start" x="394.2342" y="-326.9" font-family="Arial" font-size="14.00" fill="#666666">[varchar(255)]</text>
<polygon fill="none" stroke="#000000" points="339,-285.5 339,-315.5 652,-315.5 652,-285.5 339,-285.5"/>
<text text-anchor="start" x="346" y="-296.9" font-family="Arial" font-size="14.00" fill="#000000">proof </text>
<text text-anchor="start" x="381.7896" y="-296.9" font-family="Arial" font-size="14.00" fill="#666666">[varchar(255)]</text>
<polygon fill="none" stroke="#000000" points="339,-255.5 339,-285.5 652,-285.5 652,-255.5 339,-255.5"/>
<text text-anchor="start" x="346" y="-266.9" font-family="Arial" font-size="14.00" fill="#000000">type </text>
<text text-anchor="start" x="376.3464" y="-266.9" font-family="Arial" font-size="14.00" fill="#666666">[varchar(255)]</text>
<polygon fill="none" stroke="#000000" points="339,-225.5 339,-255.5 652,-255.5 652,-225.5 339,-225.5"/>
<text text-anchor="start" x="346" y="-236.9" font-family="Arial" font-size="14.00" fill="#000000">date_from </text>
<text text-anchor="start" x="412.906" y="-236.9" font-family="Arial" font-size="14.00" fill="#666666">[timestamp(0) without time zone]</text>
<polygon fill="none" stroke="#000000" points="339,-195.5 339,-225.5 652,-225.5 652,-195.5 339,-195.5"/>
<text text-anchor="start" x="346" y="-206.9" font-family="Arial" font-size="14.00" fill="#000000">date_to </text>
<text text-anchor="start" x="396.5848" y="-206.9" font-family="Arial" font-size="14.00" fill="#666666">[timestamp(0) without time zone]</text>
<polygon fill="none" stroke="#000000" points="339,-165.5 339,-195.5 652,-195.5 652,-165.5 339,-165.5"/>
<text text-anchor="start" x="346" y="-176.9" font-family="Arial" font-size="14.00" fill="#000000">created_at </text>
<text text-anchor="start" x="416.028" y="-176.9" font-family="Arial" font-size="14.00" fill="#666666">[timestamp(0) without time zone]</text>
<polygon fill="none" stroke="#000000" points="339,-135.5 339,-165.5 652,-165.5 652,-135.5 339,-135.5"/>
<text text-anchor="start" x="346" y="-146.9" font-family="Arial" font-size="14.00" fill="#000000">updated_at </text>
<text text-anchor="start" x="419.9326" y="-146.9" font-family="Arial" font-size="14.00" fill="#666666">[timestamp(0) without time zone]</text>
<polygon fill="none" stroke="#000000" points="339,-105.5 339,-135.5 652,-135.5 652,-105.5 339,-105.5"/>
<text text-anchor="start" x="346" y="-116.9" font-family="Arial" font-size="14.00" fill="#000000">comment </text>
<text text-anchor="start" x="407.4502" y="-116.9" font-family="Arial" font-size="14.00" fill="#666666">[varchar(255)]</text>
<polygon fill="none" stroke="#000000" points="339,-75.5 339,-105.5 652,-105.5 652,-75.5 339,-75.5"/>
<text text-anchor="start" x="346" y="-86.9" font-family="Arial" font-size="14.00" fill="#000000">order_id </text>
<text text-anchor="start" x="401.2314" y="-86.9" font-family="Arial" font-size="14.00" fill="#666666">[varchar(255)]</text>
<polygon fill="none" stroke="#000000" points="339,-45.5 339,-75.5 652,-75.5 652,-45.5 339,-45.5"/>
<text text-anchor="start" x="346" y="-56.9" font-family="Arial" font-size="14.00" fill="#000000">deleted_at </text>
<text text-anchor="start" x="415.2566" y="-56.9" font-family="Arial" font-size="14.00" fill="#666666">[timestamp(0) without time zone]</text>
<polygon fill="none" stroke="#000000" stroke-width="3" points="337,-44.5 337,-472.5 653,-472.5 653,-44.5 337,-44.5"/>
</g>
<!-- public.orders -->
<g id="node2" class="node">
<title>public.orders</title>
<polygon fill="#efefef" stroke="transparent" points="321,-2155.5 321,-2190.5 670,-2190.5 670,-2155.5 321,-2155.5"/>
<polygon fill="none" stroke="#000000" points="321,-2155.5 321,-2190.5 670,-2190.5 670,-2155.5 321,-2155.5"/>
<text text-anchor="start" x="380.2099" y="-2168.3" font-family="Arial Bold" font-size="18.00" fill="#000000">public.orders</text>
<text text-anchor="start" x="483.2221" y="-2168.3" font-family="Arial" font-size="14.00" fill="#000000">    </text>
<text text-anchor="start" x="517.4269" y="-2168.3" font-family="Arial" font-size="14.00" fill="#666666">[BASE TABLE]</text>
<polygon fill="none" stroke="#000000" points="321,-2125.5 321,-2155.5 670,-2155.5 670,-2125.5 321,-2125.5"/>
<text text-anchor="start" x="328" y="-2136.9" font-family="Arial" font-size="14.00" fill="#000000">id    </text>
<text text-anchor="start" x="373.094" y="-2136.9" font-family="Arial" font-size="14.00" fill="#666666">[bigint]</text>
<polygon fill="none" stroke="#000000" points="321,-2095.5 321,-2125.5 670,-2125.5 670,-2095.5 321,-2095.5"/>
<text text-anchor="start" x="328" y="-2106.9" font-family="Arial" font-size="14.00" fill="#000000">order_id    </text>
<text text-anchor="start" x="413.5456" y="-2106.9" font-family="Arial" font-size="14.00" fill="#666666">[varchar(255)]</text>
<polygon fill="none" stroke="#000000" points="321,-2065.5 321,-2095.5 670,-2095.5 670,-2065.5 321,-2065.5"/>
<text text-anchor="start" x="328" y="-2076.9" font-family="Arial" font-size="14.00" fill="#000000">offer_id    </text>
<text text-anchor="start" x="408.8836" y="-2076.9" font-family="Arial" font-size="14.00" fill="#666666">[bigint]</text>
<polygon fill="none" stroke="#000000" points="321,-2035.5 321,-2065.5 670,-2065.5 670,-2035.5 321,-2035.5"/>
<text text-anchor="start" x="328" y="-2046.9" font-family="Arial" font-size="14.00" fill="#000000">datetime    </text>
<text text-anchor="start" x="415.8836" y="-2046.9" font-family="Arial" font-size="14.00" fill="#666666">[timestamp(0) without time zone]</text>
<polygon fill="none" stroke="#000000" points="321,-2005.5 321,-2035.5 670,-2035.5 670,-2005.5 321,-2005.5"/>
<text text-anchor="start" x="328" y="-2016.9" font-family="Arial" font-size="14.00" fill="#000000">datetime_sale    </text>
<text text-anchor="start" x="449.338" y="-2016.9" font-family="Arial" font-size="14.00" fill="#666666">[timestamp(0) without time zone]</text>
<polygon fill="none" stroke="#000000" points="321,-1975.5 321,-2005.5 670,-2005.5 670,-1975.5 321,-1975.5"/>
<text text-anchor="start" x="328" y="-1986.9" font-family="Arial" font-size="14.00" fill="#000000">partner_id    </text>
<text text-anchor="start" x="425.2188" y="-1986.9" font-family="Arial" font-size="14.00" fill="#666666">[bigint]</text>
<polygon fill="none" stroke="#000000" points="321,-1945.5 321,-1975.5 670,-1975.5 670,-1945.5 321,-1945.5"/>
<text text-anchor="start" x="328" y="-1956.9" font-family="Arial" font-size="14.00" fill="#000000">candidate_job    </text>
<text text-anchor="start" x="449.352" y="-1956.9" font-family="Arial" font-size="14.00" fill="#666666">[text]</text>
<polygon fill="none" stroke="#000000" points="321,-1915.5 321,-1945.5 670,-1945.5 670,-1915.5 321,-1915.5"/>
<text text-anchor="start" x="328" y="-1926.9" font-family="Arial" font-size="14.00" fill="#000000">candidate_city    </text>
<text text-anchor="start" x="451.6774" y="-1926.9" font-family="Arial" font-size="14.00" fill="#666666">[text]</text>
<polygon fill="none" stroke="#000000" points="321,-1885.5 321,-1915.5 670,-1915.5 670,-1885.5 321,-1885.5"/>
<text text-anchor="start" x="328" y="-1896.9" font-family="Arial" font-size="14.00" fill="#000000">candidate_phone    </text>
<text text-anchor="start" x="469.5932" y="-1896.9" font-family="Arial" font-size="14.00" fill="#666666">[text]</text>
<polygon fill="none" stroke="#000000" points="321,-1855.5 321,-1885.5 670,-1885.5 670,-1855.5 321,-1855.5"/>
<text text-anchor="start" x="328" y="-1866.9" font-family="Arial" font-size="14.00" fill="#000000">candidate_name    </text>
<text text-anchor="start" x="465.6886" y="-1866.9" font-family="Arial" font-size="14.00" fill="#666666">[text]</text>
<polygon fill="none" stroke="#000000" points="321,-1825.5 321,-1855.5 670,-1855.5 670,-1825.5 321,-1825.5"/>
<text text-anchor="start" x="328" y="-1836.9" font-family="Arial" font-size="14.00" fill="#000000">category_id    </text>
<text text-anchor="start" x="434.5582" y="-1836.9" font-family="Arial" font-size="14.00" fill="#666666">[bigint]</text>
<polygon fill="none" stroke="#000000" points="321,-1795.5 321,-1825.5 670,-1825.5 670,-1795.5 321,-1795.5"/>
<text text-anchor="start" x="328" y="-1806.9" font-family="Arial" font-size="14.00" fill="#000000">landing_id    </text>
<text text-anchor="start" x="426.0028" y="-1806.9" font-family="Arial" font-size="14.00" fill="#666666">[bigint]</text>
<polygon fill="none" stroke="#000000" points="321,-1765.5 321,-1795.5 670,-1795.5 670,-1765.5 321,-1765.5"/>
<text text-anchor="start" x="328" y="-1776.9" font-family="Arial" font-size="14.00" fill="#000000">offer_materials_id    </text>
<text text-anchor="start" x="473.439" y="-1776.9" font-family="Arial" font-size="14.00" fill="#666666">[bigint]</text>
<polygon fill="none" stroke="#000000" points="321,-1735.5 321,-1765.5 670,-1765.5 670,-1735.5 321,-1735.5"/>
<text text-anchor="start" x="328" y="-1746.9" font-family="Arial" font-size="14.00" fill="#000000">link_id    </text>
<text text-anchor="start" x="401.8724" y="-1746.9" font-family="Arial" font-size="14.00" fill="#666666">[bigint]</text>
<polygon fill="none" stroke="#000000" points="321,-1705.5 321,-1735.5 670,-1735.5 670,-1705.5 321,-1705.5"/>
<text text-anchor="start" x="328" y="-1716.9" font-family="Arial" font-size="14.00" fill="#000000">promocode_id    </text>
<text text-anchor="start" x="450.8934" y="-1716.9" font-family="Arial" font-size="14.00" fill="#666666">[bigint]</text>
<polygon fill="none" stroke="#000000" points="321,-1675.5 321,-1705.5 670,-1705.5 670,-1675.5 321,-1675.5"/>
<text text-anchor="start" x="328" y="-1686.9" font-family="Arial" font-size="14.00" fill="#000000">click_id    </text>
<text text-anchor="start" x="408.0898" y="-1686.9" font-family="Arial" font-size="14.00" fill="#666666">[varchar(255)]</text>
<polygon fill="none" stroke="#000000" points="321,-1645.5 321,-1675.5 670,-1675.5 670,-1645.5 321,-1645.5"/>
<text text-anchor="start" x="328" y="-1656.9" font-family="Arial" font-size="14.00" fill="#000000">web_id    </text>
<text text-anchor="start" x="406.5484" y="-1656.9" font-family="Arial" font-size="14.00" fill="#666666">[varchar(255)]</text>
<polygon fill="none" stroke="#000000" points="321,-1615.5 321,-1645.5 670,-1645.5 670,-1615.5 321,-1615.5"/>
<text text-anchor="start" x="328" y="-1626.9" font-family="Arial" font-size="14.00" fill="#000000">client_id    </text>
<text text-anchor="start" x="413.5456" y="-1626.9" font-family="Arial" font-size="14.00" fill="#666666">[varchar(255)]</text>
<polygon fill="none" stroke="#000000" points="321,-1585.5 321,-1615.5 670,-1615.5 670,-1585.5 321,-1585.5"/>
<text text-anchor="start" x="328" y="-1596.9" font-family="Arial" font-size="14.00" fill="#000000">pixel_id    </text>
<text text-anchor="start" x="409.655" y="-1596.9" font-family="Arial" font-size="14.00" fill="#666666">[bigint]</text>
<polygon fill="none" stroke="#000000" points="321,-1555.5 321,-1585.5 670,-1585.5 670,-1555.5 321,-1555.5"/>
<text text-anchor="start" x="328" y="-1566.9" font-family="Arial" font-size="14.00" fill="#000000">business_unit_id    </text>
<text text-anchor="start" x="466.4586" y="-1566.9" font-family="Arial" font-size="14.00" fill="#666666">[bigint]</text>
<polygon fill="none" stroke="#000000" points="321,-1525.5 321,-1555.5 670,-1555.5 670,-1525.5 321,-1525.5"/>
<text text-anchor="start" x="328" y="-1536.9" font-family="Arial" font-size="14.00" fill="#000000">fee    </text>
<text text-anchor="start" x="381.6606" y="-1536.9" font-family="Arial" font-size="14.00" fill="#666666">[numeric(12,2)]</text>
<polygon fill="none" stroke="#000000" points="321,-1495.5 321,-1525.5 670,-1525.5 670,-1495.5 321,-1495.5"/>
<text text-anchor="start" x="328" y="-1506.9" font-family="Arial" font-size="14.00" fill="#000000">fee_id    </text>
<text text-anchor="start" x="400.3324" y="-1506.9" font-family="Arial" font-size="14.00" fill="#666666">[bigint]</text>
<polygon fill="none" stroke="#000000" points="321,-1465.5 321,-1495.5 670,-1495.5 670,-1465.5 321,-1465.5"/>
<text text-anchor="start" x="328" y="-1476.9" font-family="Arial" font-size="14.00" fill="#000000">fee_advert    </text>
<text text-anchor="start" x="428.3422" y="-1476.9" font-family="Arial" font-size="14.00" fill="#666666">[numeric(12,2)]</text>
<polygon fill="none" stroke="#000000" points="321,-1435.5 321,-1465.5 670,-1465.5 670,-1435.5 321,-1435.5"/>
<text text-anchor="start" x="328" y="-1446.9" font-family="Arial" font-size="14.00" fill="#000000">model    </text>
<text text-anchor="start" x="400.3198" y="-1446.9" font-family="Arial" font-size="14.00" fill="#666666">[varchar(255)]</text>
<polygon fill="none" stroke="#000000" points="321,-1405.5 321,-1435.5 670,-1435.5 670,-1405.5 321,-1405.5"/>
<text text-anchor="start" x="328" y="-1416.9" font-family="Arial" font-size="14.00" fill="#000000">gross_amount    </text>
<text text-anchor="start" x="450.8948" y="-1416.9" font-family="Arial" font-size="14.00" fill="#666666">[numeric(12,2)]</text>
<polygon fill="none" stroke="#000000" points="321,-1375.5 321,-1405.5 670,-1405.5 670,-1375.5 321,-1375.5"/>
<text text-anchor="start" x="328" y="-1386.9" font-family="Arial" font-size="14.00" fill="#000000">amount    </text>
<text text-anchor="start" x="408.8864" y="-1386.9" font-family="Arial" font-size="14.00" fill="#666666">[numeric(12,2)]</text>
<polygon fill="none" stroke="#000000" points="321,-1345.5 321,-1375.5 670,-1375.5 670,-1345.5 321,-1345.5"/>
<text text-anchor="start" x="328" y="-1356.9" font-family="Arial" font-size="14.00" fill="#000000">amount_advert    </text>
<text text-anchor="start" x="455.568" y="-1356.9" font-family="Arial" font-size="14.00" fill="#666666">[numeric(12,2)]</text>
<polygon fill="none" stroke="#000000" points="321,-1315.5 321,-1345.5 670,-1345.5 670,-1315.5 321,-1315.5"/>
<text text-anchor="start" x="328" y="-1326.9" font-family="Arial" font-size="14.00" fill="#000000">cnt_products    </text>
<text text-anchor="start" x="442.3422" y="-1326.9" font-family="Arial" font-size="14.00" fill="#666666">[integer]</text>
<polygon fill="none" stroke="#000000" points="321,-1285.5 321,-1315.5 670,-1315.5 670,-1285.5 321,-1285.5"/>
<text text-anchor="start" x="328" y="-1296.9" font-family="Arial" font-size="14.00" fill="#000000">sale    </text>
<text text-anchor="start" x="387.8766" y="-1296.9" font-family="Arial" font-size="14.00" fill="#666666">[boolean]</text>
<polygon fill="none" stroke="#000000" points="321,-1255.5 321,-1285.5 670,-1285.5 670,-1255.5 321,-1255.5"/>
<text text-anchor="start" x="328" y="-1266.9" font-family="Arial" font-size="14.00" fill="#000000">reject    </text>
<text text-anchor="start" x="396.4278" y="-1266.9" font-family="Arial" font-size="14.00" fill="#666666">[boolean]</text>
<polygon fill="none" stroke="#000000" points="321,-1225.5 321,-1255.5 670,-1255.5 670,-1225.5 321,-1225.5"/>
<text text-anchor="start" x="328" y="-1236.9" font-family="Arial" font-size="14.00" fill="#000000">reestr_id    </text>
<text text-anchor="start" x="416.6536" y="-1236.9" font-family="Arial" font-size="14.00" fill="#666666">[bigint]</text>
<polygon fill="none" stroke="#000000" points="321,-1195.5 321,-1225.5 670,-1225.5 670,-1195.5 321,-1195.5"/>
<text text-anchor="start" x="328" y="-1206.9" font-family="Arial" font-size="14.00" fill="#000000">type    </text>
<text text-anchor="start" x="388.6606" y="-1206.9" font-family="Arial" font-size="14.00" fill="#666666">[varchar(255)]</text>
<polygon fill="none" stroke="#000000" points="321,-1165.5 321,-1195.5 670,-1195.5 670,-1165.5 321,-1165.5"/>
<text text-anchor="start" x="328" y="-1176.9" font-family="Arial" font-size="14.00" fill="#000000">comment    </text>
<text text-anchor="start" x="419.7644" y="-1176.9" font-family="Arial" font-size="14.00" fill="#666666">[text]</text>
<polygon fill="none" stroke="#000000" points="321,-1135.5 321,-1165.5 670,-1165.5 670,-1135.5 321,-1135.5"/>
<text text-anchor="start" x="328" y="-1146.9" font-family="Arial" font-size="14.00" fill="#000000">is_first    </text>
<text text-anchor="start" x="402.6424" y="-1146.9" font-family="Arial" font-size="14.00" fill="#666666">[boolean]</text>
<polygon fill="none" stroke="#000000" points="321,-1105.5 321,-1135.5 670,-1135.5 670,-1105.5 321,-1105.5"/>
<text text-anchor="start" x="328" y="-1116.9" font-family="Arial" font-size="14.00" fill="#000000">days_since_first    </text>
<text text-anchor="start" x="462.5554" y="-1116.9" font-family="Arial" font-size="14.00" fill="#666666">[integer]</text>
<polygon fill="none" stroke="#000000" points="321,-1075.5 321,-1105.5 670,-1105.5 670,-1075.5 321,-1075.5"/>
<text text-anchor="start" x="328" y="-1086.9" font-family="Arial" font-size="14.00" fill="#000000">status    </text>
<text text-anchor="start" x="399.5512" y="-1086.9" font-family="Arial" font-size="14.00" fill="#666666">[varchar(255)]</text>
<polygon fill="none" stroke="#000000" points="321,-1045.5 321,-1075.5 670,-1075.5 670,-1045.5 321,-1045.5"/>
<text text-anchor="start" x="328" y="-1056.9" font-family="Arial" font-size="14.00" fill="#000000">status_cnt    </text>
<text text-anchor="start" x="426.007" y="-1056.9" font-family="Arial" font-size="14.00" fill="#666666">[integer]</text>
<polygon fill="none" stroke="#000000" points="321,-1015.5 321,-1045.5 670,-1045.5 670,-1015.5 321,-1015.5"/>
<text text-anchor="start" x="327.8717" y="-1026.9" font-family="Arial" font-size="14.00" fill="#000000">status_datetime    </text>
<text text-anchor="start" x="460.8843" y="-1026.9" font-family="Arial" font-size="14.00" fill="#666666">[timestamp(0) without time zone]</text>
<polygon fill="none" stroke="#000000" points="321,-985.5 321,-1015.5 670,-1015.5 670,-985.5 321,-985.5"/>
<text text-anchor="start" x="328" y="-996.9" font-family="Arial" font-size="14.00" fill="#000000">last_updated    </text>
<text text-anchor="start" x="442.3534" y="-996.9" font-family="Arial" font-size="14.00" fill="#666666">[timestamp(0) without time zone]</text>
<polygon fill="none" stroke="#000000" points="321,-955.5 321,-985.5 670,-985.5 670,-955.5 321,-955.5"/>
<text text-anchor="start" x="328" y="-966.9" font-family="Arial" font-size="14.00" fill="#000000">wholesale    </text>
<text text-anchor="start" x="424.4376" y="-966.9" font-family="Arial" font-size="14.00" fill="#666666">[boolean]</text>
<polygon fill="none" stroke="#000000" points="321,-925.5 321,-955.5 670,-955.5 670,-925.5 321,-925.5"/>
<text text-anchor="start" x="328" y="-936.9" font-family="Arial" font-size="14.00" fill="#000000">region    </text>
<text text-anchor="start" x="401.1024" y="-936.9" font-family="Arial" font-size="14.00" fill="#666666">[varchar(255)]</text>
<polygon fill="none" stroke="#000000" points="321,-895.5 321,-925.5 670,-925.5 670,-895.5 321,-895.5"/>
<text text-anchor="start" x="328" y="-906.9" font-family="Arial" font-size="14.00" fill="#000000">banned_fraud_id    </text>
<text text-anchor="start" x="467.2538" y="-906.9" font-family="Arial" font-size="14.00" fill="#666666">[bigint]</text>
<polygon fill="none" stroke="#000000" points="321,-865.5 321,-895.5 670,-895.5 670,-865.5 321,-865.5"/>
<text text-anchor="start" x="328" y="-876.9" font-family="Arial" font-size="14.00" fill="#000000">banned_link_id    </text>
<text text-anchor="start" x="456.3506" y="-876.9" font-family="Arial" font-size="14.00" fill="#666666">[bigint]</text>
<polygon fill="none" stroke="#000000" points="321,-835.5 321,-865.5 670,-865.5 670,-835.5 321,-835.5"/>
<text text-anchor="start" x="328" y="-846.9" font-family="Arial" font-size="14.00" fill="#000000">flag_create_or_update_by_manager    </text>
<text text-anchor="start" x="587.8428" y="-846.9" font-family="Arial" font-size="14.00" fill="#666666">[boolean]</text>
<polygon fill="none" stroke="#000000" points="321,-805.5 321,-835.5 670,-835.5 670,-805.5 321,-805.5"/>
<text text-anchor="start" x="328" y="-816.9" font-family="Arial" font-size="14.00" fill="#000000">in_finance_matching    </text>
<text text-anchor="start" x="490.575" y="-816.9" font-family="Arial" font-size="14.00" fill="#666666">[boolean]</text>
<polygon fill="none" stroke="#000000" points="321,-775.5 321,-805.5 670,-805.5 670,-775.5 321,-775.5"/>
<text text-anchor="start" x="328" y="-786.9" font-family="Arial" font-size="14.00" fill="#000000">date    </text>
<text text-anchor="start" x="389.4432" y="-786.9" font-family="Arial" font-size="14.00" fill="#666666">[date]</text>
<polygon fill="none" stroke="#000000" points="321,-745.5 321,-775.5 670,-775.5 670,-745.5 321,-745.5"/>
<text text-anchor="start" x="328" y="-756.9" font-family="Arial" font-size="14.00" fill="#000000">created_at    </text>
<text text-anchor="start" x="428.3422" y="-756.9" font-family="Arial" font-size="14.00" fill="#666666">[timestamp(0) without time zone]</text>
<polygon fill="none" stroke="#000000" points="321,-715.5 321,-745.5 670,-745.5 670,-715.5 321,-715.5"/>
<text text-anchor="start" x="328" y="-726.9" font-family="Arial" font-size="14.00" fill="#000000">updated_at    </text>
<text text-anchor="start" x="432.2468" y="-726.9" font-family="Arial" font-size="14.00" fill="#666666">[timestamp(0) without time zone]</text>
<polygon fill="none" stroke="#000000" points="321,-685.5 321,-715.5 670,-715.5 670,-685.5 321,-685.5"/>
<text text-anchor="start" x="328" y="-696.9" font-family="Arial" font-size="14.00" fill="#000000">deleted_at    </text>
<text text-anchor="start" x="427.5708" y="-696.9" font-family="Arial" font-size="14.00" fill="#666666">[timestamp(0) without time zone]</text>
<polygon fill="none" stroke="#000000" points="321,-655.5 321,-685.5 670,-685.5 670,-655.5 321,-655.5"/>
<text text-anchor="start" x="328" y="-666.9" font-family="Arial" font-size="14.00" fill="#000000">allowance    </text>
<text text-anchor="start" x="424.4376" y="-666.9" font-family="Arial" font-size="14.00" fill="#666666">[numeric(5,0)]</text>
<polygon fill="none" stroke="#000000" points="321,-625.5 321,-655.5 670,-655.5 670,-625.5 321,-625.5"/>
<text text-anchor="start" x="328" y="-636.9" font-family="Arial" font-size="14.00" fill="#000000">flag_hard_set_amount    </text>
<text text-anchor="start" x="501.4782" y="-636.9" font-family="Arial" font-size="14.00" fill="#666666">[boolean]</text>
<polygon fill="none" stroke="#000000" points="321,-595.5 321,-625.5 670,-625.5 670,-595.5 321,-595.5"/>
<text text-anchor="start" x="328" y="-606.9" font-family="Arial" font-size="14.00" fill="#000000">is_blocked    </text>
<text text-anchor="start" x="428.331" y="-606.9" font-family="Arial" font-size="14.00" fill="#666666">[boolean]</text>
</g>
<!-- public.orders&#45;&gt;public.banned_frauds -->
<g id="edge1" class="edge">
<title>public.orders:banned_fraud_id&#45;&gt;public.banned_frauds:id</title>
<path fill="none" stroke="#000000" d="M310.8599,-909.0061C213.2923,-879.4269 233.5491,-420.5 339,-420.5"/>
<polygon fill="#000000" stroke="#000000" points="311.1068,-909.0424 320.3441,-914.9519 316.0534,-909.7712 321,-910.5 321,-910.5 321,-910.5 316.0534,-909.7712 321.6559,-906.0481 311.1068,-909.0424 311.1068,-909.0424"/>
<text text-anchor="start" x="7.0835" y="-920.5" font-family="Arial" font-size="10.00" fill="#000000">FOREIGN KEY (banned_fraud_id) REFERENCES banned_frauds(id)</text>
</g>
</g>
</svg>
