<?xml version="1.0" encoding="UTF-8" standalone="no"?>
<!DOCTYPE svg PUBLIC "-//W3C//DTD SVG 1.1//EN"
 "http://www.w3.org/Graphics/SVG/1.1/DTD/svg11.dtd">
<!-- Generated by graphviz version 2.40.1 (20161225.0304)
 -->
<!-- Title: public.news Pages: 1 -->
<svg width="630pt" height="862pt"
 viewBox="0.00 0.00 630.00 862.00" xmlns="http://www.w3.org/2000/svg" xmlns:xlink="http://www.w3.org/1999/xlink">
<g id="graph0" class="graph" transform="scale(1 1) rotate(0) translate(4 858)">
<title>public.news</title>
<polygon fill="#ffffff" stroke="transparent" points="-4,4 -4,-858 626,-858 626,4 -4,4"/>
<!-- public.news -->
<g id="node1" class="node">
<title>public.news</title>
<polygon fill="#efefef" stroke="transparent" points="46,-495.5 46,-530.5 404,-530.5 404,-495.5 46,-495.5"/>
<polygon fill="none" stroke="#000000" points="46,-495.5 46,-530.5 404,-530.5 404,-495.5 46,-495.5"/>
<text text-anchor="start" x="114.2081" y="-508.3" font-family="Arial Bold" font-size="18.00" fill="#000000">public.news</text>
<text text-anchor="start" x="208.2239" y="-508.3" font-family="Arial" font-size="14.00" fill="#000000">    </text>
<text text-anchor="start" x="242.4287" y="-508.3" font-family="Arial" font-size="14.00" fill="#666666">[BASE TABLE]</text>
<polygon fill="none" stroke="#000000" points="46,-465.5 46,-495.5 404,-495.5 404,-465.5 46,-465.5"/>
<text text-anchor="start" x="53" y="-476.9" font-family="Arial" font-size="14.00" fill="#000000">id </text>
<text text-anchor="start" x="67.7798" y="-476.9" font-family="Arial" font-size="14.00" fill="#666666">[bigint]</text>
<polygon fill="none" stroke="#000000" points="46,-435.5 46,-465.5 404,-465.5 404,-435.5 46,-435.5"/>
<text text-anchor="start" x="53" y="-446.9" font-family="Arial" font-size="14.00" fill="#000000">news_title </text>
<text text-anchor="start" x="119.122" y="-446.9" font-family="Arial" font-size="14.00" fill="#666666">[varchar(255)]</text>
<polygon fill="none" stroke="#000000" points="46,-405.5 46,-435.5 404,-435.5 404,-405.5 46,-405.5"/>
<text text-anchor="start" x="53" y="-416.9" font-family="Arial" font-size="14.00" fill="#000000">news_text </text>
<text text-anchor="start" x="119.9088" y="-416.9" font-family="Arial" font-size="14.00" fill="#666666">[text]</text>
<polygon fill="none" stroke="#000000" points="46,-375.5 46,-405.5 404,-405.5 404,-375.5 46,-375.5"/>
<text text-anchor="start" x="53" y="-386.9" font-family="Arial" font-size="14.00" fill="#000000">type </text>
<text text-anchor="start" x="83.3464" y="-386.9" font-family="Arial" font-size="14.00" fill="#666666">[varchar(255)]</text>
<polygon fill="none" stroke="#000000" points="46,-345.5 46,-375.5 404,-375.5 404,-345.5 46,-345.5"/>
<text text-anchor="start" x="53" y="-356.9" font-family="Arial" font-size="14.00" fill="#000000">letter_style </text>
<text text-anchor="start" x="124.5666" y="-356.9" font-family="Arial" font-size="14.00" fill="#666666">[varchar(255)]</text>
<polygon fill="none" stroke="#000000" points="46,-315.5 46,-345.5 404,-345.5 404,-315.5 46,-315.5"/>
<text text-anchor="start" x="53" y="-326.9" font-family="Arial" font-size="14.00" fill="#000000">send_to </text>
<text text-anchor="start" x="106.6942" y="-326.9" font-family="Arial" font-size="14.00" fill="#666666">[varchar(255)]</text>
<polygon fill="none" stroke="#000000" points="46,-285.5 46,-315.5 404,-315.5 404,-285.5 46,-285.5"/>
<text text-anchor="start" x="53" y="-296.9" font-family="Arial" font-size="14.00" fill="#000000">send_to_value </text>
<text text-anchor="start" x="147.9312" y="-296.9" font-family="Arial" font-size="14.00" fill="#666666">[text]</text>
<polygon fill="none" stroke="#000000" points="46,-255.5 46,-285.5 404,-285.5 404,-255.5 46,-255.5"/>
<text text-anchor="start" x="53" y="-266.9" font-family="Arial" font-size="14.00" fill="#000000">is_fixed </text>
<text text-anchor="start" x="104.3422" y="-266.9" font-family="Arial" font-size="14.00" fill="#666666">[boolean]</text>
<polygon fill="none" stroke="#000000" points="46,-225.5 46,-255.5 404,-255.5 404,-225.5 46,-225.5"/>
<text text-anchor="start" x="53" y="-236.9" font-family="Arial" font-size="14.00" fill="#000000">stop_send </text>
<text text-anchor="start" x="121.4768" y="-236.9" font-family="Arial" font-size="14.00" fill="#666666">[boolean]</text>
<polygon fill="none" stroke="#000000" points="46,-195.5 46,-225.5 404,-225.5 404,-195.5 46,-195.5"/>
<text text-anchor="start" x="52.681" y="-206.9" font-family="Arial" font-size="14.00" fill="#000000">date_of_start_sending </text>
<text text-anchor="start" x="195.075" y="-206.9" font-family="Arial" font-size="14.00" fill="#666666">[timestamp(0) without time zone]</text>
<polygon fill="none" stroke="#000000" points="46,-165.5 46,-195.5 404,-195.5 404,-165.5 46,-165.5"/>
<text text-anchor="start" x="53" y="-176.9" font-family="Arial" font-size="14.00" fill="#000000">deleted_at </text>
<text text-anchor="start" x="122.2566" y="-176.9" font-family="Arial" font-size="14.00" fill="#666666">[timestamp(0) without time zone]</text>
<polygon fill="none" stroke="#000000" points="46,-135.5 46,-165.5 404,-165.5 404,-135.5 46,-135.5"/>
<text text-anchor="start" x="53" y="-146.9" font-family="Arial" font-size="14.00" fill="#000000">created_at </text>
<text text-anchor="start" x="123.028" y="-146.9" font-family="Arial" font-size="14.00" fill="#666666">[timestamp(0) without time zone]</text>
<polygon fill="none" stroke="#000000" points="46,-105.5 46,-135.5 404,-135.5 404,-105.5 46,-105.5"/>
<text text-anchor="start" x="53" y="-116.9" font-family="Arial" font-size="14.00" fill="#000000">updated_at </text>
<text text-anchor="start" x="126.9326" y="-116.9" font-family="Arial" font-size="14.00" fill="#666666">[timestamp(0) without time zone]</text>
<polygon fill="none" stroke="#000000" points="46,-75.5 46,-105.5 404,-105.5 404,-75.5 46,-75.5"/>
<text text-anchor="start" x="53" y="-86.9" font-family="Arial" font-size="14.00" fill="#000000">manual </text>
<text text-anchor="start" x="102.7882" y="-86.9" font-family="Arial" font-size="14.00" fill="#666666">[boolean]</text>
<polygon fill="none" stroke="#000000" points="46,-45.5 46,-75.5 404,-75.5 404,-45.5 46,-45.5"/>
<text text-anchor="start" x="53" y="-56.9" font-family="Arial" font-size="14.00" fill="#000000">trigger_id </text>
<text text-anchor="start" x="115.2286" y="-56.9" font-family="Arial" font-size="14.00" fill="#666666">[integer]</text>
<polygon fill="none" stroke="#000000" stroke-width="3" points="44.5,-44.5 44.5,-532.5 405.5,-532.5 405.5,-44.5 44.5,-44.5"/>
</g>
<!-- public.news_users -->
<g id="node2" class="node">
<title>public.news_users</title>
<polygon fill="#efefef" stroke="transparent" points="67,-775.5 67,-810.5 382,-810.5 382,-775.5 67,-775.5"/>
<polygon fill="none" stroke="#000000" points="67,-775.5 67,-810.5 382,-810.5 382,-775.5 67,-775.5"/>
<text text-anchor="start" x="86.7027" y="-788.3" font-family="Arial Bold" font-size="18.00" fill="#000000">public.news_users</text>
<text text-anchor="start" x="234.7293" y="-788.3" font-family="Arial" font-size="14.00" fill="#000000">    </text>
<text text-anchor="start" x="268.9341" y="-788.3" font-family="Arial" font-size="14.00" fill="#666666">[BASE TABLE]</text>
<polygon fill="none" stroke="#000000" points="67,-745.5 67,-775.5 382,-775.5 382,-745.5 67,-745.5"/>
<text text-anchor="start" x="74" y="-756.9" font-family="Arial" font-size="14.00" fill="#000000">news_id    </text>
<text text-anchor="start" x="159.5484" y="-756.9" font-family="Arial" font-size="14.00" fill="#666666">[bigint]</text>
<polygon fill="none" stroke="#000000" points="67,-715.5 67,-745.5 382,-745.5 382,-715.5 67,-715.5"/>
<text text-anchor="start" x="74" y="-726.9" font-family="Arial" font-size="14.00" fill="#000000">user_id    </text>
<text text-anchor="start" x="154.1024" y="-726.9" font-family="Arial" font-size="14.00" fill="#666666">[bigint]</text>
<polygon fill="none" stroke="#000000" points="67,-685.5 67,-715.5 382,-715.5 382,-685.5 67,-685.5"/>
<text text-anchor="start" x="74" y="-696.9" font-family="Arial" font-size="14.00" fill="#000000">readed_at    </text>
<text text-anchor="start" x="171.2342" y="-696.9" font-family="Arial" font-size="14.00" fill="#666666">[timestamp(0) without time zone]</text>
<polygon fill="none" stroke="#000000" points="67,-655.5 67,-685.5 382,-685.5 382,-655.5 67,-655.5"/>
<text text-anchor="start" x="73.5912" y="-666.9" font-family="Arial" font-size="14.00" fill="#000000">sended_at    </text>
<text text-anchor="start" x="173.1648" y="-666.9" font-family="Arial" font-size="14.00" fill="#666666">[timestamp(0) without time zone]</text>
</g>
<!-- public.news_users&#45;&gt;public.news -->
<g id="edge1" class="edge">
<title>public.news_users:news_id&#45;&gt;public.news:id</title>
<path fill="none" stroke="#000000" d="M391.9826,-759.6384C445.1118,-749.8499 423.4199,-659.0948 382,-613 331.8086,-557.1437 96.1914,-632.8563 46,-577 17.3339,-545.0984 3.1111,-480.5 46,-480.5"/>
<polygon fill="#000000" stroke="#000000" points="391.963,-759.64 381.613,-756.0167 386.9815,-760.07 382,-760.5 382,-760.5 382,-760.5 386.9815,-760.07 382.387,-764.9833 391.963,-759.64 391.963,-759.64"/>
<text text-anchor="start" x="388.9445" y="-770.5" font-family="Arial" font-size="10.00" fill="#000000">FOREIGN KEY (news_id) REFERENCES news(id)</text>
</g>
</g>
</svg>
