<?xml version="1.0" encoding="UTF-8" standalone="no"?>
<!DOCTYPE svg PUBLIC "-//W3C//DTD SVG 1.1//EN"
 "http://www.w3.org/Graphics/SVG/1.1/DTD/svg11.dtd">
<!-- Generated by graphviz version 2.40.1 (20161225.0304)
 -->
<!-- Title: public.banned_links Pages: 1 -->
<svg width="866pt" height="2909pt"
 viewBox="0.00 0.00 866.00 2909.00" xmlns="http://www.w3.org/2000/svg" xmlns:xlink="http://www.w3.org/1999/xlink">
<g id="graph0" class="graph" transform="scale(1 1) rotate(0) translate(4 2905)">
<title>public.banned_links</title>
<polygon fill="#ffffff" stroke="transparent" points="-4,4 -4,-2905 862,-2905 862,4 -4,4"/>
<!-- public.banned_links -->
<g id="node1" class="node">
<title>public.banned_links</title>
<polygon fill="#efefef" stroke="transparent" points="331,-1102.5 331,-1137.5 630,-1137.5 630,-1102.5 331,-1102.5"/>
<polygon fill="none" stroke="#000000" points="331,-1102.5 331,-1137.5 630,-1137.5 630,-1102.5 331,-1102.5"/>
<text text-anchor="start" x="337.6924" y="-1115.3" font-family="Arial Bold" font-size="18.00" fill="#000000">public.banned_links</text>
<text text-anchor="start" x="495.7396" y="-1115.3" font-family="Arial" font-size="14.00" fill="#000000">    </text>
<text text-anchor="start" x="529.9444" y="-1115.3" font-family="Arial" font-size="14.00" fill="#666666">[BASE TABLE]</text>
<polygon fill="none" stroke="#000000" points="331,-1072.5 331,-1102.5 630,-1102.5 630,-1072.5 331,-1072.5"/>
<text text-anchor="start" x="338" y="-1083.9" font-family="Arial" font-size="14.00" fill="#000000">id </text>
<text text-anchor="start" x="352.7798" y="-1083.9" font-family="Arial" font-size="14.00" fill="#666666">[bigint]</text>
<polygon fill="none" stroke="#000000" points="331,-1042.5 331,-1072.5 630,-1072.5 630,-1042.5 331,-1042.5"/>
<text text-anchor="start" x="338" y="-1053.9" font-family="Arial" font-size="14.00" fill="#000000">link_id </text>
<text text-anchor="start" x="381.5582" y="-1053.9" font-family="Arial" font-size="14.00" fill="#666666">[bigint]</text>
<polygon fill="none" stroke="#000000" points="331,-1012.5 331,-1042.5 630,-1042.5 630,-1012.5 331,-1012.5"/>
<text text-anchor="start" x="338" y="-1023.9" font-family="Arial" font-size="14.00" fill="#000000">web_id </text>
<text text-anchor="start" x="386.2342" y="-1023.9" font-family="Arial" font-size="14.00" fill="#666666">[varchar(255)]</text>
<polygon fill="none" stroke="#000000" points="331,-982.5 331,-1012.5 630,-1012.5 630,-982.5 331,-982.5"/>
<text text-anchor="start" x="338" y="-993.9" font-family="Arial" font-size="14.00" fill="#000000">date_start </text>
<text text-anchor="start" x="404.136" y="-993.9" font-family="Arial" font-size="14.00" fill="#666666">[timestamp(0) without time zone]</text>
<polygon fill="none" stroke="#000000" points="331,-952.5 331,-982.5 630,-982.5 630,-952.5 331,-952.5"/>
<text text-anchor="start" x="338" y="-963.9" font-family="Arial" font-size="14.00" fill="#000000">date_end </text>
<text text-anchor="start" x="400.2594" y="-963.9" font-family="Arial" font-size="14.00" fill="#666666">[timestamp(0) without time zone]</text>
<polygon fill="none" stroke="#000000" points="331,-922.5 331,-952.5 630,-952.5 630,-922.5 331,-922.5"/>
<text text-anchor="start" x="338" y="-933.9" font-family="Arial" font-size="14.00" fill="#000000">comment </text>
<text text-anchor="start" x="399.4502" y="-933.9" font-family="Arial" font-size="14.00" fill="#666666">[text]</text>
<polygon fill="none" stroke="#000000" points="331,-892.5 331,-922.5 630,-922.5 630,-892.5 331,-892.5"/>
<text text-anchor="start" x="338" y="-903.9" font-family="Arial" font-size="14.00" fill="#000000">evidence </text>
<text text-anchor="start" x="397.9102" y="-903.9" font-family="Arial" font-size="14.00" fill="#666666">[text]</text>
<polygon fill="none" stroke="#000000" points="331,-862.5 331,-892.5 630,-892.5 630,-862.5 331,-862.5"/>
<text text-anchor="start" x="338" y="-873.9" font-family="Arial" font-size="14.00" fill="#000000">evidence_file </text>
<text text-anchor="start" x="423.5792" y="-873.9" font-family="Arial" font-size="14.00" fill="#666666">[varchar(255)]</text>
<polygon fill="none" stroke="#000000" points="331,-832.5 331,-862.5 630,-862.5 630,-832.5 331,-832.5"/>
<text text-anchor="start" x="338" y="-843.9" font-family="Arial" font-size="14.00" fill="#000000">created_at </text>
<text text-anchor="start" x="408.028" y="-843.9" font-family="Arial" font-size="14.00" fill="#666666">[timestamp(0) without time zone]</text>
<polygon fill="none" stroke="#000000" points="331,-802.5 331,-832.5 630,-832.5 630,-802.5 331,-802.5"/>
<text text-anchor="start" x="338" y="-813.9" font-family="Arial" font-size="14.00" fill="#000000">updated_at </text>
<text text-anchor="start" x="411.9326" y="-813.9" font-family="Arial" font-size="14.00" fill="#666666">[timestamp(0) without time zone]</text>
<polygon fill="none" stroke="#000000" points="331,-772.5 331,-802.5 630,-802.5 630,-772.5 331,-772.5"/>
<text text-anchor="start" x="338" y="-783.9" font-family="Arial" font-size="14.00" fill="#000000">deleted_at </text>
<text text-anchor="start" x="407.2566" y="-783.9" font-family="Arial" font-size="14.00" fill="#666666">[timestamp(0) without time zone]</text>
<polygon fill="none" stroke="#000000" stroke-width="3" points="329,-771.5 329,-1139.5 631,-1139.5 631,-771.5 329,-771.5"/>
</g>
<!-- public.links -->
<g id="node3" class="node">
<title>public.links</title>
<polygon fill="#efefef" stroke="transparent" points="321,-612.5 321,-647.5 641,-647.5 641,-612.5 321,-612.5"/>
<polygon fill="none" stroke="#000000" points="321,-612.5 321,-647.5 641,-647.5 641,-612.5 321,-612.5"/>
<text text-anchor="start" x="373.2141" y="-625.3" font-family="Arial Bold" font-size="18.00" fill="#000000">public.links</text>
<text text-anchor="start" x="461.2179" y="-625.3" font-family="Arial" font-size="14.00" fill="#000000">    </text>
<text text-anchor="start" x="495.4227" y="-625.3" font-family="Arial" font-size="14.00" fill="#666666">[BASE TABLE]</text>
<polygon fill="none" stroke="#000000" points="321,-582.5 321,-612.5 641,-612.5 641,-582.5 321,-582.5"/>
<text text-anchor="start" x="328" y="-593.9" font-family="Arial" font-size="14.00" fill="#000000">id    </text>
<text text-anchor="start" x="373.094" y="-593.9" font-family="Arial" font-size="14.00" fill="#666666">[bigint]</text>
<polygon fill="none" stroke="#000000" points="321,-552.5 321,-582.5 641,-582.5 641,-552.5 321,-552.5"/>
<text text-anchor="start" x="328" y="-563.9" font-family="Arial" font-size="14.00" fill="#000000">partner_id    </text>
<text text-anchor="start" x="425.2188" y="-563.9" font-family="Arial" font-size="14.00" fill="#666666">[bigint]</text>
<polygon fill="none" stroke="#000000" points="321,-522.5 321,-552.5 641,-552.5 641,-522.5 321,-522.5"/>
<text text-anchor="start" x="328" y="-533.9" font-family="Arial" font-size="14.00" fill="#000000">link_name    </text>
<text text-anchor="start" x="425.9916" y="-533.9" font-family="Arial" font-size="14.00" fill="#666666">[varchar(255)]</text>
<polygon fill="none" stroke="#000000" points="321,-492.5 321,-522.5 641,-522.5 641,-492.5 321,-492.5"/>
<text text-anchor="start" x="328" y="-503.9" font-family="Arial" font-size="14.00" fill="#000000">link    </text>
<text text-anchor="start" x="383.2006" y="-503.9" font-family="Arial" font-size="14.00" fill="#666666">[varchar(1024)]</text>
<polygon fill="none" stroke="#000000" points="321,-462.5 321,-492.5 641,-492.5 641,-462.5 321,-462.5"/>
<text text-anchor="start" x="328" y="-473.9" font-family="Arial" font-size="14.00" fill="#000000">short_link    </text>
<text text-anchor="start" x="422.0996" y="-473.9" font-family="Arial" font-size="14.00" fill="#666666">[varchar(1024)]</text>
<polygon fill="none" stroke="#000000" points="321,-432.5 321,-462.5 641,-462.5 641,-432.5 321,-432.5"/>
<text text-anchor="start" x="328" y="-443.9" font-family="Arial" font-size="14.00" fill="#000000">short_link_id    </text>
<text text-anchor="start" x="440.7714" y="-443.9" font-family="Arial" font-size="14.00" fill="#666666">[bigint]</text>
<polygon fill="none" stroke="#000000" points="321,-402.5 321,-432.5 641,-432.5 641,-402.5 321,-402.5"/>
<text text-anchor="start" x="328" y="-413.9" font-family="Arial" font-size="14.00" fill="#000000">link_source    </text>
<text text-anchor="start" x="432.9916" y="-413.9" font-family="Arial" font-size="14.00" fill="#666666">[bigint]</text>
<polygon fill="none" stroke="#000000" points="321,-372.5 321,-402.5 641,-402.5 641,-372.5 321,-372.5"/>
<text text-anchor="start" x="328" y="-383.9" font-family="Arial" font-size="14.00" fill="#000000">offer_id    </text>
<text text-anchor="start" x="408.8836" y="-383.9" font-family="Arial" font-size="14.00" fill="#666666">[bigint]</text>
<polygon fill="none" stroke="#000000" points="321,-342.5 321,-372.5 641,-372.5 641,-342.5 321,-342.5"/>
<text text-anchor="start" x="328" y="-353.9" font-family="Arial" font-size="14.00" fill="#000000">area_id    </text>
<text text-anchor="start" x="408.885" y="-353.9" font-family="Arial" font-size="14.00" fill="#666666">[bigint]</text>
<polygon fill="none" stroke="#000000" points="321,-312.5 321,-342.5 641,-342.5 641,-312.5 321,-312.5"/>
<text text-anchor="start" x="328" y="-323.9" font-family="Arial" font-size="14.00" fill="#000000">country_id    </text>
<text text-anchor="start" x="426.7756" y="-323.9" font-family="Arial" font-size="14.00" fill="#666666">[bigint]</text>
<polygon fill="none" stroke="#000000" points="321,-282.5 321,-312.5 641,-312.5 641,-282.5 321,-282.5"/>
<text text-anchor="start" x="328" y="-293.9" font-family="Arial" font-size="14.00" fill="#000000">landing_id    </text>
<text text-anchor="start" x="426.0028" y="-293.9" font-family="Arial" font-size="14.00" fill="#666666">[bigint]</text>
<polygon fill="none" stroke="#000000" points="321,-252.5 321,-282.5 641,-282.5 641,-252.5 321,-252.5"/>
<text text-anchor="start" x="328" y="-263.9" font-family="Arial" font-size="14.00" fill="#000000">has_macros    </text>
<text text-anchor="start" x="438.439" y="-263.9" font-family="Arial" font-size="14.00" fill="#666666">[boolean]</text>
<polygon fill="none" stroke="#000000" points="321,-222.5 321,-252.5 641,-252.5 641,-222.5 321,-222.5"/>
<text text-anchor="start" x="328" y="-233.9" font-family="Arial" font-size="14.00" fill="#000000">status    </text>
<text text-anchor="start" x="399.5512" y="-233.9" font-family="Arial" font-size="14.00" fill="#666666">[varchar(255)]</text>
<polygon fill="none" stroke="#000000" points="321,-192.5 321,-222.5 641,-222.5 641,-192.5 321,-192.5"/>
<text text-anchor="start" x="328" y="-203.9" font-family="Arial" font-size="14.00" fill="#000000">ord_token    </text>
<text text-anchor="start" x="424.4516" y="-203.9" font-family="Arial" font-size="14.00" fill="#666666">[varchar(255)]</text>
<polygon fill="none" stroke="#000000" points="321,-162.5 321,-192.5 641,-192.5 641,-162.5 321,-162.5"/>
<text text-anchor="start" x="328" y="-173.9" font-family="Arial" font-size="14.00" fill="#000000">created_at    </text>
<text text-anchor="start" x="428.3422" y="-173.9" font-family="Arial" font-size="14.00" fill="#666666">[timestamp(0) without time zone]</text>
<polygon fill="none" stroke="#000000" points="321,-132.5 321,-162.5 641,-162.5 641,-132.5 321,-132.5"/>
<text text-anchor="start" x="327.7546" y="-143.9" font-family="Arial" font-size="14.00" fill="#000000">updated_at    </text>
<text text-anchor="start" x="432.0014" y="-143.9" font-family="Arial" font-size="14.00" fill="#666666">[timestamp(0) without time zone]</text>
<polygon fill="none" stroke="#000000" points="321,-102.5 321,-132.5 641,-132.5 641,-102.5 321,-102.5"/>
<text text-anchor="start" x="328" y="-113.9" font-family="Arial" font-size="14.00" fill="#000000">advertiser_type    </text>
<text text-anchor="start" x="457.892" y="-113.9" font-family="Arial" font-size="14.00" fill="#666666">[varchar(255)]</text>
<polygon fill="none" stroke="#000000" points="321,-72.5 321,-102.5 641,-102.5 641,-72.5 321,-72.5"/>
<text text-anchor="start" x="328" y="-83.9" font-family="Arial" font-size="14.00" fill="#000000">need_token    </text>
<text text-anchor="start" x="435.3562" y="-83.9" font-family="Arial" font-size="14.00" fill="#666666">[boolean]</text>
<polygon fill="none" stroke="#000000" points="321,-42.5 321,-72.5 641,-72.5 641,-42.5 321,-42.5"/>
<text text-anchor="start" x="328" y="-53.9" font-family="Arial" font-size="14.00" fill="#000000">offer_material_id    </text>
<text text-anchor="start" x="466.439" y="-53.9" font-family="Arial" font-size="14.00" fill="#666666">[bigint]</text>
</g>
<!-- public.banned_links&#45;&gt;public.links -->
<g id="edge2" class="edge">
<title>public.banned_links:link_id&#45;&gt;public.links:id</title>
<path fill="none" stroke="#000000" d="M640.0069,-1057.1404C774.5552,-1047.2116 725.3824,-834.1401 630,-727 538.0646,-623.7318 412.9354,-794.2682 321,-691 293.3682,-659.9621 279.4444,-597.5 321,-597.5"/>
<polygon fill="#000000" stroke="#000000" points="639.9936,-1057.1408 629.8384,-1053.0029 634.9968,-1057.3204 630,-1057.5 630,-1057.5 630,-1057.5 634.9968,-1057.3204 630.1616,-1061.9971 639.9936,-1057.1408 639.9936,-1057.1408"/>
<text text-anchor="start" x="636.7845" y="-1067.5" font-family="Arial" font-size="10.00" fill="#000000">FOREIGN KEY (link_id) REFERENCES links(id)</text>
</g>
<!-- public.orders -->
<g id="node2" class="node">
<title>public.orders</title>
<polygon fill="#efefef" stroke="transparent" points="306,-2822.5 306,-2857.5 655,-2857.5 655,-2822.5 306,-2822.5"/>
<polygon fill="none" stroke="#000000" points="306,-2822.5 306,-2857.5 655,-2857.5 655,-2822.5 306,-2822.5"/>
<text text-anchor="start" x="365.2099" y="-2835.3" font-family="Arial Bold" font-size="18.00" fill="#000000">public.orders</text>
<text text-anchor="start" x="468.2221" y="-2835.3" font-family="Arial" font-size="14.00" fill="#000000">    </text>
<text text-anchor="start" x="502.4269" y="-2835.3" font-family="Arial" font-size="14.00" fill="#666666">[BASE TABLE]</text>
<polygon fill="none" stroke="#000000" points="306,-2792.5 306,-2822.5 655,-2822.5 655,-2792.5 306,-2792.5"/>
<text text-anchor="start" x="313" y="-2803.9" font-family="Arial" font-size="14.00" fill="#000000">id    </text>
<text text-anchor="start" x="358.094" y="-2803.9" font-family="Arial" font-size="14.00" fill="#666666">[bigint]</text>
<polygon fill="none" stroke="#000000" points="306,-2762.5 306,-2792.5 655,-2792.5 655,-2762.5 306,-2762.5"/>
<text text-anchor="start" x="313" y="-2773.9" font-family="Arial" font-size="14.00" fill="#000000">order_id    </text>
<text text-anchor="start" x="398.5456" y="-2773.9" font-family="Arial" font-size="14.00" fill="#666666">[varchar(255)]</text>
<polygon fill="none" stroke="#000000" points="306,-2732.5 306,-2762.5 655,-2762.5 655,-2732.5 306,-2732.5"/>
<text text-anchor="start" x="313" y="-2743.9" font-family="Arial" font-size="14.00" fill="#000000">offer_id    </text>
<text text-anchor="start" x="393.8836" y="-2743.9" font-family="Arial" font-size="14.00" fill="#666666">[bigint]</text>
<polygon fill="none" stroke="#000000" points="306,-2702.5 306,-2732.5 655,-2732.5 655,-2702.5 306,-2702.5"/>
<text text-anchor="start" x="313" y="-2713.9" font-family="Arial" font-size="14.00" fill="#000000">datetime    </text>
<text text-anchor="start" x="400.8836" y="-2713.9" font-family="Arial" font-size="14.00" fill="#666666">[timestamp(0) without time zone]</text>
<polygon fill="none" stroke="#000000" points="306,-2672.5 306,-2702.5 655,-2702.5 655,-2672.5 306,-2672.5"/>
<text text-anchor="start" x="313" y="-2683.9" font-family="Arial" font-size="14.00" fill="#000000">datetime_sale    </text>
<text text-anchor="start" x="434.338" y="-2683.9" font-family="Arial" font-size="14.00" fill="#666666">[timestamp(0) without time zone]</text>
<polygon fill="none" stroke="#000000" points="306,-2642.5 306,-2672.5 655,-2672.5 655,-2642.5 306,-2642.5"/>
<text text-anchor="start" x="313" y="-2653.9" font-family="Arial" font-size="14.00" fill="#000000">partner_id    </text>
<text text-anchor="start" x="410.2188" y="-2653.9" font-family="Arial" font-size="14.00" fill="#666666">[bigint]</text>
<polygon fill="none" stroke="#000000" points="306,-2612.5 306,-2642.5 655,-2642.5 655,-2612.5 306,-2612.5"/>
<text text-anchor="start" x="313" y="-2623.9" font-family="Arial" font-size="14.00" fill="#000000">candidate_job    </text>
<text text-anchor="start" x="434.352" y="-2623.9" font-family="Arial" font-size="14.00" fill="#666666">[text]</text>
<polygon fill="none" stroke="#000000" points="306,-2582.5 306,-2612.5 655,-2612.5 655,-2582.5 306,-2582.5"/>
<text text-anchor="start" x="313" y="-2593.9" font-family="Arial" font-size="14.00" fill="#000000">candidate_city    </text>
<text text-anchor="start" x="436.6774" y="-2593.9" font-family="Arial" font-size="14.00" fill="#666666">[text]</text>
<polygon fill="none" stroke="#000000" points="306,-2552.5 306,-2582.5 655,-2582.5 655,-2552.5 306,-2552.5"/>
<text text-anchor="start" x="313" y="-2563.9" font-family="Arial" font-size="14.00" fill="#000000">candidate_phone    </text>
<text text-anchor="start" x="454.5932" y="-2563.9" font-family="Arial" font-size="14.00" fill="#666666">[text]</text>
<polygon fill="none" stroke="#000000" points="306,-2522.5 306,-2552.5 655,-2552.5 655,-2522.5 306,-2522.5"/>
<text text-anchor="start" x="313" y="-2533.9" font-family="Arial" font-size="14.00" fill="#000000">candidate_name    </text>
<text text-anchor="start" x="450.6886" y="-2533.9" font-family="Arial" font-size="14.00" fill="#666666">[text]</text>
<polygon fill="none" stroke="#000000" points="306,-2492.5 306,-2522.5 655,-2522.5 655,-2492.5 306,-2492.5"/>
<text text-anchor="start" x="313" y="-2503.9" font-family="Arial" font-size="14.00" fill="#000000">category_id    </text>
<text text-anchor="start" x="419.5582" y="-2503.9" font-family="Arial" font-size="14.00" fill="#666666">[bigint]</text>
<polygon fill="none" stroke="#000000" points="306,-2462.5 306,-2492.5 655,-2492.5 655,-2462.5 306,-2462.5"/>
<text text-anchor="start" x="313" y="-2473.9" font-family="Arial" font-size="14.00" fill="#000000">landing_id    </text>
<text text-anchor="start" x="411.0028" y="-2473.9" font-family="Arial" font-size="14.00" fill="#666666">[bigint]</text>
<polygon fill="none" stroke="#000000" points="306,-2432.5 306,-2462.5 655,-2462.5 655,-2432.5 306,-2432.5"/>
<text text-anchor="start" x="313" y="-2443.9" font-family="Arial" font-size="14.00" fill="#000000">offer_materials_id    </text>
<text text-anchor="start" x="458.439" y="-2443.9" font-family="Arial" font-size="14.00" fill="#666666">[bigint]</text>
<polygon fill="none" stroke="#000000" points="306,-2402.5 306,-2432.5 655,-2432.5 655,-2402.5 306,-2402.5"/>
<text text-anchor="start" x="313" y="-2413.9" font-family="Arial" font-size="14.00" fill="#000000">link_id    </text>
<text text-anchor="start" x="386.8724" y="-2413.9" font-family="Arial" font-size="14.00" fill="#666666">[bigint]</text>
<polygon fill="none" stroke="#000000" points="306,-2372.5 306,-2402.5 655,-2402.5 655,-2372.5 306,-2372.5"/>
<text text-anchor="start" x="313" y="-2383.9" font-family="Arial" font-size="14.00" fill="#000000">promocode_id    </text>
<text text-anchor="start" x="435.8934" y="-2383.9" font-family="Arial" font-size="14.00" fill="#666666">[bigint]</text>
<polygon fill="none" stroke="#000000" points="306,-2342.5 306,-2372.5 655,-2372.5 655,-2342.5 306,-2342.5"/>
<text text-anchor="start" x="313" y="-2353.9" font-family="Arial" font-size="14.00" fill="#000000">click_id    </text>
<text text-anchor="start" x="393.0898" y="-2353.9" font-family="Arial" font-size="14.00" fill="#666666">[varchar(255)]</text>
<polygon fill="none" stroke="#000000" points="306,-2312.5 306,-2342.5 655,-2342.5 655,-2312.5 306,-2312.5"/>
<text text-anchor="start" x="313" y="-2323.9" font-family="Arial" font-size="14.00" fill="#000000">web_id    </text>
<text text-anchor="start" x="391.5484" y="-2323.9" font-family="Arial" font-size="14.00" fill="#666666">[varchar(255)]</text>
<polygon fill="none" stroke="#000000" points="306,-2282.5 306,-2312.5 655,-2312.5 655,-2282.5 306,-2282.5"/>
<text text-anchor="start" x="313" y="-2293.9" font-family="Arial" font-size="14.00" fill="#000000">client_id    </text>
<text text-anchor="start" x="398.5456" y="-2293.9" font-family="Arial" font-size="14.00" fill="#666666">[varchar(255)]</text>
<polygon fill="none" stroke="#000000" points="306,-2252.5 306,-2282.5 655,-2282.5 655,-2252.5 306,-2252.5"/>
<text text-anchor="start" x="313" y="-2263.9" font-family="Arial" font-size="14.00" fill="#000000">pixel_id    </text>
<text text-anchor="start" x="394.655" y="-2263.9" font-family="Arial" font-size="14.00" fill="#666666">[bigint]</text>
<polygon fill="none" stroke="#000000" points="306,-2222.5 306,-2252.5 655,-2252.5 655,-2222.5 306,-2222.5"/>
<text text-anchor="start" x="313" y="-2233.9" font-family="Arial" font-size="14.00" fill="#000000">business_unit_id    </text>
<text text-anchor="start" x="451.4586" y="-2233.9" font-family="Arial" font-size="14.00" fill="#666666">[bigint]</text>
<polygon fill="none" stroke="#000000" points="306,-2192.5 306,-2222.5 655,-2222.5 655,-2192.5 306,-2192.5"/>
<text text-anchor="start" x="313" y="-2203.9" font-family="Arial" font-size="14.00" fill="#000000">fee    </text>
<text text-anchor="start" x="366.6606" y="-2203.9" font-family="Arial" font-size="14.00" fill="#666666">[numeric(12,2)]</text>
<polygon fill="none" stroke="#000000" points="306,-2162.5 306,-2192.5 655,-2192.5 655,-2162.5 306,-2162.5"/>
<text text-anchor="start" x="313" y="-2173.9" font-family="Arial" font-size="14.00" fill="#000000">fee_id    </text>
<text text-anchor="start" x="385.3324" y="-2173.9" font-family="Arial" font-size="14.00" fill="#666666">[bigint]</text>
<polygon fill="none" stroke="#000000" points="306,-2132.5 306,-2162.5 655,-2162.5 655,-2132.5 306,-2132.5"/>
<text text-anchor="start" x="313" y="-2143.9" font-family="Arial" font-size="14.00" fill="#000000">fee_advert    </text>
<text text-anchor="start" x="413.3422" y="-2143.9" font-family="Arial" font-size="14.00" fill="#666666">[numeric(12,2)]</text>
<polygon fill="none" stroke="#000000" points="306,-2102.5 306,-2132.5 655,-2132.5 655,-2102.5 306,-2102.5"/>
<text text-anchor="start" x="313" y="-2113.9" font-family="Arial" font-size="14.00" fill="#000000">model    </text>
<text text-anchor="start" x="385.3198" y="-2113.9" font-family="Arial" font-size="14.00" fill="#666666">[varchar(255)]</text>
<polygon fill="none" stroke="#000000" points="306,-2072.5 306,-2102.5 655,-2102.5 655,-2072.5 306,-2072.5"/>
<text text-anchor="start" x="313" y="-2083.9" font-family="Arial" font-size="14.00" fill="#000000">gross_amount    </text>
<text text-anchor="start" x="435.8948" y="-2083.9" font-family="Arial" font-size="14.00" fill="#666666">[numeric(12,2)]</text>
<polygon fill="none" stroke="#000000" points="306,-2042.5 306,-2072.5 655,-2072.5 655,-2042.5 306,-2042.5"/>
<text text-anchor="start" x="313" y="-2053.9" font-family="Arial" font-size="14.00" fill="#000000">amount    </text>
<text text-anchor="start" x="393.8864" y="-2053.9" font-family="Arial" font-size="14.00" fill="#666666">[numeric(12,2)]</text>
<polygon fill="none" stroke="#000000" points="306,-2012.5 306,-2042.5 655,-2042.5 655,-2012.5 306,-2012.5"/>
<text text-anchor="start" x="313" y="-2023.9" font-family="Arial" font-size="14.00" fill="#000000">amount_advert    </text>
<text text-anchor="start" x="440.568" y="-2023.9" font-family="Arial" font-size="14.00" fill="#666666">[numeric(12,2)]</text>
<polygon fill="none" stroke="#000000" points="306,-1982.5 306,-2012.5 655,-2012.5 655,-1982.5 306,-1982.5"/>
<text text-anchor="start" x="313" y="-1993.9" font-family="Arial" font-size="14.00" fill="#000000">cnt_products    </text>
<text text-anchor="start" x="427.3422" y="-1993.9" font-family="Arial" font-size="14.00" fill="#666666">[integer]</text>
<polygon fill="none" stroke="#000000" points="306,-1952.5 306,-1982.5 655,-1982.5 655,-1952.5 306,-1952.5"/>
<text text-anchor="start" x="313" y="-1963.9" font-family="Arial" font-size="14.00" fill="#000000">sale    </text>
<text text-anchor="start" x="372.8766" y="-1963.9" font-family="Arial" font-size="14.00" fill="#666666">[boolean]</text>
<polygon fill="none" stroke="#000000" points="306,-1922.5 306,-1952.5 655,-1952.5 655,-1922.5 306,-1922.5"/>
<text text-anchor="start" x="313" y="-1933.9" font-family="Arial" font-size="14.00" fill="#000000">reject    </text>
<text text-anchor="start" x="381.4278" y="-1933.9" font-family="Arial" font-size="14.00" fill="#666666">[boolean]</text>
<polygon fill="none" stroke="#000000" points="306,-1892.5 306,-1922.5 655,-1922.5 655,-1892.5 306,-1892.5"/>
<text text-anchor="start" x="313" y="-1903.9" font-family="Arial" font-size="14.00" fill="#000000">reestr_id    </text>
<text text-anchor="start" x="401.6536" y="-1903.9" font-family="Arial" font-size="14.00" fill="#666666">[bigint]</text>
<polygon fill="none" stroke="#000000" points="306,-1862.5 306,-1892.5 655,-1892.5 655,-1862.5 306,-1862.5"/>
<text text-anchor="start" x="313" y="-1873.9" font-family="Arial" font-size="14.00" fill="#000000">type    </text>
<text text-anchor="start" x="373.6606" y="-1873.9" font-family="Arial" font-size="14.00" fill="#666666">[varchar(255)]</text>
<polygon fill="none" stroke="#000000" points="306,-1832.5 306,-1862.5 655,-1862.5 655,-1832.5 306,-1832.5"/>
<text text-anchor="start" x="313" y="-1843.9" font-family="Arial" font-size="14.00" fill="#000000">comment    </text>
<text text-anchor="start" x="404.7644" y="-1843.9" font-family="Arial" font-size="14.00" fill="#666666">[text]</text>
<polygon fill="none" stroke="#000000" points="306,-1802.5 306,-1832.5 655,-1832.5 655,-1802.5 306,-1802.5"/>
<text text-anchor="start" x="313" y="-1813.9" font-family="Arial" font-size="14.00" fill="#000000">is_first    </text>
<text text-anchor="start" x="387.6424" y="-1813.9" font-family="Arial" font-size="14.00" fill="#666666">[boolean]</text>
<polygon fill="none" stroke="#000000" points="306,-1772.5 306,-1802.5 655,-1802.5 655,-1772.5 306,-1772.5"/>
<text text-anchor="start" x="313" y="-1783.9" font-family="Arial" font-size="14.00" fill="#000000">days_since_first    </text>
<text text-anchor="start" x="447.5554" y="-1783.9" font-family="Arial" font-size="14.00" fill="#666666">[integer]</text>
<polygon fill="none" stroke="#000000" points="306,-1742.5 306,-1772.5 655,-1772.5 655,-1742.5 306,-1742.5"/>
<text text-anchor="start" x="313" y="-1753.9" font-family="Arial" font-size="14.00" fill="#000000">status    </text>
<text text-anchor="start" x="384.5512" y="-1753.9" font-family="Arial" font-size="14.00" fill="#666666">[varchar(255)]</text>
<polygon fill="none" stroke="#000000" points="306,-1712.5 306,-1742.5 655,-1742.5 655,-1712.5 306,-1712.5"/>
<text text-anchor="start" x="313" y="-1723.9" font-family="Arial" font-size="14.00" fill="#000000">status_cnt    </text>
<text text-anchor="start" x="411.007" y="-1723.9" font-family="Arial" font-size="14.00" fill="#666666">[integer]</text>
<polygon fill="none" stroke="#000000" points="306,-1682.5 306,-1712.5 655,-1712.5 655,-1682.5 306,-1682.5"/>
<text text-anchor="start" x="312.8717" y="-1693.9" font-family="Arial" font-size="14.00" fill="#000000">status_datetime    </text>
<text text-anchor="start" x="445.8843" y="-1693.9" font-family="Arial" font-size="14.00" fill="#666666">[timestamp(0) without time zone]</text>
<polygon fill="none" stroke="#000000" points="306,-1652.5 306,-1682.5 655,-1682.5 655,-1652.5 306,-1652.5"/>
<text text-anchor="start" x="313" y="-1663.9" font-family="Arial" font-size="14.00" fill="#000000">last_updated    </text>
<text text-anchor="start" x="427.3534" y="-1663.9" font-family="Arial" font-size="14.00" fill="#666666">[timestamp(0) without time zone]</text>
<polygon fill="none" stroke="#000000" points="306,-1622.5 306,-1652.5 655,-1652.5 655,-1622.5 306,-1622.5"/>
<text text-anchor="start" x="313" y="-1633.9" font-family="Arial" font-size="14.00" fill="#000000">wholesale    </text>
<text text-anchor="start" x="409.4376" y="-1633.9" font-family="Arial" font-size="14.00" fill="#666666">[boolean]</text>
<polygon fill="none" stroke="#000000" points="306,-1592.5 306,-1622.5 655,-1622.5 655,-1592.5 306,-1592.5"/>
<text text-anchor="start" x="313" y="-1603.9" font-family="Arial" font-size="14.00" fill="#000000">region    </text>
<text text-anchor="start" x="386.1024" y="-1603.9" font-family="Arial" font-size="14.00" fill="#666666">[varchar(255)]</text>
<polygon fill="none" stroke="#000000" points="306,-1562.5 306,-1592.5 655,-1592.5 655,-1562.5 306,-1562.5"/>
<text text-anchor="start" x="313" y="-1573.9" font-family="Arial" font-size="14.00" fill="#000000">banned_fraud_id    </text>
<text text-anchor="start" x="452.2538" y="-1573.9" font-family="Arial" font-size="14.00" fill="#666666">[bigint]</text>
<polygon fill="none" stroke="#000000" points="306,-1532.5 306,-1562.5 655,-1562.5 655,-1532.5 306,-1532.5"/>
<text text-anchor="start" x="313" y="-1543.9" font-family="Arial" font-size="14.00" fill="#000000">banned_link_id    </text>
<text text-anchor="start" x="441.3506" y="-1543.9" font-family="Arial" font-size="14.00" fill="#666666">[bigint]</text>
<polygon fill="none" stroke="#000000" points="306,-1502.5 306,-1532.5 655,-1532.5 655,-1502.5 306,-1502.5"/>
<text text-anchor="start" x="313" y="-1513.9" font-family="Arial" font-size="14.00" fill="#000000">flag_create_or_update_by_manager    </text>
<text text-anchor="start" x="572.8428" y="-1513.9" font-family="Arial" font-size="14.00" fill="#666666">[boolean]</text>
<polygon fill="none" stroke="#000000" points="306,-1472.5 306,-1502.5 655,-1502.5 655,-1472.5 306,-1472.5"/>
<text text-anchor="start" x="313" y="-1483.9" font-family="Arial" font-size="14.00" fill="#000000">in_finance_matching    </text>
<text text-anchor="start" x="475.575" y="-1483.9" font-family="Arial" font-size="14.00" fill="#666666">[boolean]</text>
<polygon fill="none" stroke="#000000" points="306,-1442.5 306,-1472.5 655,-1472.5 655,-1442.5 306,-1442.5"/>
<text text-anchor="start" x="313" y="-1453.9" font-family="Arial" font-size="14.00" fill="#000000">date    </text>
<text text-anchor="start" x="374.4432" y="-1453.9" font-family="Arial" font-size="14.00" fill="#666666">[date]</text>
<polygon fill="none" stroke="#000000" points="306,-1412.5 306,-1442.5 655,-1442.5 655,-1412.5 306,-1412.5"/>
<text text-anchor="start" x="313" y="-1423.9" font-family="Arial" font-size="14.00" fill="#000000">created_at    </text>
<text text-anchor="start" x="413.3422" y="-1423.9" font-family="Arial" font-size="14.00" fill="#666666">[timestamp(0) without time zone]</text>
<polygon fill="none" stroke="#000000" points="306,-1382.5 306,-1412.5 655,-1412.5 655,-1382.5 306,-1382.5"/>
<text text-anchor="start" x="313" y="-1393.9" font-family="Arial" font-size="14.00" fill="#000000">updated_at    </text>
<text text-anchor="start" x="417.2468" y="-1393.9" font-family="Arial" font-size="14.00" fill="#666666">[timestamp(0) without time zone]</text>
<polygon fill="none" stroke="#000000" points="306,-1352.5 306,-1382.5 655,-1382.5 655,-1352.5 306,-1352.5"/>
<text text-anchor="start" x="313" y="-1363.9" font-family="Arial" font-size="14.00" fill="#000000">deleted_at    </text>
<text text-anchor="start" x="412.5708" y="-1363.9" font-family="Arial" font-size="14.00" fill="#666666">[timestamp(0) without time zone]</text>
<polygon fill="none" stroke="#000000" points="306,-1322.5 306,-1352.5 655,-1352.5 655,-1322.5 306,-1322.5"/>
<text text-anchor="start" x="313" y="-1333.9" font-family="Arial" font-size="14.00" fill="#000000">allowance    </text>
<text text-anchor="start" x="409.4376" y="-1333.9" font-family="Arial" font-size="14.00" fill="#666666">[numeric(5,0)]</text>
<polygon fill="none" stroke="#000000" points="306,-1292.5 306,-1322.5 655,-1322.5 655,-1292.5 306,-1292.5"/>
<text text-anchor="start" x="313" y="-1303.9" font-family="Arial" font-size="14.00" fill="#000000">flag_hard_set_amount    </text>
<text text-anchor="start" x="486.4782" y="-1303.9" font-family="Arial" font-size="14.00" fill="#666666">[boolean]</text>
<polygon fill="none" stroke="#000000" points="306,-1262.5 306,-1292.5 655,-1292.5 655,-1262.5 306,-1262.5"/>
<text text-anchor="start" x="313" y="-1273.9" font-family="Arial" font-size="14.00" fill="#000000">is_blocked    </text>
<text text-anchor="start" x="413.331" y="-1273.9" font-family="Arial" font-size="14.00" fill="#666666">[boolean]</text>
</g>
<!-- public.orders&#45;&gt;public.banned_links -->
<g id="edge1" class="edge">
<title>public.orders:banned_link_id&#45;&gt;public.banned_links:id</title>
<path fill="none" stroke="#000000" d="M295.9472,-1545.9245C205.4263,-1516.5921 232.126,-1087.5 331,-1087.5"/>
<polygon fill="#000000" stroke="#000000" points="296.1206,-1545.9516 305.3032,-1551.9457 301.0603,-1546.7258 306,-1547.5 306,-1547.5 306,-1547.5 301.0603,-1546.7258 306.6968,-1543.0543 296.1206,-1545.9516 296.1206,-1545.9516"/>
<text text-anchor="start" x="6.8715" y="-1557.5" font-family="Arial" font-size="10.00" fill="#000000">FOREIGN KEY (banned_link_id) REFERENCES banned_links(id)</text>
</g>
</g>
</svg>
