<?xml version="1.0" encoding="UTF-8" standalone="no"?>
<!DOCTYPE svg PUBLIC "-//W3C//DTD SVG 1.1//EN"
 "http://www.w3.org/Graphics/SVG/1.1/DTD/svg11.dtd">
<!-- Generated by graphviz version 2.40.1 (20161225.0304)
 -->
<!-- Title: public.landings Pages: 1 -->
<svg width="868pt" height="2272pt"
 viewBox="0.00 0.00 867.50 2272.00" xmlns="http://www.w3.org/2000/svg" xmlns:xlink="http://www.w3.org/1999/xlink">
<g id="graph0" class="graph" transform="scale(1 1) rotate(0) translate(4 2268)">
<title>public.landings</title>
<polygon fill="#ffffff" stroke="transparent" points="-4,4 -4,-2268 863.5,-2268 863.5,4 -4,4"/>
<!-- public.landings -->
<g id="node1" class="node">
<title>public.landings</title>
<polygon fill="#efefef" stroke="transparent" points="278,-465.5 278,-500.5 568,-500.5 568,-465.5 278,-465.5"/>
<polygon fill="none" stroke="#000000" points="278,-465.5 278,-500.5 568,-500.5 568,-465.5 278,-465.5"/>
<text text-anchor="start" x="299.7017" y="-478.3" font-family="Arial Bold" font-size="18.00" fill="#000000">public.landings</text>
<text text-anchor="start" x="418.7303" y="-478.3" font-family="Arial" font-size="14.00" fill="#000000">    </text>
<text text-anchor="start" x="452.9351" y="-478.3" font-family="Arial" font-size="14.00" fill="#666666">[BASE TABLE]</text>
<polygon fill="none" stroke="#000000" points="278,-435.5 278,-465.5 568,-465.5 568,-435.5 278,-435.5"/>
<text text-anchor="start" x="285" y="-446.9" font-family="Arial" font-size="14.00" fill="#000000">landing_id </text>
<text text-anchor="start" x="352.6886" y="-446.9" font-family="Arial" font-size="14.00" fill="#666666">[bigint]</text>
<polygon fill="none" stroke="#000000" points="278,-405.5 278,-435.5 568,-435.5 568,-405.5 278,-405.5"/>
<text text-anchor="start" x="285" y="-416.9" font-family="Arial" font-size="14.00" fill="#000000">offer_id </text>
<text text-anchor="start" x="335.5694" y="-416.9" font-family="Arial" font-size="14.00" fill="#666666">[bigint]</text>
<polygon fill="none" stroke="#000000" points="278,-375.5 278,-405.5 568,-405.5 568,-375.5 278,-375.5"/>
<text text-anchor="start" x="285" y="-386.9" font-family="Arial" font-size="14.00" fill="#000000">landing_name </text>
<text text-anchor="start" x="376.8078" y="-386.9" font-family="Arial" font-size="14.00" fill="#666666">[varchar(255)]</text>
<polygon fill="none" stroke="#000000" points="278,-345.5 278,-375.5 568,-375.5 568,-345.5 278,-345.5"/>
<text text-anchor="start" x="285" y="-356.9" font-family="Arial" font-size="14.00" fill="#000000">link </text>
<text text-anchor="start" x="309.8864" y="-356.9" font-family="Arial" font-size="14.00" fill="#666666">[varchar(255)]</text>
<polygon fill="none" stroke="#000000" points="278,-315.5 278,-345.5 568,-345.5 568,-315.5 278,-315.5"/>
<text text-anchor="start" x="285" y="-326.9" font-family="Arial" font-size="14.00" fill="#000000">preview_link </text>
<text text-anchor="start" x="365.8906" y="-326.9" font-family="Arial" font-size="14.00" fill="#666666">[varchar(255)]</text>
<polygon fill="none" stroke="#000000" points="278,-285.5 278,-315.5 568,-315.5 568,-285.5 278,-285.5"/>
<text text-anchor="start" x="285" y="-296.9" font-family="Arial" font-size="14.00" fill="#000000">status </text>
<text text-anchor="start" x="326.237" y="-296.9" font-family="Arial" font-size="14.00" fill="#666666">[varchar(255)]</text>
<polygon fill="none" stroke="#000000" points="278,-255.5 278,-285.5 568,-285.5 568,-255.5 278,-255.5"/>
<text text-anchor="start" x="285" y="-266.9" font-family="Arial" font-size="14.00" fill="#000000">landing_for_user_ids </text>
<text text-anchor="start" x="418.8134" y="-266.9" font-family="Arial" font-size="14.00" fill="#666666">[json]</text>
<polygon fill="none" stroke="#000000" points="278,-225.5 278,-255.5 568,-255.5 568,-225.5 278,-225.5"/>
<text text-anchor="start" x="285" y="-236.9" font-family="Arial" font-size="14.00" fill="#000000">available_target_action </text>
<text text-anchor="start" x="432.8232" y="-236.9" font-family="Arial" font-size="14.00" fill="#666666">[varchar(255)]</text>
<polygon fill="none" stroke="#000000" points="278,-195.5 278,-225.5 568,-225.5 568,-195.5 278,-195.5"/>
<text text-anchor="start" x="285" y="-206.9" font-family="Arial" font-size="14.00" fill="#000000">not_for_api </text>
<text text-anchor="start" x="358.9172" y="-206.9" font-family="Arial" font-size="14.00" fill="#666666">[integer]</text>
<polygon fill="none" stroke="#000000" points="278,-165.5 278,-195.5 568,-195.5 568,-165.5 278,-165.5"/>
<text text-anchor="start" x="285" y="-176.9" font-family="Arial" font-size="14.00" fill="#000000">pos </text>
<text text-anchor="start" x="311.4558" y="-176.9" font-family="Arial" font-size="14.00" fill="#666666">[bigint]</text>
<polygon fill="none" stroke="#000000" points="278,-135.5 278,-165.5 568,-165.5 568,-135.5 278,-135.5"/>
<text text-anchor="start" x="285" y="-146.9" font-family="Arial" font-size="14.00" fill="#000000">comment </text>
<text text-anchor="start" x="346.4502" y="-146.9" font-family="Arial" font-size="14.00" fill="#666666">[varchar(255)]</text>
<polygon fill="none" stroke="#000000" points="278,-105.5 278,-135.5 568,-135.5 568,-105.5 278,-105.5"/>
<text text-anchor="start" x="285" y="-116.9" font-family="Arial" font-size="14.00" fill="#000000">created_at </text>
<text text-anchor="start" x="355.028" y="-116.9" font-family="Arial" font-size="14.00" fill="#666666">[timestamp(0) without time zone]</text>
<polygon fill="none" stroke="#000000" points="278,-75.5 278,-105.5 568,-105.5 568,-75.5 278,-75.5"/>
<text text-anchor="start" x="284.9117" y="-86.9" font-family="Arial" font-size="14.00" fill="#000000">updated_at </text>
<text text-anchor="start" x="358.8443" y="-86.9" font-family="Arial" font-size="14.00" fill="#666666">[timestamp(0) without time zone]</text>
<polygon fill="none" stroke="#000000" points="278,-45.5 278,-75.5 568,-75.5 568,-45.5 278,-45.5"/>
<text text-anchor="start" x="285" y="-56.9" font-family="Arial" font-size="14.00" fill="#000000">deleted_at </text>
<text text-anchor="start" x="354.2566" y="-56.9" font-family="Arial" font-size="14.00" fill="#666666">[timestamp(0) without time zone]</text>
<polygon fill="none" stroke="#000000" stroke-width="3" points="276.5,-44.5 276.5,-502.5 569.5,-502.5 569.5,-44.5 276.5,-44.5"/>
</g>
<!-- public.links -->
<g id="node2" class="node">
<title>public.links</title>
<polygon fill="#efefef" stroke="transparent" points="43,-1690.5 43,-1725.5 363,-1725.5 363,-1690.5 43,-1690.5"/>
<polygon fill="none" stroke="#000000" points="43,-1690.5 43,-1725.5 363,-1725.5 363,-1690.5 43,-1690.5"/>
<text text-anchor="start" x="95.2141" y="-1703.3" font-family="Arial Bold" font-size="18.00" fill="#000000">public.links</text>
<text text-anchor="start" x="183.2179" y="-1703.3" font-family="Arial" font-size="14.00" fill="#000000">    </text>
<text text-anchor="start" x="217.4227" y="-1703.3" font-family="Arial" font-size="14.00" fill="#666666">[BASE TABLE]</text>
<polygon fill="none" stroke="#000000" points="43,-1660.5 43,-1690.5 363,-1690.5 363,-1660.5 43,-1660.5"/>
<text text-anchor="start" x="50" y="-1671.9" font-family="Arial" font-size="14.00" fill="#000000">id    </text>
<text text-anchor="start" x="95.094" y="-1671.9" font-family="Arial" font-size="14.00" fill="#666666">[bigint]</text>
<polygon fill="none" stroke="#000000" points="43,-1630.5 43,-1660.5 363,-1660.5 363,-1630.5 43,-1630.5"/>
<text text-anchor="start" x="50" y="-1641.9" font-family="Arial" font-size="14.00" fill="#000000">partner_id    </text>
<text text-anchor="start" x="147.2188" y="-1641.9" font-family="Arial" font-size="14.00" fill="#666666">[bigint]</text>
<polygon fill="none" stroke="#000000" points="43,-1600.5 43,-1630.5 363,-1630.5 363,-1600.5 43,-1600.5"/>
<text text-anchor="start" x="50" y="-1611.9" font-family="Arial" font-size="14.00" fill="#000000">link_name    </text>
<text text-anchor="start" x="147.9916" y="-1611.9" font-family="Arial" font-size="14.00" fill="#666666">[varchar(255)]</text>
<polygon fill="none" stroke="#000000" points="43,-1570.5 43,-1600.5 363,-1600.5 363,-1570.5 43,-1570.5"/>
<text text-anchor="start" x="50" y="-1581.9" font-family="Arial" font-size="14.00" fill="#000000">link    </text>
<text text-anchor="start" x="105.2006" y="-1581.9" font-family="Arial" font-size="14.00" fill="#666666">[varchar(1024)]</text>
<polygon fill="none" stroke="#000000" points="43,-1540.5 43,-1570.5 363,-1570.5 363,-1540.5 43,-1540.5"/>
<text text-anchor="start" x="50" y="-1551.9" font-family="Arial" font-size="14.00" fill="#000000">short_link    </text>
<text text-anchor="start" x="144.0996" y="-1551.9" font-family="Arial" font-size="14.00" fill="#666666">[varchar(1024)]</text>
<polygon fill="none" stroke="#000000" points="43,-1510.5 43,-1540.5 363,-1540.5 363,-1510.5 43,-1510.5"/>
<text text-anchor="start" x="50" y="-1521.9" font-family="Arial" font-size="14.00" fill="#000000">short_link_id    </text>
<text text-anchor="start" x="162.7714" y="-1521.9" font-family="Arial" font-size="14.00" fill="#666666">[bigint]</text>
<polygon fill="none" stroke="#000000" points="43,-1480.5 43,-1510.5 363,-1510.5 363,-1480.5 43,-1480.5"/>
<text text-anchor="start" x="50" y="-1491.9" font-family="Arial" font-size="14.00" fill="#000000">link_source    </text>
<text text-anchor="start" x="154.9916" y="-1491.9" font-family="Arial" font-size="14.00" fill="#666666">[bigint]</text>
<polygon fill="none" stroke="#000000" points="43,-1450.5 43,-1480.5 363,-1480.5 363,-1450.5 43,-1450.5"/>
<text text-anchor="start" x="50" y="-1461.9" font-family="Arial" font-size="14.00" fill="#000000">offer_id    </text>
<text text-anchor="start" x="130.8836" y="-1461.9" font-family="Arial" font-size="14.00" fill="#666666">[bigint]</text>
<polygon fill="none" stroke="#000000" points="43,-1420.5 43,-1450.5 363,-1450.5 363,-1420.5 43,-1420.5"/>
<text text-anchor="start" x="50" y="-1431.9" font-family="Arial" font-size="14.00" fill="#000000">area_id    </text>
<text text-anchor="start" x="130.885" y="-1431.9" font-family="Arial" font-size="14.00" fill="#666666">[bigint]</text>
<polygon fill="none" stroke="#000000" points="43,-1390.5 43,-1420.5 363,-1420.5 363,-1390.5 43,-1390.5"/>
<text text-anchor="start" x="50" y="-1401.9" font-family="Arial" font-size="14.00" fill="#000000">country_id    </text>
<text text-anchor="start" x="148.7756" y="-1401.9" font-family="Arial" font-size="14.00" fill="#666666">[bigint]</text>
<polygon fill="none" stroke="#000000" points="43,-1360.5 43,-1390.5 363,-1390.5 363,-1360.5 43,-1360.5"/>
<text text-anchor="start" x="50" y="-1371.9" font-family="Arial" font-size="14.00" fill="#000000">landing_id    </text>
<text text-anchor="start" x="148.0028" y="-1371.9" font-family="Arial" font-size="14.00" fill="#666666">[bigint]</text>
<polygon fill="none" stroke="#000000" points="43,-1330.5 43,-1360.5 363,-1360.5 363,-1330.5 43,-1330.5"/>
<text text-anchor="start" x="50" y="-1341.9" font-family="Arial" font-size="14.00" fill="#000000">has_macros    </text>
<text text-anchor="start" x="160.439" y="-1341.9" font-family="Arial" font-size="14.00" fill="#666666">[boolean]</text>
<polygon fill="none" stroke="#000000" points="43,-1300.5 43,-1330.5 363,-1330.5 363,-1300.5 43,-1300.5"/>
<text text-anchor="start" x="50" y="-1311.9" font-family="Arial" font-size="14.00" fill="#000000">status    </text>
<text text-anchor="start" x="121.5512" y="-1311.9" font-family="Arial" font-size="14.00" fill="#666666">[varchar(255)]</text>
<polygon fill="none" stroke="#000000" points="43,-1270.5 43,-1300.5 363,-1300.5 363,-1270.5 43,-1270.5"/>
<text text-anchor="start" x="50" y="-1281.9" font-family="Arial" font-size="14.00" fill="#000000">ord_token    </text>
<text text-anchor="start" x="146.4516" y="-1281.9" font-family="Arial" font-size="14.00" fill="#666666">[varchar(255)]</text>
<polygon fill="none" stroke="#000000" points="43,-1240.5 43,-1270.5 363,-1270.5 363,-1240.5 43,-1240.5"/>
<text text-anchor="start" x="50" y="-1251.9" font-family="Arial" font-size="14.00" fill="#000000">created_at    </text>
<text text-anchor="start" x="150.3422" y="-1251.9" font-family="Arial" font-size="14.00" fill="#666666">[timestamp(0) without time zone]</text>
<polygon fill="none" stroke="#000000" points="43,-1210.5 43,-1240.5 363,-1240.5 363,-1210.5 43,-1210.5"/>
<text text-anchor="start" x="49.7546" y="-1221.9" font-family="Arial" font-size="14.00" fill="#000000">updated_at    </text>
<text text-anchor="start" x="154.0014" y="-1221.9" font-family="Arial" font-size="14.00" fill="#666666">[timestamp(0) without time zone]</text>
<polygon fill="none" stroke="#000000" points="43,-1180.5 43,-1210.5 363,-1210.5 363,-1180.5 43,-1180.5"/>
<text text-anchor="start" x="50" y="-1191.9" font-family="Arial" font-size="14.00" fill="#000000">advertiser_type    </text>
<text text-anchor="start" x="179.892" y="-1191.9" font-family="Arial" font-size="14.00" fill="#666666">[varchar(255)]</text>
<polygon fill="none" stroke="#000000" points="43,-1150.5 43,-1180.5 363,-1180.5 363,-1150.5 43,-1150.5"/>
<text text-anchor="start" x="50" y="-1161.9" font-family="Arial" font-size="14.00" fill="#000000">need_token    </text>
<text text-anchor="start" x="157.3562" y="-1161.9" font-family="Arial" font-size="14.00" fill="#666666">[boolean]</text>
<polygon fill="none" stroke="#000000" points="43,-1120.5 43,-1150.5 363,-1150.5 363,-1120.5 43,-1120.5"/>
<text text-anchor="start" x="50" y="-1131.9" font-family="Arial" font-size="14.00" fill="#000000">offer_material_id    </text>
<text text-anchor="start" x="188.439" y="-1131.9" font-family="Arial" font-size="14.00" fill="#666666">[bigint]</text>
</g>
<!-- public.links&#45;&gt;public.landings -->
<g id="edge1" class="edge">
<title>public.links:landing_id&#45;&gt;public.landings:landing_id</title>
<path fill="none" stroke="#000000" d="M372.9731,-1374.6988C552.6112,-1344.1539 75.1061,-450.5 278,-450.5"/>
<polygon fill="#000000" stroke="#000000" points="372.9679,-1374.6991 362.6396,-1371.0145 367.9839,-1375.0995 363,-1375.5 363,-1375.5 363,-1375.5 367.9839,-1375.0995 363.3604,-1379.9855 372.9679,-1374.6991 372.9679,-1374.6991"/>
<text text-anchor="start" x="369.6525" y="-1385.5" font-family="Arial" font-size="10.00" fill="#000000">FOREIGN KEY (landing_id) REFERENCES landings(landing_id)</text>
</g>
<!-- public.orders -->
<g id="node3" class="node">
<title>public.orders</title>
<polygon fill="#efefef" stroke="transparent" points="468,-2185.5 468,-2220.5 817,-2220.5 817,-2185.5 468,-2185.5"/>
<polygon fill="none" stroke="#000000" points="468,-2185.5 468,-2220.5 817,-2220.5 817,-2185.5 468,-2185.5"/>
<text text-anchor="start" x="527.2099" y="-2198.3" font-family="Arial Bold" font-size="18.00" fill="#000000">public.orders</text>
<text text-anchor="start" x="630.2221" y="-2198.3" font-family="Arial" font-size="14.00" fill="#000000">    </text>
<text text-anchor="start" x="664.4269" y="-2198.3" font-family="Arial" font-size="14.00" fill="#666666">[BASE TABLE]</text>
<polygon fill="none" stroke="#000000" points="468,-2155.5 468,-2185.5 817,-2185.5 817,-2155.5 468,-2155.5"/>
<text text-anchor="start" x="475" y="-2166.9" font-family="Arial" font-size="14.00" fill="#000000">id    </text>
<text text-anchor="start" x="520.094" y="-2166.9" font-family="Arial" font-size="14.00" fill="#666666">[bigint]</text>
<polygon fill="none" stroke="#000000" points="468,-2125.5 468,-2155.5 817,-2155.5 817,-2125.5 468,-2125.5"/>
<text text-anchor="start" x="475" y="-2136.9" font-family="Arial" font-size="14.00" fill="#000000">order_id    </text>
<text text-anchor="start" x="560.5456" y="-2136.9" font-family="Arial" font-size="14.00" fill="#666666">[varchar(255)]</text>
<polygon fill="none" stroke="#000000" points="468,-2095.5 468,-2125.5 817,-2125.5 817,-2095.5 468,-2095.5"/>
<text text-anchor="start" x="475" y="-2106.9" font-family="Arial" font-size="14.00" fill="#000000">offer_id    </text>
<text text-anchor="start" x="555.8836" y="-2106.9" font-family="Arial" font-size="14.00" fill="#666666">[bigint]</text>
<polygon fill="none" stroke="#000000" points="468,-2065.5 468,-2095.5 817,-2095.5 817,-2065.5 468,-2065.5"/>
<text text-anchor="start" x="475" y="-2076.9" font-family="Arial" font-size="14.00" fill="#000000">datetime    </text>
<text text-anchor="start" x="562.8836" y="-2076.9" font-family="Arial" font-size="14.00" fill="#666666">[timestamp(0) without time zone]</text>
<polygon fill="none" stroke="#000000" points="468,-2035.5 468,-2065.5 817,-2065.5 817,-2035.5 468,-2035.5"/>
<text text-anchor="start" x="475" y="-2046.9" font-family="Arial" font-size="14.00" fill="#000000">datetime_sale    </text>
<text text-anchor="start" x="596.338" y="-2046.9" font-family="Arial" font-size="14.00" fill="#666666">[timestamp(0) without time zone]</text>
<polygon fill="none" stroke="#000000" points="468,-2005.5 468,-2035.5 817,-2035.5 817,-2005.5 468,-2005.5"/>
<text text-anchor="start" x="475" y="-2016.9" font-family="Arial" font-size="14.00" fill="#000000">partner_id    </text>
<text text-anchor="start" x="572.2188" y="-2016.9" font-family="Arial" font-size="14.00" fill="#666666">[bigint]</text>
<polygon fill="none" stroke="#000000" points="468,-1975.5 468,-2005.5 817,-2005.5 817,-1975.5 468,-1975.5"/>
<text text-anchor="start" x="475" y="-1986.9" font-family="Arial" font-size="14.00" fill="#000000">candidate_job    </text>
<text text-anchor="start" x="596.352" y="-1986.9" font-family="Arial" font-size="14.00" fill="#666666">[text]</text>
<polygon fill="none" stroke="#000000" points="468,-1945.5 468,-1975.5 817,-1975.5 817,-1945.5 468,-1945.5"/>
<text text-anchor="start" x="475" y="-1956.9" font-family="Arial" font-size="14.00" fill="#000000">candidate_city    </text>
<text text-anchor="start" x="598.6774" y="-1956.9" font-family="Arial" font-size="14.00" fill="#666666">[text]</text>
<polygon fill="none" stroke="#000000" points="468,-1915.5 468,-1945.5 817,-1945.5 817,-1915.5 468,-1915.5"/>
<text text-anchor="start" x="475" y="-1926.9" font-family="Arial" font-size="14.00" fill="#000000">candidate_phone    </text>
<text text-anchor="start" x="616.5932" y="-1926.9" font-family="Arial" font-size="14.00" fill="#666666">[text]</text>
<polygon fill="none" stroke="#000000" points="468,-1885.5 468,-1915.5 817,-1915.5 817,-1885.5 468,-1885.5"/>
<text text-anchor="start" x="475" y="-1896.9" font-family="Arial" font-size="14.00" fill="#000000">candidate_name    </text>
<text text-anchor="start" x="612.6886" y="-1896.9" font-family="Arial" font-size="14.00" fill="#666666">[text]</text>
<polygon fill="none" stroke="#000000" points="468,-1855.5 468,-1885.5 817,-1885.5 817,-1855.5 468,-1855.5"/>
<text text-anchor="start" x="475" y="-1866.9" font-family="Arial" font-size="14.00" fill="#000000">category_id    </text>
<text text-anchor="start" x="581.5582" y="-1866.9" font-family="Arial" font-size="14.00" fill="#666666">[bigint]</text>
<polygon fill="none" stroke="#000000" points="468,-1825.5 468,-1855.5 817,-1855.5 817,-1825.5 468,-1825.5"/>
<text text-anchor="start" x="475" y="-1836.9" font-family="Arial" font-size="14.00" fill="#000000">landing_id    </text>
<text text-anchor="start" x="573.0028" y="-1836.9" font-family="Arial" font-size="14.00" fill="#666666">[bigint]</text>
<polygon fill="none" stroke="#000000" points="468,-1795.5 468,-1825.5 817,-1825.5 817,-1795.5 468,-1795.5"/>
<text text-anchor="start" x="475" y="-1806.9" font-family="Arial" font-size="14.00" fill="#000000">offer_materials_id    </text>
<text text-anchor="start" x="620.439" y="-1806.9" font-family="Arial" font-size="14.00" fill="#666666">[bigint]</text>
<polygon fill="none" stroke="#000000" points="468,-1765.5 468,-1795.5 817,-1795.5 817,-1765.5 468,-1765.5"/>
<text text-anchor="start" x="475" y="-1776.9" font-family="Arial" font-size="14.00" fill="#000000">link_id    </text>
<text text-anchor="start" x="548.8724" y="-1776.9" font-family="Arial" font-size="14.00" fill="#666666">[bigint]</text>
<polygon fill="none" stroke="#000000" points="468,-1735.5 468,-1765.5 817,-1765.5 817,-1735.5 468,-1735.5"/>
<text text-anchor="start" x="475" y="-1746.9" font-family="Arial" font-size="14.00" fill="#000000">promocode_id    </text>
<text text-anchor="start" x="597.8934" y="-1746.9" font-family="Arial" font-size="14.00" fill="#666666">[bigint]</text>
<polygon fill="none" stroke="#000000" points="468,-1705.5 468,-1735.5 817,-1735.5 817,-1705.5 468,-1705.5"/>
<text text-anchor="start" x="475" y="-1716.9" font-family="Arial" font-size="14.00" fill="#000000">click_id    </text>
<text text-anchor="start" x="555.0898" y="-1716.9" font-family="Arial" font-size="14.00" fill="#666666">[varchar(255)]</text>
<polygon fill="none" stroke="#000000" points="468,-1675.5 468,-1705.5 817,-1705.5 817,-1675.5 468,-1675.5"/>
<text text-anchor="start" x="475" y="-1686.9" font-family="Arial" font-size="14.00" fill="#000000">web_id    </text>
<text text-anchor="start" x="553.5484" y="-1686.9" font-family="Arial" font-size="14.00" fill="#666666">[varchar(255)]</text>
<polygon fill="none" stroke="#000000" points="468,-1645.5 468,-1675.5 817,-1675.5 817,-1645.5 468,-1645.5"/>
<text text-anchor="start" x="475" y="-1656.9" font-family="Arial" font-size="14.00" fill="#000000">client_id    </text>
<text text-anchor="start" x="560.5456" y="-1656.9" font-family="Arial" font-size="14.00" fill="#666666">[varchar(255)]</text>
<polygon fill="none" stroke="#000000" points="468,-1615.5 468,-1645.5 817,-1645.5 817,-1615.5 468,-1615.5"/>
<text text-anchor="start" x="475" y="-1626.9" font-family="Arial" font-size="14.00" fill="#000000">pixel_id    </text>
<text text-anchor="start" x="556.655" y="-1626.9" font-family="Arial" font-size="14.00" fill="#666666">[bigint]</text>
<polygon fill="none" stroke="#000000" points="468,-1585.5 468,-1615.5 817,-1615.5 817,-1585.5 468,-1585.5"/>
<text text-anchor="start" x="475" y="-1596.9" font-family="Arial" font-size="14.00" fill="#000000">business_unit_id    </text>
<text text-anchor="start" x="613.4586" y="-1596.9" font-family="Arial" font-size="14.00" fill="#666666">[bigint]</text>
<polygon fill="none" stroke="#000000" points="468,-1555.5 468,-1585.5 817,-1585.5 817,-1555.5 468,-1555.5"/>
<text text-anchor="start" x="475" y="-1566.9" font-family="Arial" font-size="14.00" fill="#000000">fee    </text>
<text text-anchor="start" x="528.6606" y="-1566.9" font-family="Arial" font-size="14.00" fill="#666666">[numeric(12,2)]</text>
<polygon fill="none" stroke="#000000" points="468,-1525.5 468,-1555.5 817,-1555.5 817,-1525.5 468,-1525.5"/>
<text text-anchor="start" x="475" y="-1536.9" font-family="Arial" font-size="14.00" fill="#000000">fee_id    </text>
<text text-anchor="start" x="547.3324" y="-1536.9" font-family="Arial" font-size="14.00" fill="#666666">[bigint]</text>
<polygon fill="none" stroke="#000000" points="468,-1495.5 468,-1525.5 817,-1525.5 817,-1495.5 468,-1495.5"/>
<text text-anchor="start" x="475" y="-1506.9" font-family="Arial" font-size="14.00" fill="#000000">fee_advert    </text>
<text text-anchor="start" x="575.3422" y="-1506.9" font-family="Arial" font-size="14.00" fill="#666666">[numeric(12,2)]</text>
<polygon fill="none" stroke="#000000" points="468,-1465.5 468,-1495.5 817,-1495.5 817,-1465.5 468,-1465.5"/>
<text text-anchor="start" x="475" y="-1476.9" font-family="Arial" font-size="14.00" fill="#000000">model    </text>
<text text-anchor="start" x="547.3198" y="-1476.9" font-family="Arial" font-size="14.00" fill="#666666">[varchar(255)]</text>
<polygon fill="none" stroke="#000000" points="468,-1435.5 468,-1465.5 817,-1465.5 817,-1435.5 468,-1435.5"/>
<text text-anchor="start" x="475" y="-1446.9" font-family="Arial" font-size="14.00" fill="#000000">gross_amount    </text>
<text text-anchor="start" x="597.8948" y="-1446.9" font-family="Arial" font-size="14.00" fill="#666666">[numeric(12,2)]</text>
<polygon fill="none" stroke="#000000" points="468,-1405.5 468,-1435.5 817,-1435.5 817,-1405.5 468,-1405.5"/>
<text text-anchor="start" x="475" y="-1416.9" font-family="Arial" font-size="14.00" fill="#000000">amount    </text>
<text text-anchor="start" x="555.8864" y="-1416.9" font-family="Arial" font-size="14.00" fill="#666666">[numeric(12,2)]</text>
<polygon fill="none" stroke="#000000" points="468,-1375.5 468,-1405.5 817,-1405.5 817,-1375.5 468,-1375.5"/>
<text text-anchor="start" x="475" y="-1386.9" font-family="Arial" font-size="14.00" fill="#000000">amount_advert    </text>
<text text-anchor="start" x="602.568" y="-1386.9" font-family="Arial" font-size="14.00" fill="#666666">[numeric(12,2)]</text>
<polygon fill="none" stroke="#000000" points="468,-1345.5 468,-1375.5 817,-1375.5 817,-1345.5 468,-1345.5"/>
<text text-anchor="start" x="475" y="-1356.9" font-family="Arial" font-size="14.00" fill="#000000">cnt_products    </text>
<text text-anchor="start" x="589.3422" y="-1356.9" font-family="Arial" font-size="14.00" fill="#666666">[integer]</text>
<polygon fill="none" stroke="#000000" points="468,-1315.5 468,-1345.5 817,-1345.5 817,-1315.5 468,-1315.5"/>
<text text-anchor="start" x="475" y="-1326.9" font-family="Arial" font-size="14.00" fill="#000000">sale    </text>
<text text-anchor="start" x="534.8766" y="-1326.9" font-family="Arial" font-size="14.00" fill="#666666">[boolean]</text>
<polygon fill="none" stroke="#000000" points="468,-1285.5 468,-1315.5 817,-1315.5 817,-1285.5 468,-1285.5"/>
<text text-anchor="start" x="475" y="-1296.9" font-family="Arial" font-size="14.00" fill="#000000">reject    </text>
<text text-anchor="start" x="543.4278" y="-1296.9" font-family="Arial" font-size="14.00" fill="#666666">[boolean]</text>
<polygon fill="none" stroke="#000000" points="468,-1255.5 468,-1285.5 817,-1285.5 817,-1255.5 468,-1255.5"/>
<text text-anchor="start" x="475" y="-1266.9" font-family="Arial" font-size="14.00" fill="#000000">reestr_id    </text>
<text text-anchor="start" x="563.6536" y="-1266.9" font-family="Arial" font-size="14.00" fill="#666666">[bigint]</text>
<polygon fill="none" stroke="#000000" points="468,-1225.5 468,-1255.5 817,-1255.5 817,-1225.5 468,-1225.5"/>
<text text-anchor="start" x="475" y="-1236.9" font-family="Arial" font-size="14.00" fill="#000000">type    </text>
<text text-anchor="start" x="535.6606" y="-1236.9" font-family="Arial" font-size="14.00" fill="#666666">[varchar(255)]</text>
<polygon fill="none" stroke="#000000" points="468,-1195.5 468,-1225.5 817,-1225.5 817,-1195.5 468,-1195.5"/>
<text text-anchor="start" x="475" y="-1206.9" font-family="Arial" font-size="14.00" fill="#000000">comment    </text>
<text text-anchor="start" x="566.7644" y="-1206.9" font-family="Arial" font-size="14.00" fill="#666666">[text]</text>
<polygon fill="none" stroke="#000000" points="468,-1165.5 468,-1195.5 817,-1195.5 817,-1165.5 468,-1165.5"/>
<text text-anchor="start" x="475" y="-1176.9" font-family="Arial" font-size="14.00" fill="#000000">is_first    </text>
<text text-anchor="start" x="549.6424" y="-1176.9" font-family="Arial" font-size="14.00" fill="#666666">[boolean]</text>
<polygon fill="none" stroke="#000000" points="468,-1135.5 468,-1165.5 817,-1165.5 817,-1135.5 468,-1135.5"/>
<text text-anchor="start" x="475" y="-1146.9" font-family="Arial" font-size="14.00" fill="#000000">days_since_first    </text>
<text text-anchor="start" x="609.5554" y="-1146.9" font-family="Arial" font-size="14.00" fill="#666666">[integer]</text>
<polygon fill="none" stroke="#000000" points="468,-1105.5 468,-1135.5 817,-1135.5 817,-1105.5 468,-1105.5"/>
<text text-anchor="start" x="475" y="-1116.9" font-family="Arial" font-size="14.00" fill="#000000">status    </text>
<text text-anchor="start" x="546.5512" y="-1116.9" font-family="Arial" font-size="14.00" fill="#666666">[varchar(255)]</text>
<polygon fill="none" stroke="#000000" points="468,-1075.5 468,-1105.5 817,-1105.5 817,-1075.5 468,-1075.5"/>
<text text-anchor="start" x="475" y="-1086.9" font-family="Arial" font-size="14.00" fill="#000000">status_cnt    </text>
<text text-anchor="start" x="573.007" y="-1086.9" font-family="Arial" font-size="14.00" fill="#666666">[integer]</text>
<polygon fill="none" stroke="#000000" points="468,-1045.5 468,-1075.5 817,-1075.5 817,-1045.5 468,-1045.5"/>
<text text-anchor="start" x="474.8717" y="-1056.9" font-family="Arial" font-size="14.00" fill="#000000">status_datetime    </text>
<text text-anchor="start" x="607.8843" y="-1056.9" font-family="Arial" font-size="14.00" fill="#666666">[timestamp(0) without time zone]</text>
<polygon fill="none" stroke="#000000" points="468,-1015.5 468,-1045.5 817,-1045.5 817,-1015.5 468,-1015.5"/>
<text text-anchor="start" x="475" y="-1026.9" font-family="Arial" font-size="14.00" fill="#000000">last_updated    </text>
<text text-anchor="start" x="589.3534" y="-1026.9" font-family="Arial" font-size="14.00" fill="#666666">[timestamp(0) without time zone]</text>
<polygon fill="none" stroke="#000000" points="468,-985.5 468,-1015.5 817,-1015.5 817,-985.5 468,-985.5"/>
<text text-anchor="start" x="475" y="-996.9" font-family="Arial" font-size="14.00" fill="#000000">wholesale    </text>
<text text-anchor="start" x="571.4376" y="-996.9" font-family="Arial" font-size="14.00" fill="#666666">[boolean]</text>
<polygon fill="none" stroke="#000000" points="468,-955.5 468,-985.5 817,-985.5 817,-955.5 468,-955.5"/>
<text text-anchor="start" x="475" y="-966.9" font-family="Arial" font-size="14.00" fill="#000000">region    </text>
<text text-anchor="start" x="548.1024" y="-966.9" font-family="Arial" font-size="14.00" fill="#666666">[varchar(255)]</text>
<polygon fill="none" stroke="#000000" points="468,-925.5 468,-955.5 817,-955.5 817,-925.5 468,-925.5"/>
<text text-anchor="start" x="475" y="-936.9" font-family="Arial" font-size="14.00" fill="#000000">banned_fraud_id    </text>
<text text-anchor="start" x="614.2538" y="-936.9" font-family="Arial" font-size="14.00" fill="#666666">[bigint]</text>
<polygon fill="none" stroke="#000000" points="468,-895.5 468,-925.5 817,-925.5 817,-895.5 468,-895.5"/>
<text text-anchor="start" x="475" y="-906.9" font-family="Arial" font-size="14.00" fill="#000000">banned_link_id    </text>
<text text-anchor="start" x="603.3506" y="-906.9" font-family="Arial" font-size="14.00" fill="#666666">[bigint]</text>
<polygon fill="none" stroke="#000000" points="468,-865.5 468,-895.5 817,-895.5 817,-865.5 468,-865.5"/>
<text text-anchor="start" x="475" y="-876.9" font-family="Arial" font-size="14.00" fill="#000000">flag_create_or_update_by_manager    </text>
<text text-anchor="start" x="734.8428" y="-876.9" font-family="Arial" font-size="14.00" fill="#666666">[boolean]</text>
<polygon fill="none" stroke="#000000" points="468,-835.5 468,-865.5 817,-865.5 817,-835.5 468,-835.5"/>
<text text-anchor="start" x="475" y="-846.9" font-family="Arial" font-size="14.00" fill="#000000">in_finance_matching    </text>
<text text-anchor="start" x="637.575" y="-846.9" font-family="Arial" font-size="14.00" fill="#666666">[boolean]</text>
<polygon fill="none" stroke="#000000" points="468,-805.5 468,-835.5 817,-835.5 817,-805.5 468,-805.5"/>
<text text-anchor="start" x="475" y="-816.9" font-family="Arial" font-size="14.00" fill="#000000">date    </text>
<text text-anchor="start" x="536.4432" y="-816.9" font-family="Arial" font-size="14.00" fill="#666666">[date]</text>
<polygon fill="none" stroke="#000000" points="468,-775.5 468,-805.5 817,-805.5 817,-775.5 468,-775.5"/>
<text text-anchor="start" x="475" y="-786.9" font-family="Arial" font-size="14.00" fill="#000000">created_at    </text>
<text text-anchor="start" x="575.3422" y="-786.9" font-family="Arial" font-size="14.00" fill="#666666">[timestamp(0) without time zone]</text>
<polygon fill="none" stroke="#000000" points="468,-745.5 468,-775.5 817,-775.5 817,-745.5 468,-745.5"/>
<text text-anchor="start" x="475" y="-756.9" font-family="Arial" font-size="14.00" fill="#000000">updated_at    </text>
<text text-anchor="start" x="579.2468" y="-756.9" font-family="Arial" font-size="14.00" fill="#666666">[timestamp(0) without time zone]</text>
<polygon fill="none" stroke="#000000" points="468,-715.5 468,-745.5 817,-745.5 817,-715.5 468,-715.5"/>
<text text-anchor="start" x="475" y="-726.9" font-family="Arial" font-size="14.00" fill="#000000">deleted_at    </text>
<text text-anchor="start" x="574.5708" y="-726.9" font-family="Arial" font-size="14.00" fill="#666666">[timestamp(0) without time zone]</text>
<polygon fill="none" stroke="#000000" points="468,-685.5 468,-715.5 817,-715.5 817,-685.5 468,-685.5"/>
<text text-anchor="start" x="475" y="-696.9" font-family="Arial" font-size="14.00" fill="#000000">allowance    </text>
<text text-anchor="start" x="571.4376" y="-696.9" font-family="Arial" font-size="14.00" fill="#666666">[numeric(5,0)]</text>
<polygon fill="none" stroke="#000000" points="468,-655.5 468,-685.5 817,-685.5 817,-655.5 468,-655.5"/>
<text text-anchor="start" x="475" y="-666.9" font-family="Arial" font-size="14.00" fill="#000000">flag_hard_set_amount    </text>
<text text-anchor="start" x="648.4782" y="-666.9" font-family="Arial" font-size="14.00" fill="#666666">[boolean]</text>
<polygon fill="none" stroke="#000000" points="468,-625.5 468,-655.5 817,-655.5 817,-625.5 468,-625.5"/>
<text text-anchor="start" x="475" y="-636.9" font-family="Arial" font-size="14.00" fill="#000000">is_blocked    </text>
<text text-anchor="start" x="575.331" y="-636.9" font-family="Arial" font-size="14.00" fill="#666666">[boolean]</text>
</g>
<!-- public.orders&#45;&gt;public.landings -->
<g id="edge2" class="edge">
<title>public.orders:landing_id&#45;&gt;public.landings:landing_id</title>
<path fill="none" stroke="#000000" d="M459.9001,-1834.6038C400.592,-1743.9575 429.4766,-637.8121 468,-583 495.1617,-544.3535 540.8383,-585.6465 568,-547 592.6617,-511.9107 610.8889,-450.5 568,-450.5"/>
<polygon fill="#000000" stroke="#000000" points="459.9152,-1834.6147 465.3516,-1844.1382 463.9576,-1837.5574 468,-1840.5 468,-1840.5 468,-1840.5 463.9576,-1837.5574 470.6484,-1836.8618 459.9152,-1834.6147 459.9152,-1834.6147"/>
<text text-anchor="start" x="174.6525" y="-1850.5" font-family="Arial" font-size="10.00" fill="#000000">FOREIGN KEY (landing_id) REFERENCES landings(landing_id)</text>
</g>
</g>
</svg>
