<?xml version="1.0" encoding="UTF-8" standalone="no"?>
<!DOCTYPE svg PUBLIC "-//W3C//DTD SVG 1.1//EN"
 "http://www.w3.org/Graphics/SVG/1.1/DTD/svg11.dtd">
<!-- Generated by graphviz version 2.40.1 (20161225.0304)
 -->
<!-- Title: public.reestrs Pages: 1 -->
<svg width="886pt" height="2302pt"
 viewBox="0.00 0.00 885.50 2302.00" xmlns="http://www.w3.org/2000/svg" xmlns:xlink="http://www.w3.org/1999/xlink">
<g id="graph0" class="graph" transform="scale(1 1) rotate(0) translate(4 2298)">
<title>public.reestrs</title>
<polygon fill="#ffffff" stroke="transparent" points="-4,4 -4,-2298 881.5,-2298 881.5,4 -4,4"/>
<!-- public.reestrs -->
<g id="node1" class="node">
<title>public.reestrs</title>
<polygon fill="#efefef" stroke="transparent" points="281.5,-495.5 281.5,-530.5 600.5,-530.5 600.5,-495.5 281.5,-495.5"/>
<polygon fill="none" stroke="#000000" points="281.5,-495.5 281.5,-530.5 600.5,-530.5 600.5,-495.5 281.5,-495.5"/>
<text text-anchor="start" x="323.7119" y="-508.3" font-family="Arial Bold" font-size="18.00" fill="#000000">public.reestrs</text>
<text text-anchor="start" x="430.7201" y="-508.3" font-family="Arial" font-size="14.00" fill="#000000">    </text>
<text text-anchor="start" x="464.9249" y="-508.3" font-family="Arial" font-size="14.00" fill="#666666">[BASE TABLE]</text>
<polygon fill="none" stroke="#000000" points="281.5,-465.5 281.5,-495.5 600.5,-495.5 600.5,-465.5 281.5,-465.5"/>
<text text-anchor="start" x="288.5" y="-476.9" font-family="Arial" font-size="14.00" fill="#000000">reestr_id </text>
<text text-anchor="start" x="346.8394" y="-476.9" font-family="Arial" font-size="14.00" fill="#666666">[bigint]</text>
<polygon fill="none" stroke="#000000" points="281.5,-435.5 281.5,-465.5 600.5,-465.5 600.5,-435.5 281.5,-435.5"/>
<text text-anchor="start" x="288.5" y="-446.9" font-family="Arial" font-size="14.00" fill="#000000">type </text>
<text text-anchor="start" x="318.8464" y="-446.9" font-family="Arial" font-size="14.00" fill="#666666">[varchar(255)]</text>
<polygon fill="none" stroke="#000000" points="281.5,-405.5 281.5,-435.5 600.5,-435.5 600.5,-405.5 281.5,-405.5"/>
<text text-anchor="start" x="288.5" y="-416.9" font-family="Arial" font-size="14.00" fill="#000000">contract </text>
<text text-anchor="start" x="342.1802" y="-416.9" font-family="Arial" font-size="14.00" fill="#666666">[varchar(255)]</text>
<polygon fill="none" stroke="#000000" points="281.5,-375.5 281.5,-405.5 600.5,-405.5 600.5,-375.5 281.5,-375.5"/>
<text text-anchor="start" x="288.5" y="-386.9" font-family="Arial" font-size="14.00" fill="#000000">datetime </text>
<text text-anchor="start" x="346.0694" y="-386.9" font-family="Arial" font-size="14.00" fill="#666666">[timestamp(0) without time zone]</text>
<polygon fill="none" stroke="#000000" points="281.5,-345.5 281.5,-375.5 600.5,-375.5 600.5,-345.5 281.5,-345.5"/>
<text text-anchor="start" x="288.5" y="-356.9" font-family="Arial" font-size="14.00" fill="#000000">total </text>
<text text-anchor="start" x="318.8436" y="-356.9" font-family="Arial" font-size="14.00" fill="#666666">[numeric(16,2)]</text>
<polygon fill="none" stroke="#000000" points="281.5,-315.5 281.5,-345.5 600.5,-345.5 600.5,-315.5 281.5,-315.5"/>
<text text-anchor="start" x="288.5" y="-326.9" font-family="Arial" font-size="14.00" fill="#000000">payed </text>
<text text-anchor="start" x="330.521" y="-326.9" font-family="Arial" font-size="14.00" fill="#666666">[numeric(16,2)]</text>
<polygon fill="none" stroke="#000000" points="281.5,-285.5 281.5,-315.5 600.5,-315.5 600.5,-285.5 281.5,-285.5"/>
<text text-anchor="start" x="288.5" y="-296.9" font-family="Arial" font-size="14.00" fill="#000000">status </text>
<text text-anchor="start" x="329.737" y="-296.9" font-family="Arial" font-size="14.00" fill="#666666">[integer]</text>
<polygon fill="none" stroke="#000000" points="281.5,-255.5 281.5,-285.5 600.5,-285.5 600.5,-255.5 281.5,-255.5"/>
<text text-anchor="start" x="288.5" y="-266.9" font-family="Arial" font-size="14.00" fill="#000000">sent </text>
<text text-anchor="start" x="318.8464" y="-266.9" font-family="Arial" font-size="14.00" fill="#666666">[boolean]</text>
<polygon fill="none" stroke="#000000" points="281.5,-225.5 281.5,-255.5 600.5,-255.5 600.5,-225.5 281.5,-225.5"/>
<text text-anchor="start" x="288.5" y="-236.9" font-family="Arial" font-size="14.00" fill="#000000">path_to_file </text>
<text text-anchor="start" x="364.7538" y="-236.9" font-family="Arial" font-size="14.00" fill="#666666">[varchar(255)]</text>
<polygon fill="none" stroke="#000000" points="281.5,-195.5 281.5,-225.5 600.5,-225.5 600.5,-195.5 281.5,-195.5"/>
<text text-anchor="start" x="288.1452" y="-206.9" font-family="Arial" font-size="14.00" fill="#000000">start_create_file </text>
<text text-anchor="start" x="391.6108" y="-206.9" font-family="Arial" font-size="14.00" fill="#666666">[timestamp(0) without time zone]</text>
<polygon fill="none" stroke="#000000" points="281.5,-165.5 281.5,-195.5 600.5,-195.5 600.5,-165.5 281.5,-165.5"/>
<text text-anchor="start" x="288.5" y="-176.9" font-family="Arial" font-size="14.00" fill="#000000">job_status </text>
<text text-anchor="start" x="356.1914" y="-176.9" font-family="Arial" font-size="14.00" fill="#666666">[varchar(255)]</text>
<polygon fill="none" stroke="#000000" points="281.5,-135.5 281.5,-165.5 600.5,-165.5 600.5,-135.5 281.5,-135.5"/>
<text text-anchor="start" x="288.5" y="-146.9" font-family="Arial" font-size="14.00" fill="#000000">created_at </text>
<text text-anchor="start" x="358.528" y="-146.9" font-family="Arial" font-size="14.00" fill="#666666">[timestamp(0) without time zone]</text>
<polygon fill="none" stroke="#000000" points="281.5,-105.5 281.5,-135.5 600.5,-135.5 600.5,-105.5 281.5,-105.5"/>
<text text-anchor="start" x="288.5" y="-116.9" font-family="Arial" font-size="14.00" fill="#000000">updated_at </text>
<text text-anchor="start" x="362.4326" y="-116.9" font-family="Arial" font-size="14.00" fill="#666666">[timestamp(0) without time zone]</text>
<polygon fill="none" stroke="#000000" points="281.5,-75.5 281.5,-105.5 600.5,-105.5 600.5,-75.5 281.5,-75.5"/>
<text text-anchor="start" x="288.5" y="-86.9" font-family="Arial" font-size="14.00" fill="#000000">deleted_at </text>
<text text-anchor="start" x="357.7566" y="-86.9" font-family="Arial" font-size="14.00" fill="#666666">[timestamp(0) without time zone]</text>
<polygon fill="none" stroke="#000000" points="281.5,-45.5 281.5,-75.5 600.5,-75.5 600.5,-45.5 281.5,-45.5"/>
<text text-anchor="start" x="288.5" y="-56.9" font-family="Arial" font-size="14.00" fill="#000000">is_null </text>
<text text-anchor="start" x="332.0582" y="-56.9" font-family="Arial" font-size="14.00" fill="#666666">[boolean]</text>
<polygon fill="none" stroke="#000000" stroke-width="3" points="279.5,-44.5 279.5,-532.5 601.5,-532.5 601.5,-44.5 279.5,-44.5"/>
</g>
<!-- public.orders -->
<g id="node2" class="node">
<title>public.orders</title>
<polygon fill="#efefef" stroke="transparent" points="43.5,-2215.5 43.5,-2250.5 392.5,-2250.5 392.5,-2215.5 43.5,-2215.5"/>
<polygon fill="none" stroke="#000000" points="43.5,-2215.5 43.5,-2250.5 392.5,-2250.5 392.5,-2215.5 43.5,-2215.5"/>
<text text-anchor="start" x="102.7099" y="-2228.3" font-family="Arial Bold" font-size="18.00" fill="#000000">public.orders</text>
<text text-anchor="start" x="205.7221" y="-2228.3" font-family="Arial" font-size="14.00" fill="#000000">    </text>
<text text-anchor="start" x="239.9269" y="-2228.3" font-family="Arial" font-size="14.00" fill="#666666">[BASE TABLE]</text>
<polygon fill="none" stroke="#000000" points="43.5,-2185.5 43.5,-2215.5 392.5,-2215.5 392.5,-2185.5 43.5,-2185.5"/>
<text text-anchor="start" x="50.5" y="-2196.9" font-family="Arial" font-size="14.00" fill="#000000">id    </text>
<text text-anchor="start" x="95.594" y="-2196.9" font-family="Arial" font-size="14.00" fill="#666666">[bigint]</text>
<polygon fill="none" stroke="#000000" points="43.5,-2155.5 43.5,-2185.5 392.5,-2185.5 392.5,-2155.5 43.5,-2155.5"/>
<text text-anchor="start" x="50.5" y="-2166.9" font-family="Arial" font-size="14.00" fill="#000000">order_id    </text>
<text text-anchor="start" x="136.0456" y="-2166.9" font-family="Arial" font-size="14.00" fill="#666666">[varchar(255)]</text>
<polygon fill="none" stroke="#000000" points="43.5,-2125.5 43.5,-2155.5 392.5,-2155.5 392.5,-2125.5 43.5,-2125.5"/>
<text text-anchor="start" x="50.5" y="-2136.9" font-family="Arial" font-size="14.00" fill="#000000">offer_id    </text>
<text text-anchor="start" x="131.3836" y="-2136.9" font-family="Arial" font-size="14.00" fill="#666666">[bigint]</text>
<polygon fill="none" stroke="#000000" points="43.5,-2095.5 43.5,-2125.5 392.5,-2125.5 392.5,-2095.5 43.5,-2095.5"/>
<text text-anchor="start" x="50.5" y="-2106.9" font-family="Arial" font-size="14.00" fill="#000000">datetime    </text>
<text text-anchor="start" x="138.3836" y="-2106.9" font-family="Arial" font-size="14.00" fill="#666666">[timestamp(0) without time zone]</text>
<polygon fill="none" stroke="#000000" points="43.5,-2065.5 43.5,-2095.5 392.5,-2095.5 392.5,-2065.5 43.5,-2065.5"/>
<text text-anchor="start" x="50.5" y="-2076.9" font-family="Arial" font-size="14.00" fill="#000000">datetime_sale    </text>
<text text-anchor="start" x="171.838" y="-2076.9" font-family="Arial" font-size="14.00" fill="#666666">[timestamp(0) without time zone]</text>
<polygon fill="none" stroke="#000000" points="43.5,-2035.5 43.5,-2065.5 392.5,-2065.5 392.5,-2035.5 43.5,-2035.5"/>
<text text-anchor="start" x="50.5" y="-2046.9" font-family="Arial" font-size="14.00" fill="#000000">partner_id    </text>
<text text-anchor="start" x="147.7188" y="-2046.9" font-family="Arial" font-size="14.00" fill="#666666">[bigint]</text>
<polygon fill="none" stroke="#000000" points="43.5,-2005.5 43.5,-2035.5 392.5,-2035.5 392.5,-2005.5 43.5,-2005.5"/>
<text text-anchor="start" x="50.5" y="-2016.9" font-family="Arial" font-size="14.00" fill="#000000">candidate_job    </text>
<text text-anchor="start" x="171.852" y="-2016.9" font-family="Arial" font-size="14.00" fill="#666666">[text]</text>
<polygon fill="none" stroke="#000000" points="43.5,-1975.5 43.5,-2005.5 392.5,-2005.5 392.5,-1975.5 43.5,-1975.5"/>
<text text-anchor="start" x="50.5" y="-1986.9" font-family="Arial" font-size="14.00" fill="#000000">candidate_city    </text>
<text text-anchor="start" x="174.1774" y="-1986.9" font-family="Arial" font-size="14.00" fill="#666666">[text]</text>
<polygon fill="none" stroke="#000000" points="43.5,-1945.5 43.5,-1975.5 392.5,-1975.5 392.5,-1945.5 43.5,-1945.5"/>
<text text-anchor="start" x="50.5" y="-1956.9" font-family="Arial" font-size="14.00" fill="#000000">candidate_phone    </text>
<text text-anchor="start" x="192.0932" y="-1956.9" font-family="Arial" font-size="14.00" fill="#666666">[text]</text>
<polygon fill="none" stroke="#000000" points="43.5,-1915.5 43.5,-1945.5 392.5,-1945.5 392.5,-1915.5 43.5,-1915.5"/>
<text text-anchor="start" x="50.5" y="-1926.9" font-family="Arial" font-size="14.00" fill="#000000">candidate_name    </text>
<text text-anchor="start" x="188.1886" y="-1926.9" font-family="Arial" font-size="14.00" fill="#666666">[text]</text>
<polygon fill="none" stroke="#000000" points="43.5,-1885.5 43.5,-1915.5 392.5,-1915.5 392.5,-1885.5 43.5,-1885.5"/>
<text text-anchor="start" x="50.5" y="-1896.9" font-family="Arial" font-size="14.00" fill="#000000">category_id    </text>
<text text-anchor="start" x="157.0582" y="-1896.9" font-family="Arial" font-size="14.00" fill="#666666">[bigint]</text>
<polygon fill="none" stroke="#000000" points="43.5,-1855.5 43.5,-1885.5 392.5,-1885.5 392.5,-1855.5 43.5,-1855.5"/>
<text text-anchor="start" x="50.5" y="-1866.9" font-family="Arial" font-size="14.00" fill="#000000">landing_id    </text>
<text text-anchor="start" x="148.5028" y="-1866.9" font-family="Arial" font-size="14.00" fill="#666666">[bigint]</text>
<polygon fill="none" stroke="#000000" points="43.5,-1825.5 43.5,-1855.5 392.5,-1855.5 392.5,-1825.5 43.5,-1825.5"/>
<text text-anchor="start" x="50.5" y="-1836.9" font-family="Arial" font-size="14.00" fill="#000000">offer_materials_id    </text>
<text text-anchor="start" x="195.939" y="-1836.9" font-family="Arial" font-size="14.00" fill="#666666">[bigint]</text>
<polygon fill="none" stroke="#000000" points="43.5,-1795.5 43.5,-1825.5 392.5,-1825.5 392.5,-1795.5 43.5,-1795.5"/>
<text text-anchor="start" x="50.5" y="-1806.9" font-family="Arial" font-size="14.00" fill="#000000">link_id    </text>
<text text-anchor="start" x="124.3724" y="-1806.9" font-family="Arial" font-size="14.00" fill="#666666">[bigint]</text>
<polygon fill="none" stroke="#000000" points="43.5,-1765.5 43.5,-1795.5 392.5,-1795.5 392.5,-1765.5 43.5,-1765.5"/>
<text text-anchor="start" x="50.5" y="-1776.9" font-family="Arial" font-size="14.00" fill="#000000">promocode_id    </text>
<text text-anchor="start" x="173.3934" y="-1776.9" font-family="Arial" font-size="14.00" fill="#666666">[bigint]</text>
<polygon fill="none" stroke="#000000" points="43.5,-1735.5 43.5,-1765.5 392.5,-1765.5 392.5,-1735.5 43.5,-1735.5"/>
<text text-anchor="start" x="50.5" y="-1746.9" font-family="Arial" font-size="14.00" fill="#000000">click_id    </text>
<text text-anchor="start" x="130.5898" y="-1746.9" font-family="Arial" font-size="14.00" fill="#666666">[varchar(255)]</text>
<polygon fill="none" stroke="#000000" points="43.5,-1705.5 43.5,-1735.5 392.5,-1735.5 392.5,-1705.5 43.5,-1705.5"/>
<text text-anchor="start" x="50.5" y="-1716.9" font-family="Arial" font-size="14.00" fill="#000000">web_id    </text>
<text text-anchor="start" x="129.0484" y="-1716.9" font-family="Arial" font-size="14.00" fill="#666666">[varchar(255)]</text>
<polygon fill="none" stroke="#000000" points="43.5,-1675.5 43.5,-1705.5 392.5,-1705.5 392.5,-1675.5 43.5,-1675.5"/>
<text text-anchor="start" x="50.5" y="-1686.9" font-family="Arial" font-size="14.00" fill="#000000">client_id    </text>
<text text-anchor="start" x="136.0456" y="-1686.9" font-family="Arial" font-size="14.00" fill="#666666">[varchar(255)]</text>
<polygon fill="none" stroke="#000000" points="43.5,-1645.5 43.5,-1675.5 392.5,-1675.5 392.5,-1645.5 43.5,-1645.5"/>
<text text-anchor="start" x="50.5" y="-1656.9" font-family="Arial" font-size="14.00" fill="#000000">pixel_id    </text>
<text text-anchor="start" x="132.155" y="-1656.9" font-family="Arial" font-size="14.00" fill="#666666">[bigint]</text>
<polygon fill="none" stroke="#000000" points="43.5,-1615.5 43.5,-1645.5 392.5,-1645.5 392.5,-1615.5 43.5,-1615.5"/>
<text text-anchor="start" x="50.5" y="-1626.9" font-family="Arial" font-size="14.00" fill="#000000">business_unit_id    </text>
<text text-anchor="start" x="188.9586" y="-1626.9" font-family="Arial" font-size="14.00" fill="#666666">[bigint]</text>
<polygon fill="none" stroke="#000000" points="43.5,-1585.5 43.5,-1615.5 392.5,-1615.5 392.5,-1585.5 43.5,-1585.5"/>
<text text-anchor="start" x="50.5" y="-1596.9" font-family="Arial" font-size="14.00" fill="#000000">fee    </text>
<text text-anchor="start" x="104.1606" y="-1596.9" font-family="Arial" font-size="14.00" fill="#666666">[numeric(12,2)]</text>
<polygon fill="none" stroke="#000000" points="43.5,-1555.5 43.5,-1585.5 392.5,-1585.5 392.5,-1555.5 43.5,-1555.5"/>
<text text-anchor="start" x="50.5" y="-1566.9" font-family="Arial" font-size="14.00" fill="#000000">fee_id    </text>
<text text-anchor="start" x="122.8324" y="-1566.9" font-family="Arial" font-size="14.00" fill="#666666">[bigint]</text>
<polygon fill="none" stroke="#000000" points="43.5,-1525.5 43.5,-1555.5 392.5,-1555.5 392.5,-1525.5 43.5,-1525.5"/>
<text text-anchor="start" x="50.5" y="-1536.9" font-family="Arial" font-size="14.00" fill="#000000">fee_advert    </text>
<text text-anchor="start" x="150.8422" y="-1536.9" font-family="Arial" font-size="14.00" fill="#666666">[numeric(12,2)]</text>
<polygon fill="none" stroke="#000000" points="43.5,-1495.5 43.5,-1525.5 392.5,-1525.5 392.5,-1495.5 43.5,-1495.5"/>
<text text-anchor="start" x="50.5" y="-1506.9" font-family="Arial" font-size="14.00" fill="#000000">model    </text>
<text text-anchor="start" x="122.8198" y="-1506.9" font-family="Arial" font-size="14.00" fill="#666666">[varchar(255)]</text>
<polygon fill="none" stroke="#000000" points="43.5,-1465.5 43.5,-1495.5 392.5,-1495.5 392.5,-1465.5 43.5,-1465.5"/>
<text text-anchor="start" x="50.5" y="-1476.9" font-family="Arial" font-size="14.00" fill="#000000">gross_amount    </text>
<text text-anchor="start" x="173.3948" y="-1476.9" font-family="Arial" font-size="14.00" fill="#666666">[numeric(12,2)]</text>
<polygon fill="none" stroke="#000000" points="43.5,-1435.5 43.5,-1465.5 392.5,-1465.5 392.5,-1435.5 43.5,-1435.5"/>
<text text-anchor="start" x="50.5" y="-1446.9" font-family="Arial" font-size="14.00" fill="#000000">amount    </text>
<text text-anchor="start" x="131.3864" y="-1446.9" font-family="Arial" font-size="14.00" fill="#666666">[numeric(12,2)]</text>
<polygon fill="none" stroke="#000000" points="43.5,-1405.5 43.5,-1435.5 392.5,-1435.5 392.5,-1405.5 43.5,-1405.5"/>
<text text-anchor="start" x="50.5" y="-1416.9" font-family="Arial" font-size="14.00" fill="#000000">amount_advert    </text>
<text text-anchor="start" x="178.068" y="-1416.9" font-family="Arial" font-size="14.00" fill="#666666">[numeric(12,2)]</text>
<polygon fill="none" stroke="#000000" points="43.5,-1375.5 43.5,-1405.5 392.5,-1405.5 392.5,-1375.5 43.5,-1375.5"/>
<text text-anchor="start" x="50.5" y="-1386.9" font-family="Arial" font-size="14.00" fill="#000000">cnt_products    </text>
<text text-anchor="start" x="164.8422" y="-1386.9" font-family="Arial" font-size="14.00" fill="#666666">[integer]</text>
<polygon fill="none" stroke="#000000" points="43.5,-1345.5 43.5,-1375.5 392.5,-1375.5 392.5,-1345.5 43.5,-1345.5"/>
<text text-anchor="start" x="50.5" y="-1356.9" font-family="Arial" font-size="14.00" fill="#000000">sale    </text>
<text text-anchor="start" x="110.3766" y="-1356.9" font-family="Arial" font-size="14.00" fill="#666666">[boolean]</text>
<polygon fill="none" stroke="#000000" points="43.5,-1315.5 43.5,-1345.5 392.5,-1345.5 392.5,-1315.5 43.5,-1315.5"/>
<text text-anchor="start" x="50.5" y="-1326.9" font-family="Arial" font-size="14.00" fill="#000000">reject    </text>
<text text-anchor="start" x="118.9278" y="-1326.9" font-family="Arial" font-size="14.00" fill="#666666">[boolean]</text>
<polygon fill="none" stroke="#000000" points="43.5,-1285.5 43.5,-1315.5 392.5,-1315.5 392.5,-1285.5 43.5,-1285.5"/>
<text text-anchor="start" x="50.5" y="-1296.9" font-family="Arial" font-size="14.00" fill="#000000">reestr_id    </text>
<text text-anchor="start" x="139.1536" y="-1296.9" font-family="Arial" font-size="14.00" fill="#666666">[bigint]</text>
<polygon fill="none" stroke="#000000" points="43.5,-1255.5 43.5,-1285.5 392.5,-1285.5 392.5,-1255.5 43.5,-1255.5"/>
<text text-anchor="start" x="50.5" y="-1266.9" font-family="Arial" font-size="14.00" fill="#000000">type    </text>
<text text-anchor="start" x="111.1606" y="-1266.9" font-family="Arial" font-size="14.00" fill="#666666">[varchar(255)]</text>
<polygon fill="none" stroke="#000000" points="43.5,-1225.5 43.5,-1255.5 392.5,-1255.5 392.5,-1225.5 43.5,-1225.5"/>
<text text-anchor="start" x="50.5" y="-1236.9" font-family="Arial" font-size="14.00" fill="#000000">comment    </text>
<text text-anchor="start" x="142.2644" y="-1236.9" font-family="Arial" font-size="14.00" fill="#666666">[text]</text>
<polygon fill="none" stroke="#000000" points="43.5,-1195.5 43.5,-1225.5 392.5,-1225.5 392.5,-1195.5 43.5,-1195.5"/>
<text text-anchor="start" x="50.5" y="-1206.9" font-family="Arial" font-size="14.00" fill="#000000">is_first    </text>
<text text-anchor="start" x="125.1424" y="-1206.9" font-family="Arial" font-size="14.00" fill="#666666">[boolean]</text>
<polygon fill="none" stroke="#000000" points="43.5,-1165.5 43.5,-1195.5 392.5,-1195.5 392.5,-1165.5 43.5,-1165.5"/>
<text text-anchor="start" x="50.5" y="-1176.9" font-family="Arial" font-size="14.00" fill="#000000">days_since_first    </text>
<text text-anchor="start" x="185.0554" y="-1176.9" font-family="Arial" font-size="14.00" fill="#666666">[integer]</text>
<polygon fill="none" stroke="#000000" points="43.5,-1135.5 43.5,-1165.5 392.5,-1165.5 392.5,-1135.5 43.5,-1135.5"/>
<text text-anchor="start" x="50.5" y="-1146.9" font-family="Arial" font-size="14.00" fill="#000000">status    </text>
<text text-anchor="start" x="122.0512" y="-1146.9" font-family="Arial" font-size="14.00" fill="#666666">[varchar(255)]</text>
<polygon fill="none" stroke="#000000" points="43.5,-1105.5 43.5,-1135.5 392.5,-1135.5 392.5,-1105.5 43.5,-1105.5"/>
<text text-anchor="start" x="50.5" y="-1116.9" font-family="Arial" font-size="14.00" fill="#000000">status_cnt    </text>
<text text-anchor="start" x="148.507" y="-1116.9" font-family="Arial" font-size="14.00" fill="#666666">[integer]</text>
<polygon fill="none" stroke="#000000" points="43.5,-1075.5 43.5,-1105.5 392.5,-1105.5 392.5,-1075.5 43.5,-1075.5"/>
<text text-anchor="start" x="50.3717" y="-1086.9" font-family="Arial" font-size="14.00" fill="#000000">status_datetime    </text>
<text text-anchor="start" x="183.3843" y="-1086.9" font-family="Arial" font-size="14.00" fill="#666666">[timestamp(0) without time zone]</text>
<polygon fill="none" stroke="#000000" points="43.5,-1045.5 43.5,-1075.5 392.5,-1075.5 392.5,-1045.5 43.5,-1045.5"/>
<text text-anchor="start" x="50.5" y="-1056.9" font-family="Arial" font-size="14.00" fill="#000000">last_updated    </text>
<text text-anchor="start" x="164.8534" y="-1056.9" font-family="Arial" font-size="14.00" fill="#666666">[timestamp(0) without time zone]</text>
<polygon fill="none" stroke="#000000" points="43.5,-1015.5 43.5,-1045.5 392.5,-1045.5 392.5,-1015.5 43.5,-1015.5"/>
<text text-anchor="start" x="50.5" y="-1026.9" font-family="Arial" font-size="14.00" fill="#000000">wholesale    </text>
<text text-anchor="start" x="146.9376" y="-1026.9" font-family="Arial" font-size="14.00" fill="#666666">[boolean]</text>
<polygon fill="none" stroke="#000000" points="43.5,-985.5 43.5,-1015.5 392.5,-1015.5 392.5,-985.5 43.5,-985.5"/>
<text text-anchor="start" x="50.5" y="-996.9" font-family="Arial" font-size="14.00" fill="#000000">region    </text>
<text text-anchor="start" x="123.6024" y="-996.9" font-family="Arial" font-size="14.00" fill="#666666">[varchar(255)]</text>
<polygon fill="none" stroke="#000000" points="43.5,-955.5 43.5,-985.5 392.5,-985.5 392.5,-955.5 43.5,-955.5"/>
<text text-anchor="start" x="50.5" y="-966.9" font-family="Arial" font-size="14.00" fill="#000000">banned_fraud_id    </text>
<text text-anchor="start" x="189.7538" y="-966.9" font-family="Arial" font-size="14.00" fill="#666666">[bigint]</text>
<polygon fill="none" stroke="#000000" points="43.5,-925.5 43.5,-955.5 392.5,-955.5 392.5,-925.5 43.5,-925.5"/>
<text text-anchor="start" x="50.5" y="-936.9" font-family="Arial" font-size="14.00" fill="#000000">banned_link_id    </text>
<text text-anchor="start" x="178.8506" y="-936.9" font-family="Arial" font-size="14.00" fill="#666666">[bigint]</text>
<polygon fill="none" stroke="#000000" points="43.5,-895.5 43.5,-925.5 392.5,-925.5 392.5,-895.5 43.5,-895.5"/>
<text text-anchor="start" x="50.5" y="-906.9" font-family="Arial" font-size="14.00" fill="#000000">flag_create_or_update_by_manager    </text>
<text text-anchor="start" x="310.3428" y="-906.9" font-family="Arial" font-size="14.00" fill="#666666">[boolean]</text>
<polygon fill="none" stroke="#000000" points="43.5,-865.5 43.5,-895.5 392.5,-895.5 392.5,-865.5 43.5,-865.5"/>
<text text-anchor="start" x="50.5" y="-876.9" font-family="Arial" font-size="14.00" fill="#000000">in_finance_matching    </text>
<text text-anchor="start" x="213.075" y="-876.9" font-family="Arial" font-size="14.00" fill="#666666">[boolean]</text>
<polygon fill="none" stroke="#000000" points="43.5,-835.5 43.5,-865.5 392.5,-865.5 392.5,-835.5 43.5,-835.5"/>
<text text-anchor="start" x="50.5" y="-846.9" font-family="Arial" font-size="14.00" fill="#000000">date    </text>
<text text-anchor="start" x="111.9432" y="-846.9" font-family="Arial" font-size="14.00" fill="#666666">[date]</text>
<polygon fill="none" stroke="#000000" points="43.5,-805.5 43.5,-835.5 392.5,-835.5 392.5,-805.5 43.5,-805.5"/>
<text text-anchor="start" x="50.5" y="-816.9" font-family="Arial" font-size="14.00" fill="#000000">created_at    </text>
<text text-anchor="start" x="150.8422" y="-816.9" font-family="Arial" font-size="14.00" fill="#666666">[timestamp(0) without time zone]</text>
<polygon fill="none" stroke="#000000" points="43.5,-775.5 43.5,-805.5 392.5,-805.5 392.5,-775.5 43.5,-775.5"/>
<text text-anchor="start" x="50.5" y="-786.9" font-family="Arial" font-size="14.00" fill="#000000">updated_at    </text>
<text text-anchor="start" x="154.7468" y="-786.9" font-family="Arial" font-size="14.00" fill="#666666">[timestamp(0) without time zone]</text>
<polygon fill="none" stroke="#000000" points="43.5,-745.5 43.5,-775.5 392.5,-775.5 392.5,-745.5 43.5,-745.5"/>
<text text-anchor="start" x="50.5" y="-756.9" font-family="Arial" font-size="14.00" fill="#000000">deleted_at    </text>
<text text-anchor="start" x="150.0708" y="-756.9" font-family="Arial" font-size="14.00" fill="#666666">[timestamp(0) without time zone]</text>
<polygon fill="none" stroke="#000000" points="43.5,-715.5 43.5,-745.5 392.5,-745.5 392.5,-715.5 43.5,-715.5"/>
<text text-anchor="start" x="50.5" y="-726.9" font-family="Arial" font-size="14.00" fill="#000000">allowance    </text>
<text text-anchor="start" x="146.9376" y="-726.9" font-family="Arial" font-size="14.00" fill="#666666">[numeric(5,0)]</text>
<polygon fill="none" stroke="#000000" points="43.5,-685.5 43.5,-715.5 392.5,-715.5 392.5,-685.5 43.5,-685.5"/>
<text text-anchor="start" x="50.5" y="-696.9" font-family="Arial" font-size="14.00" fill="#000000">flag_hard_set_amount    </text>
<text text-anchor="start" x="223.9782" y="-696.9" font-family="Arial" font-size="14.00" fill="#666666">[boolean]</text>
<polygon fill="none" stroke="#000000" points="43.5,-655.5 43.5,-685.5 392.5,-685.5 392.5,-655.5 43.5,-655.5"/>
<text text-anchor="start" x="50.5" y="-666.9" font-family="Arial" font-size="14.00" fill="#000000">is_blocked    </text>
<text text-anchor="start" x="150.831" y="-666.9" font-family="Arial" font-size="14.00" fill="#666666">[boolean]</text>
</g>
<!-- public.orders&#45;&gt;public.reestrs -->
<g id="edge1" class="edge">
<title>public.orders:reestr_id&#45;&gt;public.reestrs:reestr_id</title>
<path fill="none" stroke="#000000" d="M402.1502,-1296.8198C466.0342,-1245.4217 435.3992,-672.0122 392.5,-613 362.0044,-571.0501 311.9956,-618.9499 281.5,-577 256.2812,-542.309 238.6111,-480.5 281.5,-480.5"/>
<polygon fill="#000000" stroke="#000000" points="401.8436,-1296.9367 390.8965,-1296.2954 397.1718,-1298.7183 392.5,-1300.5 392.5,-1300.5 392.5,-1300.5 397.1718,-1298.7183 394.1035,-1304.7046 401.8436,-1296.9367 401.8436,-1296.9367"/>
<text text-anchor="start" x="399.1695" y="-1310.5" font-family="Arial" font-size="10.00" fill="#000000">FOREIGN KEY (reestr_id) REFERENCES reestrs(reestr_id)</text>
</g>
<!-- public.partner_payments -->
<g id="node3" class="node">
<title>public.partner_payments</title>
<polygon fill="#efefef" stroke="transparent" points="496.5,-1660.5 496.5,-1695.5 834.5,-1695.5 834.5,-1660.5 496.5,-1660.5"/>
<polygon fill="none" stroke="#000000" points="496.5,-1660.5 496.5,-1695.5 834.5,-1695.5 834.5,-1660.5 496.5,-1660.5"/>
<text text-anchor="start" x="503.193" y="-1673.3" font-family="Arial Bold" font-size="18.00" fill="#000000">public.partner_payments</text>
<text text-anchor="start" x="700.239" y="-1673.3" font-family="Arial" font-size="14.00" fill="#000000">    </text>
<text text-anchor="start" x="734.4438" y="-1673.3" font-family="Arial" font-size="14.00" fill="#666666">[BASE TABLE]</text>
<polygon fill="none" stroke="#000000" points="496.5,-1630.5 496.5,-1660.5 834.5,-1660.5 834.5,-1630.5 496.5,-1630.5"/>
<text text-anchor="start" x="503.5" y="-1641.9" font-family="Arial" font-size="14.00" fill="#000000">payment_id    </text>
<text text-anchor="start" x="610.0582" y="-1641.9" font-family="Arial" font-size="14.00" fill="#666666">[bigint]</text>
<polygon fill="none" stroke="#000000" points="496.5,-1600.5 496.5,-1630.5 834.5,-1630.5 834.5,-1600.5 496.5,-1600.5"/>
<text text-anchor="start" x="503.5" y="-1611.9" font-family="Arial" font-size="14.00" fill="#000000">reestr_id    </text>
<text text-anchor="start" x="592.1536" y="-1611.9" font-family="Arial" font-size="14.00" fill="#666666">[bigint]</text>
<polygon fill="none" stroke="#000000" points="496.5,-1570.5 496.5,-1600.5 834.5,-1600.5 834.5,-1570.5 496.5,-1570.5"/>
<text text-anchor="start" x="503.5" y="-1581.9" font-family="Arial" font-size="14.00" fill="#000000">partner_id    </text>
<text text-anchor="start" x="600.7188" y="-1581.9" font-family="Arial" font-size="14.00" fill="#666666">[bigint]</text>
<polygon fill="none" stroke="#000000" points="496.5,-1540.5 496.5,-1570.5 834.5,-1570.5 834.5,-1540.5 496.5,-1540.5"/>
<text text-anchor="start" x="503.5" y="-1551.9" font-family="Arial" font-size="14.00" fill="#000000">partner_type    </text>
<text text-anchor="start" x="616.2854" y="-1551.9" font-family="Arial" font-size="14.00" fill="#666666">[varchar(255)]</text>
<polygon fill="none" stroke="#000000" points="496.5,-1510.5 496.5,-1540.5 834.5,-1540.5 834.5,-1510.5 496.5,-1510.5"/>
<text text-anchor="start" x="503.5" y="-1521.9" font-family="Arial" font-size="14.00" fill="#000000">user_type    </text>
<text text-anchor="start" x="599.169" y="-1521.9" font-family="Arial" font-size="14.00" fill="#666666">[varchar(255)]</text>
<polygon fill="none" stroke="#000000" points="496.5,-1480.5 496.5,-1510.5 834.5,-1510.5 834.5,-1480.5 496.5,-1480.5"/>
<text text-anchor="start" x="503.5" y="-1491.9" font-family="Arial" font-size="14.00" fill="#000000">pay_method    </text>
<text text-anchor="start" x="614.7342" y="-1491.9" font-family="Arial" font-size="14.00" fill="#666666">[varchar(255)]</text>
<polygon fill="none" stroke="#000000" points="496.5,-1450.5 496.5,-1480.5 834.5,-1480.5 834.5,-1450.5 496.5,-1450.5"/>
<text text-anchor="start" x="503.5" y="-1461.9" font-family="Arial" font-size="14.00" fill="#000000">pay_account    </text>
<text text-anchor="start" x="617.0736" y="-1461.9" font-family="Arial" font-size="14.00" fill="#666666">[varchar(255)]</text>
<polygon fill="none" stroke="#000000" points="496.5,-1420.5 496.5,-1450.5 834.5,-1450.5 834.5,-1420.5 496.5,-1420.5"/>
<text text-anchor="start" x="503.5" y="-1431.9" font-family="Arial" font-size="14.00" fill="#000000">revenue    </text>
<text text-anchor="start" x="588.2784" y="-1431.9" font-family="Arial" font-size="14.00" fill="#666666">[numeric(12,2)]</text>
<polygon fill="none" stroke="#000000" points="496.5,-1390.5 496.5,-1420.5 834.5,-1420.5 834.5,-1390.5 496.5,-1390.5"/>
<text text-anchor="start" x="503.5" y="-1401.9" font-family="Arial" font-size="14.00" fill="#000000">status    </text>
<text text-anchor="start" x="575.0512" y="-1401.9" font-family="Arial" font-size="14.00" fill="#666666">[integer]</text>
<polygon fill="none" stroke="#000000" points="496.5,-1360.5 496.5,-1390.5 834.5,-1390.5 834.5,-1360.5 496.5,-1360.5"/>
<text text-anchor="start" x="503.5" y="-1371.9" font-family="Arial" font-size="14.00" fill="#000000">created_at    </text>
<text text-anchor="start" x="603.8422" y="-1371.9" font-family="Arial" font-size="14.00" fill="#666666">[timestamp(0) without time zone]</text>
<polygon fill="none" stroke="#000000" points="496.5,-1330.5 496.5,-1360.5 834.5,-1360.5 834.5,-1330.5 496.5,-1330.5"/>
<text text-anchor="start" x="503.5" y="-1341.9" font-family="Arial" font-size="14.00" fill="#000000">updated_at    </text>
<text text-anchor="start" x="607.7468" y="-1341.9" font-family="Arial" font-size="14.00" fill="#666666">[timestamp(0) without time zone]</text>
<polygon fill="none" stroke="#000000" points="496.5,-1300.5 496.5,-1330.5 834.5,-1330.5 834.5,-1300.5 496.5,-1300.5"/>
<text text-anchor="start" x="503.5" y="-1311.9" font-family="Arial" font-size="14.00" fill="#000000">deleted_at    </text>
<text text-anchor="start" x="603.0708" y="-1311.9" font-family="Arial" font-size="14.00" fill="#666666">[timestamp(0) without time zone]</text>
<polygon fill="none" stroke="#000000" points="496.5,-1270.5 496.5,-1300.5 834.5,-1300.5 834.5,-1270.5 496.5,-1270.5"/>
<text text-anchor="start" x="503.5" y="-1281.9" font-family="Arial" font-size="14.00" fill="#000000">paid    </text>
<text text-anchor="start" x="564.1592" y="-1281.9" font-family="Arial" font-size="14.00" fill="#666666">[integer]</text>
<polygon fill="none" stroke="#000000" points="496.5,-1240.5 496.5,-1270.5 834.5,-1270.5 834.5,-1240.5 496.5,-1240.5"/>
<text text-anchor="start" x="503.5" y="-1251.9" font-family="Arial" font-size="14.00" fill="#000000">link    </text>
<text text-anchor="start" x="558.7006" y="-1251.9" font-family="Arial" font-size="14.00" fill="#666666">[varchar(255)]</text>
<polygon fill="none" stroke="#000000" points="496.5,-1210.5 496.5,-1240.5 834.5,-1240.5 834.5,-1210.5 496.5,-1210.5"/>
<text text-anchor="start" x="503.5" y="-1221.9" font-family="Arial" font-size="14.00" fill="#000000">datetime    </text>
<text text-anchor="start" x="591.3836" y="-1221.9" font-family="Arial" font-size="14.00" fill="#666666">[timestamp(0) without time zone]</text>
</g>
<!-- public.partner_payments&#45;&gt;public.reestrs -->
<g id="edge2" class="edge">
<title>public.partner_payments:reestr_id&#45;&gt;public.reestrs:reestr_id</title>
<path fill="none" stroke="#000000" d="M486.5083,-1613.8532C367.5693,-1572.0382 585.7042,-746.4523 600.5,-577 604.2307,-534.2737 643.3889,-480.5 600.5,-480.5"/>
<polygon fill="#000000" stroke="#000000" points="486.6331,-1613.8737 495.7682,-1619.9401 491.5666,-1614.6869 496.5,-1615.5 496.5,-1615.5 496.5,-1615.5 491.5666,-1614.6869 497.2318,-1611.0599 486.6331,-1613.8737 486.6331,-1613.8737"/>
<text text-anchor="start" x="503.1695" y="-1625.5" font-family="Arial" font-size="10.00" fill="#000000">FOREIGN KEY (reestr_id) REFERENCES reestrs(reestr_id)</text>
</g>
</g>
</svg>
