<?xml version="1.0" encoding="UTF-8" standalone="no"?>
<!DOCTYPE svg PUBLIC "-//W3C//DTD SVG 1.1//EN"
 "http://www.w3.org/Graphics/SVG/1.1/DTD/svg11.dtd">
<!-- Generated by graphviz version 2.40.1 (20161225.0304)
 -->
<!-- Title: public.notify Pages: 1 -->
<svg width="874pt" height="2422pt"
 viewBox="0.00 0.00 874.00 2422.00" xmlns="http://www.w3.org/2000/svg" xmlns:xlink="http://www.w3.org/1999/xlink">
<g id="graph0" class="graph" transform="scale(1 1) rotate(0) translate(4 2418)">
<title>public.notify</title>
<polygon fill="#ffffff" stroke="transparent" points="-4,4 -4,-2418 870,-2418 870,4 -4,4"/>
<!-- public.notify -->
<g id="node1" class="node">
<title>public.notify</title>
<polygon fill="#efefef" stroke="transparent" points="288,-2332.5 288,-2367.5 596,-2367.5 596,-2332.5 288,-2332.5"/>
<polygon fill="none" stroke="#000000" points="288,-2332.5 288,-2367.5 596,-2367.5 596,-2332.5 288,-2332.5"/>
<text text-anchor="start" x="330.7059" y="-2345.3" font-family="Arial Bold" font-size="18.00" fill="#000000">public.notify</text>
<text text-anchor="start" x="425.7261" y="-2345.3" font-family="Arial" font-size="14.00" fill="#000000">    </text>
<text text-anchor="start" x="459.9309" y="-2345.3" font-family="Arial" font-size="14.00" fill="#666666">[BASE TABLE]</text>
<polygon fill="none" stroke="#000000" points="288,-2302.5 288,-2332.5 596,-2332.5 596,-2302.5 288,-2302.5"/>
<text text-anchor="start" x="295" y="-2313.9" font-family="Arial" font-size="14.00" fill="#000000">notify_id </text>
<text text-anchor="start" x="351.0154" y="-2313.9" font-family="Arial" font-size="14.00" fill="#666666">[bigint]</text>
<polygon fill="none" stroke="#000000" points="288,-2272.5 288,-2302.5 596,-2302.5 596,-2272.5 288,-2272.5"/>
<text text-anchor="start" x="295" y="-2283.9" font-family="Arial" font-size="14.00" fill="#000000">datetime </text>
<text text-anchor="start" x="352.5694" y="-2283.9" font-family="Arial" font-size="14.00" fill="#666666">[timestamp(0) without time zone]</text>
<polygon fill="none" stroke="#000000" points="288,-2242.5 288,-2272.5 596,-2272.5 596,-2242.5 288,-2242.5"/>
<text text-anchor="start" x="295" y="-2253.9" font-family="Arial" font-size="14.00" fill="#000000">partner_id </text>
<text text-anchor="start" x="361.9046" y="-2253.9" font-family="Arial" font-size="14.00" fill="#666666">[bigint]</text>
<polygon fill="none" stroke="#000000" points="288,-2212.5 288,-2242.5 596,-2242.5 596,-2212.5 288,-2212.5"/>
<text text-anchor="start" x="295" y="-2223.9" font-family="Arial" font-size="14.00" fill="#000000">click_id </text>
<text text-anchor="start" x="344.7756" y="-2223.9" font-family="Arial" font-size="14.00" fill="#666666">[varchar(255)]</text>
<polygon fill="none" stroke="#000000" points="288,-2182.5 288,-2212.5 596,-2212.5 596,-2182.5 288,-2182.5"/>
<text text-anchor="start" x="295" y="-2193.9" font-family="Arial" font-size="14.00" fill="#000000">web_id </text>
<text text-anchor="start" x="343.2342" y="-2193.9" font-family="Arial" font-size="14.00" fill="#666666">[varchar(255)]</text>
<polygon fill="none" stroke="#000000" points="288,-2152.5 288,-2182.5 596,-2182.5 596,-2152.5 288,-2152.5"/>
<text text-anchor="start" x="295" y="-2163.9" font-family="Arial" font-size="14.00" fill="#000000">order_id </text>
<text text-anchor="start" x="350.2314" y="-2163.9" font-family="Arial" font-size="14.00" fill="#666666">[varchar(255)]</text>
<polygon fill="none" stroke="#000000" points="288,-2122.5 288,-2152.5 596,-2152.5 596,-2122.5 288,-2122.5"/>
<text text-anchor="start" x="295" y="-2133.9" font-family="Arial" font-size="14.00" fill="#000000">link_id </text>
<text text-anchor="start" x="338.5582" y="-2133.9" font-family="Arial" font-size="14.00" fill="#666666">[bigint]</text>
<polygon fill="none" stroke="#000000" points="288,-2092.5 288,-2122.5 596,-2122.5 596,-2092.5 288,-2092.5"/>
<text text-anchor="start" x="295" y="-2103.9" font-family="Arial" font-size="14.00" fill="#000000">link_postback_param </text>
<text text-anchor="start" x="431.1416" y="-2103.9" font-family="Arial" font-size="14.00" fill="#666666">[varchar(255)]</text>
<polygon fill="none" stroke="#000000" points="288,-2062.5 288,-2092.5 596,-2092.5 596,-2062.5 288,-2062.5"/>
<text text-anchor="start" x="295" y="-2073.9" font-family="Arial" font-size="14.00" fill="#000000">model </text>
<text text-anchor="start" x="337.0056" y="-2073.9" font-family="Arial" font-size="14.00" fill="#666666">[varchar(255)]</text>
<polygon fill="none" stroke="#000000" points="288,-2032.5 288,-2062.5 596,-2062.5 596,-2032.5 288,-2032.5"/>
<text text-anchor="start" x="295" y="-2043.9" font-family="Arial" font-size="14.00" fill="#000000">status </text>
<text text-anchor="start" x="336.237" y="-2043.9" font-family="Arial" font-size="14.00" fill="#666666">[varchar(255)]</text>
<polygon fill="none" stroke="#000000" points="288,-2002.5 288,-2032.5 596,-2032.5 596,-2002.5 288,-2002.5"/>
<text text-anchor="start" x="295" y="-2013.9" font-family="Arial" font-size="14.00" fill="#000000">fee_id </text>
<text text-anchor="start" x="337.0182" y="-2013.9" font-family="Arial" font-size="14.00" fill="#666666">[bigint]</text>
<polygon fill="none" stroke="#000000" points="288,-1972.5 288,-2002.5 596,-2002.5 596,-1972.5 288,-1972.5"/>
<text text-anchor="start" x="295" y="-1983.9" font-family="Arial" font-size="14.00" fill="#000000">amount </text>
<text text-anchor="start" x="345.5722" y="-1983.9" font-family="Arial" font-size="14.00" fill="#666666">[numeric(12,2)]</text>
<polygon fill="none" stroke="#000000" points="288,-1942.5 288,-1972.5 596,-1972.5 596,-1942.5 288,-1942.5"/>
<text text-anchor="start" x="295" y="-1953.9" font-family="Arial" font-size="14.00" fill="#000000">gross_amount </text>
<text text-anchor="start" x="387.5806" y="-1953.9" font-family="Arial" font-size="14.00" fill="#666666">[numeric(12,2)]</text>
<polygon fill="none" stroke="#000000" points="288,-1912.5 288,-1942.5 596,-1942.5 596,-1912.5 288,-1912.5"/>
<text text-anchor="start" x="295" y="-1923.9" font-family="Arial" font-size="14.00" fill="#000000">comment </text>
<text text-anchor="start" x="356.4502" y="-1923.9" font-family="Arial" font-size="14.00" fill="#666666">[varchar(255)]</text>
<polygon fill="none" stroke="#000000" points="288,-1882.5 288,-1912.5 596,-1912.5 596,-1882.5 288,-1882.5"/>
<text text-anchor="start" x="295" y="-1893.9" font-family="Arial" font-size="14.00" fill="#000000">sent_cnt </text>
<text text-anchor="start" x="351.8022" y="-1893.9" font-family="Arial" font-size="14.00" fill="#666666">[integer]</text>
<polygon fill="none" stroke="#000000" points="288,-1852.5 288,-1882.5 596,-1882.5 596,-1852.5 288,-1852.5"/>
<text text-anchor="start" x="295" y="-1863.9" font-family="Arial" font-size="14.00" fill="#000000">sent_url </text>
<text text-anchor="start" x="348.6788" y="-1863.9" font-family="Arial" font-size="14.00" fill="#666666">[text]</text>
<polygon fill="none" stroke="#000000" points="288,-1822.5 288,-1852.5 596,-1852.5 596,-1822.5 288,-1822.5"/>
<text text-anchor="start" x="295" y="-1833.9" font-family="Arial" font-size="14.00" fill="#000000">sent_method </text>
<text text-anchor="start" x="379.8106" y="-1833.9" font-family="Arial" font-size="14.00" fill="#666666">[varchar(255)]</text>
<polygon fill="none" stroke="#000000" points="288,-1792.5 288,-1822.5 596,-1822.5 596,-1792.5 288,-1792.5"/>
<text text-anchor="start" x="295" y="-1803.9" font-family="Arial" font-size="14.00" fill="#000000">sent_request </text>
<text text-anchor="start" x="379.8106" y="-1803.9" font-family="Arial" font-size="14.00" fill="#666666">[text]</text>
<polygon fill="none" stroke="#000000" points="288,-1762.5 288,-1792.5 596,-1792.5 596,-1762.5 288,-1762.5"/>
<text text-anchor="start" x="294.9741" y="-1773.9" font-family="Arial" font-size="14.00" fill="#000000">sent_datetime </text>
<text text-anchor="start" x="386.7819" y="-1773.9" font-family="Arial" font-size="14.00" fill="#666666">[timestamp(0) without time zone]</text>
<polygon fill="none" stroke="#000000" points="288,-1732.5 288,-1762.5 596,-1762.5 596,-1732.5 288,-1732.5"/>
<text text-anchor="start" x="295" y="-1743.9" font-family="Arial" font-size="14.00" fill="#000000">responce_httpcode </text>
<text text-anchor="start" x="417.941" y="-1743.9" font-family="Arial" font-size="14.00" fill="#666666">[integer]</text>
<polygon fill="none" stroke="#000000" points="288,-1702.5 288,-1732.5 596,-1732.5 596,-1702.5 288,-1702.5"/>
<text text-anchor="start" x="295" y="-1713.9" font-family="Arial" font-size="14.00" fill="#000000">responce_body </text>
<text text-anchor="start" x="394.5946" y="-1713.9" font-family="Arial" font-size="14.00" fill="#666666">[text]</text>
<polygon fill="none" stroke="#000000" stroke-width="3" points="286.5,-1701.5 286.5,-2369.5 597.5,-2369.5 597.5,-1701.5 286.5,-1701.5"/>
</g>
<!-- public.users -->
<g id="node2" class="node">
<title>public.users</title>
<polygon fill="#efefef" stroke="transparent" points="43,-1542.5 43,-1577.5 399,-1577.5 399,-1542.5 43,-1542.5"/>
<polygon fill="none" stroke="#000000" points="43,-1542.5 43,-1577.5 399,-1577.5 399,-1542.5 43,-1542.5"/>
<text text-anchor="start" x="109.2091" y="-1555.3" font-family="Arial Bold" font-size="18.00" fill="#000000">public.users</text>
<text text-anchor="start" x="205.2229" y="-1555.3" font-family="Arial" font-size="14.00" fill="#000000">    </text>
<text text-anchor="start" x="239.4277" y="-1555.3" font-family="Arial" font-size="14.00" fill="#666666">[BASE TABLE]</text>
<polygon fill="none" stroke="#000000" points="43,-1512.5 43,-1542.5 399,-1542.5 399,-1512.5 43,-1512.5"/>
<text text-anchor="start" x="50" y="-1523.9" font-family="Arial" font-size="14.00" fill="#000000">id    </text>
<text text-anchor="start" x="95.094" y="-1523.9" font-family="Arial" font-size="14.00" fill="#666666">[bigint]</text>
<polygon fill="none" stroke="#000000" points="43,-1482.5 43,-1512.5 399,-1512.5 399,-1482.5 43,-1482.5"/>
<text text-anchor="start" x="50" y="-1493.9" font-family="Arial" font-size="14.00" fill="#000000">name    </text>
<text text-anchor="start" x="119.2132" y="-1493.9" font-family="Arial" font-size="14.00" fill="#666666">[varchar(255)]</text>
<polygon fill="none" stroke="#000000" points="43,-1452.5 43,-1482.5 399,-1482.5 399,-1452.5 43,-1452.5"/>
<text text-anchor="start" x="50" y="-1463.9" font-family="Arial" font-size="14.00" fill="#000000">email    </text>
<text text-anchor="start" x="117.6438" y="-1463.9" font-family="Arial" font-size="14.00" fill="#666666">[varchar(255)]</text>
<polygon fill="none" stroke="#000000" points="43,-1422.5 43,-1452.5 399,-1452.5 399,-1422.5 43,-1422.5"/>
<text text-anchor="start" x="50" y="-1433.9" font-family="Arial" font-size="14.00" fill="#000000">lang    </text>
<text text-anchor="start" x="110.6592" y="-1433.9" font-family="Arial" font-size="14.00" fill="#666666">[varchar(255)]</text>
<polygon fill="none" stroke="#000000" points="43,-1392.5 43,-1422.5 399,-1422.5 399,-1392.5 43,-1392.5"/>
<text text-anchor="start" x="50" y="-1403.9" font-family="Arial" font-size="14.00" fill="#000000">role    </text>
<text text-anchor="start" x="107.5372" y="-1403.9" font-family="Arial" font-size="14.00" fill="#666666">[varchar(255)]</text>
<polygon fill="none" stroke="#000000" points="43,-1362.5 43,-1392.5 399,-1392.5 399,-1362.5 43,-1362.5"/>
<text text-anchor="start" x="50" y="-1373.9" font-family="Arial" font-size="14.00" fill="#000000">hash_name    </text>
<text text-anchor="start" x="157.3436" y="-1373.9" font-family="Arial" font-size="14.00" fill="#666666">[varchar(255)]</text>
<polygon fill="none" stroke="#000000" points="43,-1332.5 43,-1362.5 399,-1362.5 399,-1332.5 43,-1332.5"/>
<text text-anchor="start" x="50" y="-1343.9" font-family="Arial" font-size="14.00" fill="#000000">user_type_id    </text>
<text text-anchor="start" x="164.3408" y="-1343.9" font-family="Arial" font-size="14.00" fill="#666666">[bigint]</text>
<polygon fill="none" stroke="#000000" points="43,-1302.5 43,-1332.5 399,-1332.5 399,-1302.5 43,-1302.5"/>
<text text-anchor="start" x="50" y="-1313.9" font-family="Arial" font-size="14.00" fill="#000000">type    </text>
<text text-anchor="start" x="110.6606" y="-1313.9" font-family="Arial" font-size="14.00" fill="#666666">[varchar(255)]</text>
<polygon fill="none" stroke="#000000" points="43,-1272.5 43,-1302.5 399,-1302.5 399,-1272.5 43,-1272.5"/>
<text text-anchor="start" x="49.8808" y="-1283.9" font-family="Arial" font-size="14.00" fill="#000000">email_verified_at    </text>
<text text-anchor="start" x="189.8752" y="-1283.9" font-family="Arial" font-size="14.00" fill="#666666">[timestamp(0) without time zone]</text>
<polygon fill="none" stroke="#000000" points="43,-1242.5 43,-1272.5 399,-1272.5 399,-1242.5 43,-1242.5"/>
<text text-anchor="start" x="50" y="-1253.9" font-family="Arial" font-size="14.00" fill="#000000">password    </text>
<text text-anchor="start" x="144.1024" y="-1253.9" font-family="Arial" font-size="14.00" fill="#666666">[varchar(255)]</text>
<polygon fill="none" stroke="#000000" points="43,-1212.5 43,-1242.5 399,-1242.5 399,-1212.5 43,-1212.5"/>
<text text-anchor="start" x="50" y="-1223.9" font-family="Arial" font-size="14.00" fill="#000000">code_for_login    </text>
<text text-anchor="start" x="176.0126" y="-1223.9" font-family="Arial" font-size="14.00" fill="#666666">[varchar(255)]</text>
<polygon fill="none" stroke="#000000" points="43,-1182.5 43,-1212.5 399,-1212.5 399,-1182.5 43,-1182.5"/>
<text text-anchor="start" x="50" y="-1193.9" font-family="Arial" font-size="14.00" fill="#000000">status    </text>
<text text-anchor="start" x="121.5512" y="-1193.9" font-family="Arial" font-size="14.00" fill="#666666">[integer]</text>
<polygon fill="none" stroke="#000000" points="43,-1152.5 43,-1182.5 399,-1182.5 399,-1152.5 43,-1152.5"/>
<text text-anchor="start" x="50" y="-1163.9" font-family="Arial" font-size="14.00" fill="#000000">partner_type    </text>
<text text-anchor="start" x="162.7854" y="-1163.9" font-family="Arial" font-size="14.00" fill="#666666">[varchar(255)]</text>
<polygon fill="none" stroke="#000000" points="43,-1122.5 43,-1152.5 399,-1152.5 399,-1122.5 43,-1122.5"/>
<text text-anchor="start" x="50" y="-1133.9" font-family="Arial" font-size="14.00" fill="#000000">direct_contract    </text>
<text text-anchor="start" x="176" y="-1133.9" font-family="Arial" font-size="14.00" fill="#666666">[boolean]</text>
<polygon fill="none" stroke="#000000" points="43,-1092.5 43,-1122.5 399,-1122.5 399,-1092.5 43,-1092.5"/>
<text text-anchor="start" x="50" y="-1103.9" font-family="Arial" font-size="14.00" fill="#000000">need_api    </text>
<text text-anchor="start" x="141.7896" y="-1103.9" font-family="Arial" font-size="14.00" fill="#666666">[boolean]</text>
<polygon fill="none" stroke="#000000" points="43,-1062.5 43,-1092.5 399,-1092.5 399,-1062.5 43,-1062.5"/>
<text text-anchor="start" x="50" y="-1073.9" font-family="Arial" font-size="14.00" fill="#000000">ref_id    </text>
<text text-anchor="start" x="119.2104" y="-1073.9" font-family="Arial" font-size="14.00" fill="#666666">[bigint]</text>
<polygon fill="none" stroke="#000000" points="43,-1032.5 43,-1062.5 399,-1062.5 399,-1032.5 43,-1032.5"/>
<text text-anchor="start" x="50" y="-1043.9" font-family="Arial" font-size="14.00" fill="#000000">comment    </text>
<text text-anchor="start" x="141.7644" y="-1043.9" font-family="Arial" font-size="14.00" fill="#666666">[varchar(255)]</text>
<polygon fill="none" stroke="#000000" points="43,-1002.5 43,-1032.5 399,-1032.5 399,-1002.5 43,-1002.5"/>
<text text-anchor="start" x="50" y="-1013.9" font-family="Arial" font-size="14.00" fill="#000000">date_of_birth    </text>
<text text-anchor="start" x="165.9046" y="-1013.9" font-family="Arial" font-size="14.00" fill="#666666">[date]</text>
<polygon fill="none" stroke="#000000" points="43,-972.5 43,-1002.5 399,-1002.5 399,-972.5 43,-972.5"/>
<text text-anchor="start" x="50" y="-983.9" font-family="Arial" font-size="14.00" fill="#000000">passport_series    </text>
<text text-anchor="start" x="183.0014" y="-983.9" font-family="Arial" font-size="14.00" fill="#666666">[varchar(255)]</text>
<polygon fill="none" stroke="#000000" points="43,-942.5 43,-972.5 399,-972.5 399,-942.5 43,-942.5"/>
<text text-anchor="start" x="50" y="-953.9" font-family="Arial" font-size="14.00" fill="#000000">passport_number    </text>
<text text-anchor="start" x="193.1206" y="-953.9" font-family="Arial" font-size="14.00" fill="#666666">[varchar(255)]</text>
<polygon fill="none" stroke="#000000" points="43,-912.5 43,-942.5 399,-942.5 399,-912.5 43,-912.5"/>
<text text-anchor="start" x="50" y="-923.9" font-family="Arial" font-size="14.00" fill="#000000">citizenship    </text>
<text text-anchor="start" x="149.5456" y="-923.9" font-family="Arial" font-size="14.00" fill="#666666">[varchar(255)]</text>
<polygon fill="none" stroke="#000000" points="43,-882.5 43,-912.5 399,-912.5 399,-882.5 43,-882.5"/>
<text text-anchor="start" x="50" y="-893.9" font-family="Arial" font-size="14.00" fill="#000000">client_id    </text>
<text text-anchor="start" x="135.5456" y="-893.9" font-family="Arial" font-size="14.00" fill="#666666">[varchar(255)]</text>
<polygon fill="none" stroke="#000000" points="43,-852.5 43,-882.5 399,-882.5 399,-852.5 43,-852.5"/>
<text text-anchor="start" x="50" y="-863.9" font-family="Arial" font-size="14.00" fill="#000000">phone    </text>
<text text-anchor="start" x="123.1178" y="-863.9" font-family="Arial" font-size="14.00" fill="#666666">[varchar(255)]</text>
<polygon fill="none" stroke="#000000" points="43,-822.5 43,-852.5 399,-852.5 399,-822.5 43,-822.5"/>
<text text-anchor="start" x="50" y="-833.9" font-family="Arial" font-size="14.00" fill="#000000">skype    </text>
<text text-anchor="start" x="120.77" y="-833.9" font-family="Arial" font-size="14.00" fill="#666666">[varchar(255)]</text>
<polygon fill="none" stroke="#000000" points="43,-792.5 43,-822.5 399,-822.5 399,-792.5 43,-792.5"/>
<text text-anchor="start" x="50" y="-803.9" font-family="Arial" font-size="14.00" fill="#000000">whatsapp    </text>
<text text-anchor="start" x="144.115" y="-803.9" font-family="Arial" font-size="14.00" fill="#666666">[varchar(255)]</text>
<polygon fill="none" stroke="#000000" points="43,-762.5 43,-792.5 399,-792.5 399,-762.5 43,-762.5"/>
<text text-anchor="start" x="50" y="-773.9" font-family="Arial" font-size="14.00" fill="#000000">telegram    </text>
<text text-anchor="start" x="138.6536" y="-773.9" font-family="Arial" font-size="14.00" fill="#666666">[varchar(255)]</text>
<polygon fill="none" stroke="#000000" points="43,-732.5 43,-762.5 399,-762.5 399,-732.5 43,-732.5"/>
<text text-anchor="start" x="50" y="-743.9" font-family="Arial" font-size="14.00" fill="#000000">address    </text>
<text text-anchor="start" x="133.9958" y="-743.9" font-family="Arial" font-size="14.00" fill="#666666">[text]</text>
<polygon fill="none" stroke="#000000" points="43,-702.5 43,-732.5 399,-732.5 399,-702.5 43,-702.5"/>
<text text-anchor="start" x="50" y="-713.9" font-family="Arial" font-size="14.00" fill="#000000">postal_code    </text>
<text text-anchor="start" x="159.6802" y="-713.9" font-family="Arial" font-size="14.00" fill="#666666">[varchar(255)]</text>
<polygon fill="none" stroke="#000000" points="43,-672.5 43,-702.5 399,-702.5 399,-672.5 43,-672.5"/>
<text text-anchor="start" x="50" y="-683.9" font-family="Arial" font-size="14.00" fill="#000000">city    </text>
<text text-anchor="start" x="105.202" y="-683.9" font-family="Arial" font-size="14.00" fill="#666666">[varchar(255)]</text>
<polygon fill="none" stroke="#000000" points="43,-642.5 43,-672.5 399,-672.5 399,-642.5 43,-642.5"/>
<text text-anchor="start" x="50" y="-653.9" font-family="Arial" font-size="14.00" fill="#000000">country    </text>
<text text-anchor="start" x="130.1038" y="-653.9" font-family="Arial" font-size="14.00" fill="#666666">[varchar(255)]</text>
<polygon fill="none" stroke="#000000" points="43,-612.5 43,-642.5 399,-642.5 399,-612.5 43,-612.5"/>
<text text-anchor="start" x="50" y="-623.9" font-family="Arial" font-size="14.00" fill="#000000">welcome_status    </text>
<text text-anchor="start" x="184.5554" y="-623.9" font-family="Arial" font-size="14.00" fill="#666666">[varchar(255)]</text>
<polygon fill="none" stroke="#000000" points="43,-582.5 43,-612.5 399,-612.5 399,-582.5 43,-582.5"/>
<text text-anchor="start" x="50" y="-593.9" font-family="Arial" font-size="14.00" fill="#000000">welcome_confirm_code    </text>
<text text-anchor="start" x="231.223" y="-593.9" font-family="Arial" font-size="14.00" fill="#666666">[integer]</text>
<polygon fill="none" stroke="#000000" points="43,-552.5 43,-582.5 399,-582.5 399,-552.5 43,-552.5"/>
<text text-anchor="start" x="50" y="-563.9" font-family="Arial" font-size="14.00" fill="#000000">all_docs    </text>
<text text-anchor="start" x="135.5484" y="-563.9" font-family="Arial" font-size="14.00" fill="#666666">[boolean]</text>
<polygon fill="none" stroke="#000000" points="43,-522.5 43,-552.5 399,-552.5 399,-522.5 43,-522.5"/>
<text text-anchor="start" x="50" y="-533.9" font-family="Arial" font-size="14.00" fill="#000000">sign_status    </text>
<text text-anchor="start" x="155.0056" y="-533.9" font-family="Arial" font-size="14.00" fill="#666666">[varchar(255)]</text>
<polygon fill="none" stroke="#000000" points="43,-492.5 43,-522.5 399,-522.5 399,-492.5 43,-492.5"/>
<text text-anchor="start" x="50" y="-503.9" font-family="Arial" font-size="14.00" fill="#000000">letter_style    </text>
<text text-anchor="start" x="151.8808" y="-503.9" font-family="Arial" font-size="14.00" fill="#666666">[varchar(255)]</text>
<polygon fill="none" stroke="#000000" points="43,-462.5 43,-492.5 399,-492.5 399,-462.5 43,-462.5"/>
<text text-anchor="start" x="50" y="-473.9" font-family="Arial" font-size="14.00" fill="#000000">all_fields    </text>
<text text-anchor="start" x="138.6522" y="-473.9" font-family="Arial" font-size="14.00" fill="#666666">[boolean]</text>
<polygon fill="none" stroke="#000000" points="43,-432.5 43,-462.5 399,-462.5 399,-432.5 43,-432.5"/>
<text text-anchor="start" x="50" y="-443.9" font-family="Arial" font-size="14.00" fill="#000000">balance_popup    </text>
<text text-anchor="start" x="179.92" y="-443.9" font-family="Arial" font-size="14.00" fill="#666666">[boolean]</text>
<polygon fill="none" stroke="#000000" points="43,-402.5 43,-432.5 399,-432.5 399,-402.5 43,-402.5"/>
<text text-anchor="start" x="50" y="-413.9" font-family="Arial" font-size="14.00" fill="#000000">email_unsubs    </text>
<text text-anchor="start" x="170.5568" y="-413.9" font-family="Arial" font-size="14.00" fill="#666666">[boolean]</text>
<polygon fill="none" stroke="#000000" points="43,-372.5 43,-402.5 399,-402.5 399,-372.5 43,-372.5"/>
<text text-anchor="start" x="50" y="-383.9" font-family="Arial" font-size="14.00" fill="#000000">model    </text>
<text text-anchor="start" x="122.3198" y="-383.9" font-family="Arial" font-size="14.00" fill="#666666">[varchar(255)]</text>
<polygon fill="none" stroke="#000000" points="43,-342.5 43,-372.5 399,-372.5 399,-342.5 43,-342.5"/>
<text text-anchor="start" x="50" y="-353.9" font-family="Arial" font-size="14.00" fill="#000000">remember_token    </text>
<text text-anchor="start" x="189.9986" y="-353.9" font-family="Arial" font-size="14.00" fill="#666666">[varchar(100)]</text>
<polygon fill="none" stroke="#000000" points="43,-312.5 43,-342.5 399,-342.5 399,-312.5 43,-312.5"/>
<text text-anchor="start" x="50" y="-323.9" font-family="Arial" font-size="14.00" fill="#000000">auth_token    </text>
<text text-anchor="start" x="153.4642" y="-323.9" font-family="Arial" font-size="14.00" fill="#666666">[varchar(100)]</text>
<polygon fill="none" stroke="#000000" points="43,-282.5 43,-312.5 399,-312.5 399,-282.5 43,-282.5"/>
<text text-anchor="start" x="50" y="-293.9" font-family="Arial" font-size="14.00" fill="#000000">utms    </text>
<text text-anchor="start" x="114.5386" y="-293.9" font-family="Arial" font-size="14.00" fill="#666666">[json]</text>
<polygon fill="none" stroke="#000000" points="43,-252.5 43,-282.5 399,-282.5 399,-252.5 43,-252.5"/>
<text text-anchor="start" x="50" y="-263.9" font-family="Arial" font-size="14.00" fill="#000000">created_at    </text>
<text text-anchor="start" x="150.3422" y="-263.9" font-family="Arial" font-size="14.00" fill="#666666">[timestamp(0) without time zone]</text>
<polygon fill="none" stroke="#000000" points="43,-222.5 43,-252.5 399,-252.5 399,-222.5 43,-222.5"/>
<text text-anchor="start" x="50" y="-233.9" font-family="Arial" font-size="14.00" fill="#000000">updated_at    </text>
<text text-anchor="start" x="154.2468" y="-233.9" font-family="Arial" font-size="14.00" fill="#666666">[timestamp(0) without time zone]</text>
<polygon fill="none" stroke="#000000" points="43,-192.5 43,-222.5 399,-222.5 399,-192.5 43,-192.5"/>
<text text-anchor="start" x="50" y="-203.9" font-family="Arial" font-size="14.00" fill="#000000">deleted_at    </text>
<text text-anchor="start" x="149.5708" y="-203.9" font-family="Arial" font-size="14.00" fill="#666666">[timestamp(0) without time zone]</text>
<polygon fill="none" stroke="#000000" points="43,-162.5 43,-192.5 399,-192.5 399,-162.5 43,-162.5"/>
<text text-anchor="start" x="50" y="-173.9" font-family="Arial" font-size="14.00" fill="#000000">send_to_ado    </text>
<text text-anchor="start" x="165.1388" y="-173.9" font-family="Arial" font-size="14.00" fill="#666666">[boolean]</text>
<polygon fill="none" stroke="#000000" points="43,-132.5 43,-162.5 399,-162.5 399,-132.5 43,-132.5"/>
<text text-anchor="start" x="50" y="-143.9" font-family="Arial" font-size="14.00" fill="#000000">ado_sent_at    </text>
<text text-anchor="start" x="161.2468" y="-143.9" font-family="Arial" font-size="14.00" fill="#666666">[timestamp(0) without time zone]</text>
<polygon fill="none" stroke="#000000" points="43,-102.5 43,-132.5 399,-132.5 399,-102.5 43,-102.5"/>
<text text-anchor="start" x="50" y="-113.9" font-family="Arial" font-size="14.00" fill="#000000">surname    </text>
<text text-anchor="start" x="138.6564" y="-113.9" font-family="Arial" font-size="14.00" fill="#666666">[varchar(255)]</text>
<polygon fill="none" stroke="#000000" points="43,-72.5 43,-102.5 399,-102.5 399,-72.5 43,-72.5"/>
<text text-anchor="start" x="50" y="-83.9" font-family="Arial" font-size="14.00" fill="#000000">mgm    </text>
<text text-anchor="start" x="115.3086" y="-83.9" font-family="Arial" font-size="14.00" fill="#666666">[boolean]</text>
<polygon fill="none" stroke="#000000" points="43,-42.5 43,-72.5 399,-72.5 399,-42.5 43,-42.5"/>
<text text-anchor="start" x="50" y="-53.9" font-family="Arial" font-size="14.00" fill="#000000">employer    </text>
<text text-anchor="start" x="141.763" y="-53.9" font-family="Arial" font-size="14.00" fill="#666666">[boolean]</text>
</g>
<!-- public.notify&#45;&gt;public.users -->
<g id="edge1" class="edge">
<title>public.notify:partner_id&#45;&gt;public.users:id</title>
<path fill="none" stroke="#000000" d="M277.6401,-2257.3007C24.0185,-2247.3879 133.1374,-1870.0294 288,-1657 318.4956,-1615.0501 368.5044,-1662.9499 399,-1621 423.4348,-1587.3874 440.5556,-1527.5 399,-1527.5"/>
<polygon fill="#000000" stroke="#000000" points="278.0018,-2257.3076 287.9134,-2261.9992 283.0009,-2257.4038 288,-2257.5 288,-2257.5 288,-2257.5 283.0009,-2257.4038 288.0866,-2253.0008 278.0018,-2257.3076 278.0018,-2257.3076"/>
<text text-anchor="start" x="46.2215" y="-2267.5" font-family="Arial" font-size="10.00" fill="#000000">FOREIGN KEY (partner_id) REFERENCES users(id)</text>
</g>
<!-- public.links -->
<g id="node3" class="node">
<title>public.links</title>
<polygon fill="#efefef" stroke="transparent" points="503,-1077.5 503,-1112.5 823,-1112.5 823,-1077.5 503,-1077.5"/>
<polygon fill="none" stroke="#000000" points="503,-1077.5 503,-1112.5 823,-1112.5 823,-1077.5 503,-1077.5"/>
<text text-anchor="start" x="555.2141" y="-1090.3" font-family="Arial Bold" font-size="18.00" fill="#000000">public.links</text>
<text text-anchor="start" x="643.2179" y="-1090.3" font-family="Arial" font-size="14.00" fill="#000000">    </text>
<text text-anchor="start" x="677.4227" y="-1090.3" font-family="Arial" font-size="14.00" fill="#666666">[BASE TABLE]</text>
<polygon fill="none" stroke="#000000" points="503,-1047.5 503,-1077.5 823,-1077.5 823,-1047.5 503,-1047.5"/>
<text text-anchor="start" x="510" y="-1058.9" font-family="Arial" font-size="14.00" fill="#000000">id    </text>
<text text-anchor="start" x="555.094" y="-1058.9" font-family="Arial" font-size="14.00" fill="#666666">[bigint]</text>
<polygon fill="none" stroke="#000000" points="503,-1017.5 503,-1047.5 823,-1047.5 823,-1017.5 503,-1017.5"/>
<text text-anchor="start" x="510" y="-1028.9" font-family="Arial" font-size="14.00" fill="#000000">partner_id    </text>
<text text-anchor="start" x="607.2188" y="-1028.9" font-family="Arial" font-size="14.00" fill="#666666">[bigint]</text>
<polygon fill="none" stroke="#000000" points="503,-987.5 503,-1017.5 823,-1017.5 823,-987.5 503,-987.5"/>
<text text-anchor="start" x="510" y="-998.9" font-family="Arial" font-size="14.00" fill="#000000">link_name    </text>
<text text-anchor="start" x="607.9916" y="-998.9" font-family="Arial" font-size="14.00" fill="#666666">[varchar(255)]</text>
<polygon fill="none" stroke="#000000" points="503,-957.5 503,-987.5 823,-987.5 823,-957.5 503,-957.5"/>
<text text-anchor="start" x="510" y="-968.9" font-family="Arial" font-size="14.00" fill="#000000">link    </text>
<text text-anchor="start" x="565.2006" y="-968.9" font-family="Arial" font-size="14.00" fill="#666666">[varchar(1024)]</text>
<polygon fill="none" stroke="#000000" points="503,-927.5 503,-957.5 823,-957.5 823,-927.5 503,-927.5"/>
<text text-anchor="start" x="510" y="-938.9" font-family="Arial" font-size="14.00" fill="#000000">short_link    </text>
<text text-anchor="start" x="604.0996" y="-938.9" font-family="Arial" font-size="14.00" fill="#666666">[varchar(1024)]</text>
<polygon fill="none" stroke="#000000" points="503,-897.5 503,-927.5 823,-927.5 823,-897.5 503,-897.5"/>
<text text-anchor="start" x="510" y="-908.9" font-family="Arial" font-size="14.00" fill="#000000">short_link_id    </text>
<text text-anchor="start" x="622.7714" y="-908.9" font-family="Arial" font-size="14.00" fill="#666666">[bigint]</text>
<polygon fill="none" stroke="#000000" points="503,-867.5 503,-897.5 823,-897.5 823,-867.5 503,-867.5"/>
<text text-anchor="start" x="510" y="-878.9" font-family="Arial" font-size="14.00" fill="#000000">link_source    </text>
<text text-anchor="start" x="614.9916" y="-878.9" font-family="Arial" font-size="14.00" fill="#666666">[bigint]</text>
<polygon fill="none" stroke="#000000" points="503,-837.5 503,-867.5 823,-867.5 823,-837.5 503,-837.5"/>
<text text-anchor="start" x="510" y="-848.9" font-family="Arial" font-size="14.00" fill="#000000">offer_id    </text>
<text text-anchor="start" x="590.8836" y="-848.9" font-family="Arial" font-size="14.00" fill="#666666">[bigint]</text>
<polygon fill="none" stroke="#000000" points="503,-807.5 503,-837.5 823,-837.5 823,-807.5 503,-807.5"/>
<text text-anchor="start" x="510" y="-818.9" font-family="Arial" font-size="14.00" fill="#000000">area_id    </text>
<text text-anchor="start" x="590.885" y="-818.9" font-family="Arial" font-size="14.00" fill="#666666">[bigint]</text>
<polygon fill="none" stroke="#000000" points="503,-777.5 503,-807.5 823,-807.5 823,-777.5 503,-777.5"/>
<text text-anchor="start" x="510" y="-788.9" font-family="Arial" font-size="14.00" fill="#000000">country_id    </text>
<text text-anchor="start" x="608.7756" y="-788.9" font-family="Arial" font-size="14.00" fill="#666666">[bigint]</text>
<polygon fill="none" stroke="#000000" points="503,-747.5 503,-777.5 823,-777.5 823,-747.5 503,-747.5"/>
<text text-anchor="start" x="510" y="-758.9" font-family="Arial" font-size="14.00" fill="#000000">landing_id    </text>
<text text-anchor="start" x="608.0028" y="-758.9" font-family="Arial" font-size="14.00" fill="#666666">[bigint]</text>
<polygon fill="none" stroke="#000000" points="503,-717.5 503,-747.5 823,-747.5 823,-717.5 503,-717.5"/>
<text text-anchor="start" x="510" y="-728.9" font-family="Arial" font-size="14.00" fill="#000000">has_macros    </text>
<text text-anchor="start" x="620.439" y="-728.9" font-family="Arial" font-size="14.00" fill="#666666">[boolean]</text>
<polygon fill="none" stroke="#000000" points="503,-687.5 503,-717.5 823,-717.5 823,-687.5 503,-687.5"/>
<text text-anchor="start" x="510" y="-698.9" font-family="Arial" font-size="14.00" fill="#000000">status    </text>
<text text-anchor="start" x="581.5512" y="-698.9" font-family="Arial" font-size="14.00" fill="#666666">[varchar(255)]</text>
<polygon fill="none" stroke="#000000" points="503,-657.5 503,-687.5 823,-687.5 823,-657.5 503,-657.5"/>
<text text-anchor="start" x="510" y="-668.9" font-family="Arial" font-size="14.00" fill="#000000">ord_token    </text>
<text text-anchor="start" x="606.4516" y="-668.9" font-family="Arial" font-size="14.00" fill="#666666">[varchar(255)]</text>
<polygon fill="none" stroke="#000000" points="503,-627.5 503,-657.5 823,-657.5 823,-627.5 503,-627.5"/>
<text text-anchor="start" x="510" y="-638.9" font-family="Arial" font-size="14.00" fill="#000000">created_at    </text>
<text text-anchor="start" x="610.3422" y="-638.9" font-family="Arial" font-size="14.00" fill="#666666">[timestamp(0) without time zone]</text>
<polygon fill="none" stroke="#000000" points="503,-597.5 503,-627.5 823,-627.5 823,-597.5 503,-597.5"/>
<text text-anchor="start" x="509.7546" y="-608.9" font-family="Arial" font-size="14.00" fill="#000000">updated_at    </text>
<text text-anchor="start" x="614.0014" y="-608.9" font-family="Arial" font-size="14.00" fill="#666666">[timestamp(0) without time zone]</text>
<polygon fill="none" stroke="#000000" points="503,-567.5 503,-597.5 823,-597.5 823,-567.5 503,-567.5"/>
<text text-anchor="start" x="510" y="-578.9" font-family="Arial" font-size="14.00" fill="#000000">advertiser_type    </text>
<text text-anchor="start" x="639.892" y="-578.9" font-family="Arial" font-size="14.00" fill="#666666">[varchar(255)]</text>
<polygon fill="none" stroke="#000000" points="503,-537.5 503,-567.5 823,-567.5 823,-537.5 503,-537.5"/>
<text text-anchor="start" x="510" y="-548.9" font-family="Arial" font-size="14.00" fill="#000000">need_token    </text>
<text text-anchor="start" x="617.3562" y="-548.9" font-family="Arial" font-size="14.00" fill="#666666">[boolean]</text>
<polygon fill="none" stroke="#000000" points="503,-507.5 503,-537.5 823,-537.5 823,-507.5 503,-507.5"/>
<text text-anchor="start" x="510" y="-518.9" font-family="Arial" font-size="14.00" fill="#000000">offer_material_id    </text>
<text text-anchor="start" x="648.439" y="-518.9" font-family="Arial" font-size="14.00" fill="#666666">[bigint]</text>
</g>
<!-- public.notify&#45;&gt;public.links -->
<g id="edge2" class="edge">
<title>public.notify:link_id&#45;&gt;public.links:id</title>
<path fill="none" stroke="#000000" d="M605.9951,-2136.0983C742.3438,-2095.7315 506.7432,-1196.6748 503,-1156 499.1918,-1114.6193 461.4444,-1062.5 503,-1062.5"/>
<polygon fill="#000000" stroke="#000000" points="605.9031,-2136.1111 595.375,-2133.0436 600.9515,-2136.8056 596,-2137.5 596,-2137.5 596,-2137.5 600.9515,-2136.8056 596.625,-2141.9564 605.9031,-2136.1111 605.9031,-2136.1111"/>
<text text-anchor="start" x="602.7845" y="-2147.5" font-family="Arial" font-size="10.00" fill="#000000">FOREIGN KEY (link_id) REFERENCES links(id)</text>
</g>
</g>
</svg>
