<?xml version="1.0" encoding="UTF-8" standalone="no"?>
<!DOCTYPE svg PUBLIC "-//W3C//DTD SVG 1.1//EN"
 "http://www.w3.org/Graphics/SVG/1.1/DTD/svg11.dtd">
<!-- Generated by graphviz version 2.40.1 (20161225.0304)
 -->
<!-- Title: public.knowledge_base Pages: 1 -->
<svg width="864pt" height="832pt"
 viewBox="0.00 0.00 863.50 832.00" xmlns="http://www.w3.org/2000/svg" xmlns:xlink="http://www.w3.org/1999/xlink">
<g id="graph0" class="graph" transform="scale(1 1) rotate(0) translate(4 828)">
<title>public.knowledge_base</title>
<polygon fill="#ffffff" stroke="transparent" points="-4,4 -4,-828 859.5,-828 859.5,4 -4,4"/>
<!-- public.knowledge_base -->
<g id="node1" class="node">
<title>public.knowledge_base</title>
<polygon fill="#efefef" stroke="transparent" points="439,-742.5 439,-777.5 767,-777.5 767,-742.5 439,-742.5"/>
<polygon fill="none" stroke="#000000" points="439,-742.5 439,-777.5 767,-777.5 767,-742.5 439,-742.5"/>
<text text-anchor="start" x="445.6862" y="-755.3" font-family="Arial Bold" font-size="18.00" fill="#000000">public.knowledge_base</text>
<text text-anchor="start" x="632.7458" y="-755.3" font-family="Arial" font-size="14.00" fill="#000000">    </text>
<text text-anchor="start" x="666.9506" y="-755.3" font-family="Arial" font-size="14.00" fill="#666666">[BASE TABLE]</text>
<polygon fill="none" stroke="#000000" points="439,-712.5 439,-742.5 767,-742.5 767,-712.5 439,-712.5"/>
<text text-anchor="start" x="446" y="-723.9" font-family="Arial" font-size="14.00" fill="#000000">id </text>
<text text-anchor="start" x="460.7798" y="-723.9" font-family="Arial" font-size="14.00" fill="#666666">[bigint]</text>
<polygon fill="none" stroke="#000000" points="439,-682.5 439,-712.5 767,-712.5 767,-682.5 439,-682.5"/>
<text text-anchor="start" x="446" y="-693.9" font-family="Arial" font-size="14.00" fill="#000000">knowledge_base_category_id </text>
<text text-anchor="start" x="635.0658" y="-693.9" font-family="Arial" font-size="14.00" fill="#666666">[bigint]</text>
<polygon fill="none" stroke="#000000" points="439,-652.5 439,-682.5 767,-682.5 767,-652.5 439,-652.5"/>
<text text-anchor="start" x="446" y="-663.9" font-family="Arial" font-size="14.00" fill="#000000">question </text>
<text text-anchor="start" x="502.8008" y="-663.9" font-family="Arial" font-size="14.00" fill="#666666">[varchar(511)]</text>
<polygon fill="none" stroke="#000000" points="439,-622.5 439,-652.5 767,-652.5 767,-622.5 439,-622.5"/>
<text text-anchor="start" x="446" y="-633.9" font-family="Arial" font-size="14.00" fill="#000000">answer </text>
<text text-anchor="start" x="495.0056" y="-633.9" font-family="Arial" font-size="14.00" fill="#666666">[text]</text>
<polygon fill="none" stroke="#000000" points="439,-592.5 439,-622.5 767,-622.5 767,-592.5 439,-592.5"/>
<text text-anchor="start" x="446" y="-603.9" font-family="Arial" font-size="14.00" fill="#000000">user_type </text>
<text text-anchor="start" x="511.3548" y="-603.9" font-family="Arial" font-size="14.00" fill="#666666">[varchar(255)]</text>
<polygon fill="none" stroke="#000000" points="439,-562.5 439,-592.5 767,-592.5 767,-562.5 439,-562.5"/>
<text text-anchor="start" x="446" y="-573.9" font-family="Arial" font-size="14.00" fill="#000000">for_partner_type </text>
<text text-anchor="start" x="552.5876" y="-573.9" font-family="Arial" font-size="14.00" fill="#666666">[varchar(255)]</text>
<polygon fill="none" stroke="#000000" points="439,-532.5 439,-562.5 767,-562.5 767,-532.5 439,-532.5"/>
<text text-anchor="start" x="446" y="-543.9" font-family="Arial" font-size="14.00" fill="#000000">position </text>
<text text-anchor="start" x="498.1248" y="-543.9" font-family="Arial" font-size="14.00" fill="#666666">[integer]</text>
<polygon fill="none" stroke="#000000" points="439,-502.5 439,-532.5 767,-532.5 767,-502.5 439,-502.5"/>
<text text-anchor="start" x="446" y="-513.9" font-family="Arial" font-size="14.00" fill="#000000">content_type </text>
<text text-anchor="start" x="530.0406" y="-513.9" font-family="Arial" font-size="14.00" fill="#666666">[varchar(255)]</text>
<polygon fill="none" stroke="#000000" points="439,-472.5 439,-502.5 767,-502.5 767,-472.5 439,-472.5"/>
<text text-anchor="start" x="446" y="-483.9" font-family="Arial" font-size="14.00" fill="#000000">draft </text>
<text text-anchor="start" x="477.8976" y="-483.9" font-family="Arial" font-size="14.00" fill="#666666">[boolean]</text>
<polygon fill="none" stroke="#000000" points="439,-442.5 439,-472.5 767,-472.5 767,-442.5 439,-442.5"/>
<text text-anchor="start" x="446" y="-453.9" font-family="Arial" font-size="14.00" fill="#000000">created_at </text>
<text text-anchor="start" x="516.028" y="-453.9" font-family="Arial" font-size="14.00" fill="#666666">[timestamp(0) without time zone]</text>
<polygon fill="none" stroke="#000000" points="439,-412.5 439,-442.5 767,-442.5 767,-412.5 439,-412.5"/>
<text text-anchor="start" x="446" y="-423.9" font-family="Arial" font-size="14.00" fill="#000000">updated_at </text>
<text text-anchor="start" x="519.9326" y="-423.9" font-family="Arial" font-size="14.00" fill="#666666">[timestamp(0) without time zone]</text>
<polygon fill="none" stroke="#000000" points="439,-382.5 439,-412.5 767,-412.5 767,-382.5 439,-382.5"/>
<text text-anchor="start" x="446" y="-393.9" font-family="Arial" font-size="14.00" fill="#000000">deleted_at </text>
<text text-anchor="start" x="515.2566" y="-393.9" font-family="Arial" font-size="14.00" fill="#666666">[timestamp(0) without time zone]</text>
<polygon fill="none" stroke="#000000" stroke-width="3" points="437.5,-381.5 437.5,-779.5 768.5,-779.5 768.5,-381.5 437.5,-381.5"/>
</g>
<!-- public.knowledge_base_categories -->
<g id="node2" class="node">
<title>public.knowledge_base_categories</title>
<polygon fill="#efefef" stroke="transparent" points="392,-222.5 392,-257.5 813,-257.5 813,-222.5 392,-222.5"/>
<polygon fill="none" stroke="#000000" points="392,-222.5 392,-257.5 813,-257.5 813,-222.5 392,-222.5"/>
<text text-anchor="start" x="398.6733" y="-235.3" font-family="Arial Bold" font-size="18.00" fill="#000000">public.knowledge_base_categories</text>
<text text-anchor="start" x="678.7587" y="-235.3" font-family="Arial" font-size="14.00" fill="#000000">    </text>
<text text-anchor="start" x="712.9635" y="-235.3" font-family="Arial" font-size="14.00" fill="#666666">[BASE TABLE]</text>
<polygon fill="none" stroke="#000000" points="392,-192.5 392,-222.5 813,-222.5 813,-192.5 392,-192.5"/>
<text text-anchor="start" x="399" y="-203.9" font-family="Arial" font-size="14.00" fill="#000000">id    </text>
<text text-anchor="start" x="444.094" y="-203.9" font-family="Arial" font-size="14.00" fill="#666666">[bigint]</text>
<polygon fill="none" stroke="#000000" points="392,-162.5 392,-192.5 813,-192.5 813,-162.5 392,-162.5"/>
<text text-anchor="start" x="399" y="-173.9" font-family="Arial" font-size="14.00" fill="#000000">title    </text>
<text text-anchor="start" x="454.9818" y="-173.9" font-family="Arial" font-size="14.00" fill="#666666">[varchar(511)]</text>
<polygon fill="none" stroke="#000000" points="392,-132.5 392,-162.5 813,-162.5 813,-132.5 392,-132.5"/>
<text text-anchor="start" x="399" y="-143.9" font-family="Arial" font-size="14.00" fill="#000000">position    </text>
<text text-anchor="start" x="481.439" y="-143.9" font-family="Arial" font-size="14.00" fill="#666666">[integer]</text>
<polygon fill="none" stroke="#000000" points="392,-102.5 392,-132.5 813,-132.5 813,-102.5 392,-102.5"/>
<text text-anchor="start" x="399" y="-113.9" font-family="Arial" font-size="14.00" fill="#000000">created_at    </text>
<text text-anchor="start" x="499.3422" y="-113.9" font-family="Arial" font-size="14.00" fill="#666666">[timestamp(0) without time zone]</text>
<polygon fill="none" stroke="#000000" points="392,-72.5 392,-102.5 813,-102.5 813,-72.5 392,-72.5"/>
<text text-anchor="start" x="399" y="-83.9" font-family="Arial" font-size="14.00" fill="#000000">updated_at    </text>
<text text-anchor="start" x="503.2468" y="-83.9" font-family="Arial" font-size="14.00" fill="#666666">[timestamp(0) without time zone]</text>
<polygon fill="none" stroke="#000000" points="392,-42.5 392,-72.5 813,-72.5 813,-42.5 392,-42.5"/>
<text text-anchor="start" x="399" y="-53.9" font-family="Arial" font-size="14.00" fill="#000000">deleted_at    </text>
<text text-anchor="start" x="498.5708" y="-53.9" font-family="Arial" font-size="14.00" fill="#666666">[timestamp(0) without time zone]</text>
</g>
<!-- public.knowledge_base&#45;&gt;public.knowledge_base_categories -->
<g id="edge1" class="edge">
<title>public.knowledge_base:knowledge_base_category_id&#45;&gt;public.knowledge_base_categories:id</title>
<path fill="none" stroke="#000000" d="M428.9662,-697.1687C281.0588,-687.1627 333.5845,-453.0497 439,-337 495.1404,-275.1962 756.8596,-362.8038 813,-301 840.9411,-270.2403 854.5556,-207.5 813,-207.5"/>
<polygon fill="#000000" stroke="#000000" points="429.0054,-697.1699 438.8514,-701.9975 434.0027,-697.3349 439,-697.5 439,-697.5 439,-697.5 434.0027,-697.3349 439.1486,-693.0025 429.0054,-697.1699 429.0054,-697.1699"/>
<text text-anchor="start" x="7.4615" y="-707.5" font-family="Arial" font-size="10.00" fill="#000000">FOREIGN KEY (knowledge_base_category_id) REFERENCES knowledge_base_categories(id)</text>
</g>
</g>
</svg>
