<?xml version="1.0" encoding="UTF-8" standalone="no"?>
<!DOCTYPE svg PUBLIC "-//W3C//DTD SVG 1.1//EN"
 "http://www.w3.org/Graphics/SVG/1.1/DTD/svg11.dtd">
<!-- Generated by graphviz version 2.40.1 (20161225.0304)
 -->
<!-- Title: public.tags Pages: 1 -->
<svg width="577pt" height="592pt"
 viewBox="0.00 0.00 576.50 592.00" xmlns="http://www.w3.org/2000/svg" xmlns:xlink="http://www.w3.org/1999/xlink">
<g id="graph0" class="graph" transform="scale(1 1) rotate(0) translate(4 588)">
<title>public.tags</title>
<polygon fill="#ffffff" stroke="transparent" points="-4,4 -4,-588 572.5,-588 572.5,4 -4,4"/>
<!-- public.tags -->
<g id="node1" class="node">
<title>public.tags</title>
<polygon fill="#efefef" stroke="transparent" points="48.5,-285.5 48.5,-320.5 338.5,-320.5 338.5,-285.5 48.5,-285.5"/>
<polygon fill="none" stroke="#000000" points="48.5,-285.5 48.5,-320.5 338.5,-320.5 338.5,-285.5 48.5,-285.5"/>
<text text-anchor="start" x="86.7041" y="-298.3" font-family="Arial Bold" font-size="18.00" fill="#000000">public.tags</text>
<text text-anchor="start" x="172.7279" y="-298.3" font-family="Arial" font-size="14.00" fill="#000000">    </text>
<text text-anchor="start" x="206.9327" y="-298.3" font-family="Arial" font-size="14.00" fill="#666666">[BASE TABLE]</text>
<polygon fill="none" stroke="#000000" points="48.5,-255.5 48.5,-285.5 338.5,-285.5 338.5,-255.5 48.5,-255.5"/>
<text text-anchor="start" x="55.5" y="-266.9" font-family="Arial" font-size="14.00" fill="#000000">id </text>
<text text-anchor="start" x="70.2798" y="-266.9" font-family="Arial" font-size="14.00" fill="#666666">[bigint]</text>
<polygon fill="none" stroke="#000000" points="48.5,-225.5 48.5,-255.5 338.5,-255.5 338.5,-225.5 48.5,-225.5"/>
<text text-anchor="start" x="55.5" y="-236.9" font-family="Arial" font-size="14.00" fill="#000000">tag </text>
<text text-anchor="start" x="78.8464" y="-236.9" font-family="Arial" font-size="14.00" fill="#666666">[varchar(255)]</text>
<polygon fill="none" stroke="#000000" points="48.5,-195.5 48.5,-225.5 338.5,-225.5 338.5,-195.5 48.5,-195.5"/>
<text text-anchor="start" x="55.5" y="-206.9" font-family="Arial" font-size="14.00" fill="#000000">comment </text>
<text text-anchor="start" x="116.9502" y="-206.9" font-family="Arial" font-size="14.00" fill="#666666">[text]</text>
<polygon fill="none" stroke="#000000" points="48.5,-165.5 48.5,-195.5 338.5,-195.5 338.5,-165.5 48.5,-165.5"/>
<text text-anchor="start" x="55.5" y="-176.9" font-family="Arial" font-size="14.00" fill="#000000">parameters </text>
<text text-anchor="start" x="130.176" y="-176.9" font-family="Arial" font-size="14.00" fill="#666666">[text]</text>
<polygon fill="none" stroke="#000000" points="48.5,-135.5 48.5,-165.5 338.5,-165.5 338.5,-135.5 48.5,-135.5"/>
<text text-anchor="start" x="55.5" y="-146.9" font-family="Arial" font-size="14.00" fill="#000000">date_start </text>
<text text-anchor="start" x="121.636" y="-146.9" font-family="Arial" font-size="14.00" fill="#666666">[timestamp(0) without time zone]</text>
<polygon fill="none" stroke="#000000" points="48.5,-105.5 48.5,-135.5 338.5,-135.5 338.5,-105.5 48.5,-105.5"/>
<text text-anchor="start" x="55.5" y="-116.9" font-family="Arial" font-size="14.00" fill="#000000">date_end </text>
<text text-anchor="start" x="117.7594" y="-116.9" font-family="Arial" font-size="14.00" fill="#666666">[timestamp(0) without time zone]</text>
<polygon fill="none" stroke="#000000" points="48.5,-75.5 48.5,-105.5 338.5,-105.5 338.5,-75.5 48.5,-75.5"/>
<text text-anchor="start" x="55.5" y="-86.9" font-family="Arial" font-size="14.00" fill="#000000">created_at </text>
<text text-anchor="start" x="125.528" y="-86.9" font-family="Arial" font-size="14.00" fill="#666666">[timestamp(0) without time zone]</text>
<polygon fill="none" stroke="#000000" points="48.5,-45.5 48.5,-75.5 338.5,-75.5 338.5,-45.5 48.5,-45.5"/>
<text text-anchor="start" x="55.4117" y="-56.9" font-family="Arial" font-size="14.00" fill="#000000">updated_at </text>
<text text-anchor="start" x="129.3443" y="-56.9" font-family="Arial" font-size="14.00" fill="#666666">[timestamp(0) without time zone]</text>
<polygon fill="none" stroke="#000000" stroke-width="3" points="47,-44.5 47,-322.5 340,-322.5 340,-44.5 47,-44.5"/>
</g>
<!-- public.rate_rule_tag -->
<g id="node2" class="node">
<title>public.rate_rule_tag</title>
<polygon fill="#efefef" stroke="transparent" points="43.5,-505.5 43.5,-540.5 342.5,-540.5 342.5,-505.5 43.5,-505.5"/>
<polygon fill="none" stroke="#000000" points="43.5,-505.5 43.5,-540.5 342.5,-540.5 342.5,-505.5 43.5,-505.5"/>
<text text-anchor="start" x="50.1951" y="-518.3" font-family="Arial Bold" font-size="18.00" fill="#000000">public.rate_rule_tag</text>
<text text-anchor="start" x="208.2369" y="-518.3" font-family="Arial" font-size="14.00" fill="#000000">    </text>
<text text-anchor="start" x="242.4417" y="-518.3" font-family="Arial" font-size="14.00" fill="#666666">[BASE TABLE]</text>
<polygon fill="none" stroke="#000000" points="43.5,-475.5 43.5,-505.5 342.5,-505.5 342.5,-475.5 43.5,-475.5"/>
<text text-anchor="start" x="50.5" y="-486.9" font-family="Arial" font-size="14.00" fill="#000000">tag_id    </text>
<text text-anchor="start" x="122.8324" y="-486.9" font-family="Arial" font-size="14.00" fill="#666666">[bigint]</text>
<polygon fill="none" stroke="#000000" points="43.5,-445.5 43.5,-475.5 342.5,-475.5 342.5,-445.5 43.5,-445.5"/>
<text text-anchor="start" x="50.5" y="-456.9" font-family="Arial" font-size="14.00" fill="#000000">rate_rule_id    </text>
<text text-anchor="start" x="158.608" y="-456.9" font-family="Arial" font-size="14.00" fill="#666666">[bigint]</text>
</g>
<!-- public.rate_rule_tag&#45;&gt;public.tags -->
<g id="edge1" class="edge">
<title>public.rate_rule_tag:tag_id&#45;&gt;public.tags:id</title>
<path fill="none" stroke="#000000" d="M352.442,-488.9114C378.7065,-479.377 365.7564,-429.2779 342.5,-403 255.2547,-304.4199 135.7453,-465.5801 48.5,-367 20.0757,-334.8828 5.6111,-270.5 48.5,-270.5"/>
<polygon fill="#000000" stroke="#000000" points="352.3747,-488.9221 341.7899,-486.0564 347.4374,-489.711 342.5,-490.5 342.5,-490.5 342.5,-490.5 347.4374,-489.711 343.2101,-494.9436 352.3747,-488.9221 352.3747,-488.9221"/>
<text text-anchor="start" x="349.3845" y="-500.5" font-family="Arial" font-size="10.00" fill="#000000">FOREIGN KEY (tag_id) REFERENCES tags(id)</text>
</g>
</g>
</svg>
