<?xml version="1.0" encoding="UTF-8" standalone="no"?>
<!DOCTYPE svg PUBLIC "-//W3C//DTD SVG 1.1//EN"
 "http://www.w3.org/Graphics/SVG/1.1/DTD/svg11.dtd">
<!-- Generated by graphviz version 2.40.1 (20161225.0304)
 -->
<!-- Title: public.title_allowance Pages: 1 -->
<svg width="411pt" height="405pt"
 viewBox="0.00 0.00 411.00 405.00" xmlns="http://www.w3.org/2000/svg" xmlns:xlink="http://www.w3.org/1999/xlink">
<g id="graph0" class="graph" transform="scale(1 1) rotate(0) translate(4 401)">
<title>public.title_allowance</title>
<polygon fill="#ffffff" stroke="transparent" points="-4,4 -4,-401 407,-401 407,4 -4,4"/>
<!-- public.title_allowance -->
<g id="node1" class="node">
<title>public.title_allowance</title>
<polygon fill="#efefef" stroke="transparent" points="46.5,-315.5 46.5,-350.5 357.5,-350.5 357.5,-315.5 46.5,-315.5"/>
<polygon fill="none" stroke="#000000" points="46.5,-315.5 46.5,-350.5 357.5,-350.5 357.5,-315.5 46.5,-315.5"/>
<text text-anchor="start" x="53.202" y="-328.3" font-family="Arial Bold" font-size="18.00" fill="#000000">public.title_allowance</text>
<text text-anchor="start" x="223.23" y="-328.3" font-family="Arial" font-size="14.00" fill="#000000">    </text>
<text text-anchor="start" x="257.4348" y="-328.3" font-family="Arial" font-size="14.00" fill="#666666">[BASE TABLE]</text>
<polygon fill="none" stroke="#000000" points="46.5,-285.5 46.5,-315.5 357.5,-315.5 357.5,-285.5 46.5,-285.5"/>
<text text-anchor="start" x="53.5" y="-296.9" font-family="Arial" font-size="14.00" fill="#000000">id </text>
<text text-anchor="start" x="68.2798" y="-296.9" font-family="Arial" font-size="14.00" fill="#666666">[bigint]</text>
<polygon fill="none" stroke="#000000" points="46.5,-255.5 46.5,-285.5 357.5,-285.5 357.5,-255.5 46.5,-255.5"/>
<text text-anchor="start" x="53.5" y="-266.9" font-family="Arial" font-size="14.00" fill="#000000">value </text>
<text text-anchor="start" x="90.845" y="-266.9" font-family="Arial" font-size="14.00" fill="#666666">[numeric(5,0)]</text>
<polygon fill="none" stroke="#000000" points="46.5,-225.5 46.5,-255.5 357.5,-255.5 357.5,-225.5 46.5,-225.5"/>
<text text-anchor="start" x="53.5" y="-236.9" font-family="Arial" font-size="14.00" fill="#000000">product_id </text>
<text text-anchor="start" x="122.744" y="-236.9" font-family="Arial" font-size="14.00" fill="#666666">[integer]</text>
<polygon fill="none" stroke="#000000" points="46.5,-195.5 46.5,-225.5 357.5,-225.5 357.5,-195.5 46.5,-195.5"/>
<text text-anchor="start" x="53.5" y="-206.9" font-family="Arial" font-size="14.00" fill="#000000">title_id </text>
<text text-anchor="start" x="97.8394" y="-206.9" font-family="Arial" font-size="14.00" fill="#666666">[integer]</text>
<polygon fill="none" stroke="#000000" points="46.5,-165.5 46.5,-195.5 357.5,-195.5 357.5,-165.5 46.5,-165.5"/>
<text text-anchor="start" x="53.5" y="-176.9" font-family="Arial" font-size="14.00" fill="#000000">date_start </text>
<text text-anchor="start" x="119.636" y="-176.9" font-family="Arial" font-size="14.00" fill="#666666">[timestamp(0) without time zone]</text>
<polygon fill="none" stroke="#000000" points="46.5,-135.5 46.5,-165.5 357.5,-165.5 357.5,-135.5 46.5,-135.5"/>
<text text-anchor="start" x="53.5" y="-146.9" font-family="Arial" font-size="14.00" fill="#000000">date_end </text>
<text text-anchor="start" x="115.7594" y="-146.9" font-family="Arial" font-size="14.00" fill="#666666">[timestamp(0) without time zone]</text>
<polygon fill="none" stroke="#000000" points="46.5,-105.5 46.5,-135.5 357.5,-135.5 357.5,-105.5 46.5,-105.5"/>
<text text-anchor="start" x="53.5" y="-116.9" font-family="Arial" font-size="14.00" fill="#000000">created_at </text>
<text text-anchor="start" x="123.528" y="-116.9" font-family="Arial" font-size="14.00" fill="#666666">[timestamp(0) without time zone]</text>
<polygon fill="none" stroke="#000000" points="46.5,-75.5 46.5,-105.5 357.5,-105.5 357.5,-75.5 46.5,-75.5"/>
<text text-anchor="start" x="53.5" y="-86.9" font-family="Arial" font-size="14.00" fill="#000000">updated_at </text>
<text text-anchor="start" x="127.4326" y="-86.9" font-family="Arial" font-size="14.00" fill="#666666">[timestamp(0) without time zone]</text>
<polygon fill="none" stroke="#000000" points="46.5,-45.5 46.5,-75.5 357.5,-75.5 357.5,-45.5 46.5,-45.5"/>
<text text-anchor="start" x="53.5" y="-56.9" font-family="Arial" font-size="14.00" fill="#000000">deleted_at </text>
<text text-anchor="start" x="122.7566" y="-56.9" font-family="Arial" font-size="14.00" fill="#666666">[timestamp(0) without time zone]</text>
<polygon fill="none" stroke="#000000" stroke-width="3" points="44.5,-44.5 44.5,-352.5 358.5,-352.5 358.5,-44.5 44.5,-44.5"/>
</g>
</g>
</svg>
