<?xml version="1.0" encoding="UTF-8" standalone="no"?>
<!DOCTYPE svg PUBLIC "-//W3C//DTD SVG 1.1//EN"
 "http://www.w3.org/Graphics/SVG/1.1/DTD/svg11.dtd">
<!-- Generated by graphviz version 2.40.1 (20161225.0304)
 -->
<!-- Title: public.servicedesk_task_comments Pages: 1 -->
<svg width="1032pt" height="2062pt"
 viewBox="0.00 0.00 1032.00 2062.00" xmlns="http://www.w3.org/2000/svg" xmlns:xlink="http://www.w3.org/1999/xlink">
<g id="graph0" class="graph" transform="scale(1 1) rotate(0) translate(4 2058)">
<title>public.servicedesk_task_comments</title>
<polygon fill="#ffffff" stroke="transparent" points="-4,4 -4,-2058 1028,-2058 1028,4 -4,4"/>
<!-- public.servicedesk_task_comments -->
<g id="node1" class="node">
<title>public.servicedesk_task_comments</title>
<polygon fill="#efefef" stroke="transparent" points="351,-1972.5 351,-2007.5 775,-2007.5 775,-1972.5 351,-1972.5"/>
<polygon fill="none" stroke="#000000" points="351,-1972.5 351,-2007.5 775,-2007.5 775,-1972.5 351,-1972.5"/>
<text text-anchor="start" x="357.6928" y="-1985.3" font-family="Arial Bold" font-size="18.00" fill="#000000">public.servicedesk_task_comments</text>
<text text-anchor="start" x="640.7392" y="-1985.3" font-family="Arial" font-size="14.00" fill="#000000">    </text>
<text text-anchor="start" x="674.944" y="-1985.3" font-family="Arial" font-size="14.00" fill="#666666">[BASE TABLE]</text>
<polygon fill="none" stroke="#000000" points="351,-1942.5 351,-1972.5 775,-1972.5 775,-1942.5 351,-1942.5"/>
<text text-anchor="start" x="358" y="-1953.9" font-family="Arial" font-size="14.00" fill="#000000">id </text>
<text text-anchor="start" x="372.7798" y="-1953.9" font-family="Arial" font-size="14.00" fill="#666666">[bigint]</text>
<polygon fill="none" stroke="#000000" points="351,-1912.5 351,-1942.5 775,-1942.5 775,-1912.5 351,-1912.5"/>
<text text-anchor="start" x="358" y="-1923.9" font-family="Arial" font-size="14.00" fill="#000000">servicedesk_task_id </text>
<text text-anchor="start" x="487.9158" y="-1923.9" font-family="Arial" font-size="14.00" fill="#666666">[bigint]</text>
<polygon fill="none" stroke="#000000" points="351,-1882.5 351,-1912.5 775,-1912.5 775,-1882.5 351,-1882.5"/>
<text text-anchor="start" x="358" y="-1893.9" font-family="Arial" font-size="14.00" fill="#000000">partner_id </text>
<text text-anchor="start" x="424.9046" y="-1893.9" font-family="Arial" font-size="14.00" fill="#666666">[bigint]</text>
<polygon fill="none" stroke="#000000" points="351,-1852.5 351,-1882.5 775,-1882.5 775,-1852.5 351,-1852.5"/>
<text text-anchor="start" x="358" y="-1863.9" font-family="Arial" font-size="14.00" fill="#000000">is_public </text>
<text text-anchor="start" x="416.3408" y="-1863.9" font-family="Arial" font-size="14.00" fill="#666666">[boolean]</text>
<polygon fill="none" stroke="#000000" points="351,-1822.5 351,-1852.5 775,-1852.5 775,-1822.5 351,-1822.5"/>
<text text-anchor="start" x="358" y="-1833.9" font-family="Arial" font-size="14.00" fill="#000000">body </text>
<text text-anchor="start" x="392.2384" y="-1833.9" font-family="Arial" font-size="14.00" fill="#666666">[text]</text>
<polygon fill="none" stroke="#000000" points="351,-1792.5 351,-1822.5 775,-1822.5 775,-1792.5 351,-1792.5"/>
<text text-anchor="start" x="358" y="-1803.9" font-family="Arial" font-size="14.00" fill="#000000">attach </text>
<text text-anchor="start" x="400.0196" y="-1803.9" font-family="Arial" font-size="14.00" fill="#666666">[json]</text>
<polygon fill="none" stroke="#000000" points="351,-1762.5 351,-1792.5 775,-1792.5 775,-1762.5 351,-1762.5"/>
<text text-anchor="start" x="358" y="-1773.9" font-family="Arial" font-size="14.00" fill="#000000">created_at </text>
<text text-anchor="start" x="428.028" y="-1773.9" font-family="Arial" font-size="14.00" fill="#666666">[timestamp(0) without time zone]</text>
<polygon fill="none" stroke="#000000" points="351,-1732.5 351,-1762.5 775,-1762.5 775,-1732.5 351,-1732.5"/>
<text text-anchor="start" x="358" y="-1743.9" font-family="Arial" font-size="14.00" fill="#000000">updated_at </text>
<text text-anchor="start" x="431.9326" y="-1743.9" font-family="Arial" font-size="14.00" fill="#666666">[timestamp(0) without time zone]</text>
<polygon fill="none" stroke="#000000" points="351,-1702.5 351,-1732.5 775,-1732.5 775,-1702.5 351,-1702.5"/>
<text text-anchor="start" x="358" y="-1713.9" font-family="Arial" font-size="14.00" fill="#000000">deleted_at </text>
<text text-anchor="start" x="427.2566" y="-1713.9" font-family="Arial" font-size="14.00" fill="#666666">[timestamp(0) without time zone]</text>
<polygon fill="none" stroke="#000000" stroke-width="3" points="349.5,-1701.5 349.5,-2009.5 776.5,-2009.5 776.5,-1701.5 349.5,-1701.5"/>
</g>
<!-- public.servicedesk_tasks -->
<g id="node2" class="node">
<title>public.servicedesk_tasks</title>
<polygon fill="#efefef" stroke="transparent" points="167,-987.5 167,-1022.5 507,-1022.5 507,-987.5 167,-987.5"/>
<polygon fill="none" stroke="#000000" points="167,-987.5 167,-1022.5 507,-1022.5 507,-987.5 167,-987.5"/>
<text text-anchor="start" x="173.6985" y="-1000.3" font-family="Arial Bold" font-size="18.00" fill="#000000">public.servicedesk_tasks</text>
<text text-anchor="start" x="372.7335" y="-1000.3" font-family="Arial" font-size="14.00" fill="#000000">    </text>
<text text-anchor="start" x="406.9383" y="-1000.3" font-family="Arial" font-size="14.00" fill="#666666">[BASE TABLE]</text>
<polygon fill="none" stroke="#000000" points="167,-957.5 167,-987.5 507,-987.5 507,-957.5 167,-957.5"/>
<text text-anchor="start" x="174" y="-968.9" font-family="Arial" font-size="14.00" fill="#000000">id    </text>
<text text-anchor="start" x="219.094" y="-968.9" font-family="Arial" font-size="14.00" fill="#666666">[bigint]</text>
<polygon fill="none" stroke="#000000" points="167,-927.5 167,-957.5 507,-957.5 507,-927.5 167,-927.5"/>
<text text-anchor="start" x="174" y="-938.9" font-family="Arial" font-size="14.00" fill="#000000">type    </text>
<text text-anchor="start" x="234.6606" y="-938.9" font-family="Arial" font-size="14.00" fill="#666666">[varchar(255)]</text>
<polygon fill="none" stroke="#000000" points="167,-897.5 167,-927.5 507,-927.5 507,-897.5 167,-897.5"/>
<text text-anchor="start" x="174" y="-908.9" font-family="Arial" font-size="14.00" fill="#000000">creator_user_id    </text>
<text text-anchor="start" x="305.4446" y="-908.9" font-family="Arial" font-size="14.00" fill="#666666">[bigint]</text>
<polygon fill="none" stroke="#000000" points="167,-867.5 167,-897.5 507,-897.5 507,-867.5 167,-867.5"/>
<text text-anchor="start" x="174" y="-878.9" font-family="Arial" font-size="14.00" fill="#000000">doer_user_id    </text>
<text text-anchor="start" x="289.8934" y="-878.9" font-family="Arial" font-size="14.00" fill="#666666">[bigint]</text>
<polygon fill="none" stroke="#000000" points="167,-837.5 167,-867.5 507,-867.5 507,-837.5 167,-837.5"/>
<text text-anchor="start" x="174" y="-848.9" font-family="Arial" font-size="14.00" fill="#000000">subject    </text>
<text text-anchor="start" x="252.5498" y="-848.9" font-family="Arial" font-size="14.00" fill="#666666">[varchar(255)]</text>
<polygon fill="none" stroke="#000000" points="167,-807.5 167,-837.5 507,-837.5 507,-807.5 167,-807.5"/>
<text text-anchor="start" x="174" y="-818.9" font-family="Arial" font-size="14.00" fill="#000000">body    </text>
<text text-anchor="start" x="238.5526" y="-818.9" font-family="Arial" font-size="14.00" fill="#666666">[text]</text>
<polygon fill="none" stroke="#000000" points="167,-777.5 167,-807.5 507,-807.5 507,-777.5 167,-777.5"/>
<text text-anchor="start" x="174" y="-788.9" font-family="Arial" font-size="14.00" fill="#000000">status    </text>
<text text-anchor="start" x="245.5512" y="-788.9" font-family="Arial" font-size="14.00" fill="#666666">[varchar(255)]</text>
<polygon fill="none" stroke="#000000" points="167,-747.5 167,-777.5 507,-777.5 507,-747.5 167,-747.5"/>
<text text-anchor="start" x="174" y="-758.9" font-family="Arial" font-size="14.00" fill="#000000">estimate_time    </text>
<text text-anchor="start" x="295.324" y="-758.9" font-family="Arial" font-size="14.00" fill="#666666">[numeric(8,2)]</text>
<polygon fill="none" stroke="#000000" points="167,-717.5 167,-747.5 507,-747.5 507,-717.5 167,-717.5"/>
<text text-anchor="start" x="174" y="-728.9" font-family="Arial" font-size="14.00" fill="#000000">fact_time    </text>
<text text-anchor="start" x="264.9916" y="-728.9" font-family="Arial" font-size="14.00" fill="#666666">[numeric(8,2)]</text>
<polygon fill="none" stroke="#000000" points="167,-687.5 167,-717.5 507,-717.5 507,-687.5 167,-687.5"/>
<text text-anchor="start" x="174" y="-698.9" font-family="Arial" font-size="14.00" fill="#000000">deadline_at    </text>
<text text-anchor="start" x="280.5694" y="-698.9" font-family="Arial" font-size="14.00" fill="#666666">[timestamp(0) without time zone]</text>
<polygon fill="none" stroke="#000000" points="167,-657.5 167,-687.5 507,-687.5 507,-657.5 167,-657.5"/>
<text text-anchor="start" x="174" y="-668.9" font-family="Arial" font-size="14.00" fill="#000000">created_at    </text>
<text text-anchor="start" x="274.3422" y="-668.9" font-family="Arial" font-size="14.00" fill="#666666">[timestamp(0) without time zone]</text>
<polygon fill="none" stroke="#000000" points="167,-627.5 167,-657.5 507,-657.5 507,-627.5 167,-627.5"/>
<text text-anchor="start" x="174" y="-638.9" font-family="Arial" font-size="14.00" fill="#000000">updated_at    </text>
<text text-anchor="start" x="278.2468" y="-638.9" font-family="Arial" font-size="14.00" fill="#666666">[timestamp(0) without time zone]</text>
<polygon fill="none" stroke="#000000" points="167,-597.5 167,-627.5 507,-627.5 507,-597.5 167,-597.5"/>
<text text-anchor="start" x="174" y="-608.9" font-family="Arial" font-size="14.00" fill="#000000">deleted_at    </text>
<text text-anchor="start" x="273.5708" y="-608.9" font-family="Arial" font-size="14.00" fill="#666666">[timestamp(0) without time zone]</text>
</g>
<!-- public.servicedesk_task_comments&#45;&gt;public.servicedesk_tasks -->
<g id="edge1" class="edge">
<title>public.servicedesk_task_comments:servicedesk_task_id&#45;&gt;public.servicedesk_tasks:id</title>
<path fill="none" stroke="#000000" d="M341.005,-1927.1151C236.839,-1918.6636 335.9832,-1772.7299 351,-1657 371.0754,-1502.2856 663.0114,-972.5 507,-972.5"/>
<polygon fill="#000000" stroke="#000000" points="341.0074,-1927.1151 350.8268,-1931.9967 346.0037,-1927.3075 351,-1927.5 351,-1927.5 351,-1927.5 346.0037,-1927.3075 351.1732,-1923.0033 341.0074,-1927.1151 341.0074,-1927.1151"/>
<text text-anchor="start" x="7.1005" y="-1937.5" font-family="Arial" font-size="10.00" fill="#000000">FOREIGN KEY (servicedesk_task_id) REFERENCES servicedesk_tasks(id)</text>
</g>
<!-- public.users -->
<g id="node3" class="node">
<title>public.users</title>
<polygon fill="#efefef" stroke="transparent" points="611,-1542.5 611,-1577.5 967,-1577.5 967,-1542.5 611,-1542.5"/>
<polygon fill="none" stroke="#000000" points="611,-1542.5 611,-1577.5 967,-1577.5 967,-1542.5 611,-1542.5"/>
<text text-anchor="start" x="677.2091" y="-1555.3" font-family="Arial Bold" font-size="18.00" fill="#000000">public.users</text>
<text text-anchor="start" x="773.2229" y="-1555.3" font-family="Arial" font-size="14.00" fill="#000000">    </text>
<text text-anchor="start" x="807.4277" y="-1555.3" font-family="Arial" font-size="14.00" fill="#666666">[BASE TABLE]</text>
<polygon fill="none" stroke="#000000" points="611,-1512.5 611,-1542.5 967,-1542.5 967,-1512.5 611,-1512.5"/>
<text text-anchor="start" x="618" y="-1523.9" font-family="Arial" font-size="14.00" fill="#000000">id    </text>
<text text-anchor="start" x="663.094" y="-1523.9" font-family="Arial" font-size="14.00" fill="#666666">[bigint]</text>
<polygon fill="none" stroke="#000000" points="611,-1482.5 611,-1512.5 967,-1512.5 967,-1482.5 611,-1482.5"/>
<text text-anchor="start" x="618" y="-1493.9" font-family="Arial" font-size="14.00" fill="#000000">name    </text>
<text text-anchor="start" x="687.2132" y="-1493.9" font-family="Arial" font-size="14.00" fill="#666666">[varchar(255)]</text>
<polygon fill="none" stroke="#000000" points="611,-1452.5 611,-1482.5 967,-1482.5 967,-1452.5 611,-1452.5"/>
<text text-anchor="start" x="618" y="-1463.9" font-family="Arial" font-size="14.00" fill="#000000">email    </text>
<text text-anchor="start" x="685.6438" y="-1463.9" font-family="Arial" font-size="14.00" fill="#666666">[varchar(255)]</text>
<polygon fill="none" stroke="#000000" points="611,-1422.5 611,-1452.5 967,-1452.5 967,-1422.5 611,-1422.5"/>
<text text-anchor="start" x="618" y="-1433.9" font-family="Arial" font-size="14.00" fill="#000000">lang    </text>
<text text-anchor="start" x="678.6592" y="-1433.9" font-family="Arial" font-size="14.00" fill="#666666">[varchar(255)]</text>
<polygon fill="none" stroke="#000000" points="611,-1392.5 611,-1422.5 967,-1422.5 967,-1392.5 611,-1392.5"/>
<text text-anchor="start" x="618" y="-1403.9" font-family="Arial" font-size="14.00" fill="#000000">role    </text>
<text text-anchor="start" x="675.5372" y="-1403.9" font-family="Arial" font-size="14.00" fill="#666666">[varchar(255)]</text>
<polygon fill="none" stroke="#000000" points="611,-1362.5 611,-1392.5 967,-1392.5 967,-1362.5 611,-1362.5"/>
<text text-anchor="start" x="618" y="-1373.9" font-family="Arial" font-size="14.00" fill="#000000">hash_name    </text>
<text text-anchor="start" x="725.3436" y="-1373.9" font-family="Arial" font-size="14.00" fill="#666666">[varchar(255)]</text>
<polygon fill="none" stroke="#000000" points="611,-1332.5 611,-1362.5 967,-1362.5 967,-1332.5 611,-1332.5"/>
<text text-anchor="start" x="618" y="-1343.9" font-family="Arial" font-size="14.00" fill="#000000">user_type_id    </text>
<text text-anchor="start" x="732.3408" y="-1343.9" font-family="Arial" font-size="14.00" fill="#666666">[bigint]</text>
<polygon fill="none" stroke="#000000" points="611,-1302.5 611,-1332.5 967,-1332.5 967,-1302.5 611,-1302.5"/>
<text text-anchor="start" x="618" y="-1313.9" font-family="Arial" font-size="14.00" fill="#000000">type    </text>
<text text-anchor="start" x="678.6606" y="-1313.9" font-family="Arial" font-size="14.00" fill="#666666">[varchar(255)]</text>
<polygon fill="none" stroke="#000000" points="611,-1272.5 611,-1302.5 967,-1302.5 967,-1272.5 611,-1272.5"/>
<text text-anchor="start" x="617.8808" y="-1283.9" font-family="Arial" font-size="14.00" fill="#000000">email_verified_at    </text>
<text text-anchor="start" x="757.8752" y="-1283.9" font-family="Arial" font-size="14.00" fill="#666666">[timestamp(0) without time zone]</text>
<polygon fill="none" stroke="#000000" points="611,-1242.5 611,-1272.5 967,-1272.5 967,-1242.5 611,-1242.5"/>
<text text-anchor="start" x="618" y="-1253.9" font-family="Arial" font-size="14.00" fill="#000000">password    </text>
<text text-anchor="start" x="712.1024" y="-1253.9" font-family="Arial" font-size="14.00" fill="#666666">[varchar(255)]</text>
<polygon fill="none" stroke="#000000" points="611,-1212.5 611,-1242.5 967,-1242.5 967,-1212.5 611,-1212.5"/>
<text text-anchor="start" x="618" y="-1223.9" font-family="Arial" font-size="14.00" fill="#000000">code_for_login    </text>
<text text-anchor="start" x="744.0126" y="-1223.9" font-family="Arial" font-size="14.00" fill="#666666">[varchar(255)]</text>
<polygon fill="none" stroke="#000000" points="611,-1182.5 611,-1212.5 967,-1212.5 967,-1182.5 611,-1182.5"/>
<text text-anchor="start" x="618" y="-1193.9" font-family="Arial" font-size="14.00" fill="#000000">status    </text>
<text text-anchor="start" x="689.5512" y="-1193.9" font-family="Arial" font-size="14.00" fill="#666666">[integer]</text>
<polygon fill="none" stroke="#000000" points="611,-1152.5 611,-1182.5 967,-1182.5 967,-1152.5 611,-1152.5"/>
<text text-anchor="start" x="618" y="-1163.9" font-family="Arial" font-size="14.00" fill="#000000">partner_type    </text>
<text text-anchor="start" x="730.7854" y="-1163.9" font-family="Arial" font-size="14.00" fill="#666666">[varchar(255)]</text>
<polygon fill="none" stroke="#000000" points="611,-1122.5 611,-1152.5 967,-1152.5 967,-1122.5 611,-1122.5"/>
<text text-anchor="start" x="618" y="-1133.9" font-family="Arial" font-size="14.00" fill="#000000">direct_contract    </text>
<text text-anchor="start" x="744" y="-1133.9" font-family="Arial" font-size="14.00" fill="#666666">[boolean]</text>
<polygon fill="none" stroke="#000000" points="611,-1092.5 611,-1122.5 967,-1122.5 967,-1092.5 611,-1092.5"/>
<text text-anchor="start" x="618" y="-1103.9" font-family="Arial" font-size="14.00" fill="#000000">need_api    </text>
<text text-anchor="start" x="709.7896" y="-1103.9" font-family="Arial" font-size="14.00" fill="#666666">[boolean]</text>
<polygon fill="none" stroke="#000000" points="611,-1062.5 611,-1092.5 967,-1092.5 967,-1062.5 611,-1062.5"/>
<text text-anchor="start" x="618" y="-1073.9" font-family="Arial" font-size="14.00" fill="#000000">ref_id    </text>
<text text-anchor="start" x="687.2104" y="-1073.9" font-family="Arial" font-size="14.00" fill="#666666">[bigint]</text>
<polygon fill="none" stroke="#000000" points="611,-1032.5 611,-1062.5 967,-1062.5 967,-1032.5 611,-1032.5"/>
<text text-anchor="start" x="618" y="-1043.9" font-family="Arial" font-size="14.00" fill="#000000">comment    </text>
<text text-anchor="start" x="709.7644" y="-1043.9" font-family="Arial" font-size="14.00" fill="#666666">[varchar(255)]</text>
<polygon fill="none" stroke="#000000" points="611,-1002.5 611,-1032.5 967,-1032.5 967,-1002.5 611,-1002.5"/>
<text text-anchor="start" x="618" y="-1013.9" font-family="Arial" font-size="14.00" fill="#000000">date_of_birth    </text>
<text text-anchor="start" x="733.9046" y="-1013.9" font-family="Arial" font-size="14.00" fill="#666666">[date]</text>
<polygon fill="none" stroke="#000000" points="611,-972.5 611,-1002.5 967,-1002.5 967,-972.5 611,-972.5"/>
<text text-anchor="start" x="618" y="-983.9" font-family="Arial" font-size="14.00" fill="#000000">passport_series    </text>
<text text-anchor="start" x="751.0014" y="-983.9" font-family="Arial" font-size="14.00" fill="#666666">[varchar(255)]</text>
<polygon fill="none" stroke="#000000" points="611,-942.5 611,-972.5 967,-972.5 967,-942.5 611,-942.5"/>
<text text-anchor="start" x="618" y="-953.9" font-family="Arial" font-size="14.00" fill="#000000">passport_number    </text>
<text text-anchor="start" x="761.1206" y="-953.9" font-family="Arial" font-size="14.00" fill="#666666">[varchar(255)]</text>
<polygon fill="none" stroke="#000000" points="611,-912.5 611,-942.5 967,-942.5 967,-912.5 611,-912.5"/>
<text text-anchor="start" x="618" y="-923.9" font-family="Arial" font-size="14.00" fill="#000000">citizenship    </text>
<text text-anchor="start" x="717.5456" y="-923.9" font-family="Arial" font-size="14.00" fill="#666666">[varchar(255)]</text>
<polygon fill="none" stroke="#000000" points="611,-882.5 611,-912.5 967,-912.5 967,-882.5 611,-882.5"/>
<text text-anchor="start" x="618" y="-893.9" font-family="Arial" font-size="14.00" fill="#000000">client_id    </text>
<text text-anchor="start" x="703.5456" y="-893.9" font-family="Arial" font-size="14.00" fill="#666666">[varchar(255)]</text>
<polygon fill="none" stroke="#000000" points="611,-852.5 611,-882.5 967,-882.5 967,-852.5 611,-852.5"/>
<text text-anchor="start" x="618" y="-863.9" font-family="Arial" font-size="14.00" fill="#000000">phone    </text>
<text text-anchor="start" x="691.1178" y="-863.9" font-family="Arial" font-size="14.00" fill="#666666">[varchar(255)]</text>
<polygon fill="none" stroke="#000000" points="611,-822.5 611,-852.5 967,-852.5 967,-822.5 611,-822.5"/>
<text text-anchor="start" x="618" y="-833.9" font-family="Arial" font-size="14.00" fill="#000000">skype    </text>
<text text-anchor="start" x="688.77" y="-833.9" font-family="Arial" font-size="14.00" fill="#666666">[varchar(255)]</text>
<polygon fill="none" stroke="#000000" points="611,-792.5 611,-822.5 967,-822.5 967,-792.5 611,-792.5"/>
<text text-anchor="start" x="618" y="-803.9" font-family="Arial" font-size="14.00" fill="#000000">whatsapp    </text>
<text text-anchor="start" x="712.115" y="-803.9" font-family="Arial" font-size="14.00" fill="#666666">[varchar(255)]</text>
<polygon fill="none" stroke="#000000" points="611,-762.5 611,-792.5 967,-792.5 967,-762.5 611,-762.5"/>
<text text-anchor="start" x="618" y="-773.9" font-family="Arial" font-size="14.00" fill="#000000">telegram    </text>
<text text-anchor="start" x="706.6536" y="-773.9" font-family="Arial" font-size="14.00" fill="#666666">[varchar(255)]</text>
<polygon fill="none" stroke="#000000" points="611,-732.5 611,-762.5 967,-762.5 967,-732.5 611,-732.5"/>
<text text-anchor="start" x="618" y="-743.9" font-family="Arial" font-size="14.00" fill="#000000">address    </text>
<text text-anchor="start" x="701.9958" y="-743.9" font-family="Arial" font-size="14.00" fill="#666666">[text]</text>
<polygon fill="none" stroke="#000000" points="611,-702.5 611,-732.5 967,-732.5 967,-702.5 611,-702.5"/>
<text text-anchor="start" x="618" y="-713.9" font-family="Arial" font-size="14.00" fill="#000000">postal_code    </text>
<text text-anchor="start" x="727.6802" y="-713.9" font-family="Arial" font-size="14.00" fill="#666666">[varchar(255)]</text>
<polygon fill="none" stroke="#000000" points="611,-672.5 611,-702.5 967,-702.5 967,-672.5 611,-672.5"/>
<text text-anchor="start" x="618" y="-683.9" font-family="Arial" font-size="14.00" fill="#000000">city    </text>
<text text-anchor="start" x="673.202" y="-683.9" font-family="Arial" font-size="14.00" fill="#666666">[varchar(255)]</text>
<polygon fill="none" stroke="#000000" points="611,-642.5 611,-672.5 967,-672.5 967,-642.5 611,-642.5"/>
<text text-anchor="start" x="618" y="-653.9" font-family="Arial" font-size="14.00" fill="#000000">country    </text>
<text text-anchor="start" x="698.1038" y="-653.9" font-family="Arial" font-size="14.00" fill="#666666">[varchar(255)]</text>
<polygon fill="none" stroke="#000000" points="611,-612.5 611,-642.5 967,-642.5 967,-612.5 611,-612.5"/>
<text text-anchor="start" x="618" y="-623.9" font-family="Arial" font-size="14.00" fill="#000000">welcome_status    </text>
<text text-anchor="start" x="752.5554" y="-623.9" font-family="Arial" font-size="14.00" fill="#666666">[varchar(255)]</text>
<polygon fill="none" stroke="#000000" points="611,-582.5 611,-612.5 967,-612.5 967,-582.5 611,-582.5"/>
<text text-anchor="start" x="618" y="-593.9" font-family="Arial" font-size="14.00" fill="#000000">welcome_confirm_code    </text>
<text text-anchor="start" x="799.223" y="-593.9" font-family="Arial" font-size="14.00" fill="#666666">[integer]</text>
<polygon fill="none" stroke="#000000" points="611,-552.5 611,-582.5 967,-582.5 967,-552.5 611,-552.5"/>
<text text-anchor="start" x="618" y="-563.9" font-family="Arial" font-size="14.00" fill="#000000">all_docs    </text>
<text text-anchor="start" x="703.5484" y="-563.9" font-family="Arial" font-size="14.00" fill="#666666">[boolean]</text>
<polygon fill="none" stroke="#000000" points="611,-522.5 611,-552.5 967,-552.5 967,-522.5 611,-522.5"/>
<text text-anchor="start" x="618" y="-533.9" font-family="Arial" font-size="14.00" fill="#000000">sign_status    </text>
<text text-anchor="start" x="723.0056" y="-533.9" font-family="Arial" font-size="14.00" fill="#666666">[varchar(255)]</text>
<polygon fill="none" stroke="#000000" points="611,-492.5 611,-522.5 967,-522.5 967,-492.5 611,-492.5"/>
<text text-anchor="start" x="618" y="-503.9" font-family="Arial" font-size="14.00" fill="#000000">letter_style    </text>
<text text-anchor="start" x="719.8808" y="-503.9" font-family="Arial" font-size="14.00" fill="#666666">[varchar(255)]</text>
<polygon fill="none" stroke="#000000" points="611,-462.5 611,-492.5 967,-492.5 967,-462.5 611,-462.5"/>
<text text-anchor="start" x="618" y="-473.9" font-family="Arial" font-size="14.00" fill="#000000">all_fields    </text>
<text text-anchor="start" x="706.6522" y="-473.9" font-family="Arial" font-size="14.00" fill="#666666">[boolean]</text>
<polygon fill="none" stroke="#000000" points="611,-432.5 611,-462.5 967,-462.5 967,-432.5 611,-432.5"/>
<text text-anchor="start" x="618" y="-443.9" font-family="Arial" font-size="14.00" fill="#000000">balance_popup    </text>
<text text-anchor="start" x="747.92" y="-443.9" font-family="Arial" font-size="14.00" fill="#666666">[boolean]</text>
<polygon fill="none" stroke="#000000" points="611,-402.5 611,-432.5 967,-432.5 967,-402.5 611,-402.5"/>
<text text-anchor="start" x="618" y="-413.9" font-family="Arial" font-size="14.00" fill="#000000">email_unsubs    </text>
<text text-anchor="start" x="738.5568" y="-413.9" font-family="Arial" font-size="14.00" fill="#666666">[boolean]</text>
<polygon fill="none" stroke="#000000" points="611,-372.5 611,-402.5 967,-402.5 967,-372.5 611,-372.5"/>
<text text-anchor="start" x="618" y="-383.9" font-family="Arial" font-size="14.00" fill="#000000">model    </text>
<text text-anchor="start" x="690.3198" y="-383.9" font-family="Arial" font-size="14.00" fill="#666666">[varchar(255)]</text>
<polygon fill="none" stroke="#000000" points="611,-342.5 611,-372.5 967,-372.5 967,-342.5 611,-342.5"/>
<text text-anchor="start" x="618" y="-353.9" font-family="Arial" font-size="14.00" fill="#000000">remember_token    </text>
<text text-anchor="start" x="757.9986" y="-353.9" font-family="Arial" font-size="14.00" fill="#666666">[varchar(100)]</text>
<polygon fill="none" stroke="#000000" points="611,-312.5 611,-342.5 967,-342.5 967,-312.5 611,-312.5"/>
<text text-anchor="start" x="618" y="-323.9" font-family="Arial" font-size="14.00" fill="#000000">auth_token    </text>
<text text-anchor="start" x="721.4642" y="-323.9" font-family="Arial" font-size="14.00" fill="#666666">[varchar(100)]</text>
<polygon fill="none" stroke="#000000" points="611,-282.5 611,-312.5 967,-312.5 967,-282.5 611,-282.5"/>
<text text-anchor="start" x="618" y="-293.9" font-family="Arial" font-size="14.00" fill="#000000">utms    </text>
<text text-anchor="start" x="682.5386" y="-293.9" font-family="Arial" font-size="14.00" fill="#666666">[json]</text>
<polygon fill="none" stroke="#000000" points="611,-252.5 611,-282.5 967,-282.5 967,-252.5 611,-252.5"/>
<text text-anchor="start" x="618" y="-263.9" font-family="Arial" font-size="14.00" fill="#000000">created_at    </text>
<text text-anchor="start" x="718.3422" y="-263.9" font-family="Arial" font-size="14.00" fill="#666666">[timestamp(0) without time zone]</text>
<polygon fill="none" stroke="#000000" points="611,-222.5 611,-252.5 967,-252.5 967,-222.5 611,-222.5"/>
<text text-anchor="start" x="618" y="-233.9" font-family="Arial" font-size="14.00" fill="#000000">updated_at    </text>
<text text-anchor="start" x="722.2468" y="-233.9" font-family="Arial" font-size="14.00" fill="#666666">[timestamp(0) without time zone]</text>
<polygon fill="none" stroke="#000000" points="611,-192.5 611,-222.5 967,-222.5 967,-192.5 611,-192.5"/>
<text text-anchor="start" x="618" y="-203.9" font-family="Arial" font-size="14.00" fill="#000000">deleted_at    </text>
<text text-anchor="start" x="717.5708" y="-203.9" font-family="Arial" font-size="14.00" fill="#666666">[timestamp(0) without time zone]</text>
<polygon fill="none" stroke="#000000" points="611,-162.5 611,-192.5 967,-192.5 967,-162.5 611,-162.5"/>
<text text-anchor="start" x="618" y="-173.9" font-family="Arial" font-size="14.00" fill="#000000">send_to_ado    </text>
<text text-anchor="start" x="733.1388" y="-173.9" font-family="Arial" font-size="14.00" fill="#666666">[boolean]</text>
<polygon fill="none" stroke="#000000" points="611,-132.5 611,-162.5 967,-162.5 967,-132.5 611,-132.5"/>
<text text-anchor="start" x="618" y="-143.9" font-family="Arial" font-size="14.00" fill="#000000">ado_sent_at    </text>
<text text-anchor="start" x="729.2468" y="-143.9" font-family="Arial" font-size="14.00" fill="#666666">[timestamp(0) without time zone]</text>
<polygon fill="none" stroke="#000000" points="611,-102.5 611,-132.5 967,-132.5 967,-102.5 611,-102.5"/>
<text text-anchor="start" x="618" y="-113.9" font-family="Arial" font-size="14.00" fill="#000000">surname    </text>
<text text-anchor="start" x="706.6564" y="-113.9" font-family="Arial" font-size="14.00" fill="#666666">[varchar(255)]</text>
<polygon fill="none" stroke="#000000" points="611,-72.5 611,-102.5 967,-102.5 967,-72.5 611,-72.5"/>
<text text-anchor="start" x="618" y="-83.9" font-family="Arial" font-size="14.00" fill="#000000">mgm    </text>
<text text-anchor="start" x="683.3086" y="-83.9" font-family="Arial" font-size="14.00" fill="#666666">[boolean]</text>
<polygon fill="none" stroke="#000000" points="611,-42.5 611,-72.5 967,-72.5 967,-42.5 611,-42.5"/>
<text text-anchor="start" x="618" y="-53.9" font-family="Arial" font-size="14.00" fill="#000000">employer    </text>
<text text-anchor="start" x="709.763" y="-53.9" font-family="Arial" font-size="14.00" fill="#666666">[boolean]</text>
</g>
<!-- public.servicedesk_task_comments&#45;&gt;public.users -->
<g id="edge2" class="edge">
<title>public.servicedesk_task_comments:partner_id&#45;&gt;public.users:id</title>
<path fill="none" stroke="#000000" d="M785.166,-1896.9885C879.2095,-1887.1419 839.7667,-1737.5258 775,-1657 728.2303,-1598.8503 657.7697,-1679.1497 611,-1621 584.9557,-1588.6186 569.4444,-1527.5 611,-1527.5"/>
<polygon fill="#000000" stroke="#000000" points="784.9874,-1896.9974 774.7738,-1893.0057 779.9937,-1897.2487 775,-1897.5 775,-1897.5 775,-1897.5 779.9937,-1897.2487 775.2262,-1901.9943 784.9874,-1896.9974 784.9874,-1896.9974"/>
<text text-anchor="start" x="782.2215" y="-1907.5" font-family="Arial" font-size="10.00" fill="#000000">FOREIGN KEY (partner_id) REFERENCES users(id)</text>
</g>
</g>
</svg>
