<?xml version="1.0" encoding="UTF-8" standalone="no"?>
<!DOCTYPE svg PUBLIC "-//W3C//DTD SVG 1.1//EN"
 "http://www.w3.org/Graphics/SVG/1.1/DTD/svg11.dtd">
<!-- Generated by graphviz version 2.40.1 (20161225.0304)
 -->
<!-- Title: public.broken_links Pages: 1 -->
<svg width="874pt" height="2152pt"
 viewBox="0.00 0.00 874.00 2152.00" xmlns="http://www.w3.org/2000/svg" xmlns:xlink="http://www.w3.org/1999/xlink">
<g id="graph0" class="graph" transform="scale(1 1) rotate(0) translate(4 2148)">
<title>public.broken_links</title>
<polygon fill="#ffffff" stroke="transparent" points="-4,4 -4,-2148 870,-2148 870,4 -4,4"/>
<!-- public.broken_links -->
<g id="node1" class="node">
<title>public.broken_links</title>
<polygon fill="#efefef" stroke="transparent" points="255,-2062.5 255,-2097.5 593,-2097.5 593,-2062.5 255,-2062.5"/>
<polygon fill="none" stroke="#000000" points="255,-2062.5 255,-2097.5 593,-2097.5 593,-2062.5 255,-2062.5"/>
<text text-anchor="start" x="283.7025" y="-2075.3" font-family="Arial Bold" font-size="18.00" fill="#000000">public.broken_links</text>
<text text-anchor="start" x="436.7295" y="-2075.3" font-family="Arial" font-size="14.00" fill="#000000">    </text>
<text text-anchor="start" x="470.9343" y="-2075.3" font-family="Arial" font-size="14.00" fill="#666666">[BASE TABLE]</text>
<polygon fill="none" stroke="#000000" points="255,-2032.5 255,-2062.5 593,-2062.5 593,-2032.5 255,-2032.5"/>
<text text-anchor="start" x="262" y="-2043.9" font-family="Arial" font-size="14.00" fill="#000000">id </text>
<text text-anchor="start" x="276.7798" y="-2043.9" font-family="Arial" font-size="14.00" fill="#666666">[bigint]</text>
<polygon fill="none" stroke="#000000" points="255,-2002.5 255,-2032.5 593,-2032.5 593,-2002.5 255,-2002.5"/>
<text text-anchor="start" x="262" y="-2013.9" font-family="Arial" font-size="14.00" fill="#000000">link_id </text>
<text text-anchor="start" x="305.5582" y="-2013.9" font-family="Arial" font-size="14.00" fill="#666666">[bigint]</text>
<polygon fill="none" stroke="#000000" points="255,-1972.5 255,-2002.5 593,-2002.5 593,-1972.5 255,-1972.5"/>
<text text-anchor="start" x="262" y="-1983.9" font-family="Arial" font-size="14.00" fill="#000000">partner_id </text>
<text text-anchor="start" x="328.9046" y="-1983.9" font-family="Arial" font-size="14.00" fill="#666666">[bigint]</text>
<polygon fill="none" stroke="#000000" points="255,-1942.5 255,-1972.5 593,-1972.5 593,-1942.5 255,-1942.5"/>
<text text-anchor="start" x="262" y="-1953.9" font-family="Arial" font-size="14.00" fill="#000000">number_of_clicks </text>
<text text-anchor="start" x="374.7938" y="-1953.9" font-family="Arial" font-size="14.00" fill="#666666">[integer]</text>
<polygon fill="none" stroke="#000000" points="255,-1912.5 255,-1942.5 593,-1942.5 593,-1912.5 255,-1912.5"/>
<text text-anchor="start" x="261.8142" y="-1923.9" font-family="Arial" font-size="14.00" fill="#000000">last_click_datetime </text>
<text text-anchor="start" x="383.9418" y="-1923.9" font-family="Arial" font-size="14.00" fill="#666666">[timestamp(0) without time zone]</text>
<polygon fill="none" stroke="#000000" points="255,-1882.5 255,-1912.5 593,-1912.5 593,-1882.5 255,-1882.5"/>
<text text-anchor="start" x="262" y="-1893.9" font-family="Arial" font-size="14.00" fill="#000000">fix_status </text>
<text text-anchor="start" x="325.0168" y="-1893.9" font-family="Arial" font-size="14.00" fill="#666666">[integer]</text>
<polygon fill="none" stroke="#000000" points="255,-1852.5 255,-1882.5 593,-1882.5 593,-1852.5 255,-1852.5"/>
<text text-anchor="start" x="262" y="-1863.9" font-family="Arial" font-size="14.00" fill="#000000">comment </text>
<text text-anchor="start" x="323.4502" y="-1863.9" font-family="Arial" font-size="14.00" fill="#666666">[text]</text>
<polygon fill="none" stroke="#000000" points="255,-1822.5 255,-1852.5 593,-1852.5 593,-1822.5 255,-1822.5"/>
<text text-anchor="start" x="262" y="-1833.9" font-family="Arial" font-size="14.00" fill="#000000">created_at </text>
<text text-anchor="start" x="332.028" y="-1833.9" font-family="Arial" font-size="14.00" fill="#666666">[timestamp(0) without time zone]</text>
<polygon fill="none" stroke="#000000" points="255,-1792.5 255,-1822.5 593,-1822.5 593,-1792.5 255,-1792.5"/>
<text text-anchor="start" x="262" y="-1803.9" font-family="Arial" font-size="14.00" fill="#000000">updated_at </text>
<text text-anchor="start" x="335.9326" y="-1803.9" font-family="Arial" font-size="14.00" fill="#666666">[timestamp(0) without time zone]</text>
<polygon fill="none" stroke="#000000" points="255,-1762.5 255,-1792.5 593,-1792.5 593,-1762.5 255,-1762.5"/>
<text text-anchor="start" x="262" y="-1773.9" font-family="Arial" font-size="14.00" fill="#000000">deleted_at </text>
<text text-anchor="start" x="331.2566" y="-1773.9" font-family="Arial" font-size="14.00" fill="#666666">[timestamp(0) without time zone]</text>
<polygon fill="none" stroke="#000000" points="255,-1732.5 255,-1762.5 593,-1762.5 593,-1732.5 255,-1732.5"/>
<text text-anchor="start" x="262" y="-1743.9" font-family="Arial" font-size="14.00" fill="#000000">hash </text>
<text text-anchor="start" x="296.2384" y="-1743.9" font-family="Arial" font-size="14.00" fill="#666666">[varchar(255)]</text>
<polygon fill="none" stroke="#000000" points="255,-1702.5 255,-1732.5 593,-1732.5 593,-1702.5 255,-1702.5"/>
<text text-anchor="start" x="262" y="-1713.9" font-family="Arial" font-size="14.00" fill="#000000">number_of_orders </text>
<text text-anchor="start" x="380.2496" y="-1713.9" font-family="Arial" font-size="14.00" fill="#666666">[integer]</text>
<polygon fill="none" stroke="#000000" stroke-width="3" points="253.5,-1701.5 253.5,-2099.5 594.5,-2099.5 594.5,-1701.5 253.5,-1701.5"/>
</g>
<!-- public.links -->
<g id="node2" class="node">
<title>public.links</title>
<polygon fill="#efefef" stroke="transparent" points="43,-1077.5 43,-1112.5 363,-1112.5 363,-1077.5 43,-1077.5"/>
<polygon fill="none" stroke="#000000" points="43,-1077.5 43,-1112.5 363,-1112.5 363,-1077.5 43,-1077.5"/>
<text text-anchor="start" x="95.2141" y="-1090.3" font-family="Arial Bold" font-size="18.00" fill="#000000">public.links</text>
<text text-anchor="start" x="183.2179" y="-1090.3" font-family="Arial" font-size="14.00" fill="#000000">    </text>
<text text-anchor="start" x="217.4227" y="-1090.3" font-family="Arial" font-size="14.00" fill="#666666">[BASE TABLE]</text>
<polygon fill="none" stroke="#000000" points="43,-1047.5 43,-1077.5 363,-1077.5 363,-1047.5 43,-1047.5"/>
<text text-anchor="start" x="50" y="-1058.9" font-family="Arial" font-size="14.00" fill="#000000">id    </text>
<text text-anchor="start" x="95.094" y="-1058.9" font-family="Arial" font-size="14.00" fill="#666666">[bigint]</text>
<polygon fill="none" stroke="#000000" points="43,-1017.5 43,-1047.5 363,-1047.5 363,-1017.5 43,-1017.5"/>
<text text-anchor="start" x="50" y="-1028.9" font-family="Arial" font-size="14.00" fill="#000000">partner_id    </text>
<text text-anchor="start" x="147.2188" y="-1028.9" font-family="Arial" font-size="14.00" fill="#666666">[bigint]</text>
<polygon fill="none" stroke="#000000" points="43,-987.5 43,-1017.5 363,-1017.5 363,-987.5 43,-987.5"/>
<text text-anchor="start" x="50" y="-998.9" font-family="Arial" font-size="14.00" fill="#000000">link_name    </text>
<text text-anchor="start" x="147.9916" y="-998.9" font-family="Arial" font-size="14.00" fill="#666666">[varchar(255)]</text>
<polygon fill="none" stroke="#000000" points="43,-957.5 43,-987.5 363,-987.5 363,-957.5 43,-957.5"/>
<text text-anchor="start" x="50" y="-968.9" font-family="Arial" font-size="14.00" fill="#000000">link    </text>
<text text-anchor="start" x="105.2006" y="-968.9" font-family="Arial" font-size="14.00" fill="#666666">[varchar(1024)]</text>
<polygon fill="none" stroke="#000000" points="43,-927.5 43,-957.5 363,-957.5 363,-927.5 43,-927.5"/>
<text text-anchor="start" x="50" y="-938.9" font-family="Arial" font-size="14.00" fill="#000000">short_link    </text>
<text text-anchor="start" x="144.0996" y="-938.9" font-family="Arial" font-size="14.00" fill="#666666">[varchar(1024)]</text>
<polygon fill="none" stroke="#000000" points="43,-897.5 43,-927.5 363,-927.5 363,-897.5 43,-897.5"/>
<text text-anchor="start" x="50" y="-908.9" font-family="Arial" font-size="14.00" fill="#000000">short_link_id    </text>
<text text-anchor="start" x="162.7714" y="-908.9" font-family="Arial" font-size="14.00" fill="#666666">[bigint]</text>
<polygon fill="none" stroke="#000000" points="43,-867.5 43,-897.5 363,-897.5 363,-867.5 43,-867.5"/>
<text text-anchor="start" x="50" y="-878.9" font-family="Arial" font-size="14.00" fill="#000000">link_source    </text>
<text text-anchor="start" x="154.9916" y="-878.9" font-family="Arial" font-size="14.00" fill="#666666">[bigint]</text>
<polygon fill="none" stroke="#000000" points="43,-837.5 43,-867.5 363,-867.5 363,-837.5 43,-837.5"/>
<text text-anchor="start" x="50" y="-848.9" font-family="Arial" font-size="14.00" fill="#000000">offer_id    </text>
<text text-anchor="start" x="130.8836" y="-848.9" font-family="Arial" font-size="14.00" fill="#666666">[bigint]</text>
<polygon fill="none" stroke="#000000" points="43,-807.5 43,-837.5 363,-837.5 363,-807.5 43,-807.5"/>
<text text-anchor="start" x="50" y="-818.9" font-family="Arial" font-size="14.00" fill="#000000">area_id    </text>
<text text-anchor="start" x="130.885" y="-818.9" font-family="Arial" font-size="14.00" fill="#666666">[bigint]</text>
<polygon fill="none" stroke="#000000" points="43,-777.5 43,-807.5 363,-807.5 363,-777.5 43,-777.5"/>
<text text-anchor="start" x="50" y="-788.9" font-family="Arial" font-size="14.00" fill="#000000">country_id    </text>
<text text-anchor="start" x="148.7756" y="-788.9" font-family="Arial" font-size="14.00" fill="#666666">[bigint]</text>
<polygon fill="none" stroke="#000000" points="43,-747.5 43,-777.5 363,-777.5 363,-747.5 43,-747.5"/>
<text text-anchor="start" x="50" y="-758.9" font-family="Arial" font-size="14.00" fill="#000000">landing_id    </text>
<text text-anchor="start" x="148.0028" y="-758.9" font-family="Arial" font-size="14.00" fill="#666666">[bigint]</text>
<polygon fill="none" stroke="#000000" points="43,-717.5 43,-747.5 363,-747.5 363,-717.5 43,-717.5"/>
<text text-anchor="start" x="50" y="-728.9" font-family="Arial" font-size="14.00" fill="#000000">has_macros    </text>
<text text-anchor="start" x="160.439" y="-728.9" font-family="Arial" font-size="14.00" fill="#666666">[boolean]</text>
<polygon fill="none" stroke="#000000" points="43,-687.5 43,-717.5 363,-717.5 363,-687.5 43,-687.5"/>
<text text-anchor="start" x="50" y="-698.9" font-family="Arial" font-size="14.00" fill="#000000">status    </text>
<text text-anchor="start" x="121.5512" y="-698.9" font-family="Arial" font-size="14.00" fill="#666666">[varchar(255)]</text>
<polygon fill="none" stroke="#000000" points="43,-657.5 43,-687.5 363,-687.5 363,-657.5 43,-657.5"/>
<text text-anchor="start" x="50" y="-668.9" font-family="Arial" font-size="14.00" fill="#000000">ord_token    </text>
<text text-anchor="start" x="146.4516" y="-668.9" font-family="Arial" font-size="14.00" fill="#666666">[varchar(255)]</text>
<polygon fill="none" stroke="#000000" points="43,-627.5 43,-657.5 363,-657.5 363,-627.5 43,-627.5"/>
<text text-anchor="start" x="50" y="-638.9" font-family="Arial" font-size="14.00" fill="#000000">created_at    </text>
<text text-anchor="start" x="150.3422" y="-638.9" font-family="Arial" font-size="14.00" fill="#666666">[timestamp(0) without time zone]</text>
<polygon fill="none" stroke="#000000" points="43,-597.5 43,-627.5 363,-627.5 363,-597.5 43,-597.5"/>
<text text-anchor="start" x="49.7546" y="-608.9" font-family="Arial" font-size="14.00" fill="#000000">updated_at    </text>
<text text-anchor="start" x="154.0014" y="-608.9" font-family="Arial" font-size="14.00" fill="#666666">[timestamp(0) without time zone]</text>
<polygon fill="none" stroke="#000000" points="43,-567.5 43,-597.5 363,-597.5 363,-567.5 43,-567.5"/>
<text text-anchor="start" x="50" y="-578.9" font-family="Arial" font-size="14.00" fill="#000000">advertiser_type    </text>
<text text-anchor="start" x="179.892" y="-578.9" font-family="Arial" font-size="14.00" fill="#666666">[varchar(255)]</text>
<polygon fill="none" stroke="#000000" points="43,-537.5 43,-567.5 363,-567.5 363,-537.5 43,-537.5"/>
<text text-anchor="start" x="50" y="-548.9" font-family="Arial" font-size="14.00" fill="#000000">need_token    </text>
<text text-anchor="start" x="157.3562" y="-548.9" font-family="Arial" font-size="14.00" fill="#666666">[boolean]</text>
<polygon fill="none" stroke="#000000" points="43,-507.5 43,-537.5 363,-537.5 363,-507.5 43,-507.5"/>
<text text-anchor="start" x="50" y="-518.9" font-family="Arial" font-size="14.00" fill="#000000">offer_material_id    </text>
<text text-anchor="start" x="188.439" y="-518.9" font-family="Arial" font-size="14.00" fill="#666666">[bigint]</text>
</g>
<!-- public.broken_links&#45;&gt;public.links -->
<g id="edge1" class="edge">
<title>public.broken_links:link_id&#45;&gt;public.links:id</title>
<path fill="none" stroke="#000000" d="M244.7797,-2016.1055C128.1183,-1982.041 344.0605,-1333.7351 363,-1156 367.4033,-1114.6784 404.5556,-1062.5 363,-1062.5"/>
<polygon fill="#000000" stroke="#000000" points="245.0918,-2016.148 254.3916,-2021.9587 250.0459,-2016.824 255,-2017.5 255,-2017.5 255,-2017.5 250.0459,-2016.824 255.6084,-2013.0413 245.0918,-2016.148 245.0918,-2016.148"/>
<text text-anchor="start" x="33.7845" y="-2027.5" font-family="Arial" font-size="10.00" fill="#000000">FOREIGN KEY (link_id) REFERENCES links(id)</text>
</g>
<!-- public.users -->
<g id="node3" class="node">
<title>public.users</title>
<polygon fill="#efefef" stroke="transparent" points="467,-1542.5 467,-1577.5 823,-1577.5 823,-1542.5 467,-1542.5"/>
<polygon fill="none" stroke="#000000" points="467,-1542.5 467,-1577.5 823,-1577.5 823,-1542.5 467,-1542.5"/>
<text text-anchor="start" x="533.2091" y="-1555.3" font-family="Arial Bold" font-size="18.00" fill="#000000">public.users</text>
<text text-anchor="start" x="629.2229" y="-1555.3" font-family="Arial" font-size="14.00" fill="#000000">    </text>
<text text-anchor="start" x="663.4277" y="-1555.3" font-family="Arial" font-size="14.00" fill="#666666">[BASE TABLE]</text>
<polygon fill="none" stroke="#000000" points="467,-1512.5 467,-1542.5 823,-1542.5 823,-1512.5 467,-1512.5"/>
<text text-anchor="start" x="474" y="-1523.9" font-family="Arial" font-size="14.00" fill="#000000">id    </text>
<text text-anchor="start" x="519.094" y="-1523.9" font-family="Arial" font-size="14.00" fill="#666666">[bigint]</text>
<polygon fill="none" stroke="#000000" points="467,-1482.5 467,-1512.5 823,-1512.5 823,-1482.5 467,-1482.5"/>
<text text-anchor="start" x="474" y="-1493.9" font-family="Arial" font-size="14.00" fill="#000000">name    </text>
<text text-anchor="start" x="543.2132" y="-1493.9" font-family="Arial" font-size="14.00" fill="#666666">[varchar(255)]</text>
<polygon fill="none" stroke="#000000" points="467,-1452.5 467,-1482.5 823,-1482.5 823,-1452.5 467,-1452.5"/>
<text text-anchor="start" x="474" y="-1463.9" font-family="Arial" font-size="14.00" fill="#000000">email    </text>
<text text-anchor="start" x="541.6438" y="-1463.9" font-family="Arial" font-size="14.00" fill="#666666">[varchar(255)]</text>
<polygon fill="none" stroke="#000000" points="467,-1422.5 467,-1452.5 823,-1452.5 823,-1422.5 467,-1422.5"/>
<text text-anchor="start" x="474" y="-1433.9" font-family="Arial" font-size="14.00" fill="#000000">lang    </text>
<text text-anchor="start" x="534.6592" y="-1433.9" font-family="Arial" font-size="14.00" fill="#666666">[varchar(255)]</text>
<polygon fill="none" stroke="#000000" points="467,-1392.5 467,-1422.5 823,-1422.5 823,-1392.5 467,-1392.5"/>
<text text-anchor="start" x="474" y="-1403.9" font-family="Arial" font-size="14.00" fill="#000000">role    </text>
<text text-anchor="start" x="531.5372" y="-1403.9" font-family="Arial" font-size="14.00" fill="#666666">[varchar(255)]</text>
<polygon fill="none" stroke="#000000" points="467,-1362.5 467,-1392.5 823,-1392.5 823,-1362.5 467,-1362.5"/>
<text text-anchor="start" x="474" y="-1373.9" font-family="Arial" font-size="14.00" fill="#000000">hash_name    </text>
<text text-anchor="start" x="581.3436" y="-1373.9" font-family="Arial" font-size="14.00" fill="#666666">[varchar(255)]</text>
<polygon fill="none" stroke="#000000" points="467,-1332.5 467,-1362.5 823,-1362.5 823,-1332.5 467,-1332.5"/>
<text text-anchor="start" x="474" y="-1343.9" font-family="Arial" font-size="14.00" fill="#000000">user_type_id    </text>
<text text-anchor="start" x="588.3408" y="-1343.9" font-family="Arial" font-size="14.00" fill="#666666">[bigint]</text>
<polygon fill="none" stroke="#000000" points="467,-1302.5 467,-1332.5 823,-1332.5 823,-1302.5 467,-1302.5"/>
<text text-anchor="start" x="474" y="-1313.9" font-family="Arial" font-size="14.00" fill="#000000">type    </text>
<text text-anchor="start" x="534.6606" y="-1313.9" font-family="Arial" font-size="14.00" fill="#666666">[varchar(255)]</text>
<polygon fill="none" stroke="#000000" points="467,-1272.5 467,-1302.5 823,-1302.5 823,-1272.5 467,-1272.5"/>
<text text-anchor="start" x="473.8808" y="-1283.9" font-family="Arial" font-size="14.00" fill="#000000">email_verified_at    </text>
<text text-anchor="start" x="613.8752" y="-1283.9" font-family="Arial" font-size="14.00" fill="#666666">[timestamp(0) without time zone]</text>
<polygon fill="none" stroke="#000000" points="467,-1242.5 467,-1272.5 823,-1272.5 823,-1242.5 467,-1242.5"/>
<text text-anchor="start" x="474" y="-1253.9" font-family="Arial" font-size="14.00" fill="#000000">password    </text>
<text text-anchor="start" x="568.1024" y="-1253.9" font-family="Arial" font-size="14.00" fill="#666666">[varchar(255)]</text>
<polygon fill="none" stroke="#000000" points="467,-1212.5 467,-1242.5 823,-1242.5 823,-1212.5 467,-1212.5"/>
<text text-anchor="start" x="474" y="-1223.9" font-family="Arial" font-size="14.00" fill="#000000">code_for_login    </text>
<text text-anchor="start" x="600.0126" y="-1223.9" font-family="Arial" font-size="14.00" fill="#666666">[varchar(255)]</text>
<polygon fill="none" stroke="#000000" points="467,-1182.5 467,-1212.5 823,-1212.5 823,-1182.5 467,-1182.5"/>
<text text-anchor="start" x="474" y="-1193.9" font-family="Arial" font-size="14.00" fill="#000000">status    </text>
<text text-anchor="start" x="545.5512" y="-1193.9" font-family="Arial" font-size="14.00" fill="#666666">[integer]</text>
<polygon fill="none" stroke="#000000" points="467,-1152.5 467,-1182.5 823,-1182.5 823,-1152.5 467,-1152.5"/>
<text text-anchor="start" x="474" y="-1163.9" font-family="Arial" font-size="14.00" fill="#000000">partner_type    </text>
<text text-anchor="start" x="586.7854" y="-1163.9" font-family="Arial" font-size="14.00" fill="#666666">[varchar(255)]</text>
<polygon fill="none" stroke="#000000" points="467,-1122.5 467,-1152.5 823,-1152.5 823,-1122.5 467,-1122.5"/>
<text text-anchor="start" x="474" y="-1133.9" font-family="Arial" font-size="14.00" fill="#000000">direct_contract    </text>
<text text-anchor="start" x="600" y="-1133.9" font-family="Arial" font-size="14.00" fill="#666666">[boolean]</text>
<polygon fill="none" stroke="#000000" points="467,-1092.5 467,-1122.5 823,-1122.5 823,-1092.5 467,-1092.5"/>
<text text-anchor="start" x="474" y="-1103.9" font-family="Arial" font-size="14.00" fill="#000000">need_api    </text>
<text text-anchor="start" x="565.7896" y="-1103.9" font-family="Arial" font-size="14.00" fill="#666666">[boolean]</text>
<polygon fill="none" stroke="#000000" points="467,-1062.5 467,-1092.5 823,-1092.5 823,-1062.5 467,-1062.5"/>
<text text-anchor="start" x="474" y="-1073.9" font-family="Arial" font-size="14.00" fill="#000000">ref_id    </text>
<text text-anchor="start" x="543.2104" y="-1073.9" font-family="Arial" font-size="14.00" fill="#666666">[bigint]</text>
<polygon fill="none" stroke="#000000" points="467,-1032.5 467,-1062.5 823,-1062.5 823,-1032.5 467,-1032.5"/>
<text text-anchor="start" x="474" y="-1043.9" font-family="Arial" font-size="14.00" fill="#000000">comment    </text>
<text text-anchor="start" x="565.7644" y="-1043.9" font-family="Arial" font-size="14.00" fill="#666666">[varchar(255)]</text>
<polygon fill="none" stroke="#000000" points="467,-1002.5 467,-1032.5 823,-1032.5 823,-1002.5 467,-1002.5"/>
<text text-anchor="start" x="474" y="-1013.9" font-family="Arial" font-size="14.00" fill="#000000">date_of_birth    </text>
<text text-anchor="start" x="589.9046" y="-1013.9" font-family="Arial" font-size="14.00" fill="#666666">[date]</text>
<polygon fill="none" stroke="#000000" points="467,-972.5 467,-1002.5 823,-1002.5 823,-972.5 467,-972.5"/>
<text text-anchor="start" x="474" y="-983.9" font-family="Arial" font-size="14.00" fill="#000000">passport_series    </text>
<text text-anchor="start" x="607.0014" y="-983.9" font-family="Arial" font-size="14.00" fill="#666666">[varchar(255)]</text>
<polygon fill="none" stroke="#000000" points="467,-942.5 467,-972.5 823,-972.5 823,-942.5 467,-942.5"/>
<text text-anchor="start" x="474" y="-953.9" font-family="Arial" font-size="14.00" fill="#000000">passport_number    </text>
<text text-anchor="start" x="617.1206" y="-953.9" font-family="Arial" font-size="14.00" fill="#666666">[varchar(255)]</text>
<polygon fill="none" stroke="#000000" points="467,-912.5 467,-942.5 823,-942.5 823,-912.5 467,-912.5"/>
<text text-anchor="start" x="474" y="-923.9" font-family="Arial" font-size="14.00" fill="#000000">citizenship    </text>
<text text-anchor="start" x="573.5456" y="-923.9" font-family="Arial" font-size="14.00" fill="#666666">[varchar(255)]</text>
<polygon fill="none" stroke="#000000" points="467,-882.5 467,-912.5 823,-912.5 823,-882.5 467,-882.5"/>
<text text-anchor="start" x="474" y="-893.9" font-family="Arial" font-size="14.00" fill="#000000">client_id    </text>
<text text-anchor="start" x="559.5456" y="-893.9" font-family="Arial" font-size="14.00" fill="#666666">[varchar(255)]</text>
<polygon fill="none" stroke="#000000" points="467,-852.5 467,-882.5 823,-882.5 823,-852.5 467,-852.5"/>
<text text-anchor="start" x="474" y="-863.9" font-family="Arial" font-size="14.00" fill="#000000">phone    </text>
<text text-anchor="start" x="547.1178" y="-863.9" font-family="Arial" font-size="14.00" fill="#666666">[varchar(255)]</text>
<polygon fill="none" stroke="#000000" points="467,-822.5 467,-852.5 823,-852.5 823,-822.5 467,-822.5"/>
<text text-anchor="start" x="474" y="-833.9" font-family="Arial" font-size="14.00" fill="#000000">skype    </text>
<text text-anchor="start" x="544.77" y="-833.9" font-family="Arial" font-size="14.00" fill="#666666">[varchar(255)]</text>
<polygon fill="none" stroke="#000000" points="467,-792.5 467,-822.5 823,-822.5 823,-792.5 467,-792.5"/>
<text text-anchor="start" x="474" y="-803.9" font-family="Arial" font-size="14.00" fill="#000000">whatsapp    </text>
<text text-anchor="start" x="568.115" y="-803.9" font-family="Arial" font-size="14.00" fill="#666666">[varchar(255)]</text>
<polygon fill="none" stroke="#000000" points="467,-762.5 467,-792.5 823,-792.5 823,-762.5 467,-762.5"/>
<text text-anchor="start" x="474" y="-773.9" font-family="Arial" font-size="14.00" fill="#000000">telegram    </text>
<text text-anchor="start" x="562.6536" y="-773.9" font-family="Arial" font-size="14.00" fill="#666666">[varchar(255)]</text>
<polygon fill="none" stroke="#000000" points="467,-732.5 467,-762.5 823,-762.5 823,-732.5 467,-732.5"/>
<text text-anchor="start" x="474" y="-743.9" font-family="Arial" font-size="14.00" fill="#000000">address    </text>
<text text-anchor="start" x="557.9958" y="-743.9" font-family="Arial" font-size="14.00" fill="#666666">[text]</text>
<polygon fill="none" stroke="#000000" points="467,-702.5 467,-732.5 823,-732.5 823,-702.5 467,-702.5"/>
<text text-anchor="start" x="474" y="-713.9" font-family="Arial" font-size="14.00" fill="#000000">postal_code    </text>
<text text-anchor="start" x="583.6802" y="-713.9" font-family="Arial" font-size="14.00" fill="#666666">[varchar(255)]</text>
<polygon fill="none" stroke="#000000" points="467,-672.5 467,-702.5 823,-702.5 823,-672.5 467,-672.5"/>
<text text-anchor="start" x="474" y="-683.9" font-family="Arial" font-size="14.00" fill="#000000">city    </text>
<text text-anchor="start" x="529.202" y="-683.9" font-family="Arial" font-size="14.00" fill="#666666">[varchar(255)]</text>
<polygon fill="none" stroke="#000000" points="467,-642.5 467,-672.5 823,-672.5 823,-642.5 467,-642.5"/>
<text text-anchor="start" x="474" y="-653.9" font-family="Arial" font-size="14.00" fill="#000000">country    </text>
<text text-anchor="start" x="554.1038" y="-653.9" font-family="Arial" font-size="14.00" fill="#666666">[varchar(255)]</text>
<polygon fill="none" stroke="#000000" points="467,-612.5 467,-642.5 823,-642.5 823,-612.5 467,-612.5"/>
<text text-anchor="start" x="474" y="-623.9" font-family="Arial" font-size="14.00" fill="#000000">welcome_status    </text>
<text text-anchor="start" x="608.5554" y="-623.9" font-family="Arial" font-size="14.00" fill="#666666">[varchar(255)]</text>
<polygon fill="none" stroke="#000000" points="467,-582.5 467,-612.5 823,-612.5 823,-582.5 467,-582.5"/>
<text text-anchor="start" x="474" y="-593.9" font-family="Arial" font-size="14.00" fill="#000000">welcome_confirm_code    </text>
<text text-anchor="start" x="655.223" y="-593.9" font-family="Arial" font-size="14.00" fill="#666666">[integer]</text>
<polygon fill="none" stroke="#000000" points="467,-552.5 467,-582.5 823,-582.5 823,-552.5 467,-552.5"/>
<text text-anchor="start" x="474" y="-563.9" font-family="Arial" font-size="14.00" fill="#000000">all_docs    </text>
<text text-anchor="start" x="559.5484" y="-563.9" font-family="Arial" font-size="14.00" fill="#666666">[boolean]</text>
<polygon fill="none" stroke="#000000" points="467,-522.5 467,-552.5 823,-552.5 823,-522.5 467,-522.5"/>
<text text-anchor="start" x="474" y="-533.9" font-family="Arial" font-size="14.00" fill="#000000">sign_status    </text>
<text text-anchor="start" x="579.0056" y="-533.9" font-family="Arial" font-size="14.00" fill="#666666">[varchar(255)]</text>
<polygon fill="none" stroke="#000000" points="467,-492.5 467,-522.5 823,-522.5 823,-492.5 467,-492.5"/>
<text text-anchor="start" x="474" y="-503.9" font-family="Arial" font-size="14.00" fill="#000000">letter_style    </text>
<text text-anchor="start" x="575.8808" y="-503.9" font-family="Arial" font-size="14.00" fill="#666666">[varchar(255)]</text>
<polygon fill="none" stroke="#000000" points="467,-462.5 467,-492.5 823,-492.5 823,-462.5 467,-462.5"/>
<text text-anchor="start" x="474" y="-473.9" font-family="Arial" font-size="14.00" fill="#000000">all_fields    </text>
<text text-anchor="start" x="562.6522" y="-473.9" font-family="Arial" font-size="14.00" fill="#666666">[boolean]</text>
<polygon fill="none" stroke="#000000" points="467,-432.5 467,-462.5 823,-462.5 823,-432.5 467,-432.5"/>
<text text-anchor="start" x="474" y="-443.9" font-family="Arial" font-size="14.00" fill="#000000">balance_popup    </text>
<text text-anchor="start" x="603.92" y="-443.9" font-family="Arial" font-size="14.00" fill="#666666">[boolean]</text>
<polygon fill="none" stroke="#000000" points="467,-402.5 467,-432.5 823,-432.5 823,-402.5 467,-402.5"/>
<text text-anchor="start" x="474" y="-413.9" font-family="Arial" font-size="14.00" fill="#000000">email_unsubs    </text>
<text text-anchor="start" x="594.5568" y="-413.9" font-family="Arial" font-size="14.00" fill="#666666">[boolean]</text>
<polygon fill="none" stroke="#000000" points="467,-372.5 467,-402.5 823,-402.5 823,-372.5 467,-372.5"/>
<text text-anchor="start" x="474" y="-383.9" font-family="Arial" font-size="14.00" fill="#000000">model    </text>
<text text-anchor="start" x="546.3198" y="-383.9" font-family="Arial" font-size="14.00" fill="#666666">[varchar(255)]</text>
<polygon fill="none" stroke="#000000" points="467,-342.5 467,-372.5 823,-372.5 823,-342.5 467,-342.5"/>
<text text-anchor="start" x="474" y="-353.9" font-family="Arial" font-size="14.00" fill="#000000">remember_token    </text>
<text text-anchor="start" x="613.9986" y="-353.9" font-family="Arial" font-size="14.00" fill="#666666">[varchar(100)]</text>
<polygon fill="none" stroke="#000000" points="467,-312.5 467,-342.5 823,-342.5 823,-312.5 467,-312.5"/>
<text text-anchor="start" x="474" y="-323.9" font-family="Arial" font-size="14.00" fill="#000000">auth_token    </text>
<text text-anchor="start" x="577.4642" y="-323.9" font-family="Arial" font-size="14.00" fill="#666666">[varchar(100)]</text>
<polygon fill="none" stroke="#000000" points="467,-282.5 467,-312.5 823,-312.5 823,-282.5 467,-282.5"/>
<text text-anchor="start" x="474" y="-293.9" font-family="Arial" font-size="14.00" fill="#000000">utms    </text>
<text text-anchor="start" x="538.5386" y="-293.9" font-family="Arial" font-size="14.00" fill="#666666">[json]</text>
<polygon fill="none" stroke="#000000" points="467,-252.5 467,-282.5 823,-282.5 823,-252.5 467,-252.5"/>
<text text-anchor="start" x="474" y="-263.9" font-family="Arial" font-size="14.00" fill="#000000">created_at    </text>
<text text-anchor="start" x="574.3422" y="-263.9" font-family="Arial" font-size="14.00" fill="#666666">[timestamp(0) without time zone]</text>
<polygon fill="none" stroke="#000000" points="467,-222.5 467,-252.5 823,-252.5 823,-222.5 467,-222.5"/>
<text text-anchor="start" x="474" y="-233.9" font-family="Arial" font-size="14.00" fill="#000000">updated_at    </text>
<text text-anchor="start" x="578.2468" y="-233.9" font-family="Arial" font-size="14.00" fill="#666666">[timestamp(0) without time zone]</text>
<polygon fill="none" stroke="#000000" points="467,-192.5 467,-222.5 823,-222.5 823,-192.5 467,-192.5"/>
<text text-anchor="start" x="474" y="-203.9" font-family="Arial" font-size="14.00" fill="#000000">deleted_at    </text>
<text text-anchor="start" x="573.5708" y="-203.9" font-family="Arial" font-size="14.00" fill="#666666">[timestamp(0) without time zone]</text>
<polygon fill="none" stroke="#000000" points="467,-162.5 467,-192.5 823,-192.5 823,-162.5 467,-162.5"/>
<text text-anchor="start" x="474" y="-173.9" font-family="Arial" font-size="14.00" fill="#000000">send_to_ado    </text>
<text text-anchor="start" x="589.1388" y="-173.9" font-family="Arial" font-size="14.00" fill="#666666">[boolean]</text>
<polygon fill="none" stroke="#000000" points="467,-132.5 467,-162.5 823,-162.5 823,-132.5 467,-132.5"/>
<text text-anchor="start" x="474" y="-143.9" font-family="Arial" font-size="14.00" fill="#000000">ado_sent_at    </text>
<text text-anchor="start" x="585.2468" y="-143.9" font-family="Arial" font-size="14.00" fill="#666666">[timestamp(0) without time zone]</text>
<polygon fill="none" stroke="#000000" points="467,-102.5 467,-132.5 823,-132.5 823,-102.5 467,-102.5"/>
<text text-anchor="start" x="474" y="-113.9" font-family="Arial" font-size="14.00" fill="#000000">surname    </text>
<text text-anchor="start" x="562.6564" y="-113.9" font-family="Arial" font-size="14.00" fill="#666666">[varchar(255)]</text>
<polygon fill="none" stroke="#000000" points="467,-72.5 467,-102.5 823,-102.5 823,-72.5 467,-72.5"/>
<text text-anchor="start" x="474" y="-83.9" font-family="Arial" font-size="14.00" fill="#000000">mgm    </text>
<text text-anchor="start" x="539.3086" y="-83.9" font-family="Arial" font-size="14.00" fill="#666666">[boolean]</text>
<polygon fill="none" stroke="#000000" points="467,-42.5 467,-72.5 823,-72.5 823,-42.5 467,-42.5"/>
<text text-anchor="start" x="474" y="-53.9" font-family="Arial" font-size="14.00" fill="#000000">employer    </text>
<text text-anchor="start" x="565.763" y="-53.9" font-family="Arial" font-size="14.00" fill="#666666">[boolean]</text>
</g>
<!-- public.broken_links&#45;&gt;public.users -->
<g id="edge2" class="edge">
<title>public.broken_links:partner_id&#45;&gt;public.users:id</title>
<path fill="none" stroke="#000000" d="M603.3939,-1987.1232C737.0178,-1977.1455 679.2963,-1771.4055 593,-1657 557.9276,-1610.5035 502.0724,-1667.4965 467,-1621 441.9754,-1587.8242 425.4444,-1527.5 467,-1527.5"/>
<polygon fill="#000000" stroke="#000000" points="602.9934,-1987.1376 592.8369,-1983.003 597.9967,-1987.3188 593,-1987.5 593,-1987.5 593,-1987.5 597.9967,-1987.3188 593.1631,-1991.997 602.9934,-1987.1376 602.9934,-1987.1376"/>
<text text-anchor="start" x="600.2215" y="-1997.5" font-family="Arial" font-size="10.00" fill="#000000">FOREIGN KEY (partner_id) REFERENCES users(id)</text>
</g>
</g>
</svg>
