<?xml version="1.0" encoding="UTF-8" standalone="no"?>
<!DOCTYPE svg PUBLIC "-//W3C//DTD SVG 1.1//EN"
 "http://www.w3.org/Graphics/SVG/1.1/DTD/svg11.dtd">
<!-- Generated by graphviz version 2.40.1 (20161225.0304)
 -->
<!-- Title: public.offer_categories Pages: 1 -->
<svg width="868pt" height="2602pt"
 viewBox="0.00 0.00 867.50 2602.00" xmlns="http://www.w3.org/2000/svg" xmlns:xlink="http://www.w3.org/1999/xlink">
<g id="graph0" class="graph" transform="scale(1 1) rotate(0) translate(4 2598)">
<title>public.offer_categories</title>
<polygon fill="#ffffff" stroke="transparent" points="-4,4 -4,-2598 863.5,-2598 863.5,4 -4,4"/>
<!-- public.offer_categories -->
<g id="node1" class="node">
<title>public.offer_categories</title>
<polygon fill="#efefef" stroke="transparent" points="262,-195.5 262,-230.5 584,-230.5 584,-195.5 262,-195.5"/>
<polygon fill="none" stroke="#000000" points="262,-195.5 262,-230.5 584,-230.5 584,-195.5 262,-195.5"/>
<text text-anchor="start" x="268.694" y="-208.3" font-family="Arial Bold" font-size="18.00" fill="#000000">public.offer_categories</text>
<text text-anchor="start" x="449.738" y="-208.3" font-family="Arial" font-size="14.00" fill="#000000">    </text>
<text text-anchor="start" x="483.9428" y="-208.3" font-family="Arial" font-size="14.00" fill="#666666">[BASE TABLE]</text>
<polygon fill="none" stroke="#000000" points="262,-165.5 262,-195.5 584,-195.5 584,-165.5 262,-165.5"/>
<text text-anchor="start" x="269" y="-176.9" font-family="Arial" font-size="14.00" fill="#000000">category_id </text>
<text text-anchor="start" x="345.244" y="-176.9" font-family="Arial" font-size="14.00" fill="#666666">[bigint]</text>
<polygon fill="none" stroke="#000000" points="262,-135.5 262,-165.5 584,-165.5 584,-135.5 262,-135.5"/>
<text text-anchor="start" x="269" y="-146.9" font-family="Arial" font-size="14.00" fill="#000000">category_name </text>
<text text-anchor="start" x="369.3632" y="-146.9" font-family="Arial" font-size="14.00" fill="#666666">[varchar(255)]</text>
<polygon fill="none" stroke="#000000" points="262,-105.5 262,-135.5 584,-135.5 584,-105.5 262,-105.5"/>
<text text-anchor="start" x="269" y="-116.9" font-family="Arial" font-size="14.00" fill="#000000">comment </text>
<text text-anchor="start" x="330.4502" y="-116.9" font-family="Arial" font-size="14.00" fill="#666666">[text]</text>
<polygon fill="none" stroke="#000000" points="262,-75.5 262,-105.5 584,-105.5 584,-75.5 262,-75.5"/>
<text text-anchor="start" x="269" y="-86.9" font-family="Arial" font-size="14.00" fill="#000000">created_at </text>
<text text-anchor="start" x="339.028" y="-86.9" font-family="Arial" font-size="14.00" fill="#666666">[timestamp(0) without time zone]</text>
<polygon fill="none" stroke="#000000" points="262,-45.5 262,-75.5 584,-75.5 584,-45.5 262,-45.5"/>
<text text-anchor="start" x="269" y="-56.9" font-family="Arial" font-size="14.00" fill="#000000">updated_at </text>
<text text-anchor="start" x="342.9326" y="-56.9" font-family="Arial" font-size="14.00" fill="#666666">[timestamp(0) without time zone]</text>
<polygon fill="none" stroke="#000000" stroke-width="3" points="260.5,-44.5 260.5,-232.5 585.5,-232.5 585.5,-44.5 260.5,-44.5"/>
</g>
<!-- public.offers -->
<g id="node2" class="node">
<title>public.offers</title>
<polygon fill="#efefef" stroke="transparent" points="43,-2515.5 43,-2550.5 363,-2550.5 363,-2515.5 43,-2515.5"/>
<polygon fill="none" stroke="#000000" points="43,-2515.5 43,-2550.5 363,-2550.5 363,-2515.5 43,-2515.5"/>
<text text-anchor="start" x="90.7069" y="-2528.3" font-family="Arial Bold" font-size="18.00" fill="#000000">public.offers</text>
<text text-anchor="start" x="187.7251" y="-2528.3" font-family="Arial" font-size="14.00" fill="#000000">    </text>
<text text-anchor="start" x="221.9299" y="-2528.3" font-family="Arial" font-size="14.00" fill="#666666">[BASE TABLE]</text>
<polygon fill="none" stroke="#000000" points="43,-2485.5 43,-2515.5 363,-2515.5 363,-2485.5 43,-2485.5"/>
<text text-anchor="start" x="50" y="-2496.9" font-family="Arial" font-size="14.00" fill="#000000">id    </text>
<text text-anchor="start" x="95.094" y="-2496.9" font-family="Arial" font-size="14.00" fill="#666666">[bigint]</text>
<polygon fill="none" stroke="#000000" points="43,-2455.5 43,-2485.5 363,-2485.5 363,-2455.5 43,-2455.5"/>
<text text-anchor="start" x="50" y="-2466.9" font-family="Arial" font-size="14.00" fill="#000000">user_id    </text>
<text text-anchor="start" x="130.1024" y="-2466.9" font-family="Arial" font-size="14.00" fill="#666666">[bigint]</text>
<polygon fill="none" stroke="#000000" points="43,-2425.5 43,-2455.5 363,-2455.5 363,-2425.5 43,-2425.5"/>
<text text-anchor="start" x="50" y="-2436.9" font-family="Arial" font-size="14.00" fill="#000000">category_id    </text>
<text text-anchor="start" x="156.5582" y="-2436.9" font-family="Arial" font-size="14.00" fill="#666666">[bigint]</text>
<polygon fill="none" stroke="#000000" points="43,-2395.5 43,-2425.5 363,-2425.5 363,-2395.5 43,-2395.5"/>
<text text-anchor="start" x="50" y="-2406.9" font-family="Arial" font-size="14.00" fill="#000000">offer_name    </text>
<text text-anchor="start" x="155.0028" y="-2406.9" font-family="Arial" font-size="14.00" fill="#666666">[varchar(255)]</text>
<polygon fill="none" stroke="#000000" points="43,-2365.5 43,-2395.5 363,-2395.5 363,-2365.5 43,-2365.5"/>
<text text-anchor="start" x="50" y="-2376.9" font-family="Arial" font-size="14.00" fill="#000000">model    </text>
<text text-anchor="start" x="122.3198" y="-2376.9" font-family="Arial" font-size="14.00" fill="#666666">[varchar(255)]</text>
<polygon fill="none" stroke="#000000" points="43,-2335.5 43,-2365.5 363,-2365.5 363,-2335.5 43,-2335.5"/>
<text text-anchor="start" x="50" y="-2346.9" font-family="Arial" font-size="14.00" fill="#000000">conversion    </text>
<text text-anchor="start" x="151.885" y="-2346.9" font-family="Arial" font-size="14.00" fill="#666666">[varchar(255)]</text>
<polygon fill="none" stroke="#000000" points="43,-2305.5 43,-2335.5 363,-2335.5 363,-2305.5 43,-2305.5"/>
<text text-anchor="start" x="50" y="-2316.9" font-family="Arial" font-size="14.00" fill="#000000">hold    </text>
<text text-anchor="start" x="110.6592" y="-2316.9" font-family="Arial" font-size="14.00" fill="#666666">[integer]</text>
<polygon fill="none" stroke="#000000" points="43,-2275.5 43,-2305.5 363,-2305.5 363,-2275.5 43,-2275.5"/>
<text text-anchor="start" x="50" y="-2286.9" font-family="Arial" font-size="14.00" fill="#000000">fee_type    </text>
<text text-anchor="start" x="137.899" y="-2286.9" font-family="Arial" font-size="14.00" fill="#666666">[varchar(255)]</text>
<polygon fill="none" stroke="#000000" points="43,-2245.5 43,-2275.5 363,-2275.5 363,-2245.5 43,-2245.5"/>
<text text-anchor="start" x="50" y="-2256.9" font-family="Arial" font-size="14.00" fill="#000000">ctr    </text>
<text text-anchor="start" x="99.756" y="-2256.9" font-family="Arial" font-size="14.00" fill="#666666">[double precision]</text>
<polygon fill="none" stroke="#000000" points="43,-2215.5 43,-2245.5 363,-2245.5 363,-2215.5 43,-2215.5"/>
<text text-anchor="start" x="50" y="-2226.9" font-family="Arial" font-size="14.00" fill="#000000">cr    </text>
<text text-anchor="start" x="95.8654" y="-2226.9" font-family="Arial" font-size="14.00" fill="#666666">[double precision]</text>
<polygon fill="none" stroke="#000000" points="43,-2185.5 43,-2215.5 363,-2215.5 363,-2185.5 43,-2185.5"/>
<text text-anchor="start" x="50" y="-2196.9" font-family="Arial" font-size="14.00" fill="#000000">ar    </text>
<text text-anchor="start" x="96.648" y="-2196.9" font-family="Arial" font-size="14.00" fill="#666666">[double precision]</text>
<polygon fill="none" stroke="#000000" points="43,-2155.5 43,-2185.5 363,-2185.5 363,-2155.5 43,-2155.5"/>
<text text-anchor="start" x="50" y="-2166.9" font-family="Arial" font-size="14.00" fill="#000000">epc    </text>
<text text-anchor="start" x="106.77" y="-2166.9" font-family="Arial" font-size="14.00" fill="#666666">[double precision]</text>
<polygon fill="none" stroke="#000000" points="43,-2125.5 43,-2155.5 363,-2155.5 363,-2125.5 43,-2125.5"/>
<text text-anchor="start" x="50" y="-2136.9" font-family="Arial" font-size="14.00" fill="#000000">epl    </text>
<text text-anchor="start" x="102.8766" y="-2136.9" font-family="Arial" font-size="14.00" fill="#666666">[double precision]</text>
<polygon fill="none" stroke="#000000" points="43,-2095.5 43,-2125.5 363,-2125.5 363,-2095.5 43,-2095.5"/>
<text text-anchor="start" x="50" y="-2106.9" font-family="Arial" font-size="14.00" fill="#000000">info_link    </text>
<text text-anchor="start" x="135.5456" y="-2106.9" font-family="Arial" font-size="14.00" fill="#666666">[varchar(255)]</text>
<polygon fill="none" stroke="#000000" points="43,-2065.5 43,-2095.5 363,-2095.5 363,-2065.5 43,-2065.5"/>
<text text-anchor="start" x="50" y="-2076.9" font-family="Arial" font-size="14.00" fill="#000000">description    </text>
<text text-anchor="start" x="151.8822" y="-2076.9" font-family="Arial" font-size="14.00" fill="#666666">[text]</text>
<polygon fill="none" stroke="#000000" points="43,-2035.5 43,-2065.5 363,-2065.5 363,-2035.5 43,-2035.5"/>
<text text-anchor="start" x="50" y="-2046.9" font-family="Arial" font-size="14.00" fill="#000000">is_show    </text>
<text text-anchor="start" x="134.7658" y="-2046.9" font-family="Arial" font-size="14.00" fill="#666666">[boolean]</text>
<polygon fill="none" stroke="#000000" points="43,-2005.5 43,-2035.5 363,-2035.5 363,-2005.5 43,-2005.5"/>
<text text-anchor="start" x="50" y="-2016.9" font-family="Arial" font-size="14.00" fill="#000000">bot_text_for_landing    </text>
<text text-anchor="start" x="211.0322" y="-2016.9" font-family="Arial" font-size="14.00" fill="#666666">[text]</text>
<polygon fill="none" stroke="#000000" points="43,-1975.5 43,-2005.5 363,-2005.5 363,-1975.5 43,-1975.5"/>
<text text-anchor="start" x="50" y="-1986.9" font-family="Arial" font-size="14.00" fill="#000000">symbol_many    </text>
<text text-anchor="start" x="170.5456" y="-1986.9" font-family="Arial" font-size="14.00" fill="#666666">[varchar(255)]</text>
<polygon fill="none" stroke="#000000" points="43,-1945.5 43,-1975.5 363,-1975.5 363,-1945.5 43,-1945.5"/>
<text text-anchor="start" x="50" y="-1956.9" font-family="Arial" font-size="14.00" fill="#000000">name_for_landing    </text>
<text text-anchor="start" x="196.2384" y="-1956.9" font-family="Arial" font-size="14.00" fill="#666666">[text]</text>
<polygon fill="none" stroke="#000000" points="43,-1915.5 43,-1945.5 363,-1945.5 363,-1915.5 43,-1915.5"/>
<text text-anchor="start" x="50" y="-1926.9" font-family="Arial" font-size="14.00" fill="#000000">description_for_landing    </text>
<text text-anchor="start" x="228.9074" y="-1926.9" font-family="Arial" font-size="14.00" fill="#666666">[text]</text>
<polygon fill="none" stroke="#000000" points="43,-1885.5 43,-1915.5 363,-1915.5 363,-1885.5 43,-1885.5"/>
<text text-anchor="start" x="50" y="-1896.9" font-family="Arial" font-size="14.00" fill="#000000">image    </text>
<text text-anchor="start" x="122.3198" y="-1896.9" font-family="Arial" font-size="14.00" fill="#666666">[varchar(255)]</text>
<polygon fill="none" stroke="#000000" points="43,-1855.5 43,-1885.5 363,-1885.5 363,-1855.5 43,-1855.5"/>
<text text-anchor="start" x="50" y="-1866.9" font-family="Arial" font-size="14.00" fill="#000000">image_for_landing    </text>
<text text-anchor="start" x="199.345" y="-1866.9" font-family="Arial" font-size="14.00" fill="#666666">[varchar(255)]</text>
<polygon fill="none" stroke="#000000" points="43,-1825.5 43,-1855.5 363,-1855.5 363,-1825.5 43,-1825.5"/>
<text text-anchor="start" x="50" y="-1836.9" font-family="Arial" font-size="14.00" fill="#000000">link_template    </text>
<text text-anchor="start" x="166.662" y="-1836.9" font-family="Arial" font-size="14.00" fill="#666666">[varchar(255)]</text>
<polygon fill="none" stroke="#000000" points="43,-1795.5 43,-1825.5 363,-1825.5 363,-1795.5 43,-1795.5"/>
<text text-anchor="start" x="50" y="-1806.9" font-family="Arial" font-size="14.00" fill="#000000">utm_source    </text>
<text text-anchor="start" x="157.3296" y="-1806.9" font-family="Arial" font-size="14.00" fill="#666666">[varchar(255)]</text>
<polygon fill="none" stroke="#000000" points="43,-1765.5 43,-1795.5 363,-1795.5 363,-1765.5 43,-1765.5"/>
<text text-anchor="start" x="50" y="-1776.9" font-family="Arial" font-size="14.00" fill="#000000">click_id_name    </text>
<text text-anchor="start" x="172.8808" y="-1776.9" font-family="Arial" font-size="14.00" fill="#666666">[varchar(255)]</text>
<polygon fill="none" stroke="#000000" points="43,-1735.5 43,-1765.5 363,-1765.5 363,-1735.5 43,-1735.5"/>
<text text-anchor="start" x="50" y="-1746.9" font-family="Arial" font-size="14.00" fill="#000000">web_id_name    </text>
<text text-anchor="start" x="171.3394" y="-1746.9" font-family="Arial" font-size="14.00" fill="#666666">[varchar(255)]</text>
<polygon fill="none" stroke="#000000" points="43,-1705.5 43,-1735.5 363,-1735.5 363,-1705.5 43,-1705.5"/>
<text text-anchor="start" x="50" y="-1716.9" font-family="Arial" font-size="14.00" fill="#000000">status    </text>
<text text-anchor="start" x="121.5512" y="-1716.9" font-family="Arial" font-size="14.00" fill="#666666">[varchar(255)]</text>
<polygon fill="none" stroke="#000000" points="43,-1675.5 43,-1705.5 363,-1705.5 363,-1675.5 43,-1675.5"/>
<text text-anchor="start" x="50" y="-1686.9" font-family="Arial" font-size="14.00" fill="#000000">for_user_ids    </text>
<text text-anchor="start" x="161.2188" y="-1686.9" font-family="Arial" font-size="14.00" fill="#666666">[json]</text>
<polygon fill="none" stroke="#000000" points="43,-1645.5 43,-1675.5 363,-1675.5 363,-1645.5 43,-1645.5"/>
<text text-anchor="start" x="50" y="-1656.9" font-family="Arial" font-size="14.00" fill="#000000">flag_approvable    </text>
<text text-anchor="start" x="183.7952" y="-1656.9" font-family="Arial" font-size="14.00" fill="#666666">[boolean]</text>
<polygon fill="none" stroke="#000000" points="43,-1615.5 43,-1645.5 363,-1645.5 363,-1615.5 43,-1615.5"/>
<text text-anchor="start" x="50" y="-1626.9" font-family="Arial" font-size="14.00" fill="#000000">flag_lock    </text>
<text text-anchor="start" x="139.439" y="-1626.9" font-family="Arial" font-size="14.00" fill="#666666">[boolean]</text>
<polygon fill="none" stroke="#000000" points="43,-1585.5 43,-1615.5 363,-1615.5 363,-1585.5 43,-1585.5"/>
<text text-anchor="start" x="50" y="-1596.9" font-family="Arial" font-size="14.00" fill="#000000">flag_show_promo_code    </text>
<text text-anchor="start" x="232.8036" y="-1596.9" font-family="Arial" font-size="14.00" fill="#666666">[boolean]</text>
<polygon fill="none" stroke="#000000" points="43,-1555.5 43,-1585.5 363,-1585.5 363,-1555.5 43,-1555.5"/>
<text text-anchor="start" x="50" y="-1566.9" font-family="Arial" font-size="14.00" fill="#000000">flag_not_link    </text>
<text text-anchor="start" x="162.784" y="-1566.9" font-family="Arial" font-size="14.00" fill="#666666">[boolean]</text>
<polygon fill="none" stroke="#000000" points="43,-1525.5 43,-1555.5 363,-1555.5 363,-1525.5 43,-1525.5"/>
<text text-anchor="start" x="50" y="-1536.9" font-family="Arial" font-size="14.00" fill="#000000">agreement    </text>
<text text-anchor="start" x="151.1122" y="-1536.9" font-family="Arial" font-size="14.00" fill="#666666">[text]</text>
<polygon fill="none" stroke="#000000" points="43,-1495.5 43,-1525.5 363,-1525.5 363,-1495.5 43,-1495.5"/>
<text text-anchor="start" x="50" y="-1506.9" font-family="Arial" font-size="14.00" fill="#000000">advice    </text>
<text text-anchor="start" x="124.6592" y="-1506.9" font-family="Arial" font-size="14.00" fill="#666666">[varchar(255)]</text>
<polygon fill="none" stroke="#000000" points="43,-1465.5 43,-1495.5 363,-1495.5 363,-1465.5 43,-1465.5"/>
<text text-anchor="start" x="50" y="-1476.9" font-family="Arial" font-size="14.00" fill="#000000">priority    </text>
<text text-anchor="start" x="126.195" y="-1476.9" font-family="Arial" font-size="14.00" fill="#666666">[integer]</text>
<polygon fill="none" stroke="#000000" points="43,-1435.5 43,-1465.5 363,-1465.5 363,-1435.5 43,-1435.5"/>
<text text-anchor="start" x="50" y="-1446.9" font-family="Arial" font-size="14.00" fill="#000000">sp_id    </text>
<text text-anchor="start" x="117.6592" y="-1446.9" font-family="Arial" font-size="14.00" fill="#666666">[varchar(255)]</text>
<polygon fill="none" stroke="#000000" points="43,-1405.5 43,-1435.5 363,-1435.5 363,-1405.5 43,-1405.5"/>
<text text-anchor="start" x="50" y="-1416.9" font-family="Arial" font-size="14.00" fill="#000000">offer_card_color    </text>
<text text-anchor="start" x="185.3352" y="-1416.9" font-family="Arial" font-size="14.00" fill="#666666">[varchar(255)]</text>
<polygon fill="none" stroke="#000000" points="43,-1375.5 43,-1405.5 363,-1405.5 363,-1375.5 43,-1375.5"/>
<text text-anchor="start" x="50" y="-1386.9" font-family="Arial" font-size="14.00" fill="#000000">description_payed_title    </text>
<text text-anchor="start" x="227.3548" y="-1386.9" font-family="Arial" font-size="14.00" fill="#666666">[text]</text>
<polygon fill="none" stroke="#000000" points="43,-1345.5 43,-1375.5 363,-1375.5 363,-1345.5 43,-1345.5"/>
<text text-anchor="start" x="50" y="-1356.9" font-family="Arial" font-size="14.00" fill="#000000">description_payed_body_html    </text>
<text text-anchor="start" x="270.1486" y="-1356.9" font-family="Arial" font-size="14.00" fill="#666666">[text]</text>
<polygon fill="none" stroke="#000000" points="43,-1315.5 43,-1345.5 363,-1345.5 363,-1315.5 43,-1315.5"/>
<text text-anchor="start" x="50" y="-1326.9" font-family="Arial" font-size="14.00" fill="#000000">description_payed_body_marked    </text>
<text text-anchor="start" x="290.3772" y="-1326.9" font-family="Arial" font-size="14.00" fill="#666666">[text]</text>
<polygon fill="none" stroke="#000000" points="43,-1285.5 43,-1315.5 363,-1315.5 363,-1285.5 43,-1285.5"/>
<text text-anchor="start" x="50" y="-1296.9" font-family="Arial" font-size="14.00" fill="#000000">description_not_payed_title    </text>
<text text-anchor="start" x="254.5932" y="-1296.9" font-family="Arial" font-size="14.00" fill="#666666">[text]</text>
<polygon fill="none" stroke="#000000" points="43,-1255.5 43,-1285.5 363,-1285.5 363,-1255.5 43,-1255.5"/>
<text text-anchor="start" x="50" y="-1266.9" font-family="Arial" font-size="14.00" fill="#000000">description_not_payed_body_html    </text>
<text text-anchor="start" x="297.387" y="-1266.9" font-family="Arial" font-size="14.00" fill="#666666">[text]</text>
<polygon fill="none" stroke="#000000" points="43,-1225.5 43,-1255.5 363,-1255.5 363,-1225.5 43,-1225.5"/>
<text text-anchor="start" x="50" y="-1236.9" font-family="Arial" font-size="14.00" fill="#000000">description_not_payed_body_marked    </text>
<text text-anchor="start" x="317.6156" y="-1236.9" font-family="Arial" font-size="14.00" fill="#666666">[text]</text>
<polygon fill="none" stroke="#000000" points="43,-1195.5 43,-1225.5 363,-1225.5 363,-1195.5 43,-1195.5"/>
<text text-anchor="start" x="50" y="-1206.9" font-family="Arial" font-size="14.00" fill="#000000">is_show_stocks    </text>
<text text-anchor="start" x="182.2216" y="-1206.9" font-family="Arial" font-size="14.00" fill="#666666">[boolean]</text>
<polygon fill="none" stroke="#000000" points="43,-1165.5 43,-1195.5 363,-1195.5 363,-1165.5 43,-1165.5"/>
<text text-anchor="start" x="50" y="-1176.9" font-family="Arial" font-size="14.00" fill="#000000">stocks_title    </text>
<text text-anchor="start" x="153.4376" y="-1176.9" font-family="Arial" font-size="14.00" fill="#666666">[text]</text>
<polygon fill="none" stroke="#000000" points="43,-1135.5 43,-1165.5 363,-1165.5 363,-1135.5 43,-1135.5"/>
<text text-anchor="start" x="50" y="-1146.9" font-family="Arial" font-size="14.00" fill="#000000">stocks_sub_title    </text>
<text text-anchor="start" x="183.7854" y="-1146.9" font-family="Arial" font-size="14.00" fill="#666666">[text]</text>
<polygon fill="none" stroke="#000000" points="43,-1105.5 43,-1135.5 363,-1135.5 363,-1105.5 43,-1105.5"/>
<text text-anchor="start" x="50" y="-1116.9" font-family="Arial" font-size="14.00" fill="#000000">stocks_additional_text    </text>
<text text-anchor="start" x="221.913" y="-1116.9" font-family="Arial" font-size="14.00" fill="#666666">[text]</text>
<polygon fill="none" stroke="#000000" points="43,-1075.5 43,-1105.5 363,-1105.5 363,-1075.5 43,-1075.5"/>
<text text-anchor="start" x="50" y="-1086.9" font-family="Arial" font-size="14.00" fill="#000000">stocks_bg_color    </text>
<text text-anchor="start" x="185.3408" y="-1086.9" font-family="Arial" font-size="14.00" fill="#666666">[text]</text>
<polygon fill="none" stroke="#000000" points="43,-1045.5 43,-1075.5 363,-1075.5 363,-1045.5 43,-1045.5"/>
<text text-anchor="start" x="50" y="-1056.9" font-family="Arial" font-size="14.00" fill="#000000">stocks_bg_img    </text>
<text text-anchor="start" x="177.5582" y="-1056.9" font-family="Arial" font-size="14.00" fill="#666666">[text]</text>
<polygon fill="none" stroke="#000000" points="43,-1015.5 43,-1045.5 363,-1045.5 363,-1015.5 43,-1015.5"/>
<text text-anchor="start" x="50" y="-1026.9" font-family="Arial" font-size="14.00" fill="#000000">target_audience    </text>
<text text-anchor="start" x="184.5792" y="-1026.9" font-family="Arial" font-size="14.00" fill="#666666">[varchar(255)]</text>
<polygon fill="none" stroke="#000000" points="43,-985.5 43,-1015.5 363,-1015.5 363,-985.5 43,-985.5"/>
<text text-anchor="start" x="50" y="-996.9" font-family="Arial" font-size="14.00" fill="#000000">is_traffic    </text>
<text text-anchor="start" x="136.3156" y="-996.9" font-family="Arial" font-size="14.00" fill="#666666">[boolean]</text>
<polygon fill="none" stroke="#000000" points="43,-955.5 43,-985.5 363,-985.5 363,-955.5 43,-955.5"/>
<text text-anchor="start" x="50" y="-966.9" font-family="Arial" font-size="14.00" fill="#000000">is_rules    </text>
<text text-anchor="start" x="132.4264" y="-966.9" font-family="Arial" font-size="14.00" fill="#666666">[boolean]</text>
<polygon fill="none" stroke="#000000" points="43,-925.5 43,-955.5 363,-955.5 363,-925.5 43,-925.5"/>
<text text-anchor="start" x="50" y="-936.9" font-family="Arial" font-size="14.00" fill="#000000">is_auditory    </text>
<text text-anchor="start" x="151.8822" y="-936.9" font-family="Arial" font-size="14.00" fill="#666666">[boolean]</text>
<polygon fill="none" stroke="#000000" points="43,-895.5 43,-925.5 363,-925.5 363,-895.5 43,-895.5"/>
<text text-anchor="start" x="50" y="-906.9" font-family="Arial" font-size="14.00" fill="#000000">is_required    </text>
<text text-anchor="start" x="153.4348" y="-906.9" font-family="Arial" font-size="14.00" fill="#666666">[boolean]</text>
<polygon fill="none" stroke="#000000" points="43,-865.5 43,-895.5 363,-895.5 363,-865.5 43,-865.5"/>
<text text-anchor="start" x="50" y="-876.9" font-family="Arial" font-size="14.00" fill="#000000">is_required_value    </text>
<text text-anchor="start" x="194.6718" y="-876.9" font-family="Arial" font-size="14.00" fill="#666666">[varchar(255)]</text>
<polygon fill="none" stroke="#000000" points="43,-835.5 43,-865.5 363,-865.5 363,-835.5 43,-835.5"/>
<text text-anchor="start" x="50" y="-846.9" font-family="Arial" font-size="14.00" fill="#000000">banner_title    </text>
<text text-anchor="start" x="157.338" y="-846.9" font-family="Arial" font-size="14.00" fill="#666666">[text]</text>
<polygon fill="none" stroke="#000000" points="43,-805.5 43,-835.5 363,-835.5 363,-805.5 43,-805.5"/>
<text text-anchor="start" x="50" y="-816.9" font-family="Arial" font-size="14.00" fill="#000000">banner_text    </text>
<text text-anchor="start" x="158.1248" y="-816.9" font-family="Arial" font-size="14.00" fill="#666666">[text]</text>
<polygon fill="none" stroke="#000000" points="43,-775.5 43,-805.5 363,-805.5 363,-775.5 43,-775.5"/>
<text text-anchor="start" x="50" y="-786.9" font-family="Arial" font-size="14.00" fill="#000000">banner_btn_text    </text>
<text text-anchor="start" x="185.3632" y="-786.9" font-family="Arial" font-size="14.00" fill="#666666">[text]</text>
<polygon fill="none" stroke="#000000" points="43,-745.5 43,-775.5 363,-775.5 363,-745.5 43,-745.5"/>
<text text-anchor="start" x="50" y="-756.9" font-family="Arial" font-size="14.00" fill="#000000">banner_bg_color    </text>
<text text-anchor="start" x="189.2412" y="-756.9" font-family="Arial" font-size="14.00" fill="#666666">[text]</text>
<polygon fill="none" stroke="#000000" points="43,-715.5 43,-745.5 363,-745.5 363,-715.5 43,-715.5"/>
<text text-anchor="start" x="50" y="-726.9" font-family="Arial" font-size="14.00" fill="#000000">banner_bg_image    </text>
<text text-anchor="start" x="197.0238" y="-726.9" font-family="Arial" font-size="14.00" fill="#666666">[text]</text>
<polygon fill="none" stroke="#000000" points="43,-685.5 43,-715.5 363,-715.5 363,-685.5 43,-685.5"/>
<text text-anchor="start" x="50" y="-696.9" font-family="Arial" font-size="14.00" fill="#000000">is_show_calculator    </text>
<text text-anchor="start" x="202.4432" y="-696.9" font-family="Arial" font-size="14.00" fill="#666666">[boolean]</text>
<polygon fill="none" stroke="#000000" points="43,-655.5 43,-685.5 363,-685.5 363,-655.5 43,-655.5"/>
<text text-anchor="start" x="50" y="-666.9" font-family="Arial" font-size="14.00" fill="#000000">okved    </text>
<text text-anchor="start" x="121.5526" y="-666.9" font-family="Arial" font-size="14.00" fill="#666666">[varchar(255)]</text>
<polygon fill="none" stroke="#000000" points="43,-625.5 43,-655.5 363,-655.5 363,-625.5 43,-625.5"/>
<text text-anchor="start" x="50" y="-636.9" font-family="Arial" font-size="14.00" fill="#000000">created_at    </text>
<text text-anchor="start" x="150.3422" y="-636.9" font-family="Arial" font-size="14.00" fill="#666666">[timestamp(0) without time zone]</text>
<polygon fill="none" stroke="#000000" points="43,-595.5 43,-625.5 363,-625.5 363,-595.5 43,-595.5"/>
<text text-anchor="start" x="49.7546" y="-606.9" font-family="Arial" font-size="14.00" fill="#000000">updated_at    </text>
<text text-anchor="start" x="154.0014" y="-606.9" font-family="Arial" font-size="14.00" fill="#666666">[timestamp(0) without time zone]</text>
<polygon fill="none" stroke="#000000" points="43,-565.5 43,-595.5 363,-595.5 363,-565.5 43,-565.5"/>
<text text-anchor="start" x="50" y="-576.9" font-family="Arial" font-size="14.00" fill="#000000">deleted_at    </text>
<text text-anchor="start" x="149.5708" y="-576.9" font-family="Arial" font-size="14.00" fill="#666666">[timestamp(0) without time zone]</text>
<polygon fill="none" stroke="#000000" points="43,-535.5 43,-565.5 363,-565.5 363,-535.5 43,-535.5"/>
<text text-anchor="start" x="50" y="-546.9" font-family="Arial" font-size="14.00" fill="#000000">product_name    </text>
<text text-anchor="start" x="173.6774" y="-546.9" font-family="Arial" font-size="14.00" fill="#666666">[varchar(255)]</text>
<polygon fill="none" stroke="#000000" points="43,-505.5 43,-535.5 363,-535.5 363,-505.5 43,-505.5"/>
<text text-anchor="start" x="50" y="-516.9" font-family="Arial" font-size="14.00" fill="#000000">is_auditory_value    </text>
<text text-anchor="start" x="193.1192" y="-516.9" font-family="Arial" font-size="14.00" fill="#666666">[varchar(255)]</text>
<polygon fill="none" stroke="#000000" points="43,-475.5 43,-505.5 363,-505.5 363,-475.5 43,-475.5"/>
<text text-anchor="start" x="50" y="-486.9" font-family="Arial" font-size="14.00" fill="#000000">api    </text>
<text text-anchor="start" x="102.8766" y="-486.9" font-family="Arial" font-size="14.00" fill="#666666">[boolean]</text>
<polygon fill="none" stroke="#000000" points="43,-445.5 43,-475.5 363,-475.5 363,-445.5 43,-445.5"/>
<text text-anchor="start" x="50" y="-456.9" font-family="Arial" font-size="14.00" fill="#000000">product_id    </text>
<text text-anchor="start" x="149.5582" y="-456.9" font-family="Arial" font-size="14.00" fill="#666666">[integer]</text>
<polygon fill="none" stroke="#000000" points="43,-415.5 43,-445.5 363,-445.5 363,-415.5 43,-415.5"/>
<text text-anchor="start" x="50" y="-426.9" font-family="Arial" font-size="14.00" fill="#000000">description_in_wine_case    </text>
<text text-anchor="start" x="244.4628" y="-426.9" font-family="Arial" font-size="14.00" fill="#666666">[varchar(255)]</text>
<polygon fill="none" stroke="#000000" points="43,-385.5 43,-415.5 363,-415.5 363,-385.5 43,-385.5"/>
<text text-anchor="start" x="50" y="-396.9" font-family="Arial" font-size="14.00" fill="#000000">is_landing    </text>
<text text-anchor="start" x="147.2202" y="-396.9" font-family="Arial" font-size="14.00" fill="#666666">[boolean]</text>
<polygon fill="none" stroke="#000000" points="43,-355.5 43,-385.5 363,-385.5 363,-355.5 43,-355.5"/>
<text text-anchor="start" x="50" y="-366.9" font-family="Arial" font-size="14.00" fill="#000000">url    </text>
<text text-anchor="start" x="99.7546" y="-366.9" font-family="Arial" font-size="14.00" fill="#666666">[varchar(255)]</text>
</g>
<!-- public.offers&#45;&gt;public.offer_categories -->
<g id="edge1" class="edge">
<title>public.offers:category_id&#45;&gt;public.offer_categories:category_id</title>
<path fill="none" stroke="#000000" d="M369.08,-2432.5502C420.276,-2292.8966 395.8274,-359.5512 363,-313 335.5361,-274.0546 289.4639,-315.9454 262,-277 237.2829,-241.9497 219.1111,-180.5 262,-180.5"/>
<polygon fill="#000000" stroke="#000000" points="369.075,-2432.5568 359.4256,-2437.7662 366.0375,-2436.5284 363,-2440.5 363,-2440.5 363,-2440.5 366.0375,-2436.5284 366.5744,-2443.2338 369.075,-2432.5568 369.075,-2432.5568"/>
<text text-anchor="start" x="370.315" y="-2450.5" font-family="Arial" font-size="10.00" fill="#000000">FOREIGN KEY (category_id) REFERENCES offer_categories(category_id)</text>
</g>
<!-- public.orders -->
<g id="node3" class="node">
<title>public.orders</title>
<polygon fill="#efefef" stroke="transparent" points="468,-2215.5 468,-2250.5 817,-2250.5 817,-2215.5 468,-2215.5"/>
<polygon fill="none" stroke="#000000" points="468,-2215.5 468,-2250.5 817,-2250.5 817,-2215.5 468,-2215.5"/>
<text text-anchor="start" x="527.2099" y="-2228.3" font-family="Arial Bold" font-size="18.00" fill="#000000">public.orders</text>
<text text-anchor="start" x="630.2221" y="-2228.3" font-family="Arial" font-size="14.00" fill="#000000">    </text>
<text text-anchor="start" x="664.4269" y="-2228.3" font-family="Arial" font-size="14.00" fill="#666666">[BASE TABLE]</text>
<polygon fill="none" stroke="#000000" points="468,-2185.5 468,-2215.5 817,-2215.5 817,-2185.5 468,-2185.5"/>
<text text-anchor="start" x="475" y="-2196.9" font-family="Arial" font-size="14.00" fill="#000000">id    </text>
<text text-anchor="start" x="520.094" y="-2196.9" font-family="Arial" font-size="14.00" fill="#666666">[bigint]</text>
<polygon fill="none" stroke="#000000" points="468,-2155.5 468,-2185.5 817,-2185.5 817,-2155.5 468,-2155.5"/>
<text text-anchor="start" x="475" y="-2166.9" font-family="Arial" font-size="14.00" fill="#000000">order_id    </text>
<text text-anchor="start" x="560.5456" y="-2166.9" font-family="Arial" font-size="14.00" fill="#666666">[varchar(255)]</text>
<polygon fill="none" stroke="#000000" points="468,-2125.5 468,-2155.5 817,-2155.5 817,-2125.5 468,-2125.5"/>
<text text-anchor="start" x="475" y="-2136.9" font-family="Arial" font-size="14.00" fill="#000000">offer_id    </text>
<text text-anchor="start" x="555.8836" y="-2136.9" font-family="Arial" font-size="14.00" fill="#666666">[bigint]</text>
<polygon fill="none" stroke="#000000" points="468,-2095.5 468,-2125.5 817,-2125.5 817,-2095.5 468,-2095.5"/>
<text text-anchor="start" x="475" y="-2106.9" font-family="Arial" font-size="14.00" fill="#000000">datetime    </text>
<text text-anchor="start" x="562.8836" y="-2106.9" font-family="Arial" font-size="14.00" fill="#666666">[timestamp(0) without time zone]</text>
<polygon fill="none" stroke="#000000" points="468,-2065.5 468,-2095.5 817,-2095.5 817,-2065.5 468,-2065.5"/>
<text text-anchor="start" x="475" y="-2076.9" font-family="Arial" font-size="14.00" fill="#000000">datetime_sale    </text>
<text text-anchor="start" x="596.338" y="-2076.9" font-family="Arial" font-size="14.00" fill="#666666">[timestamp(0) without time zone]</text>
<polygon fill="none" stroke="#000000" points="468,-2035.5 468,-2065.5 817,-2065.5 817,-2035.5 468,-2035.5"/>
<text text-anchor="start" x="475" y="-2046.9" font-family="Arial" font-size="14.00" fill="#000000">partner_id    </text>
<text text-anchor="start" x="572.2188" y="-2046.9" font-family="Arial" font-size="14.00" fill="#666666">[bigint]</text>
<polygon fill="none" stroke="#000000" points="468,-2005.5 468,-2035.5 817,-2035.5 817,-2005.5 468,-2005.5"/>
<text text-anchor="start" x="475" y="-2016.9" font-family="Arial" font-size="14.00" fill="#000000">candidate_job    </text>
<text text-anchor="start" x="596.352" y="-2016.9" font-family="Arial" font-size="14.00" fill="#666666">[text]</text>
<polygon fill="none" stroke="#000000" points="468,-1975.5 468,-2005.5 817,-2005.5 817,-1975.5 468,-1975.5"/>
<text text-anchor="start" x="475" y="-1986.9" font-family="Arial" font-size="14.00" fill="#000000">candidate_city    </text>
<text text-anchor="start" x="598.6774" y="-1986.9" font-family="Arial" font-size="14.00" fill="#666666">[text]</text>
<polygon fill="none" stroke="#000000" points="468,-1945.5 468,-1975.5 817,-1975.5 817,-1945.5 468,-1945.5"/>
<text text-anchor="start" x="475" y="-1956.9" font-family="Arial" font-size="14.00" fill="#000000">candidate_phone    </text>
<text text-anchor="start" x="616.5932" y="-1956.9" font-family="Arial" font-size="14.00" fill="#666666">[text]</text>
<polygon fill="none" stroke="#000000" points="468,-1915.5 468,-1945.5 817,-1945.5 817,-1915.5 468,-1915.5"/>
<text text-anchor="start" x="475" y="-1926.9" font-family="Arial" font-size="14.00" fill="#000000">candidate_name    </text>
<text text-anchor="start" x="612.6886" y="-1926.9" font-family="Arial" font-size="14.00" fill="#666666">[text]</text>
<polygon fill="none" stroke="#000000" points="468,-1885.5 468,-1915.5 817,-1915.5 817,-1885.5 468,-1885.5"/>
<text text-anchor="start" x="475" y="-1896.9" font-family="Arial" font-size="14.00" fill="#000000">category_id    </text>
<text text-anchor="start" x="581.5582" y="-1896.9" font-family="Arial" font-size="14.00" fill="#666666">[bigint]</text>
<polygon fill="none" stroke="#000000" points="468,-1855.5 468,-1885.5 817,-1885.5 817,-1855.5 468,-1855.5"/>
<text text-anchor="start" x="475" y="-1866.9" font-family="Arial" font-size="14.00" fill="#000000">landing_id    </text>
<text text-anchor="start" x="573.0028" y="-1866.9" font-family="Arial" font-size="14.00" fill="#666666">[bigint]</text>
<polygon fill="none" stroke="#000000" points="468,-1825.5 468,-1855.5 817,-1855.5 817,-1825.5 468,-1825.5"/>
<text text-anchor="start" x="475" y="-1836.9" font-family="Arial" font-size="14.00" fill="#000000">offer_materials_id    </text>
<text text-anchor="start" x="620.439" y="-1836.9" font-family="Arial" font-size="14.00" fill="#666666">[bigint]</text>
<polygon fill="none" stroke="#000000" points="468,-1795.5 468,-1825.5 817,-1825.5 817,-1795.5 468,-1795.5"/>
<text text-anchor="start" x="475" y="-1806.9" font-family="Arial" font-size="14.00" fill="#000000">link_id    </text>
<text text-anchor="start" x="548.8724" y="-1806.9" font-family="Arial" font-size="14.00" fill="#666666">[bigint]</text>
<polygon fill="none" stroke="#000000" points="468,-1765.5 468,-1795.5 817,-1795.5 817,-1765.5 468,-1765.5"/>
<text text-anchor="start" x="475" y="-1776.9" font-family="Arial" font-size="14.00" fill="#000000">promocode_id    </text>
<text text-anchor="start" x="597.8934" y="-1776.9" font-family="Arial" font-size="14.00" fill="#666666">[bigint]</text>
<polygon fill="none" stroke="#000000" points="468,-1735.5 468,-1765.5 817,-1765.5 817,-1735.5 468,-1735.5"/>
<text text-anchor="start" x="475" y="-1746.9" font-family="Arial" font-size="14.00" fill="#000000">click_id    </text>
<text text-anchor="start" x="555.0898" y="-1746.9" font-family="Arial" font-size="14.00" fill="#666666">[varchar(255)]</text>
<polygon fill="none" stroke="#000000" points="468,-1705.5 468,-1735.5 817,-1735.5 817,-1705.5 468,-1705.5"/>
<text text-anchor="start" x="475" y="-1716.9" font-family="Arial" font-size="14.00" fill="#000000">web_id    </text>
<text text-anchor="start" x="553.5484" y="-1716.9" font-family="Arial" font-size="14.00" fill="#666666">[varchar(255)]</text>
<polygon fill="none" stroke="#000000" points="468,-1675.5 468,-1705.5 817,-1705.5 817,-1675.5 468,-1675.5"/>
<text text-anchor="start" x="475" y="-1686.9" font-family="Arial" font-size="14.00" fill="#000000">client_id    </text>
<text text-anchor="start" x="560.5456" y="-1686.9" font-family="Arial" font-size="14.00" fill="#666666">[varchar(255)]</text>
<polygon fill="none" stroke="#000000" points="468,-1645.5 468,-1675.5 817,-1675.5 817,-1645.5 468,-1645.5"/>
<text text-anchor="start" x="475" y="-1656.9" font-family="Arial" font-size="14.00" fill="#000000">pixel_id    </text>
<text text-anchor="start" x="556.655" y="-1656.9" font-family="Arial" font-size="14.00" fill="#666666">[bigint]</text>
<polygon fill="none" stroke="#000000" points="468,-1615.5 468,-1645.5 817,-1645.5 817,-1615.5 468,-1615.5"/>
<text text-anchor="start" x="475" y="-1626.9" font-family="Arial" font-size="14.00" fill="#000000">business_unit_id    </text>
<text text-anchor="start" x="613.4586" y="-1626.9" font-family="Arial" font-size="14.00" fill="#666666">[bigint]</text>
<polygon fill="none" stroke="#000000" points="468,-1585.5 468,-1615.5 817,-1615.5 817,-1585.5 468,-1585.5"/>
<text text-anchor="start" x="475" y="-1596.9" font-family="Arial" font-size="14.00" fill="#000000">fee    </text>
<text text-anchor="start" x="528.6606" y="-1596.9" font-family="Arial" font-size="14.00" fill="#666666">[numeric(12,2)]</text>
<polygon fill="none" stroke="#000000" points="468,-1555.5 468,-1585.5 817,-1585.5 817,-1555.5 468,-1555.5"/>
<text text-anchor="start" x="475" y="-1566.9" font-family="Arial" font-size="14.00" fill="#000000">fee_id    </text>
<text text-anchor="start" x="547.3324" y="-1566.9" font-family="Arial" font-size="14.00" fill="#666666">[bigint]</text>
<polygon fill="none" stroke="#000000" points="468,-1525.5 468,-1555.5 817,-1555.5 817,-1525.5 468,-1525.5"/>
<text text-anchor="start" x="475" y="-1536.9" font-family="Arial" font-size="14.00" fill="#000000">fee_advert    </text>
<text text-anchor="start" x="575.3422" y="-1536.9" font-family="Arial" font-size="14.00" fill="#666666">[numeric(12,2)]</text>
<polygon fill="none" stroke="#000000" points="468,-1495.5 468,-1525.5 817,-1525.5 817,-1495.5 468,-1495.5"/>
<text text-anchor="start" x="475" y="-1506.9" font-family="Arial" font-size="14.00" fill="#000000">model    </text>
<text text-anchor="start" x="547.3198" y="-1506.9" font-family="Arial" font-size="14.00" fill="#666666">[varchar(255)]</text>
<polygon fill="none" stroke="#000000" points="468,-1465.5 468,-1495.5 817,-1495.5 817,-1465.5 468,-1465.5"/>
<text text-anchor="start" x="475" y="-1476.9" font-family="Arial" font-size="14.00" fill="#000000">gross_amount    </text>
<text text-anchor="start" x="597.8948" y="-1476.9" font-family="Arial" font-size="14.00" fill="#666666">[numeric(12,2)]</text>
<polygon fill="none" stroke="#000000" points="468,-1435.5 468,-1465.5 817,-1465.5 817,-1435.5 468,-1435.5"/>
<text text-anchor="start" x="475" y="-1446.9" font-family="Arial" font-size="14.00" fill="#000000">amount    </text>
<text text-anchor="start" x="555.8864" y="-1446.9" font-family="Arial" font-size="14.00" fill="#666666">[numeric(12,2)]</text>
<polygon fill="none" stroke="#000000" points="468,-1405.5 468,-1435.5 817,-1435.5 817,-1405.5 468,-1405.5"/>
<text text-anchor="start" x="475" y="-1416.9" font-family="Arial" font-size="14.00" fill="#000000">amount_advert    </text>
<text text-anchor="start" x="602.568" y="-1416.9" font-family="Arial" font-size="14.00" fill="#666666">[numeric(12,2)]</text>
<polygon fill="none" stroke="#000000" points="468,-1375.5 468,-1405.5 817,-1405.5 817,-1375.5 468,-1375.5"/>
<text text-anchor="start" x="475" y="-1386.9" font-family="Arial" font-size="14.00" fill="#000000">cnt_products    </text>
<text text-anchor="start" x="589.3422" y="-1386.9" font-family="Arial" font-size="14.00" fill="#666666">[integer]</text>
<polygon fill="none" stroke="#000000" points="468,-1345.5 468,-1375.5 817,-1375.5 817,-1345.5 468,-1345.5"/>
<text text-anchor="start" x="475" y="-1356.9" font-family="Arial" font-size="14.00" fill="#000000">sale    </text>
<text text-anchor="start" x="534.8766" y="-1356.9" font-family="Arial" font-size="14.00" fill="#666666">[boolean]</text>
<polygon fill="none" stroke="#000000" points="468,-1315.5 468,-1345.5 817,-1345.5 817,-1315.5 468,-1315.5"/>
<text text-anchor="start" x="475" y="-1326.9" font-family="Arial" font-size="14.00" fill="#000000">reject    </text>
<text text-anchor="start" x="543.4278" y="-1326.9" font-family="Arial" font-size="14.00" fill="#666666">[boolean]</text>
<polygon fill="none" stroke="#000000" points="468,-1285.5 468,-1315.5 817,-1315.5 817,-1285.5 468,-1285.5"/>
<text text-anchor="start" x="475" y="-1296.9" font-family="Arial" font-size="14.00" fill="#000000">reestr_id    </text>
<text text-anchor="start" x="563.6536" y="-1296.9" font-family="Arial" font-size="14.00" fill="#666666">[bigint]</text>
<polygon fill="none" stroke="#000000" points="468,-1255.5 468,-1285.5 817,-1285.5 817,-1255.5 468,-1255.5"/>
<text text-anchor="start" x="475" y="-1266.9" font-family="Arial" font-size="14.00" fill="#000000">type    </text>
<text text-anchor="start" x="535.6606" y="-1266.9" font-family="Arial" font-size="14.00" fill="#666666">[varchar(255)]</text>
<polygon fill="none" stroke="#000000" points="468,-1225.5 468,-1255.5 817,-1255.5 817,-1225.5 468,-1225.5"/>
<text text-anchor="start" x="475" y="-1236.9" font-family="Arial" font-size="14.00" fill="#000000">comment    </text>
<text text-anchor="start" x="566.7644" y="-1236.9" font-family="Arial" font-size="14.00" fill="#666666">[text]</text>
<polygon fill="none" stroke="#000000" points="468,-1195.5 468,-1225.5 817,-1225.5 817,-1195.5 468,-1195.5"/>
<text text-anchor="start" x="475" y="-1206.9" font-family="Arial" font-size="14.00" fill="#000000">is_first    </text>
<text text-anchor="start" x="549.6424" y="-1206.9" font-family="Arial" font-size="14.00" fill="#666666">[boolean]</text>
<polygon fill="none" stroke="#000000" points="468,-1165.5 468,-1195.5 817,-1195.5 817,-1165.5 468,-1165.5"/>
<text text-anchor="start" x="475" y="-1176.9" font-family="Arial" font-size="14.00" fill="#000000">days_since_first    </text>
<text text-anchor="start" x="609.5554" y="-1176.9" font-family="Arial" font-size="14.00" fill="#666666">[integer]</text>
<polygon fill="none" stroke="#000000" points="468,-1135.5 468,-1165.5 817,-1165.5 817,-1135.5 468,-1135.5"/>
<text text-anchor="start" x="475" y="-1146.9" font-family="Arial" font-size="14.00" fill="#000000">status    </text>
<text text-anchor="start" x="546.5512" y="-1146.9" font-family="Arial" font-size="14.00" fill="#666666">[varchar(255)]</text>
<polygon fill="none" stroke="#000000" points="468,-1105.5 468,-1135.5 817,-1135.5 817,-1105.5 468,-1105.5"/>
<text text-anchor="start" x="475" y="-1116.9" font-family="Arial" font-size="14.00" fill="#000000">status_cnt    </text>
<text text-anchor="start" x="573.007" y="-1116.9" font-family="Arial" font-size="14.00" fill="#666666">[integer]</text>
<polygon fill="none" stroke="#000000" points="468,-1075.5 468,-1105.5 817,-1105.5 817,-1075.5 468,-1075.5"/>
<text text-anchor="start" x="474.8717" y="-1086.9" font-family="Arial" font-size="14.00" fill="#000000">status_datetime    </text>
<text text-anchor="start" x="607.8843" y="-1086.9" font-family="Arial" font-size="14.00" fill="#666666">[timestamp(0) without time zone]</text>
<polygon fill="none" stroke="#000000" points="468,-1045.5 468,-1075.5 817,-1075.5 817,-1045.5 468,-1045.5"/>
<text text-anchor="start" x="475" y="-1056.9" font-family="Arial" font-size="14.00" fill="#000000">last_updated    </text>
<text text-anchor="start" x="589.3534" y="-1056.9" font-family="Arial" font-size="14.00" fill="#666666">[timestamp(0) without time zone]</text>
<polygon fill="none" stroke="#000000" points="468,-1015.5 468,-1045.5 817,-1045.5 817,-1015.5 468,-1015.5"/>
<text text-anchor="start" x="475" y="-1026.9" font-family="Arial" font-size="14.00" fill="#000000">wholesale    </text>
<text text-anchor="start" x="571.4376" y="-1026.9" font-family="Arial" font-size="14.00" fill="#666666">[boolean]</text>
<polygon fill="none" stroke="#000000" points="468,-985.5 468,-1015.5 817,-1015.5 817,-985.5 468,-985.5"/>
<text text-anchor="start" x="475" y="-996.9" font-family="Arial" font-size="14.00" fill="#000000">region    </text>
<text text-anchor="start" x="548.1024" y="-996.9" font-family="Arial" font-size="14.00" fill="#666666">[varchar(255)]</text>
<polygon fill="none" stroke="#000000" points="468,-955.5 468,-985.5 817,-985.5 817,-955.5 468,-955.5"/>
<text text-anchor="start" x="475" y="-966.9" font-family="Arial" font-size="14.00" fill="#000000">banned_fraud_id    </text>
<text text-anchor="start" x="614.2538" y="-966.9" font-family="Arial" font-size="14.00" fill="#666666">[bigint]</text>
<polygon fill="none" stroke="#000000" points="468,-925.5 468,-955.5 817,-955.5 817,-925.5 468,-925.5"/>
<text text-anchor="start" x="475" y="-936.9" font-family="Arial" font-size="14.00" fill="#000000">banned_link_id    </text>
<text text-anchor="start" x="603.3506" y="-936.9" font-family="Arial" font-size="14.00" fill="#666666">[bigint]</text>
<polygon fill="none" stroke="#000000" points="468,-895.5 468,-925.5 817,-925.5 817,-895.5 468,-895.5"/>
<text text-anchor="start" x="475" y="-906.9" font-family="Arial" font-size="14.00" fill="#000000">flag_create_or_update_by_manager    </text>
<text text-anchor="start" x="734.8428" y="-906.9" font-family="Arial" font-size="14.00" fill="#666666">[boolean]</text>
<polygon fill="none" stroke="#000000" points="468,-865.5 468,-895.5 817,-895.5 817,-865.5 468,-865.5"/>
<text text-anchor="start" x="475" y="-876.9" font-family="Arial" font-size="14.00" fill="#000000">in_finance_matching    </text>
<text text-anchor="start" x="637.575" y="-876.9" font-family="Arial" font-size="14.00" fill="#666666">[boolean]</text>
<polygon fill="none" stroke="#000000" points="468,-835.5 468,-865.5 817,-865.5 817,-835.5 468,-835.5"/>
<text text-anchor="start" x="475" y="-846.9" font-family="Arial" font-size="14.00" fill="#000000">date    </text>
<text text-anchor="start" x="536.4432" y="-846.9" font-family="Arial" font-size="14.00" fill="#666666">[date]</text>
<polygon fill="none" stroke="#000000" points="468,-805.5 468,-835.5 817,-835.5 817,-805.5 468,-805.5"/>
<text text-anchor="start" x="475" y="-816.9" font-family="Arial" font-size="14.00" fill="#000000">created_at    </text>
<text text-anchor="start" x="575.3422" y="-816.9" font-family="Arial" font-size="14.00" fill="#666666">[timestamp(0) without time zone]</text>
<polygon fill="none" stroke="#000000" points="468,-775.5 468,-805.5 817,-805.5 817,-775.5 468,-775.5"/>
<text text-anchor="start" x="475" y="-786.9" font-family="Arial" font-size="14.00" fill="#000000">updated_at    </text>
<text text-anchor="start" x="579.2468" y="-786.9" font-family="Arial" font-size="14.00" fill="#666666">[timestamp(0) without time zone]</text>
<polygon fill="none" stroke="#000000" points="468,-745.5 468,-775.5 817,-775.5 817,-745.5 468,-745.5"/>
<text text-anchor="start" x="475" y="-756.9" font-family="Arial" font-size="14.00" fill="#000000">deleted_at    </text>
<text text-anchor="start" x="574.5708" y="-756.9" font-family="Arial" font-size="14.00" fill="#666666">[timestamp(0) without time zone]</text>
<polygon fill="none" stroke="#000000" points="468,-715.5 468,-745.5 817,-745.5 817,-715.5 468,-715.5"/>
<text text-anchor="start" x="475" y="-726.9" font-family="Arial" font-size="14.00" fill="#000000">allowance    </text>
<text text-anchor="start" x="571.4376" y="-726.9" font-family="Arial" font-size="14.00" fill="#666666">[numeric(5,0)]</text>
<polygon fill="none" stroke="#000000" points="468,-685.5 468,-715.5 817,-715.5 817,-685.5 468,-685.5"/>
<text text-anchor="start" x="475" y="-696.9" font-family="Arial" font-size="14.00" fill="#000000">flag_hard_set_amount    </text>
<text text-anchor="start" x="648.4782" y="-696.9" font-family="Arial" font-size="14.00" fill="#666666">[boolean]</text>
<polygon fill="none" stroke="#000000" points="468,-655.5 468,-685.5 817,-685.5 817,-655.5 468,-655.5"/>
<text text-anchor="start" x="475" y="-666.9" font-family="Arial" font-size="14.00" fill="#000000">is_blocked    </text>
<text text-anchor="start" x="575.331" y="-666.9" font-family="Arial" font-size="14.00" fill="#666666">[boolean]</text>
</g>
<!-- public.orders&#45;&gt;public.offer_categories -->
<g id="edge2" class="edge">
<title>public.orders:category_id&#45;&gt;public.offer_categories:category_id</title>
<path fill="none" stroke="#000000" d="M459.8486,-1894.5213C401.2884,-1802.6 456.6512,-680.6487 468,-613 500.927,-416.7268 783.016,-180.5 584,-180.5"/>
<polygon fill="#000000" stroke="#000000" points="459.9364,-1894.5856 465.3385,-1904.1286 463.9682,-1897.5428 468,-1900.5 468,-1900.5 468,-1900.5 463.9682,-1897.5428 470.6615,-1896.8714 459.9364,-1894.5856 459.9364,-1894.5856"/>
<text text-anchor="start" x="475.315" y="-1910.5" font-family="Arial" font-size="10.00" fill="#000000">FOREIGN KEY (category_id) REFERENCES offer_categories(category_id)</text>
</g>
</g>
</svg>
