<?xml version="1.0" encoding="UTF-8" standalone="no"?>
<!DOCTYPE svg PUBLIC "-//W3C//DTD SVG 1.1//EN"
 "http://www.w3.org/Graphics/SVG/1.1/DTD/svg11.dtd">
<!-- Generated by graphviz version 2.40.1 (20161225.0304)
 -->
<!-- Title: public.links_checker Pages: 1 -->
<svg width="402pt" height="525pt"
 viewBox="0.00 0.00 402.00 525.00" xmlns="http://www.w3.org/2000/svg" xmlns:xlink="http://www.w3.org/1999/xlink">
<g id="graph0" class="graph" transform="scale(1 1) rotate(0) translate(4 521)">
<title>public.links_checker</title>
<polygon fill="#ffffff" stroke="transparent" points="-4,4 -4,-521 398,-521 398,4 -4,4"/>
<!-- public.links_checker -->
<g id="node1" class="node">
<title>public.links_checker</title>
<polygon fill="#efefef" stroke="transparent" points="46,-435.5 46,-470.5 348,-470.5 348,-435.5 46,-435.5"/>
<polygon fill="none" stroke="#000000" points="46,-435.5 46,-470.5 348,-470.5 348,-435.5 46,-435.5"/>
<text text-anchor="start" x="52.7056" y="-448.3" font-family="Arial Bold" font-size="18.00" fill="#000000">public.links_checker</text>
<text text-anchor="start" x="213.7264" y="-448.3" font-family="Arial" font-size="14.00" fill="#000000">    </text>
<text text-anchor="start" x="247.9312" y="-448.3" font-family="Arial" font-size="14.00" fill="#666666">[BASE TABLE]</text>
<polygon fill="none" stroke="#000000" points="46,-405.5 46,-435.5 348,-435.5 348,-405.5 46,-405.5"/>
<text text-anchor="start" x="53" y="-416.9" font-family="Arial" font-size="14.00" fill="#000000">id </text>
<text text-anchor="start" x="67.7798" y="-416.9" font-family="Arial" font-size="14.00" fill="#666666">[bigint]</text>
<polygon fill="none" stroke="#000000" points="46,-375.5 46,-405.5 348,-405.5 348,-375.5 46,-375.5"/>
<text text-anchor="start" x="53" y="-386.9" font-family="Arial" font-size="14.00" fill="#000000">partner_id </text>
<text text-anchor="start" x="119.9046" y="-386.9" font-family="Arial" font-size="14.00" fill="#666666">[bigint]</text>
<polygon fill="none" stroke="#000000" points="46,-345.5 46,-375.5 348,-375.5 348,-345.5 46,-345.5"/>
<text text-anchor="start" x="53" y="-356.9" font-family="Arial" font-size="14.00" fill="#000000">link </text>
<text text-anchor="start" x="77.8864" y="-356.9" font-family="Arial" font-size="14.00" fill="#666666">[varchar(1024)]</text>
<polygon fill="none" stroke="#000000" points="46,-315.5 46,-345.5 348,-345.5 348,-315.5 46,-315.5"/>
<text text-anchor="start" x="53" y="-326.9" font-family="Arial" font-size="14.00" fill="#000000">result </text>
<text text-anchor="start" x="91.1136" y="-326.9" font-family="Arial" font-size="14.00" fill="#666666">[varchar(255)]</text>
<polygon fill="none" stroke="#000000" points="46,-285.5 46,-315.5 348,-315.5 348,-285.5 46,-285.5"/>
<text text-anchor="start" x="53" y="-296.9" font-family="Arial" font-size="14.00" fill="#000000">result_desc </text>
<text text-anchor="start" x="128.4614" y="-296.9" font-family="Arial" font-size="14.00" fill="#666666">[varchar(255)]</text>
<polygon fill="none" stroke="#000000" points="46,-255.5 46,-285.5 348,-285.5 348,-255.5 46,-255.5"/>
<text text-anchor="start" x="53" y="-266.9" font-family="Arial" font-size="14.00" fill="#000000">finish_link </text>
<text text-anchor="start" x="118.338" y="-266.9" font-family="Arial" font-size="14.00" fill="#666666">[varchar(1024)]</text>
<polygon fill="none" stroke="#000000" points="46,-225.5 46,-255.5 348,-255.5 348,-225.5 46,-225.5"/>
<text text-anchor="start" x="53" y="-236.9" font-family="Arial" font-size="14.00" fill="#000000">valid_link </text>
<text text-anchor="start" x="114.4474" y="-236.9" font-family="Arial" font-size="14.00" fill="#666666">[boolean]</text>
<polygon fill="none" stroke="#000000" points="46,-195.5 46,-225.5 348,-225.5 348,-195.5 46,-195.5"/>
<text text-anchor="start" x="53" y="-206.9" font-family="Arial" font-size="14.00" fill="#000000">need_postback </text>
<text text-anchor="start" x="151.8246" y="-206.9" font-family="Arial" font-size="14.00" fill="#666666">[boolean]</text>
<polygon fill="none" stroke="#000000" points="46,-165.5 46,-195.5 348,-195.5 348,-165.5 46,-165.5"/>
<text text-anchor="start" x="53" y="-176.9" font-family="Arial" font-size="14.00" fill="#000000">link_id </text>
<text text-anchor="start" x="96.5582" y="-176.9" font-family="Arial" font-size="14.00" fill="#666666">[bigint]</text>
<polygon fill="none" stroke="#000000" points="46,-135.5 46,-165.5 348,-165.5 348,-135.5 46,-135.5"/>
<text text-anchor="start" x="53" y="-146.9" font-family="Arial" font-size="14.00" fill="#000000">click_id </text>
<text text-anchor="start" x="102.7756" y="-146.9" font-family="Arial" font-size="14.00" fill="#666666">[bigint]</text>
<polygon fill="none" stroke="#000000" points="46,-105.5 46,-135.5 348,-135.5 348,-105.5 46,-105.5"/>
<text text-anchor="start" x="53" y="-116.9" font-family="Arial" font-size="14.00" fill="#000000">postback_id </text>
<text text-anchor="start" x="131.5834" y="-116.9" font-family="Arial" font-size="14.00" fill="#666666">[bigint]</text>
<polygon fill="none" stroke="#000000" points="46,-75.5 46,-105.5 348,-105.5 348,-75.5 46,-75.5"/>
<text text-anchor="start" x="53" y="-86.9" font-family="Arial" font-size="14.00" fill="#000000">created_at </text>
<text text-anchor="start" x="123.028" y="-86.9" font-family="Arial" font-size="14.00" fill="#666666">[timestamp(0) without time zone]</text>
<polygon fill="none" stroke="#000000" points="46,-45.5 46,-75.5 348,-75.5 348,-45.5 46,-45.5"/>
<text text-anchor="start" x="53" y="-56.9" font-family="Arial" font-size="14.00" fill="#000000">updated_at </text>
<text text-anchor="start" x="126.9326" y="-56.9" font-family="Arial" font-size="14.00" fill="#666666">[timestamp(0) without time zone]</text>
<polygon fill="none" stroke="#000000" stroke-width="3" points="44.5,-44.5 44.5,-472.5 349.5,-472.5 349.5,-44.5 44.5,-44.5"/>
</g>
</g>
</svg>
