<?xml version="1.0" encoding="UTF-8" standalone="no"?>
<!DOCTYPE svg PUBLIC "-//W3C//DTD SVG 1.1//EN"
 "http://www.w3.org/Graphics/SVG/1.1/DTD/svg11.dtd">
<!-- Generated by graphviz version 2.40.1 (20161225.0304)
 -->
<!-- Title: public.users_personal_data Pages: 1 -->
<svg width="653pt" height="2512pt"
 viewBox="0.00 0.00 652.50 2512.00" xmlns="http://www.w3.org/2000/svg" xmlns:xlink="http://www.w3.org/1999/xlink">
<g id="graph0" class="graph" transform="scale(1 1) rotate(0) translate(4 2508)">
<title>public.users_personal_data</title>
<polygon fill="#ffffff" stroke="transparent" points="-4,4 -4,-2508 648.5,-2508 648.5,4 -4,4"/>
<!-- public.users_personal_data -->
<g id="node1" class="node">
<title>public.users_personal_data</title>
<polygon fill="#efefef" stroke="transparent" points="46.5,-2422.5 46.5,-2457.5 407.5,-2457.5 407.5,-2422.5 46.5,-2422.5"/>
<polygon fill="none" stroke="#000000" points="46.5,-2422.5 46.5,-2457.5 407.5,-2457.5 407.5,-2422.5 46.5,-2422.5"/>
<text text-anchor="start" x="53.1838" y="-2435.3" font-family="Arial Bold" font-size="18.00" fill="#000000">public.users_personal_data</text>
<text text-anchor="start" x="273.2482" y="-2435.3" font-family="Arial" font-size="14.00" fill="#000000">    </text>
<text text-anchor="start" x="307.453" y="-2435.3" font-family="Arial" font-size="14.00" fill="#666666">[BASE TABLE]</text>
<polygon fill="none" stroke="#000000" points="46.5,-2392.5 46.5,-2422.5 407.5,-2422.5 407.5,-2392.5 46.5,-2392.5"/>
<text text-anchor="start" x="53.5" y="-2403.9" font-family="Arial" font-size="14.00" fill="#000000">id </text>
<text text-anchor="start" x="68.2798" y="-2403.9" font-family="Arial" font-size="14.00" fill="#666666">[bigint]</text>
<polygon fill="none" stroke="#000000" points="46.5,-2362.5 46.5,-2392.5 407.5,-2392.5 407.5,-2362.5 46.5,-2362.5"/>
<text text-anchor="start" x="53.5" y="-2373.9" font-family="Arial" font-size="14.00" fill="#000000">user_id </text>
<text text-anchor="start" x="103.2882" y="-2373.9" font-family="Arial" font-size="14.00" fill="#666666">[bigint]</text>
<polygon fill="none" stroke="#000000" points="46.5,-2332.5 46.5,-2362.5 407.5,-2362.5 407.5,-2332.5 46.5,-2332.5"/>
<text text-anchor="start" x="53.5" y="-2343.9" font-family="Arial" font-size="14.00" fill="#000000">user_type_id </text>
<text text-anchor="start" x="137.5266" y="-2343.9" font-family="Arial" font-size="14.00" fill="#666666">[bigint]</text>
<polygon fill="none" stroke="#000000" points="46.5,-2302.5 46.5,-2332.5 407.5,-2332.5 407.5,-2302.5 46.5,-2302.5"/>
<text text-anchor="start" x="53.5" y="-2313.9" font-family="Arial" font-size="14.00" fill="#000000">private_full_name </text>
<text text-anchor="start" x="167.8562" y="-2313.9" font-family="Arial" font-size="14.00" fill="#666666">[varchar(512)]</text>
<polygon fill="none" stroke="#000000" points="46.5,-2272.5 46.5,-2302.5 407.5,-2302.5 407.5,-2272.5 46.5,-2272.5"/>
<text text-anchor="start" x="53.5" y="-2283.9" font-family="Arial" font-size="14.00" fill="#000000">date_of_birth </text>
<text text-anchor="start" x="139.0904" y="-2283.9" font-family="Arial" font-size="14.00" fill="#666666">[date]</text>
<polygon fill="none" stroke="#000000" points="46.5,-2242.5 46.5,-2272.5 407.5,-2272.5 407.5,-2242.5 46.5,-2242.5"/>
<text text-anchor="start" x="53.5" y="-2253.9" font-family="Arial" font-size="14.00" fill="#000000">passport_ru_series </text>
<text text-anchor="start" x="176.413" y="-2253.9" font-family="Arial" font-size="14.00" fill="#666666">[varchar(255)]</text>
<polygon fill="none" stroke="#000000" points="46.5,-2212.5 46.5,-2242.5 407.5,-2242.5 407.5,-2212.5 46.5,-2212.5"/>
<text text-anchor="start" x="53.5" y="-2223.9" font-family="Arial" font-size="14.00" fill="#000000">passport_ru_number </text>
<text text-anchor="start" x="186.5322" y="-2223.9" font-family="Arial" font-size="14.00" fill="#666666">[varchar(255)]</text>
<polygon fill="none" stroke="#000000" points="46.5,-2182.5 46.5,-2212.5 407.5,-2212.5 407.5,-2182.5 46.5,-2182.5"/>
<text text-anchor="start" x="53.5" y="-2193.9" font-family="Arial" font-size="14.00" fill="#000000">citizenship </text>
<text text-anchor="start" x="122.7314" y="-2193.9" font-family="Arial" font-size="14.00" fill="#666666">[varchar(255)]</text>
<polygon fill="none" stroke="#000000" points="46.5,-2152.5 46.5,-2182.5 407.5,-2182.5 407.5,-2152.5 46.5,-2152.5"/>
<text text-anchor="start" x="53.5" y="-2163.9" font-family="Arial" font-size="14.00" fill="#000000">private_inn </text>
<text text-anchor="start" x="125.8506" y="-2163.9" font-family="Arial" font-size="14.00" fill="#666666">[varchar(255)]</text>
<polygon fill="none" stroke="#000000" points="46.5,-2122.5 46.5,-2152.5 407.5,-2152.5 407.5,-2122.5 46.5,-2122.5"/>
<text text-anchor="start" x="53.5" y="-2133.9" font-family="Arial" font-size="14.00" fill="#000000">snils_number </text>
<text text-anchor="start" x="140.6206" y="-2133.9" font-family="Arial" font-size="14.00" fill="#666666">[varchar(255)]</text>
<polygon fill="none" stroke="#000000" points="46.5,-2092.5 46.5,-2122.5 407.5,-2122.5 407.5,-2092.5 46.5,-2092.5"/>
<text text-anchor="start" x="53.5" y="-2103.9" font-family="Arial" font-size="14.00" fill="#000000">post_address </text>
<text text-anchor="start" x="141.42" y="-2103.9" font-family="Arial" font-size="14.00" fill="#666666">[varchar(255)]</text>
<polygon fill="none" stroke="#000000" points="46.5,-2062.5 46.5,-2092.5 407.5,-2092.5 407.5,-2062.5 46.5,-2062.5"/>
<text text-anchor="start" x="53.5" y="-2073.9" font-family="Arial" font-size="14.00" fill="#000000">legal_address </text>
<text text-anchor="start" x="144.5252" y="-2073.9" font-family="Arial" font-size="14.00" fill="#666666">[varchar(255)]</text>
<polygon fill="none" stroke="#000000" points="46.5,-2032.5 46.5,-2062.5 407.5,-2062.5 407.5,-2032.5 46.5,-2032.5"/>
<text text-anchor="start" x="53.5" y="-2043.9" font-family="Arial" font-size="14.00" fill="#000000">legal_name </text>
<text text-anchor="start" x="129.7426" y="-2043.9" font-family="Arial" font-size="14.00" fill="#666666">[varchar(255)]</text>
<polygon fill="none" stroke="#000000" points="46.5,-2002.5 46.5,-2032.5 407.5,-2032.5 407.5,-2002.5 46.5,-2002.5"/>
<text text-anchor="start" x="53.5" y="-2013.9" font-family="Arial" font-size="14.00" fill="#000000">legal_inn </text>
<text text-anchor="start" x="113.406" y="-2013.9" font-family="Arial" font-size="14.00" fill="#666666">[varchar(15)]</text>
<polygon fill="none" stroke="#000000" points="46.5,-1972.5 46.5,-2002.5 407.5,-2002.5 407.5,-1972.5 46.5,-1972.5"/>
<text text-anchor="start" x="53.5" y="-1983.9" font-family="Arial" font-size="14.00" fill="#000000">legal_ogrn </text>
<text text-anchor="start" x="122.7426" y="-1983.9" font-family="Arial" font-size="14.00" fill="#666666">[varchar(255)]</text>
<polygon fill="none" stroke="#000000" points="46.5,-1942.5 46.5,-1972.5 407.5,-1972.5 407.5,-1942.5 46.5,-1942.5"/>
<text text-anchor="start" x="53.5" y="-1953.9" font-family="Arial" font-size="14.00" fill="#000000">legal_management </text>
<text text-anchor="start" x="176.4242" y="-1953.9" font-family="Arial" font-size="14.00" fill="#666666">[varchar(255)]</text>
<polygon fill="none" stroke="#000000" points="46.5,-1912.5 46.5,-1942.5 407.5,-1942.5 407.5,-1912.5 46.5,-1912.5"/>
<text text-anchor="start" x="53.5" y="-1923.9" font-family="Arial" font-size="14.00" fill="#000000">vat_tax </text>
<text text-anchor="start" x="102.5196" y="-1923.9" font-family="Arial" font-size="14.00" fill="#666666">[boolean]</text>
<polygon fill="none" stroke="#000000" points="46.5,-1882.5 46.5,-1912.5 407.5,-1912.5 407.5,-1882.5 46.5,-1882.5"/>
<text text-anchor="start" x="53.5" y="-1893.9" font-family="Arial" font-size="14.00" fill="#000000">taxation_type </text>
<text text-anchor="start" x="140.6472" y="-1893.9" font-family="Arial" font-size="14.00" fill="#666666">[varchar(255)]</text>
<polygon fill="none" stroke="#000000" points="46.5,-1852.5 46.5,-1882.5 407.5,-1882.5 407.5,-1852.5 46.5,-1852.5"/>
<text text-anchor="start" x="53.5" y="-1863.9" font-family="Arial" font-size="14.00" fill="#000000">all_docs_at </text>
<text text-anchor="start" x="128.19" y="-1863.9" font-family="Arial" font-size="14.00" fill="#666666">[timestamp(0) without time zone]</text>
<polygon fill="none" stroke="#000000" points="46.5,-1822.5 46.5,-1852.5 407.5,-1852.5 407.5,-1822.5 46.5,-1822.5"/>
<text text-anchor="start" x="53.5" y="-1833.9" font-family="Arial" font-size="14.00" fill="#000000">contract_number </text>
<text text-anchor="start" x="162.4144" y="-1833.9" font-family="Arial" font-size="14.00" fill="#666666">[varchar(255)]</text>
<polygon fill="none" stroke="#000000" points="46.5,-1792.5 46.5,-1822.5 407.5,-1822.5 407.5,-1792.5 46.5,-1792.5"/>
<text text-anchor="start" x="53.5" y="-1803.9" font-family="Arial" font-size="14.00" fill="#000000">contract_date </text>
<text text-anchor="start" x="142.2012" y="-1803.9" font-family="Arial" font-size="14.00" fill="#666666">[timestamp(0) without time zone]</text>
<polygon fill="none" stroke="#000000" points="46.5,-1762.5 46.5,-1792.5 407.5,-1792.5 407.5,-1762.5 46.5,-1762.5"/>
<text text-anchor="start" x="53.5" y="-1773.9" font-family="Arial" font-size="14.00" fill="#000000">created_at </text>
<text text-anchor="start" x="123.528" y="-1773.9" font-family="Arial" font-size="14.00" fill="#666666">[timestamp(0) without time zone]</text>
<polygon fill="none" stroke="#000000" points="46.5,-1732.5 46.5,-1762.5 407.5,-1762.5 407.5,-1732.5 46.5,-1732.5"/>
<text text-anchor="start" x="53.5" y="-1743.9" font-family="Arial" font-size="14.00" fill="#000000">updated_at </text>
<text text-anchor="start" x="127.4326" y="-1743.9" font-family="Arial" font-size="14.00" fill="#666666">[timestamp(0) without time zone]</text>
<polygon fill="none" stroke="#000000" points="46.5,-1702.5 46.5,-1732.5 407.5,-1732.5 407.5,-1702.5 46.5,-1702.5"/>
<text text-anchor="start" x="53.5" y="-1713.9" font-family="Arial" font-size="14.00" fill="#000000">deleted_at </text>
<text text-anchor="start" x="122.7566" y="-1713.9" font-family="Arial" font-size="14.00" fill="#666666">[timestamp(0) without time zone]</text>
<polygon fill="none" stroke="#000000" stroke-width="3" points="44.5,-1701.5 44.5,-2459.5 408.5,-2459.5 408.5,-1701.5 44.5,-1701.5"/>
</g>
<!-- public.users -->
<g id="node2" class="node">
<title>public.users</title>
<polygon fill="#efefef" stroke="transparent" points="49.5,-1542.5 49.5,-1577.5 405.5,-1577.5 405.5,-1542.5 49.5,-1542.5"/>
<polygon fill="none" stroke="#000000" points="49.5,-1542.5 49.5,-1577.5 405.5,-1577.5 405.5,-1542.5 49.5,-1542.5"/>
<text text-anchor="start" x="115.7091" y="-1555.3" font-family="Arial Bold" font-size="18.00" fill="#000000">public.users</text>
<text text-anchor="start" x="211.7229" y="-1555.3" font-family="Arial" font-size="14.00" fill="#000000">    </text>
<text text-anchor="start" x="245.9277" y="-1555.3" font-family="Arial" font-size="14.00" fill="#666666">[BASE TABLE]</text>
<polygon fill="none" stroke="#000000" points="49.5,-1512.5 49.5,-1542.5 405.5,-1542.5 405.5,-1512.5 49.5,-1512.5"/>
<text text-anchor="start" x="56.5" y="-1523.9" font-family="Arial" font-size="14.00" fill="#000000">id    </text>
<text text-anchor="start" x="101.594" y="-1523.9" font-family="Arial" font-size="14.00" fill="#666666">[bigint]</text>
<polygon fill="none" stroke="#000000" points="49.5,-1482.5 49.5,-1512.5 405.5,-1512.5 405.5,-1482.5 49.5,-1482.5"/>
<text text-anchor="start" x="56.5" y="-1493.9" font-family="Arial" font-size="14.00" fill="#000000">name    </text>
<text text-anchor="start" x="125.7132" y="-1493.9" font-family="Arial" font-size="14.00" fill="#666666">[varchar(255)]</text>
<polygon fill="none" stroke="#000000" points="49.5,-1452.5 49.5,-1482.5 405.5,-1482.5 405.5,-1452.5 49.5,-1452.5"/>
<text text-anchor="start" x="56.5" y="-1463.9" font-family="Arial" font-size="14.00" fill="#000000">email    </text>
<text text-anchor="start" x="124.1438" y="-1463.9" font-family="Arial" font-size="14.00" fill="#666666">[varchar(255)]</text>
<polygon fill="none" stroke="#000000" points="49.5,-1422.5 49.5,-1452.5 405.5,-1452.5 405.5,-1422.5 49.5,-1422.5"/>
<text text-anchor="start" x="56.5" y="-1433.9" font-family="Arial" font-size="14.00" fill="#000000">lang    </text>
<text text-anchor="start" x="117.1592" y="-1433.9" font-family="Arial" font-size="14.00" fill="#666666">[varchar(255)]</text>
<polygon fill="none" stroke="#000000" points="49.5,-1392.5 49.5,-1422.5 405.5,-1422.5 405.5,-1392.5 49.5,-1392.5"/>
<text text-anchor="start" x="56.5" y="-1403.9" font-family="Arial" font-size="14.00" fill="#000000">role    </text>
<text text-anchor="start" x="114.0372" y="-1403.9" font-family="Arial" font-size="14.00" fill="#666666">[varchar(255)]</text>
<polygon fill="none" stroke="#000000" points="49.5,-1362.5 49.5,-1392.5 405.5,-1392.5 405.5,-1362.5 49.5,-1362.5"/>
<text text-anchor="start" x="56.5" y="-1373.9" font-family="Arial" font-size="14.00" fill="#000000">hash_name    </text>
<text text-anchor="start" x="163.8436" y="-1373.9" font-family="Arial" font-size="14.00" fill="#666666">[varchar(255)]</text>
<polygon fill="none" stroke="#000000" points="49.5,-1332.5 49.5,-1362.5 405.5,-1362.5 405.5,-1332.5 49.5,-1332.5"/>
<text text-anchor="start" x="56.5" y="-1343.9" font-family="Arial" font-size="14.00" fill="#000000">user_type_id    </text>
<text text-anchor="start" x="170.8408" y="-1343.9" font-family="Arial" font-size="14.00" fill="#666666">[bigint]</text>
<polygon fill="none" stroke="#000000" points="49.5,-1302.5 49.5,-1332.5 405.5,-1332.5 405.5,-1302.5 49.5,-1302.5"/>
<text text-anchor="start" x="56.5" y="-1313.9" font-family="Arial" font-size="14.00" fill="#000000">type    </text>
<text text-anchor="start" x="117.1606" y="-1313.9" font-family="Arial" font-size="14.00" fill="#666666">[varchar(255)]</text>
<polygon fill="none" stroke="#000000" points="49.5,-1272.5 49.5,-1302.5 405.5,-1302.5 405.5,-1272.5 49.5,-1272.5"/>
<text text-anchor="start" x="56.3808" y="-1283.9" font-family="Arial" font-size="14.00" fill="#000000">email_verified_at    </text>
<text text-anchor="start" x="196.3752" y="-1283.9" font-family="Arial" font-size="14.00" fill="#666666">[timestamp(0) without time zone]</text>
<polygon fill="none" stroke="#000000" points="49.5,-1242.5 49.5,-1272.5 405.5,-1272.5 405.5,-1242.5 49.5,-1242.5"/>
<text text-anchor="start" x="56.5" y="-1253.9" font-family="Arial" font-size="14.00" fill="#000000">password    </text>
<text text-anchor="start" x="150.6024" y="-1253.9" font-family="Arial" font-size="14.00" fill="#666666">[varchar(255)]</text>
<polygon fill="none" stroke="#000000" points="49.5,-1212.5 49.5,-1242.5 405.5,-1242.5 405.5,-1212.5 49.5,-1212.5"/>
<text text-anchor="start" x="56.5" y="-1223.9" font-family="Arial" font-size="14.00" fill="#000000">code_for_login    </text>
<text text-anchor="start" x="182.5126" y="-1223.9" font-family="Arial" font-size="14.00" fill="#666666">[varchar(255)]</text>
<polygon fill="none" stroke="#000000" points="49.5,-1182.5 49.5,-1212.5 405.5,-1212.5 405.5,-1182.5 49.5,-1182.5"/>
<text text-anchor="start" x="56.5" y="-1193.9" font-family="Arial" font-size="14.00" fill="#000000">status    </text>
<text text-anchor="start" x="128.0512" y="-1193.9" font-family="Arial" font-size="14.00" fill="#666666">[integer]</text>
<polygon fill="none" stroke="#000000" points="49.5,-1152.5 49.5,-1182.5 405.5,-1182.5 405.5,-1152.5 49.5,-1152.5"/>
<text text-anchor="start" x="56.5" y="-1163.9" font-family="Arial" font-size="14.00" fill="#000000">partner_type    </text>
<text text-anchor="start" x="169.2854" y="-1163.9" font-family="Arial" font-size="14.00" fill="#666666">[varchar(255)]</text>
<polygon fill="none" stroke="#000000" points="49.5,-1122.5 49.5,-1152.5 405.5,-1152.5 405.5,-1122.5 49.5,-1122.5"/>
<text text-anchor="start" x="56.5" y="-1133.9" font-family="Arial" font-size="14.00" fill="#000000">direct_contract    </text>
<text text-anchor="start" x="182.5" y="-1133.9" font-family="Arial" font-size="14.00" fill="#666666">[boolean]</text>
<polygon fill="none" stroke="#000000" points="49.5,-1092.5 49.5,-1122.5 405.5,-1122.5 405.5,-1092.5 49.5,-1092.5"/>
<text text-anchor="start" x="56.5" y="-1103.9" font-family="Arial" font-size="14.00" fill="#000000">need_api    </text>
<text text-anchor="start" x="148.2896" y="-1103.9" font-family="Arial" font-size="14.00" fill="#666666">[boolean]</text>
<polygon fill="none" stroke="#000000" points="49.5,-1062.5 49.5,-1092.5 405.5,-1092.5 405.5,-1062.5 49.5,-1062.5"/>
<text text-anchor="start" x="56.5" y="-1073.9" font-family="Arial" font-size="14.00" fill="#000000">ref_id    </text>
<text text-anchor="start" x="125.7104" y="-1073.9" font-family="Arial" font-size="14.00" fill="#666666">[bigint]</text>
<polygon fill="none" stroke="#000000" points="49.5,-1032.5 49.5,-1062.5 405.5,-1062.5 405.5,-1032.5 49.5,-1032.5"/>
<text text-anchor="start" x="56.5" y="-1043.9" font-family="Arial" font-size="14.00" fill="#000000">comment    </text>
<text text-anchor="start" x="148.2644" y="-1043.9" font-family="Arial" font-size="14.00" fill="#666666">[varchar(255)]</text>
<polygon fill="none" stroke="#000000" points="49.5,-1002.5 49.5,-1032.5 405.5,-1032.5 405.5,-1002.5 49.5,-1002.5"/>
<text text-anchor="start" x="56.5" y="-1013.9" font-family="Arial" font-size="14.00" fill="#000000">date_of_birth    </text>
<text text-anchor="start" x="172.4046" y="-1013.9" font-family="Arial" font-size="14.00" fill="#666666">[date]</text>
<polygon fill="none" stroke="#000000" points="49.5,-972.5 49.5,-1002.5 405.5,-1002.5 405.5,-972.5 49.5,-972.5"/>
<text text-anchor="start" x="56.5" y="-983.9" font-family="Arial" font-size="14.00" fill="#000000">passport_series    </text>
<text text-anchor="start" x="189.5014" y="-983.9" font-family="Arial" font-size="14.00" fill="#666666">[varchar(255)]</text>
<polygon fill="none" stroke="#000000" points="49.5,-942.5 49.5,-972.5 405.5,-972.5 405.5,-942.5 49.5,-942.5"/>
<text text-anchor="start" x="56.5" y="-953.9" font-family="Arial" font-size="14.00" fill="#000000">passport_number    </text>
<text text-anchor="start" x="199.6206" y="-953.9" font-family="Arial" font-size="14.00" fill="#666666">[varchar(255)]</text>
<polygon fill="none" stroke="#000000" points="49.5,-912.5 49.5,-942.5 405.5,-942.5 405.5,-912.5 49.5,-912.5"/>
<text text-anchor="start" x="56.5" y="-923.9" font-family="Arial" font-size="14.00" fill="#000000">citizenship    </text>
<text text-anchor="start" x="156.0456" y="-923.9" font-family="Arial" font-size="14.00" fill="#666666">[varchar(255)]</text>
<polygon fill="none" stroke="#000000" points="49.5,-882.5 49.5,-912.5 405.5,-912.5 405.5,-882.5 49.5,-882.5"/>
<text text-anchor="start" x="56.5" y="-893.9" font-family="Arial" font-size="14.00" fill="#000000">client_id    </text>
<text text-anchor="start" x="142.0456" y="-893.9" font-family="Arial" font-size="14.00" fill="#666666">[varchar(255)]</text>
<polygon fill="none" stroke="#000000" points="49.5,-852.5 49.5,-882.5 405.5,-882.5 405.5,-852.5 49.5,-852.5"/>
<text text-anchor="start" x="56.5" y="-863.9" font-family="Arial" font-size="14.00" fill="#000000">phone    </text>
<text text-anchor="start" x="129.6178" y="-863.9" font-family="Arial" font-size="14.00" fill="#666666">[varchar(255)]</text>
<polygon fill="none" stroke="#000000" points="49.5,-822.5 49.5,-852.5 405.5,-852.5 405.5,-822.5 49.5,-822.5"/>
<text text-anchor="start" x="56.5" y="-833.9" font-family="Arial" font-size="14.00" fill="#000000">skype    </text>
<text text-anchor="start" x="127.27" y="-833.9" font-family="Arial" font-size="14.00" fill="#666666">[varchar(255)]</text>
<polygon fill="none" stroke="#000000" points="49.5,-792.5 49.5,-822.5 405.5,-822.5 405.5,-792.5 49.5,-792.5"/>
<text text-anchor="start" x="56.5" y="-803.9" font-family="Arial" font-size="14.00" fill="#000000">whatsapp    </text>
<text text-anchor="start" x="150.615" y="-803.9" font-family="Arial" font-size="14.00" fill="#666666">[varchar(255)]</text>
<polygon fill="none" stroke="#000000" points="49.5,-762.5 49.5,-792.5 405.5,-792.5 405.5,-762.5 49.5,-762.5"/>
<text text-anchor="start" x="56.5" y="-773.9" font-family="Arial" font-size="14.00" fill="#000000">telegram    </text>
<text text-anchor="start" x="145.1536" y="-773.9" font-family="Arial" font-size="14.00" fill="#666666">[varchar(255)]</text>
<polygon fill="none" stroke="#000000" points="49.5,-732.5 49.5,-762.5 405.5,-762.5 405.5,-732.5 49.5,-732.5"/>
<text text-anchor="start" x="56.5" y="-743.9" font-family="Arial" font-size="14.00" fill="#000000">address    </text>
<text text-anchor="start" x="140.4958" y="-743.9" font-family="Arial" font-size="14.00" fill="#666666">[text]</text>
<polygon fill="none" stroke="#000000" points="49.5,-702.5 49.5,-732.5 405.5,-732.5 405.5,-702.5 49.5,-702.5"/>
<text text-anchor="start" x="56.5" y="-713.9" font-family="Arial" font-size="14.00" fill="#000000">postal_code    </text>
<text text-anchor="start" x="166.1802" y="-713.9" font-family="Arial" font-size="14.00" fill="#666666">[varchar(255)]</text>
<polygon fill="none" stroke="#000000" points="49.5,-672.5 49.5,-702.5 405.5,-702.5 405.5,-672.5 49.5,-672.5"/>
<text text-anchor="start" x="56.5" y="-683.9" font-family="Arial" font-size="14.00" fill="#000000">city    </text>
<text text-anchor="start" x="111.702" y="-683.9" font-family="Arial" font-size="14.00" fill="#666666">[varchar(255)]</text>
<polygon fill="none" stroke="#000000" points="49.5,-642.5 49.5,-672.5 405.5,-672.5 405.5,-642.5 49.5,-642.5"/>
<text text-anchor="start" x="56.5" y="-653.9" font-family="Arial" font-size="14.00" fill="#000000">country    </text>
<text text-anchor="start" x="136.6038" y="-653.9" font-family="Arial" font-size="14.00" fill="#666666">[varchar(255)]</text>
<polygon fill="none" stroke="#000000" points="49.5,-612.5 49.5,-642.5 405.5,-642.5 405.5,-612.5 49.5,-612.5"/>
<text text-anchor="start" x="56.5" y="-623.9" font-family="Arial" font-size="14.00" fill="#000000">welcome_status    </text>
<text text-anchor="start" x="191.0554" y="-623.9" font-family="Arial" font-size="14.00" fill="#666666">[varchar(255)]</text>
<polygon fill="none" stroke="#000000" points="49.5,-582.5 49.5,-612.5 405.5,-612.5 405.5,-582.5 49.5,-582.5"/>
<text text-anchor="start" x="56.5" y="-593.9" font-family="Arial" font-size="14.00" fill="#000000">welcome_confirm_code    </text>
<text text-anchor="start" x="237.723" y="-593.9" font-family="Arial" font-size="14.00" fill="#666666">[integer]</text>
<polygon fill="none" stroke="#000000" points="49.5,-552.5 49.5,-582.5 405.5,-582.5 405.5,-552.5 49.5,-552.5"/>
<text text-anchor="start" x="56.5" y="-563.9" font-family="Arial" font-size="14.00" fill="#000000">all_docs    </text>
<text text-anchor="start" x="142.0484" y="-563.9" font-family="Arial" font-size="14.00" fill="#666666">[boolean]</text>
<polygon fill="none" stroke="#000000" points="49.5,-522.5 49.5,-552.5 405.5,-552.5 405.5,-522.5 49.5,-522.5"/>
<text text-anchor="start" x="56.5" y="-533.9" font-family="Arial" font-size="14.00" fill="#000000">sign_status    </text>
<text text-anchor="start" x="161.5056" y="-533.9" font-family="Arial" font-size="14.00" fill="#666666">[varchar(255)]</text>
<polygon fill="none" stroke="#000000" points="49.5,-492.5 49.5,-522.5 405.5,-522.5 405.5,-492.5 49.5,-492.5"/>
<text text-anchor="start" x="56.5" y="-503.9" font-family="Arial" font-size="14.00" fill="#000000">letter_style    </text>
<text text-anchor="start" x="158.3808" y="-503.9" font-family="Arial" font-size="14.00" fill="#666666">[varchar(255)]</text>
<polygon fill="none" stroke="#000000" points="49.5,-462.5 49.5,-492.5 405.5,-492.5 405.5,-462.5 49.5,-462.5"/>
<text text-anchor="start" x="56.5" y="-473.9" font-family="Arial" font-size="14.00" fill="#000000">all_fields    </text>
<text text-anchor="start" x="145.1522" y="-473.9" font-family="Arial" font-size="14.00" fill="#666666">[boolean]</text>
<polygon fill="none" stroke="#000000" points="49.5,-432.5 49.5,-462.5 405.5,-462.5 405.5,-432.5 49.5,-432.5"/>
<text text-anchor="start" x="56.5" y="-443.9" font-family="Arial" font-size="14.00" fill="#000000">balance_popup    </text>
<text text-anchor="start" x="186.42" y="-443.9" font-family="Arial" font-size="14.00" fill="#666666">[boolean]</text>
<polygon fill="none" stroke="#000000" points="49.5,-402.5 49.5,-432.5 405.5,-432.5 405.5,-402.5 49.5,-402.5"/>
<text text-anchor="start" x="56.5" y="-413.9" font-family="Arial" font-size="14.00" fill="#000000">email_unsubs    </text>
<text text-anchor="start" x="177.0568" y="-413.9" font-family="Arial" font-size="14.00" fill="#666666">[boolean]</text>
<polygon fill="none" stroke="#000000" points="49.5,-372.5 49.5,-402.5 405.5,-402.5 405.5,-372.5 49.5,-372.5"/>
<text text-anchor="start" x="56.5" y="-383.9" font-family="Arial" font-size="14.00" fill="#000000">model    </text>
<text text-anchor="start" x="128.8198" y="-383.9" font-family="Arial" font-size="14.00" fill="#666666">[varchar(255)]</text>
<polygon fill="none" stroke="#000000" points="49.5,-342.5 49.5,-372.5 405.5,-372.5 405.5,-342.5 49.5,-342.5"/>
<text text-anchor="start" x="56.5" y="-353.9" font-family="Arial" font-size="14.00" fill="#000000">remember_token    </text>
<text text-anchor="start" x="196.4986" y="-353.9" font-family="Arial" font-size="14.00" fill="#666666">[varchar(100)]</text>
<polygon fill="none" stroke="#000000" points="49.5,-312.5 49.5,-342.5 405.5,-342.5 405.5,-312.5 49.5,-312.5"/>
<text text-anchor="start" x="56.5" y="-323.9" font-family="Arial" font-size="14.00" fill="#000000">auth_token    </text>
<text text-anchor="start" x="159.9642" y="-323.9" font-family="Arial" font-size="14.00" fill="#666666">[varchar(100)]</text>
<polygon fill="none" stroke="#000000" points="49.5,-282.5 49.5,-312.5 405.5,-312.5 405.5,-282.5 49.5,-282.5"/>
<text text-anchor="start" x="56.5" y="-293.9" font-family="Arial" font-size="14.00" fill="#000000">utms    </text>
<text text-anchor="start" x="121.0386" y="-293.9" font-family="Arial" font-size="14.00" fill="#666666">[json]</text>
<polygon fill="none" stroke="#000000" points="49.5,-252.5 49.5,-282.5 405.5,-282.5 405.5,-252.5 49.5,-252.5"/>
<text text-anchor="start" x="56.5" y="-263.9" font-family="Arial" font-size="14.00" fill="#000000">created_at    </text>
<text text-anchor="start" x="156.8422" y="-263.9" font-family="Arial" font-size="14.00" fill="#666666">[timestamp(0) without time zone]</text>
<polygon fill="none" stroke="#000000" points="49.5,-222.5 49.5,-252.5 405.5,-252.5 405.5,-222.5 49.5,-222.5"/>
<text text-anchor="start" x="56.5" y="-233.9" font-family="Arial" font-size="14.00" fill="#000000">updated_at    </text>
<text text-anchor="start" x="160.7468" y="-233.9" font-family="Arial" font-size="14.00" fill="#666666">[timestamp(0) without time zone]</text>
<polygon fill="none" stroke="#000000" points="49.5,-192.5 49.5,-222.5 405.5,-222.5 405.5,-192.5 49.5,-192.5"/>
<text text-anchor="start" x="56.5" y="-203.9" font-family="Arial" font-size="14.00" fill="#000000">deleted_at    </text>
<text text-anchor="start" x="156.0708" y="-203.9" font-family="Arial" font-size="14.00" fill="#666666">[timestamp(0) without time zone]</text>
<polygon fill="none" stroke="#000000" points="49.5,-162.5 49.5,-192.5 405.5,-192.5 405.5,-162.5 49.5,-162.5"/>
<text text-anchor="start" x="56.5" y="-173.9" font-family="Arial" font-size="14.00" fill="#000000">send_to_ado    </text>
<text text-anchor="start" x="171.6388" y="-173.9" font-family="Arial" font-size="14.00" fill="#666666">[boolean]</text>
<polygon fill="none" stroke="#000000" points="49.5,-132.5 49.5,-162.5 405.5,-162.5 405.5,-132.5 49.5,-132.5"/>
<text text-anchor="start" x="56.5" y="-143.9" font-family="Arial" font-size="14.00" fill="#000000">ado_sent_at    </text>
<text text-anchor="start" x="167.7468" y="-143.9" font-family="Arial" font-size="14.00" fill="#666666">[timestamp(0) without time zone]</text>
<polygon fill="none" stroke="#000000" points="49.5,-102.5 49.5,-132.5 405.5,-132.5 405.5,-102.5 49.5,-102.5"/>
<text text-anchor="start" x="56.5" y="-113.9" font-family="Arial" font-size="14.00" fill="#000000">surname    </text>
<text text-anchor="start" x="145.1564" y="-113.9" font-family="Arial" font-size="14.00" fill="#666666">[varchar(255)]</text>
<polygon fill="none" stroke="#000000" points="49.5,-72.5 49.5,-102.5 405.5,-102.5 405.5,-72.5 49.5,-72.5"/>
<text text-anchor="start" x="56.5" y="-83.9" font-family="Arial" font-size="14.00" fill="#000000">mgm    </text>
<text text-anchor="start" x="121.8086" y="-83.9" font-family="Arial" font-size="14.00" fill="#666666">[boolean]</text>
<polygon fill="none" stroke="#000000" points="49.5,-42.5 49.5,-72.5 405.5,-72.5 405.5,-42.5 49.5,-42.5"/>
<text text-anchor="start" x="56.5" y="-53.9" font-family="Arial" font-size="14.00" fill="#000000">employer    </text>
<text text-anchor="start" x="148.263" y="-53.9" font-family="Arial" font-size="14.00" fill="#666666">[boolean]</text>
</g>
<!-- public.users_personal_data&#45;&gt;public.users -->
<g id="edge1" class="edge">
<title>public.users_personal_data:user_id&#45;&gt;public.users:id</title>
<path fill="none" stroke="#000000" d="M417.2365,-2373.9382C485.2402,-2321.7954 458.8938,-1713.8211 407.5,-1657 353.865,-1597.701 103.135,-1680.299 49.5,-1621 21.6245,-1590.1808 7.9444,-1527.5 49.5,-1527.5"/>
<polygon fill="#000000" stroke="#000000" points="416.8914,-2374.0645 405.954,-2373.2739 412.1957,-2375.7822 407.5,-2377.5 407.5,-2377.5 407.5,-2377.5 412.1957,-2375.7822 409.046,-2381.7261 416.8914,-2374.0645 416.8914,-2374.0645"/>
<text text-anchor="start" x="414.8345" y="-2387.5" font-family="Arial" font-size="10.00" fill="#000000">FOREIGN KEY (user_id) REFERENCES users(id)</text>
</g>
</g>
</svg>
