<?xml version="1.0" encoding="UTF-8" standalone="no"?>
<!DOCTYPE svg PUBLIC "-//W3C//DTD SVG 1.1//EN"
 "http://www.w3.org/Graphics/SVG/1.1/DTD/svg11.dtd">
<!-- Generated by graphviz version 2.40.1 (20161225.0304)
 -->
<!-- Title: public.knowledge_base_categories Pages: 1 -->
<svg width="867pt" height="832pt"
 viewBox="0.00 0.00 866.50 832.00" xmlns="http://www.w3.org/2000/svg" xmlns:xlink="http://www.w3.org/1999/xlink">
<g id="graph0" class="graph" transform="scale(1 1) rotate(0) translate(4 828)">
<title>public.knowledge_base_categories</title>
<polygon fill="#ffffff" stroke="transparent" points="-4,4 -4,-828 862.5,-828 862.5,4 -4,4"/>
<!-- public.knowledge_base_categories -->
<g id="node1" class="node">
<title>public.knowledge_base_categories</title>
<polygon fill="#efefef" stroke="transparent" points="392,-225.5 392,-260.5 813,-260.5 813,-225.5 392,-225.5"/>
<polygon fill="none" stroke="#000000" points="392,-225.5 392,-260.5 813,-260.5 813,-225.5 392,-225.5"/>
<text text-anchor="start" x="398.6733" y="-238.3" font-family="Arial Bold" font-size="18.00" fill="#000000">public.knowledge_base_categories</text>
<text text-anchor="start" x="678.7587" y="-238.3" font-family="Arial" font-size="14.00" fill="#000000">    </text>
<text text-anchor="start" x="712.9635" y="-238.3" font-family="Arial" font-size="14.00" fill="#666666">[BASE TABLE]</text>
<polygon fill="none" stroke="#000000" points="392,-195.5 392,-225.5 813,-225.5 813,-195.5 392,-195.5"/>
<text text-anchor="start" x="399" y="-206.9" font-family="Arial" font-size="14.00" fill="#000000">id </text>
<text text-anchor="start" x="413.7798" y="-206.9" font-family="Arial" font-size="14.00" fill="#666666">[bigint]</text>
<polygon fill="none" stroke="#000000" points="392,-165.5 392,-195.5 813,-195.5 813,-165.5 392,-165.5"/>
<text text-anchor="start" x="399" y="-176.9" font-family="Arial" font-size="14.00" fill="#000000">title </text>
<text text-anchor="start" x="424.6676" y="-176.9" font-family="Arial" font-size="14.00" fill="#666666">[varchar(511)]</text>
<polygon fill="none" stroke="#000000" points="392,-135.5 392,-165.5 813,-165.5 813,-135.5 392,-135.5"/>
<text text-anchor="start" x="399" y="-146.9" font-family="Arial" font-size="14.00" fill="#000000">position </text>
<text text-anchor="start" x="451.1248" y="-146.9" font-family="Arial" font-size="14.00" fill="#666666">[integer]</text>
<polygon fill="none" stroke="#000000" points="392,-105.5 392,-135.5 813,-135.5 813,-105.5 392,-105.5"/>
<text text-anchor="start" x="399" y="-116.9" font-family="Arial" font-size="14.00" fill="#000000">created_at </text>
<text text-anchor="start" x="469.028" y="-116.9" font-family="Arial" font-size="14.00" fill="#666666">[timestamp(0) without time zone]</text>
<polygon fill="none" stroke="#000000" points="392,-75.5 392,-105.5 813,-105.5 813,-75.5 392,-75.5"/>
<text text-anchor="start" x="399" y="-86.9" font-family="Arial" font-size="14.00" fill="#000000">updated_at </text>
<text text-anchor="start" x="472.9326" y="-86.9" font-family="Arial" font-size="14.00" fill="#666666">[timestamp(0) without time zone]</text>
<polygon fill="none" stroke="#000000" points="392,-45.5 392,-75.5 813,-75.5 813,-45.5 392,-45.5"/>
<text text-anchor="start" x="399" y="-56.9" font-family="Arial" font-size="14.00" fill="#000000">deleted_at </text>
<text text-anchor="start" x="468.2566" y="-56.9" font-family="Arial" font-size="14.00" fill="#666666">[timestamp(0) without time zone]</text>
<polygon fill="none" stroke="#000000" stroke-width="3" points="390,-44.5 390,-262.5 814,-262.5 814,-44.5 390,-44.5"/>
</g>
<!-- public.knowledge_base -->
<g id="node2" class="node">
<title>public.knowledge_base</title>
<polygon fill="#efefef" stroke="transparent" points="439,-745.5 439,-780.5 767,-780.5 767,-745.5 439,-745.5"/>
<polygon fill="none" stroke="#000000" points="439,-745.5 439,-780.5 767,-780.5 767,-745.5 439,-745.5"/>
<text text-anchor="start" x="445.6862" y="-758.3" font-family="Arial Bold" font-size="18.00" fill="#000000">public.knowledge_base</text>
<text text-anchor="start" x="632.7458" y="-758.3" font-family="Arial" font-size="14.00" fill="#000000">    </text>
<text text-anchor="start" x="666.9506" y="-758.3" font-family="Arial" font-size="14.00" fill="#666666">[BASE TABLE]</text>
<polygon fill="none" stroke="#000000" points="439,-715.5 439,-745.5 767,-745.5 767,-715.5 439,-715.5"/>
<text text-anchor="start" x="446" y="-726.9" font-family="Arial" font-size="14.00" fill="#000000">id    </text>
<text text-anchor="start" x="491.094" y="-726.9" font-family="Arial" font-size="14.00" fill="#666666">[bigint]</text>
<polygon fill="none" stroke="#000000" points="439,-685.5 439,-715.5 767,-715.5 767,-685.5 439,-685.5"/>
<text text-anchor="start" x="446" y="-696.9" font-family="Arial" font-size="14.00" fill="#000000">knowledge_base_category_id    </text>
<text text-anchor="start" x="665.38" y="-696.9" font-family="Arial" font-size="14.00" fill="#666666">[bigint]</text>
<polygon fill="none" stroke="#000000" points="439,-655.5 439,-685.5 767,-685.5 767,-655.5 439,-655.5"/>
<text text-anchor="start" x="446" y="-666.9" font-family="Arial" font-size="14.00" fill="#000000">question    </text>
<text text-anchor="start" x="533.115" y="-666.9" font-family="Arial" font-size="14.00" fill="#666666">[varchar(511)]</text>
<polygon fill="none" stroke="#000000" points="439,-625.5 439,-655.5 767,-655.5 767,-625.5 439,-625.5"/>
<text text-anchor="start" x="446" y="-636.9" font-family="Arial" font-size="14.00" fill="#000000">answer    </text>
<text text-anchor="start" x="525.3198" y="-636.9" font-family="Arial" font-size="14.00" fill="#666666">[text]</text>
<polygon fill="none" stroke="#000000" points="439,-595.5 439,-625.5 767,-625.5 767,-595.5 439,-595.5"/>
<text text-anchor="start" x="446" y="-606.9" font-family="Arial" font-size="14.00" fill="#000000">user_type    </text>
<text text-anchor="start" x="541.669" y="-606.9" font-family="Arial" font-size="14.00" fill="#666666">[varchar(255)]</text>
<polygon fill="none" stroke="#000000" points="439,-565.5 439,-595.5 767,-595.5 767,-565.5 439,-565.5"/>
<text text-anchor="start" x="446" y="-576.9" font-family="Arial" font-size="14.00" fill="#000000">for_partner_type    </text>
<text text-anchor="start" x="582.9018" y="-576.9" font-family="Arial" font-size="14.00" fill="#666666">[varchar(255)]</text>
<polygon fill="none" stroke="#000000" points="439,-535.5 439,-565.5 767,-565.5 767,-535.5 439,-535.5"/>
<text text-anchor="start" x="446" y="-546.9" font-family="Arial" font-size="14.00" fill="#000000">position    </text>
<text text-anchor="start" x="528.439" y="-546.9" font-family="Arial" font-size="14.00" fill="#666666">[integer]</text>
<polygon fill="none" stroke="#000000" points="439,-505.5 439,-535.5 767,-535.5 767,-505.5 439,-505.5"/>
<text text-anchor="start" x="446" y="-516.9" font-family="Arial" font-size="14.00" fill="#000000">content_type    </text>
<text text-anchor="start" x="560.3548" y="-516.9" font-family="Arial" font-size="14.00" fill="#666666">[varchar(255)]</text>
<polygon fill="none" stroke="#000000" points="439,-475.5 439,-505.5 767,-505.5 767,-475.5 439,-475.5"/>
<text text-anchor="start" x="446" y="-486.9" font-family="Arial" font-size="14.00" fill="#000000">draft    </text>
<text text-anchor="start" x="508.2118" y="-486.9" font-family="Arial" font-size="14.00" fill="#666666">[boolean]</text>
<polygon fill="none" stroke="#000000" points="439,-445.5 439,-475.5 767,-475.5 767,-445.5 439,-445.5"/>
<text text-anchor="start" x="446" y="-456.9" font-family="Arial" font-size="14.00" fill="#000000">created_at    </text>
<text text-anchor="start" x="546.3422" y="-456.9" font-family="Arial" font-size="14.00" fill="#666666">[timestamp(0) without time zone]</text>
<polygon fill="none" stroke="#000000" points="439,-415.5 439,-445.5 767,-445.5 767,-415.5 439,-415.5"/>
<text text-anchor="start" x="446" y="-426.9" font-family="Arial" font-size="14.00" fill="#000000">updated_at    </text>
<text text-anchor="start" x="550.2468" y="-426.9" font-family="Arial" font-size="14.00" fill="#666666">[timestamp(0) without time zone]</text>
<polygon fill="none" stroke="#000000" points="439,-385.5 439,-415.5 767,-415.5 767,-385.5 439,-385.5"/>
<text text-anchor="start" x="446" y="-396.9" font-family="Arial" font-size="14.00" fill="#000000">deleted_at    </text>
<text text-anchor="start" x="545.5708" y="-396.9" font-family="Arial" font-size="14.00" fill="#666666">[timestamp(0) without time zone]</text>
</g>
<!-- public.knowledge_base&#45;&gt;public.knowledge_base_categories -->
<g id="edge1" class="edge">
<title>public.knowledge_base:knowledge_base_category_id&#45;&gt;public.knowledge_base_categories:id</title>
<path fill="none" stroke="#000000" d="M428.6111,-700.141C282.4772,-689.7854 334.5661,-457.9691 439,-343 495.1404,-281.1962 756.8596,-368.8038 813,-307 841.8376,-275.2533 855.8889,-210.5 813,-210.5"/>
<polygon fill="#000000" stroke="#000000" points="429.006,-700.1546 438.8446,-704.9973 434.003,-700.3273 439,-700.5 439,-700.5 439,-700.5 434.003,-700.3273 439.1554,-696.0027 429.006,-700.1546 429.006,-700.1546"/>
<text text-anchor="start" x="7.4615" y="-710.5" font-family="Arial" font-size="10.00" fill="#000000">FOREIGN KEY (knowledge_base_category_id) REFERENCES knowledge_base_categories(id)</text>
</g>
</g>
</svg>
