<?xml version="1.0" encoding="UTF-8" standalone="no"?>
<!DOCTYPE svg PUBLIC "-//W3C//DTD SVG 1.1//EN"
 "http://www.w3.org/Graphics/SVG/1.1/DTD/svg11.dtd">
<!-- Generated by graphviz version 2.40.1 (20161225.0304)
 -->
<!-- Title: public.offers_partners_approves Pages: 1 -->
<svg width="893pt" height="2602pt"
 viewBox="0.00 0.00 893.00 2602.00" xmlns="http://www.w3.org/2000/svg" xmlns:xlink="http://www.w3.org/1999/xlink">
<g id="graph0" class="graph" transform="scale(1 1) rotate(0) translate(4 2598)">
<title>public.offers_partners_approves</title>
<polygon fill="#ffffff" stroke="transparent" points="-4,4 -4,-2598 889,-2598 889,4 -4,4"/>
<!-- public.offers_partners_approves -->
<g id="node1" class="node">
<title>public.offers_partners_approves</title>
<polygon fill="#efefef" stroke="transparent" points="238,-2512.5 238,-2547.5 636,-2547.5 636,-2512.5 238,-2512.5"/>
<polygon fill="none" stroke="#000000" points="238,-2512.5 238,-2547.5 636,-2547.5 636,-2512.5 238,-2512.5"/>
<text text-anchor="start" x="244.6834" y="-2525.3" font-family="Arial Bold" font-size="18.00" fill="#000000">public.offers_partners_approves</text>
<text text-anchor="start" x="501.7486" y="-2525.3" font-family="Arial" font-size="14.00" fill="#000000">    </text>
<text text-anchor="start" x="535.9534" y="-2525.3" font-family="Arial" font-size="14.00" fill="#666666">[BASE TABLE]</text>
<polygon fill="none" stroke="#000000" points="238,-2482.5 238,-2512.5 636,-2512.5 636,-2482.5 238,-2482.5"/>
<text text-anchor="start" x="245" y="-2493.9" font-family="Arial" font-size="14.00" fill="#000000">offer_id </text>
<text text-anchor="start" x="295.5694" y="-2493.9" font-family="Arial" font-size="14.00" fill="#666666">[bigint]</text>
<polygon fill="none" stroke="#000000" points="238,-2452.5 238,-2482.5 636,-2482.5 636,-2452.5 238,-2452.5"/>
<text text-anchor="start" x="245" y="-2463.9" font-family="Arial" font-size="14.00" fill="#000000">partner_id </text>
<text text-anchor="start" x="311.9046" y="-2463.9" font-family="Arial" font-size="14.00" fill="#666666">[bigint]</text>
<polygon fill="none" stroke="#000000" points="238,-2422.5 238,-2452.5 636,-2452.5 636,-2422.5 238,-2422.5"/>
<text text-anchor="start" x="245" y="-2433.9" font-family="Arial" font-size="14.00" fill="#000000">status </text>
<text text-anchor="start" x="286.237" y="-2433.9" font-family="Arial" font-size="14.00" fill="#666666">[varchar(255)]</text>
<polygon fill="none" stroke="#000000" points="238,-2392.5 238,-2422.5 636,-2422.5 636,-2392.5 238,-2392.5"/>
<text text-anchor="start" x="245" y="-2403.9" font-family="Arial" font-size="14.00" fill="#000000">created_at </text>
<text text-anchor="start" x="315.028" y="-2403.9" font-family="Arial" font-size="14.00" fill="#666666">[timestamp(0) without time zone]</text>
<polygon fill="none" stroke="#000000" points="238,-2362.5 238,-2392.5 636,-2392.5 636,-2362.5 238,-2362.5"/>
<text text-anchor="start" x="245" y="-2373.9" font-family="Arial" font-size="14.00" fill="#000000">updated_at </text>
<text text-anchor="start" x="318.9326" y="-2373.9" font-family="Arial" font-size="14.00" fill="#666666">[timestamp(0) without time zone]</text>
<polygon fill="none" stroke="#000000" stroke-width="3" points="236.5,-2361.5 236.5,-2549.5 637.5,-2549.5 637.5,-2361.5 236.5,-2361.5"/>
</g>
<!-- public.offers -->
<g id="node2" class="node">
<title>public.offers</title>
<polygon fill="#efefef" stroke="transparent" points="56,-2202.5 56,-2237.5 376,-2237.5 376,-2202.5 56,-2202.5"/>
<polygon fill="none" stroke="#000000" points="56,-2202.5 56,-2237.5 376,-2237.5 376,-2202.5 56,-2202.5"/>
<text text-anchor="start" x="103.7069" y="-2215.3" font-family="Arial Bold" font-size="18.00" fill="#000000">public.offers</text>
<text text-anchor="start" x="200.7251" y="-2215.3" font-family="Arial" font-size="14.00" fill="#000000">    </text>
<text text-anchor="start" x="234.9299" y="-2215.3" font-family="Arial" font-size="14.00" fill="#666666">[BASE TABLE]</text>
<polygon fill="none" stroke="#000000" points="56,-2172.5 56,-2202.5 376,-2202.5 376,-2172.5 56,-2172.5"/>
<text text-anchor="start" x="63" y="-2183.9" font-family="Arial" font-size="14.00" fill="#000000">id    </text>
<text text-anchor="start" x="108.094" y="-2183.9" font-family="Arial" font-size="14.00" fill="#666666">[bigint]</text>
<polygon fill="none" stroke="#000000" points="56,-2142.5 56,-2172.5 376,-2172.5 376,-2142.5 56,-2142.5"/>
<text text-anchor="start" x="63" y="-2153.9" font-family="Arial" font-size="14.00" fill="#000000">user_id    </text>
<text text-anchor="start" x="143.1024" y="-2153.9" font-family="Arial" font-size="14.00" fill="#666666">[bigint]</text>
<polygon fill="none" stroke="#000000" points="56,-2112.5 56,-2142.5 376,-2142.5 376,-2112.5 56,-2112.5"/>
<text text-anchor="start" x="63" y="-2123.9" font-family="Arial" font-size="14.00" fill="#000000">category_id    </text>
<text text-anchor="start" x="169.5582" y="-2123.9" font-family="Arial" font-size="14.00" fill="#666666">[bigint]</text>
<polygon fill="none" stroke="#000000" points="56,-2082.5 56,-2112.5 376,-2112.5 376,-2082.5 56,-2082.5"/>
<text text-anchor="start" x="63" y="-2093.9" font-family="Arial" font-size="14.00" fill="#000000">offer_name    </text>
<text text-anchor="start" x="168.0028" y="-2093.9" font-family="Arial" font-size="14.00" fill="#666666">[varchar(255)]</text>
<polygon fill="none" stroke="#000000" points="56,-2052.5 56,-2082.5 376,-2082.5 376,-2052.5 56,-2052.5"/>
<text text-anchor="start" x="63" y="-2063.9" font-family="Arial" font-size="14.00" fill="#000000">model    </text>
<text text-anchor="start" x="135.3198" y="-2063.9" font-family="Arial" font-size="14.00" fill="#666666">[varchar(255)]</text>
<polygon fill="none" stroke="#000000" points="56,-2022.5 56,-2052.5 376,-2052.5 376,-2022.5 56,-2022.5"/>
<text text-anchor="start" x="63" y="-2033.9" font-family="Arial" font-size="14.00" fill="#000000">conversion    </text>
<text text-anchor="start" x="164.885" y="-2033.9" font-family="Arial" font-size="14.00" fill="#666666">[varchar(255)]</text>
<polygon fill="none" stroke="#000000" points="56,-1992.5 56,-2022.5 376,-2022.5 376,-1992.5 56,-1992.5"/>
<text text-anchor="start" x="63" y="-2003.9" font-family="Arial" font-size="14.00" fill="#000000">hold    </text>
<text text-anchor="start" x="123.6592" y="-2003.9" font-family="Arial" font-size="14.00" fill="#666666">[integer]</text>
<polygon fill="none" stroke="#000000" points="56,-1962.5 56,-1992.5 376,-1992.5 376,-1962.5 56,-1962.5"/>
<text text-anchor="start" x="63" y="-1973.9" font-family="Arial" font-size="14.00" fill="#000000">fee_type    </text>
<text text-anchor="start" x="150.899" y="-1973.9" font-family="Arial" font-size="14.00" fill="#666666">[varchar(255)]</text>
<polygon fill="none" stroke="#000000" points="56,-1932.5 56,-1962.5 376,-1962.5 376,-1932.5 56,-1932.5"/>
<text text-anchor="start" x="63" y="-1943.9" font-family="Arial" font-size="14.00" fill="#000000">ctr    </text>
<text text-anchor="start" x="112.756" y="-1943.9" font-family="Arial" font-size="14.00" fill="#666666">[double precision]</text>
<polygon fill="none" stroke="#000000" points="56,-1902.5 56,-1932.5 376,-1932.5 376,-1902.5 56,-1902.5"/>
<text text-anchor="start" x="63" y="-1913.9" font-family="Arial" font-size="14.00" fill="#000000">cr    </text>
<text text-anchor="start" x="108.8654" y="-1913.9" font-family="Arial" font-size="14.00" fill="#666666">[double precision]</text>
<polygon fill="none" stroke="#000000" points="56,-1872.5 56,-1902.5 376,-1902.5 376,-1872.5 56,-1872.5"/>
<text text-anchor="start" x="63" y="-1883.9" font-family="Arial" font-size="14.00" fill="#000000">ar    </text>
<text text-anchor="start" x="109.648" y="-1883.9" font-family="Arial" font-size="14.00" fill="#666666">[double precision]</text>
<polygon fill="none" stroke="#000000" points="56,-1842.5 56,-1872.5 376,-1872.5 376,-1842.5 56,-1842.5"/>
<text text-anchor="start" x="63" y="-1853.9" font-family="Arial" font-size="14.00" fill="#000000">epc    </text>
<text text-anchor="start" x="119.77" y="-1853.9" font-family="Arial" font-size="14.00" fill="#666666">[double precision]</text>
<polygon fill="none" stroke="#000000" points="56,-1812.5 56,-1842.5 376,-1842.5 376,-1812.5 56,-1812.5"/>
<text text-anchor="start" x="63" y="-1823.9" font-family="Arial" font-size="14.00" fill="#000000">epl    </text>
<text text-anchor="start" x="115.8766" y="-1823.9" font-family="Arial" font-size="14.00" fill="#666666">[double precision]</text>
<polygon fill="none" stroke="#000000" points="56,-1782.5 56,-1812.5 376,-1812.5 376,-1782.5 56,-1782.5"/>
<text text-anchor="start" x="63" y="-1793.9" font-family="Arial" font-size="14.00" fill="#000000">info_link    </text>
<text text-anchor="start" x="148.5456" y="-1793.9" font-family="Arial" font-size="14.00" fill="#666666">[varchar(255)]</text>
<polygon fill="none" stroke="#000000" points="56,-1752.5 56,-1782.5 376,-1782.5 376,-1752.5 56,-1752.5"/>
<text text-anchor="start" x="63" y="-1763.9" font-family="Arial" font-size="14.00" fill="#000000">description    </text>
<text text-anchor="start" x="164.8822" y="-1763.9" font-family="Arial" font-size="14.00" fill="#666666">[text]</text>
<polygon fill="none" stroke="#000000" points="56,-1722.5 56,-1752.5 376,-1752.5 376,-1722.5 56,-1722.5"/>
<text text-anchor="start" x="63" y="-1733.9" font-family="Arial" font-size="14.00" fill="#000000">is_show    </text>
<text text-anchor="start" x="147.7658" y="-1733.9" font-family="Arial" font-size="14.00" fill="#666666">[boolean]</text>
<polygon fill="none" stroke="#000000" points="56,-1692.5 56,-1722.5 376,-1722.5 376,-1692.5 56,-1692.5"/>
<text text-anchor="start" x="63" y="-1703.9" font-family="Arial" font-size="14.00" fill="#000000">bot_text_for_landing    </text>
<text text-anchor="start" x="224.0322" y="-1703.9" font-family="Arial" font-size="14.00" fill="#666666">[text]</text>
<polygon fill="none" stroke="#000000" points="56,-1662.5 56,-1692.5 376,-1692.5 376,-1662.5 56,-1662.5"/>
<text text-anchor="start" x="63" y="-1673.9" font-family="Arial" font-size="14.00" fill="#000000">symbol_many    </text>
<text text-anchor="start" x="183.5456" y="-1673.9" font-family="Arial" font-size="14.00" fill="#666666">[varchar(255)]</text>
<polygon fill="none" stroke="#000000" points="56,-1632.5 56,-1662.5 376,-1662.5 376,-1632.5 56,-1632.5"/>
<text text-anchor="start" x="63" y="-1643.9" font-family="Arial" font-size="14.00" fill="#000000">name_for_landing    </text>
<text text-anchor="start" x="209.2384" y="-1643.9" font-family="Arial" font-size="14.00" fill="#666666">[text]</text>
<polygon fill="none" stroke="#000000" points="56,-1602.5 56,-1632.5 376,-1632.5 376,-1602.5 56,-1602.5"/>
<text text-anchor="start" x="63" y="-1613.9" font-family="Arial" font-size="14.00" fill="#000000">description_for_landing    </text>
<text text-anchor="start" x="241.9074" y="-1613.9" font-family="Arial" font-size="14.00" fill="#666666">[text]</text>
<polygon fill="none" stroke="#000000" points="56,-1572.5 56,-1602.5 376,-1602.5 376,-1572.5 56,-1572.5"/>
<text text-anchor="start" x="63" y="-1583.9" font-family="Arial" font-size="14.00" fill="#000000">image    </text>
<text text-anchor="start" x="135.3198" y="-1583.9" font-family="Arial" font-size="14.00" fill="#666666">[varchar(255)]</text>
<polygon fill="none" stroke="#000000" points="56,-1542.5 56,-1572.5 376,-1572.5 376,-1542.5 56,-1542.5"/>
<text text-anchor="start" x="63" y="-1553.9" font-family="Arial" font-size="14.00" fill="#000000">image_for_landing    </text>
<text text-anchor="start" x="212.345" y="-1553.9" font-family="Arial" font-size="14.00" fill="#666666">[varchar(255)]</text>
<polygon fill="none" stroke="#000000" points="56,-1512.5 56,-1542.5 376,-1542.5 376,-1512.5 56,-1512.5"/>
<text text-anchor="start" x="63" y="-1523.9" font-family="Arial" font-size="14.00" fill="#000000">link_template    </text>
<text text-anchor="start" x="179.662" y="-1523.9" font-family="Arial" font-size="14.00" fill="#666666">[varchar(255)]</text>
<polygon fill="none" stroke="#000000" points="56,-1482.5 56,-1512.5 376,-1512.5 376,-1482.5 56,-1482.5"/>
<text text-anchor="start" x="63" y="-1493.9" font-family="Arial" font-size="14.00" fill="#000000">utm_source    </text>
<text text-anchor="start" x="170.3296" y="-1493.9" font-family="Arial" font-size="14.00" fill="#666666">[varchar(255)]</text>
<polygon fill="none" stroke="#000000" points="56,-1452.5 56,-1482.5 376,-1482.5 376,-1452.5 56,-1452.5"/>
<text text-anchor="start" x="63" y="-1463.9" font-family="Arial" font-size="14.00" fill="#000000">click_id_name    </text>
<text text-anchor="start" x="185.8808" y="-1463.9" font-family="Arial" font-size="14.00" fill="#666666">[varchar(255)]</text>
<polygon fill="none" stroke="#000000" points="56,-1422.5 56,-1452.5 376,-1452.5 376,-1422.5 56,-1422.5"/>
<text text-anchor="start" x="63" y="-1433.9" font-family="Arial" font-size="14.00" fill="#000000">web_id_name    </text>
<text text-anchor="start" x="184.3394" y="-1433.9" font-family="Arial" font-size="14.00" fill="#666666">[varchar(255)]</text>
<polygon fill="none" stroke="#000000" points="56,-1392.5 56,-1422.5 376,-1422.5 376,-1392.5 56,-1392.5"/>
<text text-anchor="start" x="63" y="-1403.9" font-family="Arial" font-size="14.00" fill="#000000">status    </text>
<text text-anchor="start" x="134.5512" y="-1403.9" font-family="Arial" font-size="14.00" fill="#666666">[varchar(255)]</text>
<polygon fill="none" stroke="#000000" points="56,-1362.5 56,-1392.5 376,-1392.5 376,-1362.5 56,-1362.5"/>
<text text-anchor="start" x="63" y="-1373.9" font-family="Arial" font-size="14.00" fill="#000000">for_user_ids    </text>
<text text-anchor="start" x="174.2188" y="-1373.9" font-family="Arial" font-size="14.00" fill="#666666">[json]</text>
<polygon fill="none" stroke="#000000" points="56,-1332.5 56,-1362.5 376,-1362.5 376,-1332.5 56,-1332.5"/>
<text text-anchor="start" x="63" y="-1343.9" font-family="Arial" font-size="14.00" fill="#000000">flag_approvable    </text>
<text text-anchor="start" x="196.7952" y="-1343.9" font-family="Arial" font-size="14.00" fill="#666666">[boolean]</text>
<polygon fill="none" stroke="#000000" points="56,-1302.5 56,-1332.5 376,-1332.5 376,-1302.5 56,-1302.5"/>
<text text-anchor="start" x="63" y="-1313.9" font-family="Arial" font-size="14.00" fill="#000000">flag_lock    </text>
<text text-anchor="start" x="152.439" y="-1313.9" font-family="Arial" font-size="14.00" fill="#666666">[boolean]</text>
<polygon fill="none" stroke="#000000" points="56,-1272.5 56,-1302.5 376,-1302.5 376,-1272.5 56,-1272.5"/>
<text text-anchor="start" x="63" y="-1283.9" font-family="Arial" font-size="14.00" fill="#000000">flag_show_promo_code    </text>
<text text-anchor="start" x="245.8036" y="-1283.9" font-family="Arial" font-size="14.00" fill="#666666">[boolean]</text>
<polygon fill="none" stroke="#000000" points="56,-1242.5 56,-1272.5 376,-1272.5 376,-1242.5 56,-1242.5"/>
<text text-anchor="start" x="63" y="-1253.9" font-family="Arial" font-size="14.00" fill="#000000">flag_not_link    </text>
<text text-anchor="start" x="175.784" y="-1253.9" font-family="Arial" font-size="14.00" fill="#666666">[boolean]</text>
<polygon fill="none" stroke="#000000" points="56,-1212.5 56,-1242.5 376,-1242.5 376,-1212.5 56,-1212.5"/>
<text text-anchor="start" x="63" y="-1223.9" font-family="Arial" font-size="14.00" fill="#000000">agreement    </text>
<text text-anchor="start" x="164.1122" y="-1223.9" font-family="Arial" font-size="14.00" fill="#666666">[text]</text>
<polygon fill="none" stroke="#000000" points="56,-1182.5 56,-1212.5 376,-1212.5 376,-1182.5 56,-1182.5"/>
<text text-anchor="start" x="63" y="-1193.9" font-family="Arial" font-size="14.00" fill="#000000">advice    </text>
<text text-anchor="start" x="137.6592" y="-1193.9" font-family="Arial" font-size="14.00" fill="#666666">[varchar(255)]</text>
<polygon fill="none" stroke="#000000" points="56,-1152.5 56,-1182.5 376,-1182.5 376,-1152.5 56,-1152.5"/>
<text text-anchor="start" x="63" y="-1163.9" font-family="Arial" font-size="14.00" fill="#000000">priority    </text>
<text text-anchor="start" x="139.195" y="-1163.9" font-family="Arial" font-size="14.00" fill="#666666">[integer]</text>
<polygon fill="none" stroke="#000000" points="56,-1122.5 56,-1152.5 376,-1152.5 376,-1122.5 56,-1122.5"/>
<text text-anchor="start" x="63" y="-1133.9" font-family="Arial" font-size="14.00" fill="#000000">sp_id    </text>
<text text-anchor="start" x="130.6592" y="-1133.9" font-family="Arial" font-size="14.00" fill="#666666">[varchar(255)]</text>
<polygon fill="none" stroke="#000000" points="56,-1092.5 56,-1122.5 376,-1122.5 376,-1092.5 56,-1092.5"/>
<text text-anchor="start" x="63" y="-1103.9" font-family="Arial" font-size="14.00" fill="#000000">offer_card_color    </text>
<text text-anchor="start" x="198.3352" y="-1103.9" font-family="Arial" font-size="14.00" fill="#666666">[varchar(255)]</text>
<polygon fill="none" stroke="#000000" points="56,-1062.5 56,-1092.5 376,-1092.5 376,-1062.5 56,-1062.5"/>
<text text-anchor="start" x="63" y="-1073.9" font-family="Arial" font-size="14.00" fill="#000000">description_payed_title    </text>
<text text-anchor="start" x="240.3548" y="-1073.9" font-family="Arial" font-size="14.00" fill="#666666">[text]</text>
<polygon fill="none" stroke="#000000" points="56,-1032.5 56,-1062.5 376,-1062.5 376,-1032.5 56,-1032.5"/>
<text text-anchor="start" x="63" y="-1043.9" font-family="Arial" font-size="14.00" fill="#000000">description_payed_body_html    </text>
<text text-anchor="start" x="283.1486" y="-1043.9" font-family="Arial" font-size="14.00" fill="#666666">[text]</text>
<polygon fill="none" stroke="#000000" points="56,-1002.5 56,-1032.5 376,-1032.5 376,-1002.5 56,-1002.5"/>
<text text-anchor="start" x="63" y="-1013.9" font-family="Arial" font-size="14.00" fill="#000000">description_payed_body_marked    </text>
<text text-anchor="start" x="303.3772" y="-1013.9" font-family="Arial" font-size="14.00" fill="#666666">[text]</text>
<polygon fill="none" stroke="#000000" points="56,-972.5 56,-1002.5 376,-1002.5 376,-972.5 56,-972.5"/>
<text text-anchor="start" x="63" y="-983.9" font-family="Arial" font-size="14.00" fill="#000000">description_not_payed_title    </text>
<text text-anchor="start" x="267.5932" y="-983.9" font-family="Arial" font-size="14.00" fill="#666666">[text]</text>
<polygon fill="none" stroke="#000000" points="56,-942.5 56,-972.5 376,-972.5 376,-942.5 56,-942.5"/>
<text text-anchor="start" x="63" y="-953.9" font-family="Arial" font-size="14.00" fill="#000000">description_not_payed_body_html    </text>
<text text-anchor="start" x="310.387" y="-953.9" font-family="Arial" font-size="14.00" fill="#666666">[text]</text>
<polygon fill="none" stroke="#000000" points="56,-912.5 56,-942.5 376,-942.5 376,-912.5 56,-912.5"/>
<text text-anchor="start" x="63" y="-923.9" font-family="Arial" font-size="14.00" fill="#000000">description_not_payed_body_marked    </text>
<text text-anchor="start" x="330.6156" y="-923.9" font-family="Arial" font-size="14.00" fill="#666666">[text]</text>
<polygon fill="none" stroke="#000000" points="56,-882.5 56,-912.5 376,-912.5 376,-882.5 56,-882.5"/>
<text text-anchor="start" x="63" y="-893.9" font-family="Arial" font-size="14.00" fill="#000000">is_show_stocks    </text>
<text text-anchor="start" x="195.2216" y="-893.9" font-family="Arial" font-size="14.00" fill="#666666">[boolean]</text>
<polygon fill="none" stroke="#000000" points="56,-852.5 56,-882.5 376,-882.5 376,-852.5 56,-852.5"/>
<text text-anchor="start" x="63" y="-863.9" font-family="Arial" font-size="14.00" fill="#000000">stocks_title    </text>
<text text-anchor="start" x="166.4376" y="-863.9" font-family="Arial" font-size="14.00" fill="#666666">[text]</text>
<polygon fill="none" stroke="#000000" points="56,-822.5 56,-852.5 376,-852.5 376,-822.5 56,-822.5"/>
<text text-anchor="start" x="63" y="-833.9" font-family="Arial" font-size="14.00" fill="#000000">stocks_sub_title    </text>
<text text-anchor="start" x="196.7854" y="-833.9" font-family="Arial" font-size="14.00" fill="#666666">[text]</text>
<polygon fill="none" stroke="#000000" points="56,-792.5 56,-822.5 376,-822.5 376,-792.5 56,-792.5"/>
<text text-anchor="start" x="63" y="-803.9" font-family="Arial" font-size="14.00" fill="#000000">stocks_additional_text    </text>
<text text-anchor="start" x="234.913" y="-803.9" font-family="Arial" font-size="14.00" fill="#666666">[text]</text>
<polygon fill="none" stroke="#000000" points="56,-762.5 56,-792.5 376,-792.5 376,-762.5 56,-762.5"/>
<text text-anchor="start" x="63" y="-773.9" font-family="Arial" font-size="14.00" fill="#000000">stocks_bg_color    </text>
<text text-anchor="start" x="198.3408" y="-773.9" font-family="Arial" font-size="14.00" fill="#666666">[text]</text>
<polygon fill="none" stroke="#000000" points="56,-732.5 56,-762.5 376,-762.5 376,-732.5 56,-732.5"/>
<text text-anchor="start" x="63" y="-743.9" font-family="Arial" font-size="14.00" fill="#000000">stocks_bg_img    </text>
<text text-anchor="start" x="190.5582" y="-743.9" font-family="Arial" font-size="14.00" fill="#666666">[text]</text>
<polygon fill="none" stroke="#000000" points="56,-702.5 56,-732.5 376,-732.5 376,-702.5 56,-702.5"/>
<text text-anchor="start" x="63" y="-713.9" font-family="Arial" font-size="14.00" fill="#000000">target_audience    </text>
<text text-anchor="start" x="197.5792" y="-713.9" font-family="Arial" font-size="14.00" fill="#666666">[varchar(255)]</text>
<polygon fill="none" stroke="#000000" points="56,-672.5 56,-702.5 376,-702.5 376,-672.5 56,-672.5"/>
<text text-anchor="start" x="63" y="-683.9" font-family="Arial" font-size="14.00" fill="#000000">is_traffic    </text>
<text text-anchor="start" x="149.3156" y="-683.9" font-family="Arial" font-size="14.00" fill="#666666">[boolean]</text>
<polygon fill="none" stroke="#000000" points="56,-642.5 56,-672.5 376,-672.5 376,-642.5 56,-642.5"/>
<text text-anchor="start" x="63" y="-653.9" font-family="Arial" font-size="14.00" fill="#000000">is_rules    </text>
<text text-anchor="start" x="145.4264" y="-653.9" font-family="Arial" font-size="14.00" fill="#666666">[boolean]</text>
<polygon fill="none" stroke="#000000" points="56,-612.5 56,-642.5 376,-642.5 376,-612.5 56,-612.5"/>
<text text-anchor="start" x="63" y="-623.9" font-family="Arial" font-size="14.00" fill="#000000">is_auditory    </text>
<text text-anchor="start" x="164.8822" y="-623.9" font-family="Arial" font-size="14.00" fill="#666666">[boolean]</text>
<polygon fill="none" stroke="#000000" points="56,-582.5 56,-612.5 376,-612.5 376,-582.5 56,-582.5"/>
<text text-anchor="start" x="63" y="-593.9" font-family="Arial" font-size="14.00" fill="#000000">is_required    </text>
<text text-anchor="start" x="166.4348" y="-593.9" font-family="Arial" font-size="14.00" fill="#666666">[boolean]</text>
<polygon fill="none" stroke="#000000" points="56,-552.5 56,-582.5 376,-582.5 376,-552.5 56,-552.5"/>
<text text-anchor="start" x="63" y="-563.9" font-family="Arial" font-size="14.00" fill="#000000">is_required_value    </text>
<text text-anchor="start" x="207.6718" y="-563.9" font-family="Arial" font-size="14.00" fill="#666666">[varchar(255)]</text>
<polygon fill="none" stroke="#000000" points="56,-522.5 56,-552.5 376,-552.5 376,-522.5 56,-522.5"/>
<text text-anchor="start" x="63" y="-533.9" font-family="Arial" font-size="14.00" fill="#000000">banner_title    </text>
<text text-anchor="start" x="170.338" y="-533.9" font-family="Arial" font-size="14.00" fill="#666666">[text]</text>
<polygon fill="none" stroke="#000000" points="56,-492.5 56,-522.5 376,-522.5 376,-492.5 56,-492.5"/>
<text text-anchor="start" x="63" y="-503.9" font-family="Arial" font-size="14.00" fill="#000000">banner_text    </text>
<text text-anchor="start" x="171.1248" y="-503.9" font-family="Arial" font-size="14.00" fill="#666666">[text]</text>
<polygon fill="none" stroke="#000000" points="56,-462.5 56,-492.5 376,-492.5 376,-462.5 56,-462.5"/>
<text text-anchor="start" x="63" y="-473.9" font-family="Arial" font-size="14.00" fill="#000000">banner_btn_text    </text>
<text text-anchor="start" x="198.3632" y="-473.9" font-family="Arial" font-size="14.00" fill="#666666">[text]</text>
<polygon fill="none" stroke="#000000" points="56,-432.5 56,-462.5 376,-462.5 376,-432.5 56,-432.5"/>
<text text-anchor="start" x="63" y="-443.9" font-family="Arial" font-size="14.00" fill="#000000">banner_bg_color    </text>
<text text-anchor="start" x="202.2412" y="-443.9" font-family="Arial" font-size="14.00" fill="#666666">[text]</text>
<polygon fill="none" stroke="#000000" points="56,-402.5 56,-432.5 376,-432.5 376,-402.5 56,-402.5"/>
<text text-anchor="start" x="63" y="-413.9" font-family="Arial" font-size="14.00" fill="#000000">banner_bg_image    </text>
<text text-anchor="start" x="210.0238" y="-413.9" font-family="Arial" font-size="14.00" fill="#666666">[text]</text>
<polygon fill="none" stroke="#000000" points="56,-372.5 56,-402.5 376,-402.5 376,-372.5 56,-372.5"/>
<text text-anchor="start" x="63" y="-383.9" font-family="Arial" font-size="14.00" fill="#000000">is_show_calculator    </text>
<text text-anchor="start" x="215.4432" y="-383.9" font-family="Arial" font-size="14.00" fill="#666666">[boolean]</text>
<polygon fill="none" stroke="#000000" points="56,-342.5 56,-372.5 376,-372.5 376,-342.5 56,-342.5"/>
<text text-anchor="start" x="63" y="-353.9" font-family="Arial" font-size="14.00" fill="#000000">okved    </text>
<text text-anchor="start" x="134.5526" y="-353.9" font-family="Arial" font-size="14.00" fill="#666666">[varchar(255)]</text>
<polygon fill="none" stroke="#000000" points="56,-312.5 56,-342.5 376,-342.5 376,-312.5 56,-312.5"/>
<text text-anchor="start" x="63" y="-323.9" font-family="Arial" font-size="14.00" fill="#000000">created_at    </text>
<text text-anchor="start" x="163.3422" y="-323.9" font-family="Arial" font-size="14.00" fill="#666666">[timestamp(0) without time zone]</text>
<polygon fill="none" stroke="#000000" points="56,-282.5 56,-312.5 376,-312.5 376,-282.5 56,-282.5"/>
<text text-anchor="start" x="62.7546" y="-293.9" font-family="Arial" font-size="14.00" fill="#000000">updated_at    </text>
<text text-anchor="start" x="167.0014" y="-293.9" font-family="Arial" font-size="14.00" fill="#666666">[timestamp(0) without time zone]</text>
<polygon fill="none" stroke="#000000" points="56,-252.5 56,-282.5 376,-282.5 376,-252.5 56,-252.5"/>
<text text-anchor="start" x="63" y="-263.9" font-family="Arial" font-size="14.00" fill="#000000">deleted_at    </text>
<text text-anchor="start" x="162.5708" y="-263.9" font-family="Arial" font-size="14.00" fill="#666666">[timestamp(0) without time zone]</text>
<polygon fill="none" stroke="#000000" points="56,-222.5 56,-252.5 376,-252.5 376,-222.5 56,-222.5"/>
<text text-anchor="start" x="63" y="-233.9" font-family="Arial" font-size="14.00" fill="#000000">product_name    </text>
<text text-anchor="start" x="186.6774" y="-233.9" font-family="Arial" font-size="14.00" fill="#666666">[varchar(255)]</text>
<polygon fill="none" stroke="#000000" points="56,-192.5 56,-222.5 376,-222.5 376,-192.5 56,-192.5"/>
<text text-anchor="start" x="63" y="-203.9" font-family="Arial" font-size="14.00" fill="#000000">is_auditory_value    </text>
<text text-anchor="start" x="206.1192" y="-203.9" font-family="Arial" font-size="14.00" fill="#666666">[varchar(255)]</text>
<polygon fill="none" stroke="#000000" points="56,-162.5 56,-192.5 376,-192.5 376,-162.5 56,-162.5"/>
<text text-anchor="start" x="63" y="-173.9" font-family="Arial" font-size="14.00" fill="#000000">api    </text>
<text text-anchor="start" x="115.8766" y="-173.9" font-family="Arial" font-size="14.00" fill="#666666">[boolean]</text>
<polygon fill="none" stroke="#000000" points="56,-132.5 56,-162.5 376,-162.5 376,-132.5 56,-132.5"/>
<text text-anchor="start" x="63" y="-143.9" font-family="Arial" font-size="14.00" fill="#000000">product_id    </text>
<text text-anchor="start" x="162.5582" y="-143.9" font-family="Arial" font-size="14.00" fill="#666666">[integer]</text>
<polygon fill="none" stroke="#000000" points="56,-102.5 56,-132.5 376,-132.5 376,-102.5 56,-102.5"/>
<text text-anchor="start" x="63" y="-113.9" font-family="Arial" font-size="14.00" fill="#000000">description_in_wine_case    </text>
<text text-anchor="start" x="257.4628" y="-113.9" font-family="Arial" font-size="14.00" fill="#666666">[varchar(255)]</text>
<polygon fill="none" stroke="#000000" points="56,-72.5 56,-102.5 376,-102.5 376,-72.5 56,-72.5"/>
<text text-anchor="start" x="63" y="-83.9" font-family="Arial" font-size="14.00" fill="#000000">is_landing    </text>
<text text-anchor="start" x="160.2202" y="-83.9" font-family="Arial" font-size="14.00" fill="#666666">[boolean]</text>
<polygon fill="none" stroke="#000000" points="56,-42.5 56,-72.5 376,-72.5 376,-42.5 56,-42.5"/>
<text text-anchor="start" x="63" y="-53.9" font-family="Arial" font-size="14.00" fill="#000000">url    </text>
<text text-anchor="start" x="112.7546" y="-53.9" font-family="Arial" font-size="14.00" fill="#666666">[varchar(255)]</text>
</g>
<!-- public.offers_partners_approves&#45;&gt;public.offers -->
<g id="edge1" class="edge">
<title>public.offers_partners_approves:offer_id&#45;&gt;public.offers:id</title>
<path fill="none" stroke="#000000" d="M227.8547,-2496.807C160.6148,-2487.0948 191.1568,-2377.6309 238,-2317 276.7531,-2266.8405 337.2469,-2331.1595 376,-2281 401.4064,-2248.1156 417.5556,-2187.5 376,-2187.5"/>
<polygon fill="#000000" stroke="#000000" points="228.0232,-2496.8185 237.6933,-2501.9895 233.0116,-2497.1592 238,-2497.5 238,-2497.5 238,-2497.5 233.0116,-2497.1592 238.3067,-2493.0105 228.0232,-2496.8185 228.0232,-2496.8185"/>
<text text-anchor="start" x="6.7765" y="-2507.5" font-family="Arial" font-size="10.00" fill="#000000">FOREIGN KEY (offer_id) REFERENCES offers(id)</text>
</g>
<!-- public.users -->
<g id="node3" class="node">
<title>public.users</title>
<polygon fill="#efefef" stroke="transparent" points="480,-1872.5 480,-1907.5 836,-1907.5 836,-1872.5 480,-1872.5"/>
<polygon fill="none" stroke="#000000" points="480,-1872.5 480,-1907.5 836,-1907.5 836,-1872.5 480,-1872.5"/>
<text text-anchor="start" x="546.2091" y="-1885.3" font-family="Arial Bold" font-size="18.00" fill="#000000">public.users</text>
<text text-anchor="start" x="642.2229" y="-1885.3" font-family="Arial" font-size="14.00" fill="#000000">    </text>
<text text-anchor="start" x="676.4277" y="-1885.3" font-family="Arial" font-size="14.00" fill="#666666">[BASE TABLE]</text>
<polygon fill="none" stroke="#000000" points="480,-1842.5 480,-1872.5 836,-1872.5 836,-1842.5 480,-1842.5"/>
<text text-anchor="start" x="487" y="-1853.9" font-family="Arial" font-size="14.00" fill="#000000">id    </text>
<text text-anchor="start" x="532.094" y="-1853.9" font-family="Arial" font-size="14.00" fill="#666666">[bigint]</text>
<polygon fill="none" stroke="#000000" points="480,-1812.5 480,-1842.5 836,-1842.5 836,-1812.5 480,-1812.5"/>
<text text-anchor="start" x="487" y="-1823.9" font-family="Arial" font-size="14.00" fill="#000000">name    </text>
<text text-anchor="start" x="556.2132" y="-1823.9" font-family="Arial" font-size="14.00" fill="#666666">[varchar(255)]</text>
<polygon fill="none" stroke="#000000" points="480,-1782.5 480,-1812.5 836,-1812.5 836,-1782.5 480,-1782.5"/>
<text text-anchor="start" x="487" y="-1793.9" font-family="Arial" font-size="14.00" fill="#000000">email    </text>
<text text-anchor="start" x="554.6438" y="-1793.9" font-family="Arial" font-size="14.00" fill="#666666">[varchar(255)]</text>
<polygon fill="none" stroke="#000000" points="480,-1752.5 480,-1782.5 836,-1782.5 836,-1752.5 480,-1752.5"/>
<text text-anchor="start" x="487" y="-1763.9" font-family="Arial" font-size="14.00" fill="#000000">lang    </text>
<text text-anchor="start" x="547.6592" y="-1763.9" font-family="Arial" font-size="14.00" fill="#666666">[varchar(255)]</text>
<polygon fill="none" stroke="#000000" points="480,-1722.5 480,-1752.5 836,-1752.5 836,-1722.5 480,-1722.5"/>
<text text-anchor="start" x="487" y="-1733.9" font-family="Arial" font-size="14.00" fill="#000000">role    </text>
<text text-anchor="start" x="544.5372" y="-1733.9" font-family="Arial" font-size="14.00" fill="#666666">[varchar(255)]</text>
<polygon fill="none" stroke="#000000" points="480,-1692.5 480,-1722.5 836,-1722.5 836,-1692.5 480,-1692.5"/>
<text text-anchor="start" x="487" y="-1703.9" font-family="Arial" font-size="14.00" fill="#000000">hash_name    </text>
<text text-anchor="start" x="594.3436" y="-1703.9" font-family="Arial" font-size="14.00" fill="#666666">[varchar(255)]</text>
<polygon fill="none" stroke="#000000" points="480,-1662.5 480,-1692.5 836,-1692.5 836,-1662.5 480,-1662.5"/>
<text text-anchor="start" x="487" y="-1673.9" font-family="Arial" font-size="14.00" fill="#000000">user_type_id    </text>
<text text-anchor="start" x="601.3408" y="-1673.9" font-family="Arial" font-size="14.00" fill="#666666">[bigint]</text>
<polygon fill="none" stroke="#000000" points="480,-1632.5 480,-1662.5 836,-1662.5 836,-1632.5 480,-1632.5"/>
<text text-anchor="start" x="487" y="-1643.9" font-family="Arial" font-size="14.00" fill="#000000">type    </text>
<text text-anchor="start" x="547.6606" y="-1643.9" font-family="Arial" font-size="14.00" fill="#666666">[varchar(255)]</text>
<polygon fill="none" stroke="#000000" points="480,-1602.5 480,-1632.5 836,-1632.5 836,-1602.5 480,-1602.5"/>
<text text-anchor="start" x="486.8808" y="-1613.9" font-family="Arial" font-size="14.00" fill="#000000">email_verified_at    </text>
<text text-anchor="start" x="626.8752" y="-1613.9" font-family="Arial" font-size="14.00" fill="#666666">[timestamp(0) without time zone]</text>
<polygon fill="none" stroke="#000000" points="480,-1572.5 480,-1602.5 836,-1602.5 836,-1572.5 480,-1572.5"/>
<text text-anchor="start" x="487" y="-1583.9" font-family="Arial" font-size="14.00" fill="#000000">password    </text>
<text text-anchor="start" x="581.1024" y="-1583.9" font-family="Arial" font-size="14.00" fill="#666666">[varchar(255)]</text>
<polygon fill="none" stroke="#000000" points="480,-1542.5 480,-1572.5 836,-1572.5 836,-1542.5 480,-1542.5"/>
<text text-anchor="start" x="487" y="-1553.9" font-family="Arial" font-size="14.00" fill="#000000">code_for_login    </text>
<text text-anchor="start" x="613.0126" y="-1553.9" font-family="Arial" font-size="14.00" fill="#666666">[varchar(255)]</text>
<polygon fill="none" stroke="#000000" points="480,-1512.5 480,-1542.5 836,-1542.5 836,-1512.5 480,-1512.5"/>
<text text-anchor="start" x="487" y="-1523.9" font-family="Arial" font-size="14.00" fill="#000000">status    </text>
<text text-anchor="start" x="558.5512" y="-1523.9" font-family="Arial" font-size="14.00" fill="#666666">[integer]</text>
<polygon fill="none" stroke="#000000" points="480,-1482.5 480,-1512.5 836,-1512.5 836,-1482.5 480,-1482.5"/>
<text text-anchor="start" x="487" y="-1493.9" font-family="Arial" font-size="14.00" fill="#000000">partner_type    </text>
<text text-anchor="start" x="599.7854" y="-1493.9" font-family="Arial" font-size="14.00" fill="#666666">[varchar(255)]</text>
<polygon fill="none" stroke="#000000" points="480,-1452.5 480,-1482.5 836,-1482.5 836,-1452.5 480,-1452.5"/>
<text text-anchor="start" x="487" y="-1463.9" font-family="Arial" font-size="14.00" fill="#000000">direct_contract    </text>
<text text-anchor="start" x="613" y="-1463.9" font-family="Arial" font-size="14.00" fill="#666666">[boolean]</text>
<polygon fill="none" stroke="#000000" points="480,-1422.5 480,-1452.5 836,-1452.5 836,-1422.5 480,-1422.5"/>
<text text-anchor="start" x="487" y="-1433.9" font-family="Arial" font-size="14.00" fill="#000000">need_api    </text>
<text text-anchor="start" x="578.7896" y="-1433.9" font-family="Arial" font-size="14.00" fill="#666666">[boolean]</text>
<polygon fill="none" stroke="#000000" points="480,-1392.5 480,-1422.5 836,-1422.5 836,-1392.5 480,-1392.5"/>
<text text-anchor="start" x="487" y="-1403.9" font-family="Arial" font-size="14.00" fill="#000000">ref_id    </text>
<text text-anchor="start" x="556.2104" y="-1403.9" font-family="Arial" font-size="14.00" fill="#666666">[bigint]</text>
<polygon fill="none" stroke="#000000" points="480,-1362.5 480,-1392.5 836,-1392.5 836,-1362.5 480,-1362.5"/>
<text text-anchor="start" x="487" y="-1373.9" font-family="Arial" font-size="14.00" fill="#000000">comment    </text>
<text text-anchor="start" x="578.7644" y="-1373.9" font-family="Arial" font-size="14.00" fill="#666666">[varchar(255)]</text>
<polygon fill="none" stroke="#000000" points="480,-1332.5 480,-1362.5 836,-1362.5 836,-1332.5 480,-1332.5"/>
<text text-anchor="start" x="487" y="-1343.9" font-family="Arial" font-size="14.00" fill="#000000">date_of_birth    </text>
<text text-anchor="start" x="602.9046" y="-1343.9" font-family="Arial" font-size="14.00" fill="#666666">[date]</text>
<polygon fill="none" stroke="#000000" points="480,-1302.5 480,-1332.5 836,-1332.5 836,-1302.5 480,-1302.5"/>
<text text-anchor="start" x="487" y="-1313.9" font-family="Arial" font-size="14.00" fill="#000000">passport_series    </text>
<text text-anchor="start" x="620.0014" y="-1313.9" font-family="Arial" font-size="14.00" fill="#666666">[varchar(255)]</text>
<polygon fill="none" stroke="#000000" points="480,-1272.5 480,-1302.5 836,-1302.5 836,-1272.5 480,-1272.5"/>
<text text-anchor="start" x="487" y="-1283.9" font-family="Arial" font-size="14.00" fill="#000000">passport_number    </text>
<text text-anchor="start" x="630.1206" y="-1283.9" font-family="Arial" font-size="14.00" fill="#666666">[varchar(255)]</text>
<polygon fill="none" stroke="#000000" points="480,-1242.5 480,-1272.5 836,-1272.5 836,-1242.5 480,-1242.5"/>
<text text-anchor="start" x="487" y="-1253.9" font-family="Arial" font-size="14.00" fill="#000000">citizenship    </text>
<text text-anchor="start" x="586.5456" y="-1253.9" font-family="Arial" font-size="14.00" fill="#666666">[varchar(255)]</text>
<polygon fill="none" stroke="#000000" points="480,-1212.5 480,-1242.5 836,-1242.5 836,-1212.5 480,-1212.5"/>
<text text-anchor="start" x="487" y="-1223.9" font-family="Arial" font-size="14.00" fill="#000000">client_id    </text>
<text text-anchor="start" x="572.5456" y="-1223.9" font-family="Arial" font-size="14.00" fill="#666666">[varchar(255)]</text>
<polygon fill="none" stroke="#000000" points="480,-1182.5 480,-1212.5 836,-1212.5 836,-1182.5 480,-1182.5"/>
<text text-anchor="start" x="487" y="-1193.9" font-family="Arial" font-size="14.00" fill="#000000">phone    </text>
<text text-anchor="start" x="560.1178" y="-1193.9" font-family="Arial" font-size="14.00" fill="#666666">[varchar(255)]</text>
<polygon fill="none" stroke="#000000" points="480,-1152.5 480,-1182.5 836,-1182.5 836,-1152.5 480,-1152.5"/>
<text text-anchor="start" x="487" y="-1163.9" font-family="Arial" font-size="14.00" fill="#000000">skype    </text>
<text text-anchor="start" x="557.77" y="-1163.9" font-family="Arial" font-size="14.00" fill="#666666">[varchar(255)]</text>
<polygon fill="none" stroke="#000000" points="480,-1122.5 480,-1152.5 836,-1152.5 836,-1122.5 480,-1122.5"/>
<text text-anchor="start" x="487" y="-1133.9" font-family="Arial" font-size="14.00" fill="#000000">whatsapp    </text>
<text text-anchor="start" x="581.115" y="-1133.9" font-family="Arial" font-size="14.00" fill="#666666">[varchar(255)]</text>
<polygon fill="none" stroke="#000000" points="480,-1092.5 480,-1122.5 836,-1122.5 836,-1092.5 480,-1092.5"/>
<text text-anchor="start" x="487" y="-1103.9" font-family="Arial" font-size="14.00" fill="#000000">telegram    </text>
<text text-anchor="start" x="575.6536" y="-1103.9" font-family="Arial" font-size="14.00" fill="#666666">[varchar(255)]</text>
<polygon fill="none" stroke="#000000" points="480,-1062.5 480,-1092.5 836,-1092.5 836,-1062.5 480,-1062.5"/>
<text text-anchor="start" x="487" y="-1073.9" font-family="Arial" font-size="14.00" fill="#000000">address    </text>
<text text-anchor="start" x="570.9958" y="-1073.9" font-family="Arial" font-size="14.00" fill="#666666">[text]</text>
<polygon fill="none" stroke="#000000" points="480,-1032.5 480,-1062.5 836,-1062.5 836,-1032.5 480,-1032.5"/>
<text text-anchor="start" x="487" y="-1043.9" font-family="Arial" font-size="14.00" fill="#000000">postal_code    </text>
<text text-anchor="start" x="596.6802" y="-1043.9" font-family="Arial" font-size="14.00" fill="#666666">[varchar(255)]</text>
<polygon fill="none" stroke="#000000" points="480,-1002.5 480,-1032.5 836,-1032.5 836,-1002.5 480,-1002.5"/>
<text text-anchor="start" x="487" y="-1013.9" font-family="Arial" font-size="14.00" fill="#000000">city    </text>
<text text-anchor="start" x="542.202" y="-1013.9" font-family="Arial" font-size="14.00" fill="#666666">[varchar(255)]</text>
<polygon fill="none" stroke="#000000" points="480,-972.5 480,-1002.5 836,-1002.5 836,-972.5 480,-972.5"/>
<text text-anchor="start" x="487" y="-983.9" font-family="Arial" font-size="14.00" fill="#000000">country    </text>
<text text-anchor="start" x="567.1038" y="-983.9" font-family="Arial" font-size="14.00" fill="#666666">[varchar(255)]</text>
<polygon fill="none" stroke="#000000" points="480,-942.5 480,-972.5 836,-972.5 836,-942.5 480,-942.5"/>
<text text-anchor="start" x="487" y="-953.9" font-family="Arial" font-size="14.00" fill="#000000">welcome_status    </text>
<text text-anchor="start" x="621.5554" y="-953.9" font-family="Arial" font-size="14.00" fill="#666666">[varchar(255)]</text>
<polygon fill="none" stroke="#000000" points="480,-912.5 480,-942.5 836,-942.5 836,-912.5 480,-912.5"/>
<text text-anchor="start" x="487" y="-923.9" font-family="Arial" font-size="14.00" fill="#000000">welcome_confirm_code    </text>
<text text-anchor="start" x="668.223" y="-923.9" font-family="Arial" font-size="14.00" fill="#666666">[integer]</text>
<polygon fill="none" stroke="#000000" points="480,-882.5 480,-912.5 836,-912.5 836,-882.5 480,-882.5"/>
<text text-anchor="start" x="487" y="-893.9" font-family="Arial" font-size="14.00" fill="#000000">all_docs    </text>
<text text-anchor="start" x="572.5484" y="-893.9" font-family="Arial" font-size="14.00" fill="#666666">[boolean]</text>
<polygon fill="none" stroke="#000000" points="480,-852.5 480,-882.5 836,-882.5 836,-852.5 480,-852.5"/>
<text text-anchor="start" x="487" y="-863.9" font-family="Arial" font-size="14.00" fill="#000000">sign_status    </text>
<text text-anchor="start" x="592.0056" y="-863.9" font-family="Arial" font-size="14.00" fill="#666666">[varchar(255)]</text>
<polygon fill="none" stroke="#000000" points="480,-822.5 480,-852.5 836,-852.5 836,-822.5 480,-822.5"/>
<text text-anchor="start" x="487" y="-833.9" font-family="Arial" font-size="14.00" fill="#000000">letter_style    </text>
<text text-anchor="start" x="588.8808" y="-833.9" font-family="Arial" font-size="14.00" fill="#666666">[varchar(255)]</text>
<polygon fill="none" stroke="#000000" points="480,-792.5 480,-822.5 836,-822.5 836,-792.5 480,-792.5"/>
<text text-anchor="start" x="487" y="-803.9" font-family="Arial" font-size="14.00" fill="#000000">all_fields    </text>
<text text-anchor="start" x="575.6522" y="-803.9" font-family="Arial" font-size="14.00" fill="#666666">[boolean]</text>
<polygon fill="none" stroke="#000000" points="480,-762.5 480,-792.5 836,-792.5 836,-762.5 480,-762.5"/>
<text text-anchor="start" x="487" y="-773.9" font-family="Arial" font-size="14.00" fill="#000000">balance_popup    </text>
<text text-anchor="start" x="616.92" y="-773.9" font-family="Arial" font-size="14.00" fill="#666666">[boolean]</text>
<polygon fill="none" stroke="#000000" points="480,-732.5 480,-762.5 836,-762.5 836,-732.5 480,-732.5"/>
<text text-anchor="start" x="487" y="-743.9" font-family="Arial" font-size="14.00" fill="#000000">email_unsubs    </text>
<text text-anchor="start" x="607.5568" y="-743.9" font-family="Arial" font-size="14.00" fill="#666666">[boolean]</text>
<polygon fill="none" stroke="#000000" points="480,-702.5 480,-732.5 836,-732.5 836,-702.5 480,-702.5"/>
<text text-anchor="start" x="487" y="-713.9" font-family="Arial" font-size="14.00" fill="#000000">model    </text>
<text text-anchor="start" x="559.3198" y="-713.9" font-family="Arial" font-size="14.00" fill="#666666">[varchar(255)]</text>
<polygon fill="none" stroke="#000000" points="480,-672.5 480,-702.5 836,-702.5 836,-672.5 480,-672.5"/>
<text text-anchor="start" x="487" y="-683.9" font-family="Arial" font-size="14.00" fill="#000000">remember_token    </text>
<text text-anchor="start" x="626.9986" y="-683.9" font-family="Arial" font-size="14.00" fill="#666666">[varchar(100)]</text>
<polygon fill="none" stroke="#000000" points="480,-642.5 480,-672.5 836,-672.5 836,-642.5 480,-642.5"/>
<text text-anchor="start" x="487" y="-653.9" font-family="Arial" font-size="14.00" fill="#000000">auth_token    </text>
<text text-anchor="start" x="590.4642" y="-653.9" font-family="Arial" font-size="14.00" fill="#666666">[varchar(100)]</text>
<polygon fill="none" stroke="#000000" points="480,-612.5 480,-642.5 836,-642.5 836,-612.5 480,-612.5"/>
<text text-anchor="start" x="487" y="-623.9" font-family="Arial" font-size="14.00" fill="#000000">utms    </text>
<text text-anchor="start" x="551.5386" y="-623.9" font-family="Arial" font-size="14.00" fill="#666666">[json]</text>
<polygon fill="none" stroke="#000000" points="480,-582.5 480,-612.5 836,-612.5 836,-582.5 480,-582.5"/>
<text text-anchor="start" x="487" y="-593.9" font-family="Arial" font-size="14.00" fill="#000000">created_at    </text>
<text text-anchor="start" x="587.3422" y="-593.9" font-family="Arial" font-size="14.00" fill="#666666">[timestamp(0) without time zone]</text>
<polygon fill="none" stroke="#000000" points="480,-552.5 480,-582.5 836,-582.5 836,-552.5 480,-552.5"/>
<text text-anchor="start" x="487" y="-563.9" font-family="Arial" font-size="14.00" fill="#000000">updated_at    </text>
<text text-anchor="start" x="591.2468" y="-563.9" font-family="Arial" font-size="14.00" fill="#666666">[timestamp(0) without time zone]</text>
<polygon fill="none" stroke="#000000" points="480,-522.5 480,-552.5 836,-552.5 836,-522.5 480,-522.5"/>
<text text-anchor="start" x="487" y="-533.9" font-family="Arial" font-size="14.00" fill="#000000">deleted_at    </text>
<text text-anchor="start" x="586.5708" y="-533.9" font-family="Arial" font-size="14.00" fill="#666666">[timestamp(0) without time zone]</text>
<polygon fill="none" stroke="#000000" points="480,-492.5 480,-522.5 836,-522.5 836,-492.5 480,-492.5"/>
<text text-anchor="start" x="487" y="-503.9" font-family="Arial" font-size="14.00" fill="#000000">send_to_ado    </text>
<text text-anchor="start" x="602.1388" y="-503.9" font-family="Arial" font-size="14.00" fill="#666666">[boolean]</text>
<polygon fill="none" stroke="#000000" points="480,-462.5 480,-492.5 836,-492.5 836,-462.5 480,-462.5"/>
<text text-anchor="start" x="487" y="-473.9" font-family="Arial" font-size="14.00" fill="#000000">ado_sent_at    </text>
<text text-anchor="start" x="598.2468" y="-473.9" font-family="Arial" font-size="14.00" fill="#666666">[timestamp(0) without time zone]</text>
<polygon fill="none" stroke="#000000" points="480,-432.5 480,-462.5 836,-462.5 836,-432.5 480,-432.5"/>
<text text-anchor="start" x="487" y="-443.9" font-family="Arial" font-size="14.00" fill="#000000">surname    </text>
<text text-anchor="start" x="575.6564" y="-443.9" font-family="Arial" font-size="14.00" fill="#666666">[varchar(255)]</text>
<polygon fill="none" stroke="#000000" points="480,-402.5 480,-432.5 836,-432.5 836,-402.5 480,-402.5"/>
<text text-anchor="start" x="487" y="-413.9" font-family="Arial" font-size="14.00" fill="#000000">mgm    </text>
<text text-anchor="start" x="552.3086" y="-413.9" font-family="Arial" font-size="14.00" fill="#666666">[boolean]</text>
<polygon fill="none" stroke="#000000" points="480,-372.5 480,-402.5 836,-402.5 836,-372.5 480,-372.5"/>
<text text-anchor="start" x="487" y="-383.9" font-family="Arial" font-size="14.00" fill="#000000">employer    </text>
<text text-anchor="start" x="578.763" y="-383.9" font-family="Arial" font-size="14.00" fill="#666666">[boolean]</text>
</g>
<!-- public.offers_partners_approves&#45;&gt;public.users -->
<g id="edge2" class="edge">
<title>public.offers_partners_approves:partner_id&#45;&gt;public.users:id</title>
<path fill="none" stroke="#000000" d="M646.2363,-2466.7012C696.9565,-2457.9375 648.6261,-2378.8241 636,-2317 614.4226,-2211.3455 372.1647,-1857.5 480,-1857.5"/>
<polygon fill="#000000" stroke="#000000" points="645.9697,-2466.722 635.6499,-2463.0136 640.9848,-2467.111 636,-2467.5 636,-2467.5 636,-2467.5 640.9848,-2467.111 636.3501,-2471.9864 645.9697,-2466.722 645.9697,-2466.722"/>
<text text-anchor="start" x="643.2215" y="-2477.5" font-family="Arial" font-size="10.00" fill="#000000">FOREIGN KEY (partner_id) REFERENCES users(id)</text>
</g>
</g>
</svg>
