<?xml version="1.0" encoding="UTF-8" standalone="no"?>
<!DOCTYPE svg PUBLIC "-//W3C//DTD SVG 1.1//EN"
 "http://www.w3.org/Graphics/SVG/1.1/DTD/svg11.dtd">
<!-- Generated by graphviz version 2.40.1 (20161225.0304)
 -->
<!-- Title: public.rate_rule_tag Pages: 1 -->
<svg width="849pt" height="862pt"
 viewBox="0.00 0.00 849.00 862.00" xmlns="http://www.w3.org/2000/svg" xmlns:xlink="http://www.w3.org/1999/xlink">
<g id="graph0" class="graph" transform="scale(1 1) rotate(0) translate(4 858)">
<title>public.rate_rule_tag</title>
<polygon fill="#ffffff" stroke="transparent" points="-4,4 -4,-858 845,-858 845,4 -4,4"/>
<!-- public.rate_rule_tag -->
<g id="node1" class="node">
<title>public.rate_rule_tag</title>
<polygon fill="#efefef" stroke="transparent" points="265,-772.5 265,-807.5 564,-807.5 564,-772.5 265,-772.5"/>
<polygon fill="none" stroke="#000000" points="265,-772.5 265,-807.5 564,-807.5 564,-772.5 265,-772.5"/>
<text text-anchor="start" x="271.6951" y="-785.3" font-family="Arial Bold" font-size="18.00" fill="#000000">public.rate_rule_tag</text>
<text text-anchor="start" x="429.7369" y="-785.3" font-family="Arial" font-size="14.00" fill="#000000">    </text>
<text text-anchor="start" x="463.9417" y="-785.3" font-family="Arial" font-size="14.00" fill="#666666">[BASE TABLE]</text>
<polygon fill="none" stroke="#000000" points="265,-742.5 265,-772.5 564,-772.5 564,-742.5 265,-742.5"/>
<text text-anchor="start" x="272" y="-753.9" font-family="Arial" font-size="14.00" fill="#000000">tag_id </text>
<text text-anchor="start" x="314.0182" y="-753.9" font-family="Arial" font-size="14.00" fill="#666666">[bigint]</text>
<polygon fill="none" stroke="#000000" points="265,-712.5 265,-742.5 564,-742.5 564,-712.5 265,-712.5"/>
<text text-anchor="start" x="272" y="-723.9" font-family="Arial" font-size="14.00" fill="#000000">rate_rule_id </text>
<text text-anchor="start" x="349.7938" y="-723.9" font-family="Arial" font-size="14.00" fill="#666666">[bigint]</text>
<polygon fill="none" stroke="#000000" stroke-width="3" points="263,-711.5 263,-809.5 565,-809.5 565,-711.5 263,-711.5"/>
</g>
<!-- public.tags -->
<g id="node2" class="node">
<title>public.tags</title>
<polygon fill="#efefef" stroke="transparent" points="43,-417.5 43,-452.5 363,-452.5 363,-417.5 43,-417.5"/>
<polygon fill="none" stroke="#000000" points="43,-417.5 43,-452.5 363,-452.5 363,-417.5 43,-417.5"/>
<text text-anchor="start" x="96.2041" y="-430.3" font-family="Arial Bold" font-size="18.00" fill="#000000">public.tags</text>
<text text-anchor="start" x="182.2279" y="-430.3" font-family="Arial" font-size="14.00" fill="#000000">    </text>
<text text-anchor="start" x="216.4327" y="-430.3" font-family="Arial" font-size="14.00" fill="#666666">[BASE TABLE]</text>
<polygon fill="none" stroke="#000000" points="43,-387.5 43,-417.5 363,-417.5 363,-387.5 43,-387.5"/>
<text text-anchor="start" x="50" y="-398.9" font-family="Arial" font-size="14.00" fill="#000000">id    </text>
<text text-anchor="start" x="95.094" y="-398.9" font-family="Arial" font-size="14.00" fill="#666666">[bigint]</text>
<polygon fill="none" stroke="#000000" points="43,-357.5 43,-387.5 363,-387.5 363,-357.5 43,-357.5"/>
<text text-anchor="start" x="50" y="-368.9" font-family="Arial" font-size="14.00" fill="#000000">tag    </text>
<text text-anchor="start" x="103.6606" y="-368.9" font-family="Arial" font-size="14.00" fill="#666666">[varchar(255)]</text>
<polygon fill="none" stroke="#000000" points="43,-327.5 43,-357.5 363,-357.5 363,-327.5 43,-327.5"/>
<text text-anchor="start" x="50" y="-338.9" font-family="Arial" font-size="14.00" fill="#000000">comment    </text>
<text text-anchor="start" x="141.7644" y="-338.9" font-family="Arial" font-size="14.00" fill="#666666">[text]</text>
<polygon fill="none" stroke="#000000" points="43,-297.5 43,-327.5 363,-327.5 363,-297.5 43,-297.5"/>
<text text-anchor="start" x="50" y="-308.9" font-family="Arial" font-size="14.00" fill="#000000">parameters    </text>
<text text-anchor="start" x="154.9902" y="-308.9" font-family="Arial" font-size="14.00" fill="#666666">[text]</text>
<polygon fill="none" stroke="#000000" points="43,-267.5 43,-297.5 363,-297.5 363,-267.5 43,-267.5"/>
<text text-anchor="start" x="50" y="-278.9" font-family="Arial" font-size="14.00" fill="#000000">date_start    </text>
<text text-anchor="start" x="146.4502" y="-278.9" font-family="Arial" font-size="14.00" fill="#666666">[timestamp(0) without time zone]</text>
<polygon fill="none" stroke="#000000" points="43,-237.5 43,-267.5 363,-267.5 363,-237.5 43,-237.5"/>
<text text-anchor="start" x="50" y="-248.9" font-family="Arial" font-size="14.00" fill="#000000">date_end    </text>
<text text-anchor="start" x="142.5736" y="-248.9" font-family="Arial" font-size="14.00" fill="#666666">[timestamp(0) without time zone]</text>
<polygon fill="none" stroke="#000000" points="43,-207.5 43,-237.5 363,-237.5 363,-207.5 43,-207.5"/>
<text text-anchor="start" x="50" y="-218.9" font-family="Arial" font-size="14.00" fill="#000000">created_at    </text>
<text text-anchor="start" x="150.3422" y="-218.9" font-family="Arial" font-size="14.00" fill="#666666">[timestamp(0) without time zone]</text>
<polygon fill="none" stroke="#000000" points="43,-177.5 43,-207.5 363,-207.5 363,-177.5 43,-177.5"/>
<text text-anchor="start" x="49.7546" y="-188.9" font-family="Arial" font-size="14.00" fill="#000000">updated_at    </text>
<text text-anchor="start" x="154.0014" y="-188.9" font-family="Arial" font-size="14.00" fill="#666666">[timestamp(0) without time zone]</text>
</g>
<!-- public.rate_rule_tag&#45;&gt;public.tags -->
<g id="edge1" class="edge">
<title>public.rate_rule_tag:tag_id&#45;&gt;public.tags:id</title>
<path fill="none" stroke="#000000" d="M254.849,-756.9708C120.1314,-741.7318 523.0029,-402.5 363,-402.5"/>
<polygon fill="#000000" stroke="#000000" points="255.0136,-756.9792 264.7657,-761.9939 260.0068,-757.2396 265,-757.5 265,-757.5 265,-757.5 260.0068,-757.2396 265.2343,-753.0061 255.0136,-756.9792 255.0136,-756.9792"/>
<text text-anchor="start" x="45.8845" y="-767.5" font-family="Arial" font-size="10.00" fill="#000000">FOREIGN KEY (tag_id) REFERENCES tags(id)</text>
</g>
<!-- public.rate_rules -->
<g id="node3" class="node">
<title>public.rate_rules</title>
<polygon fill="#efefef" stroke="transparent" points="467,-552.5 467,-587.5 787,-587.5 787,-552.5 467,-552.5"/>
<polygon fill="none" stroke="#000000" points="467,-552.5 467,-587.5 787,-587.5 787,-552.5 467,-552.5"/>
<text text-anchor="start" x="497.2055" y="-565.3" font-family="Arial Bold" font-size="18.00" fill="#000000">public.rate_rules</text>
<text text-anchor="start" x="629.2265" y="-565.3" font-family="Arial" font-size="14.00" fill="#000000">    </text>
<text text-anchor="start" x="663.4313" y="-565.3" font-family="Arial" font-size="14.00" fill="#666666">[BASE TABLE]</text>
<polygon fill="none" stroke="#000000" points="467,-522.5 467,-552.5 787,-552.5 787,-522.5 467,-522.5"/>
<text text-anchor="start" x="474" y="-533.9" font-family="Arial" font-size="14.00" fill="#000000">id    </text>
<text text-anchor="start" x="519.094" y="-533.9" font-family="Arial" font-size="14.00" fill="#666666">[bigint]</text>
<polygon fill="none" stroke="#000000" points="467,-492.5 467,-522.5 787,-522.5 787,-492.5 467,-492.5"/>
<text text-anchor="start" x="474" y="-503.9" font-family="Arial" font-size="14.00" fill="#000000">partner_id    </text>
<text text-anchor="start" x="571.2188" y="-503.9" font-family="Arial" font-size="14.00" fill="#666666">[bigint]</text>
<polygon fill="none" stroke="#000000" points="467,-462.5 467,-492.5 787,-492.5 787,-462.5 467,-462.5"/>
<text text-anchor="start" x="474" y="-473.9" font-family="Arial" font-size="14.00" fill="#000000">legal_status    </text>
<text text-anchor="start" x="582.8948" y="-473.9" font-family="Arial" font-size="14.00" fill="#666666">[varchar(255)]</text>
<polygon fill="none" stroke="#000000" points="467,-432.5 467,-462.5 787,-462.5 787,-432.5 467,-432.5"/>
<text text-anchor="start" x="474" y="-443.9" font-family="Arial" font-size="14.00" fill="#000000">partner_type    </text>
<text text-anchor="start" x="586.7854" y="-443.9" font-family="Arial" font-size="14.00" fill="#666666">[varchar(255)]</text>
<polygon fill="none" stroke="#000000" points="467,-402.5 467,-432.5 787,-432.5 787,-402.5 467,-402.5"/>
<text text-anchor="start" x="474" y="-413.9" font-family="Arial" font-size="14.00" fill="#000000">business_unit_id    </text>
<text text-anchor="start" x="612.4586" y="-413.9" font-family="Arial" font-size="14.00" fill="#666666">[bigint]</text>
<polygon fill="none" stroke="#000000" points="467,-372.5 467,-402.5 787,-402.5 787,-372.5 467,-372.5"/>
<text text-anchor="start" x="474" y="-383.9" font-family="Arial" font-size="14.00" fill="#000000">fee    </text>
<text text-anchor="start" x="527.6606" y="-383.9" font-family="Arial" font-size="14.00" fill="#666666">[numeric(10,2)]</text>
<polygon fill="none" stroke="#000000" points="467,-342.5 467,-372.5 787,-372.5 787,-342.5 467,-342.5"/>
<text text-anchor="start" x="474" y="-353.9" font-family="Arial" font-size="14.00" fill="#000000">fee_advert    </text>
<text text-anchor="start" x="574.3422" y="-353.9" font-family="Arial" font-size="14.00" fill="#666666">[numeric(10,2)]</text>
<polygon fill="none" stroke="#000000" points="467,-312.5 467,-342.5 787,-342.5 787,-312.5 467,-312.5"/>
<text text-anchor="start" x="474" y="-323.9" font-family="Arial" font-size="14.00" fill="#000000">offer_id    </text>
<text text-anchor="start" x="554.8836" y="-323.9" font-family="Arial" font-size="14.00" fill="#666666">[bigint]</text>
<polygon fill="none" stroke="#000000" points="467,-282.5 467,-312.5 787,-312.5 787,-282.5 467,-282.5"/>
<text text-anchor="start" x="474" y="-293.9" font-family="Arial" font-size="14.00" fill="#000000">link_id    </text>
<text text-anchor="start" x="547.8724" y="-293.9" font-family="Arial" font-size="14.00" fill="#666666">[bigint]</text>
<polygon fill="none" stroke="#000000" points="467,-252.5 467,-282.5 787,-282.5 787,-252.5 467,-252.5"/>
<text text-anchor="start" x="474" y="-263.9" font-family="Arial" font-size="14.00" fill="#000000">progressive_value    </text>
<text text-anchor="start" x="621.7826" y="-263.9" font-family="Arial" font-size="14.00" fill="#666666">[bigint]</text>
<polygon fill="none" stroke="#000000" points="467,-222.5 467,-252.5 787,-252.5 787,-222.5 467,-222.5"/>
<text text-anchor="start" x="474" y="-233.9" font-family="Arial" font-size="14.00" fill="#000000">progressive_param    </text>
<text text-anchor="start" x="627.9972" y="-233.9" font-family="Arial" font-size="14.00" fill="#666666">[varchar(255)]</text>
<polygon fill="none" stroke="#000000" points="467,-192.5 467,-222.5 787,-222.5 787,-192.5 467,-192.5"/>
<text text-anchor="start" x="474" y="-203.9" font-family="Arial" font-size="14.00" fill="#000000">rate_type    </text>
<text text-anchor="start" x="566.5596" y="-203.9" font-family="Arial" font-size="14.00" fill="#666666">[varchar(255)]</text>
<polygon fill="none" stroke="#000000" points="467,-162.5 467,-192.5 787,-192.5 787,-162.5 467,-162.5"/>
<text text-anchor="start" x="474" y="-173.9" font-family="Arial" font-size="14.00" fill="#000000">date_start    </text>
<text text-anchor="start" x="570.4502" y="-173.9" font-family="Arial" font-size="14.00" fill="#666666">[timestamp(0) without time zone]</text>
<polygon fill="none" stroke="#000000" points="467,-132.5 467,-162.5 787,-162.5 787,-132.5 467,-132.5"/>
<text text-anchor="start" x="474" y="-143.9" font-family="Arial" font-size="14.00" fill="#000000">date_end    </text>
<text text-anchor="start" x="566.5736" y="-143.9" font-family="Arial" font-size="14.00" fill="#666666">[timestamp(0) without time zone]</text>
<polygon fill="none" stroke="#000000" points="467,-102.5 467,-132.5 787,-132.5 787,-102.5 467,-102.5"/>
<text text-anchor="start" x="474" y="-113.9" font-family="Arial" font-size="14.00" fill="#000000">created_at    </text>
<text text-anchor="start" x="574.3422" y="-113.9" font-family="Arial" font-size="14.00" fill="#666666">[timestamp(0) without time zone]</text>
<polygon fill="none" stroke="#000000" points="467,-72.5 467,-102.5 787,-102.5 787,-72.5 467,-72.5"/>
<text text-anchor="start" x="473.7546" y="-83.9" font-family="Arial" font-size="14.00" fill="#000000">updated_at    </text>
<text text-anchor="start" x="578.0014" y="-83.9" font-family="Arial" font-size="14.00" fill="#666666">[timestamp(0) without time zone]</text>
<polygon fill="none" stroke="#000000" points="467,-42.5 467,-72.5 787,-72.5 787,-42.5 467,-42.5"/>
<text text-anchor="start" x="474" y="-53.9" font-family="Arial" font-size="14.00" fill="#000000">deleted_at    </text>
<text text-anchor="start" x="573.5708" y="-53.9" font-family="Arial" font-size="14.00" fill="#666666">[timestamp(0) without time zone]</text>
</g>
<!-- public.rate_rule_tag&#45;&gt;public.rate_rules -->
<g id="edge2" class="edge">
<title>public.rate_rule_tag:rate_rule_id&#45;&gt;public.rate_rules:id</title>
<path fill="none" stroke="#000000" d="M573.9219,-724.8946C587.1908,-715.8913 576.9543,-685.6255 564,-667 537.7434,-629.2487 493.2566,-668.7513 467,-631 443.2722,-596.8846 425.4444,-537.5 467,-537.5"/>
<polygon fill="#000000" stroke="#000000" points="573.6721,-724.9601 562.8571,-723.1476 568.836,-726.2301 564,-727.5 564,-727.5 564,-727.5 568.836,-726.2301 565.1429,-731.8524 573.6721,-724.9601 573.6721,-724.9601"/>
<text text-anchor="start" x="571.3305" y="-737.5" font-family="Arial" font-size="10.00" fill="#000000">FOREIGN KEY (rate_rule_id) REFERENCES rate_rules(id)</text>
</g>
</g>
</svg>
