<?xml version="1.0" encoding="UTF-8" standalone="no"?>
<!DOCTYPE svg PUBLIC "-//W3C//DTD SVG 1.1//EN"
 "http://www.w3.org/Graphics/SVG/1.1/DTD/svg11.dtd">
<!-- Generated by graphviz version 2.40.1 (20161225.0304)
 -->
<!-- Title: public.business_units Pages: 1 -->
<svg width="869pt" height="2032pt"
 viewBox="0.00 0.00 868.50 2032.00" xmlns="http://www.w3.org/2000/svg" xmlns:xlink="http://www.w3.org/1999/xlink">
<g id="graph0" class="graph" transform="scale(1 1) rotate(0) translate(4 2028)">
<title>public.business_units</title>
<polygon fill="#ffffff" stroke="transparent" points="-4,4 -4,-2028 864.5,-2028 864.5,4 -4,4"/>
<!-- public.business_units -->
<g id="node1" class="node">
<title>public.business_units</title>
<polygon fill="#efefef" stroke="transparent" points="281.5,-225.5 281.5,-260.5 593.5,-260.5 593.5,-225.5 281.5,-225.5"/>
<polygon fill="none" stroke="#000000" points="281.5,-225.5 281.5,-260.5 593.5,-260.5 593.5,-225.5 281.5,-225.5"/>
<text text-anchor="start" x="288.1944" y="-238.3" font-family="Arial Bold" font-size="18.00" fill="#000000">public.business_units</text>
<text text-anchor="start" x="459.2376" y="-238.3" font-family="Arial" font-size="14.00" fill="#000000">    </text>
<text text-anchor="start" x="493.4424" y="-238.3" font-family="Arial" font-size="14.00" fill="#666666">[BASE TABLE]</text>
<polygon fill="none" stroke="#000000" points="281.5,-195.5 281.5,-225.5 593.5,-225.5 593.5,-195.5 281.5,-195.5"/>
<text text-anchor="start" x="288.5" y="-206.9" font-family="Arial" font-size="14.00" fill="#000000">category_id </text>
<text text-anchor="start" x="364.744" y="-206.9" font-family="Arial" font-size="14.00" fill="#666666">[bigint]</text>
<polygon fill="none" stroke="#000000" points="281.5,-165.5 281.5,-195.5 593.5,-195.5 593.5,-165.5 281.5,-165.5"/>
<text text-anchor="start" x="288.5" y="-176.9" font-family="Arial" font-size="14.00" fill="#000000">category_name </text>
<text text-anchor="start" x="388.8632" y="-176.9" font-family="Arial" font-size="14.00" fill="#666666">[varchar(255)]</text>
<polygon fill="none" stroke="#000000" points="281.5,-135.5 281.5,-165.5 593.5,-165.5 593.5,-135.5 281.5,-135.5"/>
<text text-anchor="start" x="288.5" y="-146.9" font-family="Arial" font-size="14.00" fill="#000000">category_param </text>
<text text-anchor="start" x="393.5238" y="-146.9" font-family="Arial" font-size="14.00" fill="#666666">[varchar(32)]</text>
<polygon fill="none" stroke="#000000" points="281.5,-105.5 281.5,-135.5 593.5,-135.5 593.5,-105.5 281.5,-105.5"/>
<text text-anchor="start" x="288.5" y="-116.9" font-family="Arial" font-size="14.00" fill="#000000">created_at </text>
<text text-anchor="start" x="358.528" y="-116.9" font-family="Arial" font-size="14.00" fill="#666666">[timestamp(0) without time zone]</text>
<polygon fill="none" stroke="#000000" points="281.5,-75.5 281.5,-105.5 593.5,-105.5 593.5,-75.5 281.5,-75.5"/>
<text text-anchor="start" x="288.5" y="-86.9" font-family="Arial" font-size="14.00" fill="#000000">updated_at </text>
<text text-anchor="start" x="362.4326" y="-86.9" font-family="Arial" font-size="14.00" fill="#666666">[timestamp(0) without time zone]</text>
<polygon fill="none" stroke="#000000" points="281.5,-45.5 281.5,-75.5 593.5,-75.5 593.5,-45.5 281.5,-45.5"/>
<text text-anchor="start" x="288.5" y="-56.9" font-family="Arial" font-size="14.00" fill="#000000">deleted_at </text>
<text text-anchor="start" x="357.7566" y="-56.9" font-family="Arial" font-size="14.00" fill="#666666">[timestamp(0) without time zone]</text>
<polygon fill="none" stroke="#000000" stroke-width="3" points="280,-44.5 280,-262.5 595,-262.5 595,-44.5 280,-44.5"/>
</g>
<!-- public.orders -->
<g id="node2" class="node">
<title>public.orders</title>
<polygon fill="#efefef" stroke="transparent" points="43.5,-1945.5 43.5,-1980.5 392.5,-1980.5 392.5,-1945.5 43.5,-1945.5"/>
<polygon fill="none" stroke="#000000" points="43.5,-1945.5 43.5,-1980.5 392.5,-1980.5 392.5,-1945.5 43.5,-1945.5"/>
<text text-anchor="start" x="102.7099" y="-1958.3" font-family="Arial Bold" font-size="18.00" fill="#000000">public.orders</text>
<text text-anchor="start" x="205.7221" y="-1958.3" font-family="Arial" font-size="14.00" fill="#000000">    </text>
<text text-anchor="start" x="239.9269" y="-1958.3" font-family="Arial" font-size="14.00" fill="#666666">[BASE TABLE]</text>
<polygon fill="none" stroke="#000000" points="43.5,-1915.5 43.5,-1945.5 392.5,-1945.5 392.5,-1915.5 43.5,-1915.5"/>
<text text-anchor="start" x="50.5" y="-1926.9" font-family="Arial" font-size="14.00" fill="#000000">id    </text>
<text text-anchor="start" x="95.594" y="-1926.9" font-family="Arial" font-size="14.00" fill="#666666">[bigint]</text>
<polygon fill="none" stroke="#000000" points="43.5,-1885.5 43.5,-1915.5 392.5,-1915.5 392.5,-1885.5 43.5,-1885.5"/>
<text text-anchor="start" x="50.5" y="-1896.9" font-family="Arial" font-size="14.00" fill="#000000">order_id    </text>
<text text-anchor="start" x="136.0456" y="-1896.9" font-family="Arial" font-size="14.00" fill="#666666">[varchar(255)]</text>
<polygon fill="none" stroke="#000000" points="43.5,-1855.5 43.5,-1885.5 392.5,-1885.5 392.5,-1855.5 43.5,-1855.5"/>
<text text-anchor="start" x="50.5" y="-1866.9" font-family="Arial" font-size="14.00" fill="#000000">offer_id    </text>
<text text-anchor="start" x="131.3836" y="-1866.9" font-family="Arial" font-size="14.00" fill="#666666">[bigint]</text>
<polygon fill="none" stroke="#000000" points="43.5,-1825.5 43.5,-1855.5 392.5,-1855.5 392.5,-1825.5 43.5,-1825.5"/>
<text text-anchor="start" x="50.5" y="-1836.9" font-family="Arial" font-size="14.00" fill="#000000">datetime    </text>
<text text-anchor="start" x="138.3836" y="-1836.9" font-family="Arial" font-size="14.00" fill="#666666">[timestamp(0) without time zone]</text>
<polygon fill="none" stroke="#000000" points="43.5,-1795.5 43.5,-1825.5 392.5,-1825.5 392.5,-1795.5 43.5,-1795.5"/>
<text text-anchor="start" x="50.5" y="-1806.9" font-family="Arial" font-size="14.00" fill="#000000">datetime_sale    </text>
<text text-anchor="start" x="171.838" y="-1806.9" font-family="Arial" font-size="14.00" fill="#666666">[timestamp(0) without time zone]</text>
<polygon fill="none" stroke="#000000" points="43.5,-1765.5 43.5,-1795.5 392.5,-1795.5 392.5,-1765.5 43.5,-1765.5"/>
<text text-anchor="start" x="50.5" y="-1776.9" font-family="Arial" font-size="14.00" fill="#000000">partner_id    </text>
<text text-anchor="start" x="147.7188" y="-1776.9" font-family="Arial" font-size="14.00" fill="#666666">[bigint]</text>
<polygon fill="none" stroke="#000000" points="43.5,-1735.5 43.5,-1765.5 392.5,-1765.5 392.5,-1735.5 43.5,-1735.5"/>
<text text-anchor="start" x="50.5" y="-1746.9" font-family="Arial" font-size="14.00" fill="#000000">candidate_job    </text>
<text text-anchor="start" x="171.852" y="-1746.9" font-family="Arial" font-size="14.00" fill="#666666">[text]</text>
<polygon fill="none" stroke="#000000" points="43.5,-1705.5 43.5,-1735.5 392.5,-1735.5 392.5,-1705.5 43.5,-1705.5"/>
<text text-anchor="start" x="50.5" y="-1716.9" font-family="Arial" font-size="14.00" fill="#000000">candidate_city    </text>
<text text-anchor="start" x="174.1774" y="-1716.9" font-family="Arial" font-size="14.00" fill="#666666">[text]</text>
<polygon fill="none" stroke="#000000" points="43.5,-1675.5 43.5,-1705.5 392.5,-1705.5 392.5,-1675.5 43.5,-1675.5"/>
<text text-anchor="start" x="50.5" y="-1686.9" font-family="Arial" font-size="14.00" fill="#000000">candidate_phone    </text>
<text text-anchor="start" x="192.0932" y="-1686.9" font-family="Arial" font-size="14.00" fill="#666666">[text]</text>
<polygon fill="none" stroke="#000000" points="43.5,-1645.5 43.5,-1675.5 392.5,-1675.5 392.5,-1645.5 43.5,-1645.5"/>
<text text-anchor="start" x="50.5" y="-1656.9" font-family="Arial" font-size="14.00" fill="#000000">candidate_name    </text>
<text text-anchor="start" x="188.1886" y="-1656.9" font-family="Arial" font-size="14.00" fill="#666666">[text]</text>
<polygon fill="none" stroke="#000000" points="43.5,-1615.5 43.5,-1645.5 392.5,-1645.5 392.5,-1615.5 43.5,-1615.5"/>
<text text-anchor="start" x="50.5" y="-1626.9" font-family="Arial" font-size="14.00" fill="#000000">category_id    </text>
<text text-anchor="start" x="157.0582" y="-1626.9" font-family="Arial" font-size="14.00" fill="#666666">[bigint]</text>
<polygon fill="none" stroke="#000000" points="43.5,-1585.5 43.5,-1615.5 392.5,-1615.5 392.5,-1585.5 43.5,-1585.5"/>
<text text-anchor="start" x="50.5" y="-1596.9" font-family="Arial" font-size="14.00" fill="#000000">landing_id    </text>
<text text-anchor="start" x="148.5028" y="-1596.9" font-family="Arial" font-size="14.00" fill="#666666">[bigint]</text>
<polygon fill="none" stroke="#000000" points="43.5,-1555.5 43.5,-1585.5 392.5,-1585.5 392.5,-1555.5 43.5,-1555.5"/>
<text text-anchor="start" x="50.5" y="-1566.9" font-family="Arial" font-size="14.00" fill="#000000">offer_materials_id    </text>
<text text-anchor="start" x="195.939" y="-1566.9" font-family="Arial" font-size="14.00" fill="#666666">[bigint]</text>
<polygon fill="none" stroke="#000000" points="43.5,-1525.5 43.5,-1555.5 392.5,-1555.5 392.5,-1525.5 43.5,-1525.5"/>
<text text-anchor="start" x="50.5" y="-1536.9" font-family="Arial" font-size="14.00" fill="#000000">link_id    </text>
<text text-anchor="start" x="124.3724" y="-1536.9" font-family="Arial" font-size="14.00" fill="#666666">[bigint]</text>
<polygon fill="none" stroke="#000000" points="43.5,-1495.5 43.5,-1525.5 392.5,-1525.5 392.5,-1495.5 43.5,-1495.5"/>
<text text-anchor="start" x="50.5" y="-1506.9" font-family="Arial" font-size="14.00" fill="#000000">promocode_id    </text>
<text text-anchor="start" x="173.3934" y="-1506.9" font-family="Arial" font-size="14.00" fill="#666666">[bigint]</text>
<polygon fill="none" stroke="#000000" points="43.5,-1465.5 43.5,-1495.5 392.5,-1495.5 392.5,-1465.5 43.5,-1465.5"/>
<text text-anchor="start" x="50.5" y="-1476.9" font-family="Arial" font-size="14.00" fill="#000000">click_id    </text>
<text text-anchor="start" x="130.5898" y="-1476.9" font-family="Arial" font-size="14.00" fill="#666666">[varchar(255)]</text>
<polygon fill="none" stroke="#000000" points="43.5,-1435.5 43.5,-1465.5 392.5,-1465.5 392.5,-1435.5 43.5,-1435.5"/>
<text text-anchor="start" x="50.5" y="-1446.9" font-family="Arial" font-size="14.00" fill="#000000">web_id    </text>
<text text-anchor="start" x="129.0484" y="-1446.9" font-family="Arial" font-size="14.00" fill="#666666">[varchar(255)]</text>
<polygon fill="none" stroke="#000000" points="43.5,-1405.5 43.5,-1435.5 392.5,-1435.5 392.5,-1405.5 43.5,-1405.5"/>
<text text-anchor="start" x="50.5" y="-1416.9" font-family="Arial" font-size="14.00" fill="#000000">client_id    </text>
<text text-anchor="start" x="136.0456" y="-1416.9" font-family="Arial" font-size="14.00" fill="#666666">[varchar(255)]</text>
<polygon fill="none" stroke="#000000" points="43.5,-1375.5 43.5,-1405.5 392.5,-1405.5 392.5,-1375.5 43.5,-1375.5"/>
<text text-anchor="start" x="50.5" y="-1386.9" font-family="Arial" font-size="14.00" fill="#000000">pixel_id    </text>
<text text-anchor="start" x="132.155" y="-1386.9" font-family="Arial" font-size="14.00" fill="#666666">[bigint]</text>
<polygon fill="none" stroke="#000000" points="43.5,-1345.5 43.5,-1375.5 392.5,-1375.5 392.5,-1345.5 43.5,-1345.5"/>
<text text-anchor="start" x="50.5" y="-1356.9" font-family="Arial" font-size="14.00" fill="#000000">business_unit_id    </text>
<text text-anchor="start" x="188.9586" y="-1356.9" font-family="Arial" font-size="14.00" fill="#666666">[bigint]</text>
<polygon fill="none" stroke="#000000" points="43.5,-1315.5 43.5,-1345.5 392.5,-1345.5 392.5,-1315.5 43.5,-1315.5"/>
<text text-anchor="start" x="50.5" y="-1326.9" font-family="Arial" font-size="14.00" fill="#000000">fee    </text>
<text text-anchor="start" x="104.1606" y="-1326.9" font-family="Arial" font-size="14.00" fill="#666666">[numeric(12,2)]</text>
<polygon fill="none" stroke="#000000" points="43.5,-1285.5 43.5,-1315.5 392.5,-1315.5 392.5,-1285.5 43.5,-1285.5"/>
<text text-anchor="start" x="50.5" y="-1296.9" font-family="Arial" font-size="14.00" fill="#000000">fee_id    </text>
<text text-anchor="start" x="122.8324" y="-1296.9" font-family="Arial" font-size="14.00" fill="#666666">[bigint]</text>
<polygon fill="none" stroke="#000000" points="43.5,-1255.5 43.5,-1285.5 392.5,-1285.5 392.5,-1255.5 43.5,-1255.5"/>
<text text-anchor="start" x="50.5" y="-1266.9" font-family="Arial" font-size="14.00" fill="#000000">fee_advert    </text>
<text text-anchor="start" x="150.8422" y="-1266.9" font-family="Arial" font-size="14.00" fill="#666666">[numeric(12,2)]</text>
<polygon fill="none" stroke="#000000" points="43.5,-1225.5 43.5,-1255.5 392.5,-1255.5 392.5,-1225.5 43.5,-1225.5"/>
<text text-anchor="start" x="50.5" y="-1236.9" font-family="Arial" font-size="14.00" fill="#000000">model    </text>
<text text-anchor="start" x="122.8198" y="-1236.9" font-family="Arial" font-size="14.00" fill="#666666">[varchar(255)]</text>
<polygon fill="none" stroke="#000000" points="43.5,-1195.5 43.5,-1225.5 392.5,-1225.5 392.5,-1195.5 43.5,-1195.5"/>
<text text-anchor="start" x="50.5" y="-1206.9" font-family="Arial" font-size="14.00" fill="#000000">gross_amount    </text>
<text text-anchor="start" x="173.3948" y="-1206.9" font-family="Arial" font-size="14.00" fill="#666666">[numeric(12,2)]</text>
<polygon fill="none" stroke="#000000" points="43.5,-1165.5 43.5,-1195.5 392.5,-1195.5 392.5,-1165.5 43.5,-1165.5"/>
<text text-anchor="start" x="50.5" y="-1176.9" font-family="Arial" font-size="14.00" fill="#000000">amount    </text>
<text text-anchor="start" x="131.3864" y="-1176.9" font-family="Arial" font-size="14.00" fill="#666666">[numeric(12,2)]</text>
<polygon fill="none" stroke="#000000" points="43.5,-1135.5 43.5,-1165.5 392.5,-1165.5 392.5,-1135.5 43.5,-1135.5"/>
<text text-anchor="start" x="50.5" y="-1146.9" font-family="Arial" font-size="14.00" fill="#000000">amount_advert    </text>
<text text-anchor="start" x="178.068" y="-1146.9" font-family="Arial" font-size="14.00" fill="#666666">[numeric(12,2)]</text>
<polygon fill="none" stroke="#000000" points="43.5,-1105.5 43.5,-1135.5 392.5,-1135.5 392.5,-1105.5 43.5,-1105.5"/>
<text text-anchor="start" x="50.5" y="-1116.9" font-family="Arial" font-size="14.00" fill="#000000">cnt_products    </text>
<text text-anchor="start" x="164.8422" y="-1116.9" font-family="Arial" font-size="14.00" fill="#666666">[integer]</text>
<polygon fill="none" stroke="#000000" points="43.5,-1075.5 43.5,-1105.5 392.5,-1105.5 392.5,-1075.5 43.5,-1075.5"/>
<text text-anchor="start" x="50.5" y="-1086.9" font-family="Arial" font-size="14.00" fill="#000000">sale    </text>
<text text-anchor="start" x="110.3766" y="-1086.9" font-family="Arial" font-size="14.00" fill="#666666">[boolean]</text>
<polygon fill="none" stroke="#000000" points="43.5,-1045.5 43.5,-1075.5 392.5,-1075.5 392.5,-1045.5 43.5,-1045.5"/>
<text text-anchor="start" x="50.5" y="-1056.9" font-family="Arial" font-size="14.00" fill="#000000">reject    </text>
<text text-anchor="start" x="118.9278" y="-1056.9" font-family="Arial" font-size="14.00" fill="#666666">[boolean]</text>
<polygon fill="none" stroke="#000000" points="43.5,-1015.5 43.5,-1045.5 392.5,-1045.5 392.5,-1015.5 43.5,-1015.5"/>
<text text-anchor="start" x="50.5" y="-1026.9" font-family="Arial" font-size="14.00" fill="#000000">reestr_id    </text>
<text text-anchor="start" x="139.1536" y="-1026.9" font-family="Arial" font-size="14.00" fill="#666666">[bigint]</text>
<polygon fill="none" stroke="#000000" points="43.5,-985.5 43.5,-1015.5 392.5,-1015.5 392.5,-985.5 43.5,-985.5"/>
<text text-anchor="start" x="50.5" y="-996.9" font-family="Arial" font-size="14.00" fill="#000000">type    </text>
<text text-anchor="start" x="111.1606" y="-996.9" font-family="Arial" font-size="14.00" fill="#666666">[varchar(255)]</text>
<polygon fill="none" stroke="#000000" points="43.5,-955.5 43.5,-985.5 392.5,-985.5 392.5,-955.5 43.5,-955.5"/>
<text text-anchor="start" x="50.5" y="-966.9" font-family="Arial" font-size="14.00" fill="#000000">comment    </text>
<text text-anchor="start" x="142.2644" y="-966.9" font-family="Arial" font-size="14.00" fill="#666666">[text]</text>
<polygon fill="none" stroke="#000000" points="43.5,-925.5 43.5,-955.5 392.5,-955.5 392.5,-925.5 43.5,-925.5"/>
<text text-anchor="start" x="50.5" y="-936.9" font-family="Arial" font-size="14.00" fill="#000000">is_first    </text>
<text text-anchor="start" x="125.1424" y="-936.9" font-family="Arial" font-size="14.00" fill="#666666">[boolean]</text>
<polygon fill="none" stroke="#000000" points="43.5,-895.5 43.5,-925.5 392.5,-925.5 392.5,-895.5 43.5,-895.5"/>
<text text-anchor="start" x="50.5" y="-906.9" font-family="Arial" font-size="14.00" fill="#000000">days_since_first    </text>
<text text-anchor="start" x="185.0554" y="-906.9" font-family="Arial" font-size="14.00" fill="#666666">[integer]</text>
<polygon fill="none" stroke="#000000" points="43.5,-865.5 43.5,-895.5 392.5,-895.5 392.5,-865.5 43.5,-865.5"/>
<text text-anchor="start" x="50.5" y="-876.9" font-family="Arial" font-size="14.00" fill="#000000">status    </text>
<text text-anchor="start" x="122.0512" y="-876.9" font-family="Arial" font-size="14.00" fill="#666666">[varchar(255)]</text>
<polygon fill="none" stroke="#000000" points="43.5,-835.5 43.5,-865.5 392.5,-865.5 392.5,-835.5 43.5,-835.5"/>
<text text-anchor="start" x="50.5" y="-846.9" font-family="Arial" font-size="14.00" fill="#000000">status_cnt    </text>
<text text-anchor="start" x="148.507" y="-846.9" font-family="Arial" font-size="14.00" fill="#666666">[integer]</text>
<polygon fill="none" stroke="#000000" points="43.5,-805.5 43.5,-835.5 392.5,-835.5 392.5,-805.5 43.5,-805.5"/>
<text text-anchor="start" x="50.3717" y="-816.9" font-family="Arial" font-size="14.00" fill="#000000">status_datetime    </text>
<text text-anchor="start" x="183.3843" y="-816.9" font-family="Arial" font-size="14.00" fill="#666666">[timestamp(0) without time zone]</text>
<polygon fill="none" stroke="#000000" points="43.5,-775.5 43.5,-805.5 392.5,-805.5 392.5,-775.5 43.5,-775.5"/>
<text text-anchor="start" x="50.5" y="-786.9" font-family="Arial" font-size="14.00" fill="#000000">last_updated    </text>
<text text-anchor="start" x="164.8534" y="-786.9" font-family="Arial" font-size="14.00" fill="#666666">[timestamp(0) without time zone]</text>
<polygon fill="none" stroke="#000000" points="43.5,-745.5 43.5,-775.5 392.5,-775.5 392.5,-745.5 43.5,-745.5"/>
<text text-anchor="start" x="50.5" y="-756.9" font-family="Arial" font-size="14.00" fill="#000000">wholesale    </text>
<text text-anchor="start" x="146.9376" y="-756.9" font-family="Arial" font-size="14.00" fill="#666666">[boolean]</text>
<polygon fill="none" stroke="#000000" points="43.5,-715.5 43.5,-745.5 392.5,-745.5 392.5,-715.5 43.5,-715.5"/>
<text text-anchor="start" x="50.5" y="-726.9" font-family="Arial" font-size="14.00" fill="#000000">region    </text>
<text text-anchor="start" x="123.6024" y="-726.9" font-family="Arial" font-size="14.00" fill="#666666">[varchar(255)]</text>
<polygon fill="none" stroke="#000000" points="43.5,-685.5 43.5,-715.5 392.5,-715.5 392.5,-685.5 43.5,-685.5"/>
<text text-anchor="start" x="50.5" y="-696.9" font-family="Arial" font-size="14.00" fill="#000000">banned_fraud_id    </text>
<text text-anchor="start" x="189.7538" y="-696.9" font-family="Arial" font-size="14.00" fill="#666666">[bigint]</text>
<polygon fill="none" stroke="#000000" points="43.5,-655.5 43.5,-685.5 392.5,-685.5 392.5,-655.5 43.5,-655.5"/>
<text text-anchor="start" x="50.5" y="-666.9" font-family="Arial" font-size="14.00" fill="#000000">banned_link_id    </text>
<text text-anchor="start" x="178.8506" y="-666.9" font-family="Arial" font-size="14.00" fill="#666666">[bigint]</text>
<polygon fill="none" stroke="#000000" points="43.5,-625.5 43.5,-655.5 392.5,-655.5 392.5,-625.5 43.5,-625.5"/>
<text text-anchor="start" x="50.5" y="-636.9" font-family="Arial" font-size="14.00" fill="#000000">flag_create_or_update_by_manager    </text>
<text text-anchor="start" x="310.3428" y="-636.9" font-family="Arial" font-size="14.00" fill="#666666">[boolean]</text>
<polygon fill="none" stroke="#000000" points="43.5,-595.5 43.5,-625.5 392.5,-625.5 392.5,-595.5 43.5,-595.5"/>
<text text-anchor="start" x="50.5" y="-606.9" font-family="Arial" font-size="14.00" fill="#000000">in_finance_matching    </text>
<text text-anchor="start" x="213.075" y="-606.9" font-family="Arial" font-size="14.00" fill="#666666">[boolean]</text>
<polygon fill="none" stroke="#000000" points="43.5,-565.5 43.5,-595.5 392.5,-595.5 392.5,-565.5 43.5,-565.5"/>
<text text-anchor="start" x="50.5" y="-576.9" font-family="Arial" font-size="14.00" fill="#000000">date    </text>
<text text-anchor="start" x="111.9432" y="-576.9" font-family="Arial" font-size="14.00" fill="#666666">[date]</text>
<polygon fill="none" stroke="#000000" points="43.5,-535.5 43.5,-565.5 392.5,-565.5 392.5,-535.5 43.5,-535.5"/>
<text text-anchor="start" x="50.5" y="-546.9" font-family="Arial" font-size="14.00" fill="#000000">created_at    </text>
<text text-anchor="start" x="150.8422" y="-546.9" font-family="Arial" font-size="14.00" fill="#666666">[timestamp(0) without time zone]</text>
<polygon fill="none" stroke="#000000" points="43.5,-505.5 43.5,-535.5 392.5,-535.5 392.5,-505.5 43.5,-505.5"/>
<text text-anchor="start" x="50.5" y="-516.9" font-family="Arial" font-size="14.00" fill="#000000">updated_at    </text>
<text text-anchor="start" x="154.7468" y="-516.9" font-family="Arial" font-size="14.00" fill="#666666">[timestamp(0) without time zone]</text>
<polygon fill="none" stroke="#000000" points="43.5,-475.5 43.5,-505.5 392.5,-505.5 392.5,-475.5 43.5,-475.5"/>
<text text-anchor="start" x="50.5" y="-486.9" font-family="Arial" font-size="14.00" fill="#000000">deleted_at    </text>
<text text-anchor="start" x="150.0708" y="-486.9" font-family="Arial" font-size="14.00" fill="#666666">[timestamp(0) without time zone]</text>
<polygon fill="none" stroke="#000000" points="43.5,-445.5 43.5,-475.5 392.5,-475.5 392.5,-445.5 43.5,-445.5"/>
<text text-anchor="start" x="50.5" y="-456.9" font-family="Arial" font-size="14.00" fill="#000000">allowance    </text>
<text text-anchor="start" x="146.9376" y="-456.9" font-family="Arial" font-size="14.00" fill="#666666">[numeric(5,0)]</text>
<polygon fill="none" stroke="#000000" points="43.5,-415.5 43.5,-445.5 392.5,-445.5 392.5,-415.5 43.5,-415.5"/>
<text text-anchor="start" x="50.5" y="-426.9" font-family="Arial" font-size="14.00" fill="#000000">flag_hard_set_amount    </text>
<text text-anchor="start" x="223.9782" y="-426.9" font-family="Arial" font-size="14.00" fill="#666666">[boolean]</text>
<polygon fill="none" stroke="#000000" points="43.5,-385.5 43.5,-415.5 392.5,-415.5 392.5,-385.5 43.5,-385.5"/>
<text text-anchor="start" x="50.5" y="-396.9" font-family="Arial" font-size="14.00" fill="#000000">is_blocked    </text>
<text text-anchor="start" x="150.831" y="-396.9" font-family="Arial" font-size="14.00" fill="#666666">[boolean]</text>
</g>
<!-- public.orders&#45;&gt;public.business_units -->
<g id="edge1" class="edge">
<title>public.orders:business_unit_id&#45;&gt;public.business_units:category_id</title>
<path fill="none" stroke="#000000" d="M400.2177,-1353.7702C446.7297,-1267.8078 424.1155,-386.4904 392.5,-343 362.0044,-301.0501 311.9956,-348.9499 281.5,-307 256.2812,-272.309 238.6111,-210.5 281.5,-210.5"/>
<polygon fill="#000000" stroke="#000000" points="400.037,-1353.9278 389.5425,-1357.1083 396.2685,-1357.2139 392.5,-1360.5 392.5,-1360.5 392.5,-1360.5 396.2685,-1357.2139 395.4575,-1363.8917 400.037,-1353.9278 400.037,-1353.9278"/>
<text text-anchor="start" x="399.2" y="-1370.5" font-family="Arial" font-size="10.00" fill="#000000">FOREIGN KEY (business_unit_id) REFERENCES business_units(category_id)</text>
</g>
<!-- public.rate_rules -->
<g id="node3" class="node">
<title>public.rate_rules</title>
<polygon fill="#efefef" stroke="transparent" points="496.5,-1420.5 496.5,-1455.5 816.5,-1455.5 816.5,-1420.5 496.5,-1420.5"/>
<polygon fill="none" stroke="#000000" points="496.5,-1420.5 496.5,-1455.5 816.5,-1455.5 816.5,-1420.5 496.5,-1420.5"/>
<text text-anchor="start" x="526.7055" y="-1433.3" font-family="Arial Bold" font-size="18.00" fill="#000000">public.rate_rules</text>
<text text-anchor="start" x="658.7265" y="-1433.3" font-family="Arial" font-size="14.00" fill="#000000">    </text>
<text text-anchor="start" x="692.9313" y="-1433.3" font-family="Arial" font-size="14.00" fill="#666666">[BASE TABLE]</text>
<polygon fill="none" stroke="#000000" points="496.5,-1390.5 496.5,-1420.5 816.5,-1420.5 816.5,-1390.5 496.5,-1390.5"/>
<text text-anchor="start" x="503.5" y="-1401.9" font-family="Arial" font-size="14.00" fill="#000000">id    </text>
<text text-anchor="start" x="548.594" y="-1401.9" font-family="Arial" font-size="14.00" fill="#666666">[bigint]</text>
<polygon fill="none" stroke="#000000" points="496.5,-1360.5 496.5,-1390.5 816.5,-1390.5 816.5,-1360.5 496.5,-1360.5"/>
<text text-anchor="start" x="503.5" y="-1371.9" font-family="Arial" font-size="14.00" fill="#000000">partner_id    </text>
<text text-anchor="start" x="600.7188" y="-1371.9" font-family="Arial" font-size="14.00" fill="#666666">[bigint]</text>
<polygon fill="none" stroke="#000000" points="496.5,-1330.5 496.5,-1360.5 816.5,-1360.5 816.5,-1330.5 496.5,-1330.5"/>
<text text-anchor="start" x="503.5" y="-1341.9" font-family="Arial" font-size="14.00" fill="#000000">legal_status    </text>
<text text-anchor="start" x="612.3948" y="-1341.9" font-family="Arial" font-size="14.00" fill="#666666">[varchar(255)]</text>
<polygon fill="none" stroke="#000000" points="496.5,-1300.5 496.5,-1330.5 816.5,-1330.5 816.5,-1300.5 496.5,-1300.5"/>
<text text-anchor="start" x="503.5" y="-1311.9" font-family="Arial" font-size="14.00" fill="#000000">partner_type    </text>
<text text-anchor="start" x="616.2854" y="-1311.9" font-family="Arial" font-size="14.00" fill="#666666">[varchar(255)]</text>
<polygon fill="none" stroke="#000000" points="496.5,-1270.5 496.5,-1300.5 816.5,-1300.5 816.5,-1270.5 496.5,-1270.5"/>
<text text-anchor="start" x="503.5" y="-1281.9" font-family="Arial" font-size="14.00" fill="#000000">business_unit_id    </text>
<text text-anchor="start" x="641.9586" y="-1281.9" font-family="Arial" font-size="14.00" fill="#666666">[bigint]</text>
<polygon fill="none" stroke="#000000" points="496.5,-1240.5 496.5,-1270.5 816.5,-1270.5 816.5,-1240.5 496.5,-1240.5"/>
<text text-anchor="start" x="503.5" y="-1251.9" font-family="Arial" font-size="14.00" fill="#000000">fee    </text>
<text text-anchor="start" x="557.1606" y="-1251.9" font-family="Arial" font-size="14.00" fill="#666666">[numeric(10,2)]</text>
<polygon fill="none" stroke="#000000" points="496.5,-1210.5 496.5,-1240.5 816.5,-1240.5 816.5,-1210.5 496.5,-1210.5"/>
<text text-anchor="start" x="503.5" y="-1221.9" font-family="Arial" font-size="14.00" fill="#000000">fee_advert    </text>
<text text-anchor="start" x="603.8422" y="-1221.9" font-family="Arial" font-size="14.00" fill="#666666">[numeric(10,2)]</text>
<polygon fill="none" stroke="#000000" points="496.5,-1180.5 496.5,-1210.5 816.5,-1210.5 816.5,-1180.5 496.5,-1180.5"/>
<text text-anchor="start" x="503.5" y="-1191.9" font-family="Arial" font-size="14.00" fill="#000000">offer_id    </text>
<text text-anchor="start" x="584.3836" y="-1191.9" font-family="Arial" font-size="14.00" fill="#666666">[bigint]</text>
<polygon fill="none" stroke="#000000" points="496.5,-1150.5 496.5,-1180.5 816.5,-1180.5 816.5,-1150.5 496.5,-1150.5"/>
<text text-anchor="start" x="503.5" y="-1161.9" font-family="Arial" font-size="14.00" fill="#000000">link_id    </text>
<text text-anchor="start" x="577.3724" y="-1161.9" font-family="Arial" font-size="14.00" fill="#666666">[bigint]</text>
<polygon fill="none" stroke="#000000" points="496.5,-1120.5 496.5,-1150.5 816.5,-1150.5 816.5,-1120.5 496.5,-1120.5"/>
<text text-anchor="start" x="503.5" y="-1131.9" font-family="Arial" font-size="14.00" fill="#000000">progressive_value    </text>
<text text-anchor="start" x="651.2826" y="-1131.9" font-family="Arial" font-size="14.00" fill="#666666">[bigint]</text>
<polygon fill="none" stroke="#000000" points="496.5,-1090.5 496.5,-1120.5 816.5,-1120.5 816.5,-1090.5 496.5,-1090.5"/>
<text text-anchor="start" x="503.5" y="-1101.9" font-family="Arial" font-size="14.00" fill="#000000">progressive_param    </text>
<text text-anchor="start" x="657.4972" y="-1101.9" font-family="Arial" font-size="14.00" fill="#666666">[varchar(255)]</text>
<polygon fill="none" stroke="#000000" points="496.5,-1060.5 496.5,-1090.5 816.5,-1090.5 816.5,-1060.5 496.5,-1060.5"/>
<text text-anchor="start" x="503.5" y="-1071.9" font-family="Arial" font-size="14.00" fill="#000000">rate_type    </text>
<text text-anchor="start" x="596.0596" y="-1071.9" font-family="Arial" font-size="14.00" fill="#666666">[varchar(255)]</text>
<polygon fill="none" stroke="#000000" points="496.5,-1030.5 496.5,-1060.5 816.5,-1060.5 816.5,-1030.5 496.5,-1030.5"/>
<text text-anchor="start" x="503.5" y="-1041.9" font-family="Arial" font-size="14.00" fill="#000000">date_start    </text>
<text text-anchor="start" x="599.9502" y="-1041.9" font-family="Arial" font-size="14.00" fill="#666666">[timestamp(0) without time zone]</text>
<polygon fill="none" stroke="#000000" points="496.5,-1000.5 496.5,-1030.5 816.5,-1030.5 816.5,-1000.5 496.5,-1000.5"/>
<text text-anchor="start" x="503.5" y="-1011.9" font-family="Arial" font-size="14.00" fill="#000000">date_end    </text>
<text text-anchor="start" x="596.0736" y="-1011.9" font-family="Arial" font-size="14.00" fill="#666666">[timestamp(0) without time zone]</text>
<polygon fill="none" stroke="#000000" points="496.5,-970.5 496.5,-1000.5 816.5,-1000.5 816.5,-970.5 496.5,-970.5"/>
<text text-anchor="start" x="503.5" y="-981.9" font-family="Arial" font-size="14.00" fill="#000000">created_at    </text>
<text text-anchor="start" x="603.8422" y="-981.9" font-family="Arial" font-size="14.00" fill="#666666">[timestamp(0) without time zone]</text>
<polygon fill="none" stroke="#000000" points="496.5,-940.5 496.5,-970.5 816.5,-970.5 816.5,-940.5 496.5,-940.5"/>
<text text-anchor="start" x="503.2546" y="-951.9" font-family="Arial" font-size="14.00" fill="#000000">updated_at    </text>
<text text-anchor="start" x="607.5014" y="-951.9" font-family="Arial" font-size="14.00" fill="#666666">[timestamp(0) without time zone]</text>
<polygon fill="none" stroke="#000000" points="496.5,-910.5 496.5,-940.5 816.5,-940.5 816.5,-910.5 496.5,-910.5"/>
<text text-anchor="start" x="503.5" y="-921.9" font-family="Arial" font-size="14.00" fill="#000000">deleted_at    </text>
<text text-anchor="start" x="603.0708" y="-921.9" font-family="Arial" font-size="14.00" fill="#666666">[timestamp(0) without time zone]</text>
</g>
<!-- public.rate_rules&#45;&gt;public.business_units -->
<g id="edge2" class="edge">
<title>public.rate_rules:business_unit_id&#45;&gt;public.business_units:category_id</title>
<path fill="none" stroke="#000000" d="M486.3516,-1283.5952C379.3638,-1240.4 579.0488,-475.3969 593.5,-307 597.1671,-264.2682 636.3889,-210.5 593.5,-210.5"/>
<polygon fill="#000000" stroke="#000000" points="486.6716,-1283.6552 495.6699,-1289.9228 491.5858,-1284.5776 496.5,-1285.5 496.5,-1285.5 496.5,-1285.5 491.5858,-1284.5776 497.3301,-1281.0772 486.6716,-1283.6552 486.6716,-1283.6552"/>
<text text-anchor="start" x="503.2" y="-1295.5" font-family="Arial" font-size="10.00" fill="#000000">FOREIGN KEY (business_unit_id) REFERENCES business_units(category_id)</text>
</g>
</g>
</svg>
