<?xml version="1.0" encoding="UTF-8" standalone="no"?>
<!DOCTYPE svg PUBLIC "-//W3C//DTD SVG 1.1//EN"
 "http://www.w3.org/Graphics/SVG/1.1/DTD/svg11.dtd">
<!-- Generated by graphviz version 2.40.1 (20161225.0304)
 -->
<!-- Title: public.pixel_log Pages: 1 -->
<svg width="386pt" height="615pt"
 viewBox="0.00 0.00 386.00 615.00" xmlns="http://www.w3.org/2000/svg" xmlns:xlink="http://www.w3.org/1999/xlink">
<g id="graph0" class="graph" transform="scale(1 1) rotate(0) translate(4 611)">
<title>public.pixel_log</title>
<polygon fill="#ffffff" stroke="transparent" points="-4,4 -4,-611 382,-611 382,4 -4,4"/>
<!-- public.pixel_log -->
<g id="node1" class="node">
<title>public.pixel_log</title>
<polygon fill="#efefef" stroke="transparent" points="46,-525.5 46,-560.5 332,-560.5 332,-525.5 46,-525.5"/>
<polygon fill="none" stroke="#000000" points="46,-525.5 46,-560.5 332,-560.5 332,-525.5 46,-525.5"/>
<text text-anchor="start" x="63.7046" y="-538.3" font-family="Arial Bold" font-size="18.00" fill="#000000">public.pixel_log</text>
<text text-anchor="start" x="186.7274" y="-538.3" font-family="Arial" font-size="14.00" fill="#000000">    </text>
<text text-anchor="start" x="220.9322" y="-538.3" font-family="Arial" font-size="14.00" fill="#666666">[BASE TABLE]</text>
<polygon fill="none" stroke="#000000" points="46,-495.5 46,-525.5 332,-525.5 332,-495.5 46,-495.5"/>
<text text-anchor="start" x="53" y="-506.9" font-family="Arial" font-size="14.00" fill="#000000">id </text>
<text text-anchor="start" x="67.7798" y="-506.9" font-family="Arial" font-size="14.00" fill="#666666">[bigint]</text>
<polygon fill="none" stroke="#000000" points="46,-465.5 46,-495.5 332,-495.5 332,-465.5 46,-465.5"/>
<text text-anchor="start" x="53" y="-476.9" font-family="Arial" font-size="14.00" fill="#000000">data </text>
<text text-anchor="start" x="84.129" y="-476.9" font-family="Arial" font-size="14.00" fill="#666666">[json]</text>
<polygon fill="none" stroke="#000000" points="46,-435.5 46,-465.5 332,-465.5 332,-435.5 46,-435.5"/>
<text text-anchor="start" x="53" y="-446.9" font-family="Arial" font-size="14.00" fill="#000000">ip </text>
<text text-anchor="start" x="67.7798" y="-446.9" font-family="Arial" font-size="14.00" fill="#666666">[varchar(20)]</text>
<polygon fill="none" stroke="#000000" points="46,-405.5 46,-435.5 332,-435.5 332,-405.5 46,-405.5"/>
<text text-anchor="start" x="53" y="-416.9" font-family="Arial" font-size="14.00" fill="#000000">is_valid </text>
<text text-anchor="start" x="103.5582" y="-416.9" font-family="Arial" font-size="14.00" fill="#666666">[boolean]</text>
<polygon fill="none" stroke="#000000" points="46,-375.5 46,-405.5 332,-405.5 332,-375.5 46,-375.5"/>
<text text-anchor="start" x="53" y="-386.9" font-family="Arial" font-size="14.00" fill="#000000">is_click </text>
<text text-anchor="start" x="101.993" y="-386.9" font-family="Arial" font-size="14.00" fill="#666666">[boolean]</text>
<polygon fill="none" stroke="#000000" points="46,-345.5 46,-375.5 332,-375.5 332,-345.5 46,-345.5"/>
<text text-anchor="start" x="53" y="-356.9" font-family="Arial" font-size="14.00" fill="#000000">is_order </text>
<text text-anchor="start" x="107.4488" y="-356.9" font-family="Arial" font-size="14.00" fill="#666666">[boolean]</text>
<polygon fill="none" stroke="#000000" points="46,-315.5 46,-345.5 332,-345.5 332,-315.5 46,-315.5"/>
<text text-anchor="start" x="53" y="-326.9" font-family="Arial" font-size="14.00" fill="#000000">parsed_client_id </text>
<text text-anchor="start" x="158.805" y="-326.9" font-family="Arial" font-size="14.00" fill="#666666">[character(40)]</text>
<polygon fill="none" stroke="#000000" points="46,-285.5 46,-315.5 332,-315.5 332,-285.5 46,-285.5"/>
<text text-anchor="start" x="53" y="-296.9" font-family="Arial" font-size="14.00" fill="#000000">parsed_partner_id </text>
<text text-anchor="start" x="170.4782" y="-296.9" font-family="Arial" font-size="14.00" fill="#666666">[character(40)]</text>
<polygon fill="none" stroke="#000000" points="46,-255.5 46,-285.5 332,-285.5 332,-255.5 46,-255.5"/>
<text text-anchor="start" x="53" y="-266.9" font-family="Arial" font-size="14.00" fill="#000000">parsed_link_id </text>
<text text-anchor="start" x="147.1318" y="-266.9" font-family="Arial" font-size="14.00" fill="#666666">[character(40)]</text>
<polygon fill="none" stroke="#000000" points="46,-225.5 46,-255.5 332,-255.5 332,-225.5 46,-225.5"/>
<text text-anchor="start" x="53" y="-236.9" font-family="Arial" font-size="14.00" fill="#000000">parsed_order_id </text>
<text text-anchor="start" x="158.805" y="-236.9" font-family="Arial" font-size="14.00" fill="#666666">[character(40)]</text>
<polygon fill="none" stroke="#000000" points="46,-195.5 46,-225.5 332,-225.5 332,-195.5 46,-195.5"/>
<text text-anchor="start" x="53" y="-206.9" font-family="Arial" font-size="14.00" fill="#000000">parsed_click_id </text>
<text text-anchor="start" x="153.3492" y="-206.9" font-family="Arial" font-size="14.00" fill="#666666">[character(40)]</text>
<polygon fill="none" stroke="#000000" points="46,-165.5 46,-195.5 332,-195.5 332,-165.5 46,-165.5"/>
<text text-anchor="start" x="53" y="-176.9" font-family="Arial" font-size="14.00" fill="#000000">parsed_web_id </text>
<text text-anchor="start" x="151.8078" y="-176.9" font-family="Arial" font-size="14.00" fill="#666666">[character(40)]</text>
<polygon fill="none" stroke="#000000" points="46,-135.5 46,-165.5 332,-165.5 332,-135.5 46,-135.5"/>
<text text-anchor="start" x="53" y="-146.9" font-family="Arial" font-size="14.00" fill="#000000">saved_offer_id </text>
<text text-anchor="start" x="148.6998" y="-146.9" font-family="Arial" font-size="14.00" fill="#666666">[character(40)]</text>
<polygon fill="none" stroke="#000000" points="46,-105.5 46,-135.5 332,-135.5 332,-105.5 46,-105.5"/>
<text text-anchor="start" x="53" y="-116.9" font-family="Arial" font-size="14.00" fill="#000000">saved_clicks_id </text>
<text text-anchor="start" x="154.906" y="-116.9" font-family="Arial" font-size="14.00" fill="#666666">[character(40)]</text>
<polygon fill="none" stroke="#000000" points="46,-75.5 46,-105.5 332,-105.5 332,-75.5 46,-75.5"/>
<text text-anchor="start" x="53" y="-86.9" font-family="Arial" font-size="14.00" fill="#000000">status </text>
<text text-anchor="start" x="94.237" y="-86.9" font-family="Arial" font-size="14.00" fill="#666666">[text]</text>
<polygon fill="none" stroke="#000000" points="46,-45.5 46,-75.5 332,-75.5 332,-45.5 46,-45.5"/>
<text text-anchor="start" x="52.864" y="-56.9" font-family="Arial" font-size="14.00" fill="#000000">created_at </text>
<text text-anchor="start" x="122.892" y="-56.9" font-family="Arial" font-size="14.00" fill="#666666">[timestamp(0) without time zone]</text>
<polygon fill="none" stroke="#000000" stroke-width="3" points="44.5,-44.5 44.5,-562.5 333.5,-562.5 333.5,-44.5 44.5,-44.5"/>
</g>
</g>
</svg>
