<?xml version="1.0" encoding="UTF-8" standalone="no"?>
<!DOCTYPE svg PUBLIC "-//W3C//DTD SVG 1.1//EN"
 "http://www.w3.org/Graphics/SVG/1.1/DTD/svg11.dtd">
<!-- Generated by graphviz version 2.40.1 (20161225.0304)
 -->
<!-- Title: public.offers_meta Pages: 1 -->
<svg width="594pt" height="2602pt"
 viewBox="0.00 0.00 594.00 2602.00" xmlns="http://www.w3.org/2000/svg" xmlns:xlink="http://www.w3.org/1999/xlink">
<g id="graph0" class="graph" transform="scale(1 1) rotate(0) translate(4 2598)">
<title>public.offers_meta</title>
<polygon fill="#ffffff" stroke="transparent" points="-4,4 -4,-2598 590,-2598 590,4 -4,4"/>
<!-- public.offers_meta -->
<g id="node1" class="node">
<title>public.offers_meta</title>
<polygon fill="#efefef" stroke="transparent" points="58,-2512.5 58,-2547.5 348,-2547.5 348,-2512.5 58,-2512.5"/>
<polygon fill="none" stroke="#000000" points="58,-2512.5 58,-2547.5 348,-2547.5 348,-2512.5 58,-2512.5"/>
<text text-anchor="start" x="65.7004" y="-2525.3" font-family="Arial Bold" font-size="18.00" fill="#000000">public.offers_meta</text>
<text text-anchor="start" x="212.7316" y="-2525.3" font-family="Arial" font-size="14.00" fill="#000000">    </text>
<text text-anchor="start" x="246.9364" y="-2525.3" font-family="Arial" font-size="14.00" fill="#666666">[BASE TABLE]</text>
<polygon fill="none" stroke="#000000" points="58,-2482.5 58,-2512.5 348,-2512.5 348,-2482.5 58,-2482.5"/>
<text text-anchor="start" x="65" y="-2493.9" font-family="Arial" font-size="14.00" fill="#000000">offer_id </text>
<text text-anchor="start" x="115.5694" y="-2493.9" font-family="Arial" font-size="14.00" fill="#666666">[bigint]</text>
<polygon fill="none" stroke="#000000" points="58,-2452.5 58,-2482.5 348,-2482.5 348,-2452.5 58,-2452.5"/>
<text text-anchor="start" x="65" y="-2463.9" font-family="Arial" font-size="14.00" fill="#000000">meta_name </text>
<text text-anchor="start" x="142.798" y="-2463.9" font-family="Arial" font-size="14.00" fill="#666666">[varchar(255)]</text>
<polygon fill="none" stroke="#000000" points="58,-2422.5 58,-2452.5 348,-2452.5 348,-2422.5 58,-2422.5"/>
<text text-anchor="start" x="65" y="-2433.9" font-family="Arial" font-size="14.00" fill="#000000">meta_value </text>
<text text-anchor="start" x="141.244" y="-2433.9" font-family="Arial" font-size="14.00" fill="#666666">[json]</text>
<polygon fill="none" stroke="#000000" points="58,-2392.5 58,-2422.5 348,-2422.5 348,-2392.5 58,-2392.5"/>
<text text-anchor="start" x="65" y="-2403.9" font-family="Arial" font-size="14.00" fill="#000000">created_at </text>
<text text-anchor="start" x="135.028" y="-2403.9" font-family="Arial" font-size="14.00" fill="#666666">[timestamp(0) without time zone]</text>
<polygon fill="none" stroke="#000000" points="58,-2362.5 58,-2392.5 348,-2392.5 348,-2362.5 58,-2362.5"/>
<text text-anchor="start" x="64.9117" y="-2373.9" font-family="Arial" font-size="14.00" fill="#000000">updated_at </text>
<text text-anchor="start" x="138.8443" y="-2373.9" font-family="Arial" font-size="14.00" fill="#666666">[timestamp(0) without time zone]</text>
<polygon fill="none" stroke="#000000" stroke-width="3" points="56.5,-2361.5 56.5,-2549.5 349.5,-2549.5 349.5,-2361.5 56.5,-2361.5"/>
</g>
<!-- public.offers -->
<g id="node2" class="node">
<title>public.offers</title>
<polygon fill="#efefef" stroke="transparent" points="43,-2202.5 43,-2237.5 363,-2237.5 363,-2202.5 43,-2202.5"/>
<polygon fill="none" stroke="#000000" points="43,-2202.5 43,-2237.5 363,-2237.5 363,-2202.5 43,-2202.5"/>
<text text-anchor="start" x="90.7069" y="-2215.3" font-family="Arial Bold" font-size="18.00" fill="#000000">public.offers</text>
<text text-anchor="start" x="187.7251" y="-2215.3" font-family="Arial" font-size="14.00" fill="#000000">    </text>
<text text-anchor="start" x="221.9299" y="-2215.3" font-family="Arial" font-size="14.00" fill="#666666">[BASE TABLE]</text>
<polygon fill="none" stroke="#000000" points="43,-2172.5 43,-2202.5 363,-2202.5 363,-2172.5 43,-2172.5"/>
<text text-anchor="start" x="50" y="-2183.9" font-family="Arial" font-size="14.00" fill="#000000">id    </text>
<text text-anchor="start" x="95.094" y="-2183.9" font-family="Arial" font-size="14.00" fill="#666666">[bigint]</text>
<polygon fill="none" stroke="#000000" points="43,-2142.5 43,-2172.5 363,-2172.5 363,-2142.5 43,-2142.5"/>
<text text-anchor="start" x="50" y="-2153.9" font-family="Arial" font-size="14.00" fill="#000000">user_id    </text>
<text text-anchor="start" x="130.1024" y="-2153.9" font-family="Arial" font-size="14.00" fill="#666666">[bigint]</text>
<polygon fill="none" stroke="#000000" points="43,-2112.5 43,-2142.5 363,-2142.5 363,-2112.5 43,-2112.5"/>
<text text-anchor="start" x="50" y="-2123.9" font-family="Arial" font-size="14.00" fill="#000000">category_id    </text>
<text text-anchor="start" x="156.5582" y="-2123.9" font-family="Arial" font-size="14.00" fill="#666666">[bigint]</text>
<polygon fill="none" stroke="#000000" points="43,-2082.5 43,-2112.5 363,-2112.5 363,-2082.5 43,-2082.5"/>
<text text-anchor="start" x="50" y="-2093.9" font-family="Arial" font-size="14.00" fill="#000000">offer_name    </text>
<text text-anchor="start" x="155.0028" y="-2093.9" font-family="Arial" font-size="14.00" fill="#666666">[varchar(255)]</text>
<polygon fill="none" stroke="#000000" points="43,-2052.5 43,-2082.5 363,-2082.5 363,-2052.5 43,-2052.5"/>
<text text-anchor="start" x="50" y="-2063.9" font-family="Arial" font-size="14.00" fill="#000000">model    </text>
<text text-anchor="start" x="122.3198" y="-2063.9" font-family="Arial" font-size="14.00" fill="#666666">[varchar(255)]</text>
<polygon fill="none" stroke="#000000" points="43,-2022.5 43,-2052.5 363,-2052.5 363,-2022.5 43,-2022.5"/>
<text text-anchor="start" x="50" y="-2033.9" font-family="Arial" font-size="14.00" fill="#000000">conversion    </text>
<text text-anchor="start" x="151.885" y="-2033.9" font-family="Arial" font-size="14.00" fill="#666666">[varchar(255)]</text>
<polygon fill="none" stroke="#000000" points="43,-1992.5 43,-2022.5 363,-2022.5 363,-1992.5 43,-1992.5"/>
<text text-anchor="start" x="50" y="-2003.9" font-family="Arial" font-size="14.00" fill="#000000">hold    </text>
<text text-anchor="start" x="110.6592" y="-2003.9" font-family="Arial" font-size="14.00" fill="#666666">[integer]</text>
<polygon fill="none" stroke="#000000" points="43,-1962.5 43,-1992.5 363,-1992.5 363,-1962.5 43,-1962.5"/>
<text text-anchor="start" x="50" y="-1973.9" font-family="Arial" font-size="14.00" fill="#000000">fee_type    </text>
<text text-anchor="start" x="137.899" y="-1973.9" font-family="Arial" font-size="14.00" fill="#666666">[varchar(255)]</text>
<polygon fill="none" stroke="#000000" points="43,-1932.5 43,-1962.5 363,-1962.5 363,-1932.5 43,-1932.5"/>
<text text-anchor="start" x="50" y="-1943.9" font-family="Arial" font-size="14.00" fill="#000000">ctr    </text>
<text text-anchor="start" x="99.756" y="-1943.9" font-family="Arial" font-size="14.00" fill="#666666">[double precision]</text>
<polygon fill="none" stroke="#000000" points="43,-1902.5 43,-1932.5 363,-1932.5 363,-1902.5 43,-1902.5"/>
<text text-anchor="start" x="50" y="-1913.9" font-family="Arial" font-size="14.00" fill="#000000">cr    </text>
<text text-anchor="start" x="95.8654" y="-1913.9" font-family="Arial" font-size="14.00" fill="#666666">[double precision]</text>
<polygon fill="none" stroke="#000000" points="43,-1872.5 43,-1902.5 363,-1902.5 363,-1872.5 43,-1872.5"/>
<text text-anchor="start" x="50" y="-1883.9" font-family="Arial" font-size="14.00" fill="#000000">ar    </text>
<text text-anchor="start" x="96.648" y="-1883.9" font-family="Arial" font-size="14.00" fill="#666666">[double precision]</text>
<polygon fill="none" stroke="#000000" points="43,-1842.5 43,-1872.5 363,-1872.5 363,-1842.5 43,-1842.5"/>
<text text-anchor="start" x="50" y="-1853.9" font-family="Arial" font-size="14.00" fill="#000000">epc    </text>
<text text-anchor="start" x="106.77" y="-1853.9" font-family="Arial" font-size="14.00" fill="#666666">[double precision]</text>
<polygon fill="none" stroke="#000000" points="43,-1812.5 43,-1842.5 363,-1842.5 363,-1812.5 43,-1812.5"/>
<text text-anchor="start" x="50" y="-1823.9" font-family="Arial" font-size="14.00" fill="#000000">epl    </text>
<text text-anchor="start" x="102.8766" y="-1823.9" font-family="Arial" font-size="14.00" fill="#666666">[double precision]</text>
<polygon fill="none" stroke="#000000" points="43,-1782.5 43,-1812.5 363,-1812.5 363,-1782.5 43,-1782.5"/>
<text text-anchor="start" x="50" y="-1793.9" font-family="Arial" font-size="14.00" fill="#000000">info_link    </text>
<text text-anchor="start" x="135.5456" y="-1793.9" font-family="Arial" font-size="14.00" fill="#666666">[varchar(255)]</text>
<polygon fill="none" stroke="#000000" points="43,-1752.5 43,-1782.5 363,-1782.5 363,-1752.5 43,-1752.5"/>
<text text-anchor="start" x="50" y="-1763.9" font-family="Arial" font-size="14.00" fill="#000000">description    </text>
<text text-anchor="start" x="151.8822" y="-1763.9" font-family="Arial" font-size="14.00" fill="#666666">[text]</text>
<polygon fill="none" stroke="#000000" points="43,-1722.5 43,-1752.5 363,-1752.5 363,-1722.5 43,-1722.5"/>
<text text-anchor="start" x="50" y="-1733.9" font-family="Arial" font-size="14.00" fill="#000000">is_show    </text>
<text text-anchor="start" x="134.7658" y="-1733.9" font-family="Arial" font-size="14.00" fill="#666666">[boolean]</text>
<polygon fill="none" stroke="#000000" points="43,-1692.5 43,-1722.5 363,-1722.5 363,-1692.5 43,-1692.5"/>
<text text-anchor="start" x="50" y="-1703.9" font-family="Arial" font-size="14.00" fill="#000000">bot_text_for_landing    </text>
<text text-anchor="start" x="211.0322" y="-1703.9" font-family="Arial" font-size="14.00" fill="#666666">[text]</text>
<polygon fill="none" stroke="#000000" points="43,-1662.5 43,-1692.5 363,-1692.5 363,-1662.5 43,-1662.5"/>
<text text-anchor="start" x="50" y="-1673.9" font-family="Arial" font-size="14.00" fill="#000000">symbol_many    </text>
<text text-anchor="start" x="170.5456" y="-1673.9" font-family="Arial" font-size="14.00" fill="#666666">[varchar(255)]</text>
<polygon fill="none" stroke="#000000" points="43,-1632.5 43,-1662.5 363,-1662.5 363,-1632.5 43,-1632.5"/>
<text text-anchor="start" x="50" y="-1643.9" font-family="Arial" font-size="14.00" fill="#000000">name_for_landing    </text>
<text text-anchor="start" x="196.2384" y="-1643.9" font-family="Arial" font-size="14.00" fill="#666666">[text]</text>
<polygon fill="none" stroke="#000000" points="43,-1602.5 43,-1632.5 363,-1632.5 363,-1602.5 43,-1602.5"/>
<text text-anchor="start" x="50" y="-1613.9" font-family="Arial" font-size="14.00" fill="#000000">description_for_landing    </text>
<text text-anchor="start" x="228.9074" y="-1613.9" font-family="Arial" font-size="14.00" fill="#666666">[text]</text>
<polygon fill="none" stroke="#000000" points="43,-1572.5 43,-1602.5 363,-1602.5 363,-1572.5 43,-1572.5"/>
<text text-anchor="start" x="50" y="-1583.9" font-family="Arial" font-size="14.00" fill="#000000">image    </text>
<text text-anchor="start" x="122.3198" y="-1583.9" font-family="Arial" font-size="14.00" fill="#666666">[varchar(255)]</text>
<polygon fill="none" stroke="#000000" points="43,-1542.5 43,-1572.5 363,-1572.5 363,-1542.5 43,-1542.5"/>
<text text-anchor="start" x="50" y="-1553.9" font-family="Arial" font-size="14.00" fill="#000000">image_for_landing    </text>
<text text-anchor="start" x="199.345" y="-1553.9" font-family="Arial" font-size="14.00" fill="#666666">[varchar(255)]</text>
<polygon fill="none" stroke="#000000" points="43,-1512.5 43,-1542.5 363,-1542.5 363,-1512.5 43,-1512.5"/>
<text text-anchor="start" x="50" y="-1523.9" font-family="Arial" font-size="14.00" fill="#000000">link_template    </text>
<text text-anchor="start" x="166.662" y="-1523.9" font-family="Arial" font-size="14.00" fill="#666666">[varchar(255)]</text>
<polygon fill="none" stroke="#000000" points="43,-1482.5 43,-1512.5 363,-1512.5 363,-1482.5 43,-1482.5"/>
<text text-anchor="start" x="50" y="-1493.9" font-family="Arial" font-size="14.00" fill="#000000">utm_source    </text>
<text text-anchor="start" x="157.3296" y="-1493.9" font-family="Arial" font-size="14.00" fill="#666666">[varchar(255)]</text>
<polygon fill="none" stroke="#000000" points="43,-1452.5 43,-1482.5 363,-1482.5 363,-1452.5 43,-1452.5"/>
<text text-anchor="start" x="50" y="-1463.9" font-family="Arial" font-size="14.00" fill="#000000">click_id_name    </text>
<text text-anchor="start" x="172.8808" y="-1463.9" font-family="Arial" font-size="14.00" fill="#666666">[varchar(255)]</text>
<polygon fill="none" stroke="#000000" points="43,-1422.5 43,-1452.5 363,-1452.5 363,-1422.5 43,-1422.5"/>
<text text-anchor="start" x="50" y="-1433.9" font-family="Arial" font-size="14.00" fill="#000000">web_id_name    </text>
<text text-anchor="start" x="171.3394" y="-1433.9" font-family="Arial" font-size="14.00" fill="#666666">[varchar(255)]</text>
<polygon fill="none" stroke="#000000" points="43,-1392.5 43,-1422.5 363,-1422.5 363,-1392.5 43,-1392.5"/>
<text text-anchor="start" x="50" y="-1403.9" font-family="Arial" font-size="14.00" fill="#000000">status    </text>
<text text-anchor="start" x="121.5512" y="-1403.9" font-family="Arial" font-size="14.00" fill="#666666">[varchar(255)]</text>
<polygon fill="none" stroke="#000000" points="43,-1362.5 43,-1392.5 363,-1392.5 363,-1362.5 43,-1362.5"/>
<text text-anchor="start" x="50" y="-1373.9" font-family="Arial" font-size="14.00" fill="#000000">for_user_ids    </text>
<text text-anchor="start" x="161.2188" y="-1373.9" font-family="Arial" font-size="14.00" fill="#666666">[json]</text>
<polygon fill="none" stroke="#000000" points="43,-1332.5 43,-1362.5 363,-1362.5 363,-1332.5 43,-1332.5"/>
<text text-anchor="start" x="50" y="-1343.9" font-family="Arial" font-size="14.00" fill="#000000">flag_approvable    </text>
<text text-anchor="start" x="183.7952" y="-1343.9" font-family="Arial" font-size="14.00" fill="#666666">[boolean]</text>
<polygon fill="none" stroke="#000000" points="43,-1302.5 43,-1332.5 363,-1332.5 363,-1302.5 43,-1302.5"/>
<text text-anchor="start" x="50" y="-1313.9" font-family="Arial" font-size="14.00" fill="#000000">flag_lock    </text>
<text text-anchor="start" x="139.439" y="-1313.9" font-family="Arial" font-size="14.00" fill="#666666">[boolean]</text>
<polygon fill="none" stroke="#000000" points="43,-1272.5 43,-1302.5 363,-1302.5 363,-1272.5 43,-1272.5"/>
<text text-anchor="start" x="50" y="-1283.9" font-family="Arial" font-size="14.00" fill="#000000">flag_show_promo_code    </text>
<text text-anchor="start" x="232.8036" y="-1283.9" font-family="Arial" font-size="14.00" fill="#666666">[boolean]</text>
<polygon fill="none" stroke="#000000" points="43,-1242.5 43,-1272.5 363,-1272.5 363,-1242.5 43,-1242.5"/>
<text text-anchor="start" x="50" y="-1253.9" font-family="Arial" font-size="14.00" fill="#000000">flag_not_link    </text>
<text text-anchor="start" x="162.784" y="-1253.9" font-family="Arial" font-size="14.00" fill="#666666">[boolean]</text>
<polygon fill="none" stroke="#000000" points="43,-1212.5 43,-1242.5 363,-1242.5 363,-1212.5 43,-1212.5"/>
<text text-anchor="start" x="50" y="-1223.9" font-family="Arial" font-size="14.00" fill="#000000">agreement    </text>
<text text-anchor="start" x="151.1122" y="-1223.9" font-family="Arial" font-size="14.00" fill="#666666">[text]</text>
<polygon fill="none" stroke="#000000" points="43,-1182.5 43,-1212.5 363,-1212.5 363,-1182.5 43,-1182.5"/>
<text text-anchor="start" x="50" y="-1193.9" font-family="Arial" font-size="14.00" fill="#000000">advice    </text>
<text text-anchor="start" x="124.6592" y="-1193.9" font-family="Arial" font-size="14.00" fill="#666666">[varchar(255)]</text>
<polygon fill="none" stroke="#000000" points="43,-1152.5 43,-1182.5 363,-1182.5 363,-1152.5 43,-1152.5"/>
<text text-anchor="start" x="50" y="-1163.9" font-family="Arial" font-size="14.00" fill="#000000">priority    </text>
<text text-anchor="start" x="126.195" y="-1163.9" font-family="Arial" font-size="14.00" fill="#666666">[integer]</text>
<polygon fill="none" stroke="#000000" points="43,-1122.5 43,-1152.5 363,-1152.5 363,-1122.5 43,-1122.5"/>
<text text-anchor="start" x="50" y="-1133.9" font-family="Arial" font-size="14.00" fill="#000000">sp_id    </text>
<text text-anchor="start" x="117.6592" y="-1133.9" font-family="Arial" font-size="14.00" fill="#666666">[varchar(255)]</text>
<polygon fill="none" stroke="#000000" points="43,-1092.5 43,-1122.5 363,-1122.5 363,-1092.5 43,-1092.5"/>
<text text-anchor="start" x="50" y="-1103.9" font-family="Arial" font-size="14.00" fill="#000000">offer_card_color    </text>
<text text-anchor="start" x="185.3352" y="-1103.9" font-family="Arial" font-size="14.00" fill="#666666">[varchar(255)]</text>
<polygon fill="none" stroke="#000000" points="43,-1062.5 43,-1092.5 363,-1092.5 363,-1062.5 43,-1062.5"/>
<text text-anchor="start" x="50" y="-1073.9" font-family="Arial" font-size="14.00" fill="#000000">description_payed_title    </text>
<text text-anchor="start" x="227.3548" y="-1073.9" font-family="Arial" font-size="14.00" fill="#666666">[text]</text>
<polygon fill="none" stroke="#000000" points="43,-1032.5 43,-1062.5 363,-1062.5 363,-1032.5 43,-1032.5"/>
<text text-anchor="start" x="50" y="-1043.9" font-family="Arial" font-size="14.00" fill="#000000">description_payed_body_html    </text>
<text text-anchor="start" x="270.1486" y="-1043.9" font-family="Arial" font-size="14.00" fill="#666666">[text]</text>
<polygon fill="none" stroke="#000000" points="43,-1002.5 43,-1032.5 363,-1032.5 363,-1002.5 43,-1002.5"/>
<text text-anchor="start" x="50" y="-1013.9" font-family="Arial" font-size="14.00" fill="#000000">description_payed_body_marked    </text>
<text text-anchor="start" x="290.3772" y="-1013.9" font-family="Arial" font-size="14.00" fill="#666666">[text]</text>
<polygon fill="none" stroke="#000000" points="43,-972.5 43,-1002.5 363,-1002.5 363,-972.5 43,-972.5"/>
<text text-anchor="start" x="50" y="-983.9" font-family="Arial" font-size="14.00" fill="#000000">description_not_payed_title    </text>
<text text-anchor="start" x="254.5932" y="-983.9" font-family="Arial" font-size="14.00" fill="#666666">[text]</text>
<polygon fill="none" stroke="#000000" points="43,-942.5 43,-972.5 363,-972.5 363,-942.5 43,-942.5"/>
<text text-anchor="start" x="50" y="-953.9" font-family="Arial" font-size="14.00" fill="#000000">description_not_payed_body_html    </text>
<text text-anchor="start" x="297.387" y="-953.9" font-family="Arial" font-size="14.00" fill="#666666">[text]</text>
<polygon fill="none" stroke="#000000" points="43,-912.5 43,-942.5 363,-942.5 363,-912.5 43,-912.5"/>
<text text-anchor="start" x="50" y="-923.9" font-family="Arial" font-size="14.00" fill="#000000">description_not_payed_body_marked    </text>
<text text-anchor="start" x="317.6156" y="-923.9" font-family="Arial" font-size="14.00" fill="#666666">[text]</text>
<polygon fill="none" stroke="#000000" points="43,-882.5 43,-912.5 363,-912.5 363,-882.5 43,-882.5"/>
<text text-anchor="start" x="50" y="-893.9" font-family="Arial" font-size="14.00" fill="#000000">is_show_stocks    </text>
<text text-anchor="start" x="182.2216" y="-893.9" font-family="Arial" font-size="14.00" fill="#666666">[boolean]</text>
<polygon fill="none" stroke="#000000" points="43,-852.5 43,-882.5 363,-882.5 363,-852.5 43,-852.5"/>
<text text-anchor="start" x="50" y="-863.9" font-family="Arial" font-size="14.00" fill="#000000">stocks_title    </text>
<text text-anchor="start" x="153.4376" y="-863.9" font-family="Arial" font-size="14.00" fill="#666666">[text]</text>
<polygon fill="none" stroke="#000000" points="43,-822.5 43,-852.5 363,-852.5 363,-822.5 43,-822.5"/>
<text text-anchor="start" x="50" y="-833.9" font-family="Arial" font-size="14.00" fill="#000000">stocks_sub_title    </text>
<text text-anchor="start" x="183.7854" y="-833.9" font-family="Arial" font-size="14.00" fill="#666666">[text]</text>
<polygon fill="none" stroke="#000000" points="43,-792.5 43,-822.5 363,-822.5 363,-792.5 43,-792.5"/>
<text text-anchor="start" x="50" y="-803.9" font-family="Arial" font-size="14.00" fill="#000000">stocks_additional_text    </text>
<text text-anchor="start" x="221.913" y="-803.9" font-family="Arial" font-size="14.00" fill="#666666">[text]</text>
<polygon fill="none" stroke="#000000" points="43,-762.5 43,-792.5 363,-792.5 363,-762.5 43,-762.5"/>
<text text-anchor="start" x="50" y="-773.9" font-family="Arial" font-size="14.00" fill="#000000">stocks_bg_color    </text>
<text text-anchor="start" x="185.3408" y="-773.9" font-family="Arial" font-size="14.00" fill="#666666">[text]</text>
<polygon fill="none" stroke="#000000" points="43,-732.5 43,-762.5 363,-762.5 363,-732.5 43,-732.5"/>
<text text-anchor="start" x="50" y="-743.9" font-family="Arial" font-size="14.00" fill="#000000">stocks_bg_img    </text>
<text text-anchor="start" x="177.5582" y="-743.9" font-family="Arial" font-size="14.00" fill="#666666">[text]</text>
<polygon fill="none" stroke="#000000" points="43,-702.5 43,-732.5 363,-732.5 363,-702.5 43,-702.5"/>
<text text-anchor="start" x="50" y="-713.9" font-family="Arial" font-size="14.00" fill="#000000">target_audience    </text>
<text text-anchor="start" x="184.5792" y="-713.9" font-family="Arial" font-size="14.00" fill="#666666">[varchar(255)]</text>
<polygon fill="none" stroke="#000000" points="43,-672.5 43,-702.5 363,-702.5 363,-672.5 43,-672.5"/>
<text text-anchor="start" x="50" y="-683.9" font-family="Arial" font-size="14.00" fill="#000000">is_traffic    </text>
<text text-anchor="start" x="136.3156" y="-683.9" font-family="Arial" font-size="14.00" fill="#666666">[boolean]</text>
<polygon fill="none" stroke="#000000" points="43,-642.5 43,-672.5 363,-672.5 363,-642.5 43,-642.5"/>
<text text-anchor="start" x="50" y="-653.9" font-family="Arial" font-size="14.00" fill="#000000">is_rules    </text>
<text text-anchor="start" x="132.4264" y="-653.9" font-family="Arial" font-size="14.00" fill="#666666">[boolean]</text>
<polygon fill="none" stroke="#000000" points="43,-612.5 43,-642.5 363,-642.5 363,-612.5 43,-612.5"/>
<text text-anchor="start" x="50" y="-623.9" font-family="Arial" font-size="14.00" fill="#000000">is_auditory    </text>
<text text-anchor="start" x="151.8822" y="-623.9" font-family="Arial" font-size="14.00" fill="#666666">[boolean]</text>
<polygon fill="none" stroke="#000000" points="43,-582.5 43,-612.5 363,-612.5 363,-582.5 43,-582.5"/>
<text text-anchor="start" x="50" y="-593.9" font-family="Arial" font-size="14.00" fill="#000000">is_required    </text>
<text text-anchor="start" x="153.4348" y="-593.9" font-family="Arial" font-size="14.00" fill="#666666">[boolean]</text>
<polygon fill="none" stroke="#000000" points="43,-552.5 43,-582.5 363,-582.5 363,-552.5 43,-552.5"/>
<text text-anchor="start" x="50" y="-563.9" font-family="Arial" font-size="14.00" fill="#000000">is_required_value    </text>
<text text-anchor="start" x="194.6718" y="-563.9" font-family="Arial" font-size="14.00" fill="#666666">[varchar(255)]</text>
<polygon fill="none" stroke="#000000" points="43,-522.5 43,-552.5 363,-552.5 363,-522.5 43,-522.5"/>
<text text-anchor="start" x="50" y="-533.9" font-family="Arial" font-size="14.00" fill="#000000">banner_title    </text>
<text text-anchor="start" x="157.338" y="-533.9" font-family="Arial" font-size="14.00" fill="#666666">[text]</text>
<polygon fill="none" stroke="#000000" points="43,-492.5 43,-522.5 363,-522.5 363,-492.5 43,-492.5"/>
<text text-anchor="start" x="50" y="-503.9" font-family="Arial" font-size="14.00" fill="#000000">banner_text    </text>
<text text-anchor="start" x="158.1248" y="-503.9" font-family="Arial" font-size="14.00" fill="#666666">[text]</text>
<polygon fill="none" stroke="#000000" points="43,-462.5 43,-492.5 363,-492.5 363,-462.5 43,-462.5"/>
<text text-anchor="start" x="50" y="-473.9" font-family="Arial" font-size="14.00" fill="#000000">banner_btn_text    </text>
<text text-anchor="start" x="185.3632" y="-473.9" font-family="Arial" font-size="14.00" fill="#666666">[text]</text>
<polygon fill="none" stroke="#000000" points="43,-432.5 43,-462.5 363,-462.5 363,-432.5 43,-432.5"/>
<text text-anchor="start" x="50" y="-443.9" font-family="Arial" font-size="14.00" fill="#000000">banner_bg_color    </text>
<text text-anchor="start" x="189.2412" y="-443.9" font-family="Arial" font-size="14.00" fill="#666666">[text]</text>
<polygon fill="none" stroke="#000000" points="43,-402.5 43,-432.5 363,-432.5 363,-402.5 43,-402.5"/>
<text text-anchor="start" x="50" y="-413.9" font-family="Arial" font-size="14.00" fill="#000000">banner_bg_image    </text>
<text text-anchor="start" x="197.0238" y="-413.9" font-family="Arial" font-size="14.00" fill="#666666">[text]</text>
<polygon fill="none" stroke="#000000" points="43,-372.5 43,-402.5 363,-402.5 363,-372.5 43,-372.5"/>
<text text-anchor="start" x="50" y="-383.9" font-family="Arial" font-size="14.00" fill="#000000">is_show_calculator    </text>
<text text-anchor="start" x="202.4432" y="-383.9" font-family="Arial" font-size="14.00" fill="#666666">[boolean]</text>
<polygon fill="none" stroke="#000000" points="43,-342.5 43,-372.5 363,-372.5 363,-342.5 43,-342.5"/>
<text text-anchor="start" x="50" y="-353.9" font-family="Arial" font-size="14.00" fill="#000000">okved    </text>
<text text-anchor="start" x="121.5526" y="-353.9" font-family="Arial" font-size="14.00" fill="#666666">[varchar(255)]</text>
<polygon fill="none" stroke="#000000" points="43,-312.5 43,-342.5 363,-342.5 363,-312.5 43,-312.5"/>
<text text-anchor="start" x="50" y="-323.9" font-family="Arial" font-size="14.00" fill="#000000">created_at    </text>
<text text-anchor="start" x="150.3422" y="-323.9" font-family="Arial" font-size="14.00" fill="#666666">[timestamp(0) without time zone]</text>
<polygon fill="none" stroke="#000000" points="43,-282.5 43,-312.5 363,-312.5 363,-282.5 43,-282.5"/>
<text text-anchor="start" x="49.7546" y="-293.9" font-family="Arial" font-size="14.00" fill="#000000">updated_at    </text>
<text text-anchor="start" x="154.0014" y="-293.9" font-family="Arial" font-size="14.00" fill="#666666">[timestamp(0) without time zone]</text>
<polygon fill="none" stroke="#000000" points="43,-252.5 43,-282.5 363,-282.5 363,-252.5 43,-252.5"/>
<text text-anchor="start" x="50" y="-263.9" font-family="Arial" font-size="14.00" fill="#000000">deleted_at    </text>
<text text-anchor="start" x="149.5708" y="-263.9" font-family="Arial" font-size="14.00" fill="#666666">[timestamp(0) without time zone]</text>
<polygon fill="none" stroke="#000000" points="43,-222.5 43,-252.5 363,-252.5 363,-222.5 43,-222.5"/>
<text text-anchor="start" x="50" y="-233.9" font-family="Arial" font-size="14.00" fill="#000000">product_name    </text>
<text text-anchor="start" x="173.6774" y="-233.9" font-family="Arial" font-size="14.00" fill="#666666">[varchar(255)]</text>
<polygon fill="none" stroke="#000000" points="43,-192.5 43,-222.5 363,-222.5 363,-192.5 43,-192.5"/>
<text text-anchor="start" x="50" y="-203.9" font-family="Arial" font-size="14.00" fill="#000000">is_auditory_value    </text>
<text text-anchor="start" x="193.1192" y="-203.9" font-family="Arial" font-size="14.00" fill="#666666">[varchar(255)]</text>
<polygon fill="none" stroke="#000000" points="43,-162.5 43,-192.5 363,-192.5 363,-162.5 43,-162.5"/>
<text text-anchor="start" x="50" y="-173.9" font-family="Arial" font-size="14.00" fill="#000000">api    </text>
<text text-anchor="start" x="102.8766" y="-173.9" font-family="Arial" font-size="14.00" fill="#666666">[boolean]</text>
<polygon fill="none" stroke="#000000" points="43,-132.5 43,-162.5 363,-162.5 363,-132.5 43,-132.5"/>
<text text-anchor="start" x="50" y="-143.9" font-family="Arial" font-size="14.00" fill="#000000">product_id    </text>
<text text-anchor="start" x="149.5582" y="-143.9" font-family="Arial" font-size="14.00" fill="#666666">[integer]</text>
<polygon fill="none" stroke="#000000" points="43,-102.5 43,-132.5 363,-132.5 363,-102.5 43,-102.5"/>
<text text-anchor="start" x="50" y="-113.9" font-family="Arial" font-size="14.00" fill="#000000">description_in_wine_case    </text>
<text text-anchor="start" x="244.4628" y="-113.9" font-family="Arial" font-size="14.00" fill="#666666">[varchar(255)]</text>
<polygon fill="none" stroke="#000000" points="43,-72.5 43,-102.5 363,-102.5 363,-72.5 43,-72.5"/>
<text text-anchor="start" x="50" y="-83.9" font-family="Arial" font-size="14.00" fill="#000000">is_landing    </text>
<text text-anchor="start" x="147.2202" y="-83.9" font-family="Arial" font-size="14.00" fill="#666666">[boolean]</text>
<polygon fill="none" stroke="#000000" points="43,-42.5 43,-72.5 363,-72.5 363,-42.5 43,-42.5"/>
<text text-anchor="start" x="50" y="-53.9" font-family="Arial" font-size="14.00" fill="#000000">url    </text>
<text text-anchor="start" x="99.7546" y="-53.9" font-family="Arial" font-size="14.00" fill="#666666">[varchar(255)]</text>
</g>
<!-- public.offers_meta&#45;&gt;public.offers -->
<g id="edge1" class="edge">
<title>public.offers_meta:offer_id&#45;&gt;public.offers:id</title>
<path fill="none" stroke="#000000" d="M358.0856,-2495.183C418.2764,-2466.815 428.4671,-2187.5 363,-2187.5"/>
<polygon fill="#000000" stroke="#000000" points="357.7461,-2495.2609 346.9924,-2493.1142 352.8731,-2496.3804 348,-2497.5 348,-2497.5 348,-2497.5 352.8731,-2496.3804 349.0076,-2501.8858 357.7461,-2495.2609 357.7461,-2495.2609"/>
<text text-anchor="start" x="354.7765" y="-2507.5" font-family="Arial" font-size="10.00" fill="#000000">FOREIGN KEY (offer_id) REFERENCES offers(id)</text>
</g>
</g>
</svg>
