<?xml version="1.0" encoding="UTF-8" standalone="no"?>
<!DOCTYPE svg PUBLIC "-//W3C//DTD SVG 1.1//EN"
 "http://www.w3.org/Graphics/SVG/1.1/DTD/svg11.dtd">
<!-- Generated by graphviz version 2.40.1 (20161225.0304)
 -->
<!-- Title: public.servicedesk_tasks Pages: 1 -->
<svg width="826pt" height="952pt"
 viewBox="0.00 0.00 826.00 952.00" xmlns="http://www.w3.org/2000/svg" xmlns:xlink="http://www.w3.org/1999/xlink">
<g id="graph0" class="graph" transform="scale(1 1) rotate(0) translate(4 948)">
<title>public.servicedesk_tasks</title>
<polygon fill="#ffffff" stroke="transparent" points="-4,4 -4,-948 822,-948 822,4 -4,4"/>
<!-- public.servicedesk_tasks -->
<g id="node1" class="node">
<title>public.servicedesk_tasks</title>
<polygon fill="#efefef" stroke="transparent" points="85,-435.5 85,-470.5 425,-470.5 425,-435.5 85,-435.5"/>
<polygon fill="none" stroke="#000000" points="85,-435.5 85,-470.5 425,-470.5 425,-435.5 85,-435.5"/>
<text text-anchor="start" x="91.6985" y="-448.3" font-family="Arial Bold" font-size="18.00" fill="#000000">public.servicedesk_tasks</text>
<text text-anchor="start" x="290.7335" y="-448.3" font-family="Arial" font-size="14.00" fill="#000000">    </text>
<text text-anchor="start" x="324.9383" y="-448.3" font-family="Arial" font-size="14.00" fill="#666666">[BASE TABLE]</text>
<polygon fill="none" stroke="#000000" points="85,-405.5 85,-435.5 425,-435.5 425,-405.5 85,-405.5"/>
<text text-anchor="start" x="92" y="-416.9" font-family="Arial" font-size="14.00" fill="#000000">id </text>
<text text-anchor="start" x="106.7798" y="-416.9" font-family="Arial" font-size="14.00" fill="#666666">[bigint]</text>
<polygon fill="none" stroke="#000000" points="85,-375.5 85,-405.5 425,-405.5 425,-375.5 85,-375.5"/>
<text text-anchor="start" x="92" y="-386.9" font-family="Arial" font-size="14.00" fill="#000000">type </text>
<text text-anchor="start" x="122.3464" y="-386.9" font-family="Arial" font-size="14.00" fill="#666666">[varchar(255)]</text>
<polygon fill="none" stroke="#000000" points="85,-345.5 85,-375.5 425,-375.5 425,-345.5 85,-345.5"/>
<text text-anchor="start" x="92" y="-356.9" font-family="Arial" font-size="14.00" fill="#000000">creator_user_id </text>
<text text-anchor="start" x="193.1304" y="-356.9" font-family="Arial" font-size="14.00" fill="#666666">[bigint]</text>
<polygon fill="none" stroke="#000000" points="85,-315.5 85,-345.5 425,-345.5 425,-315.5 85,-315.5"/>
<text text-anchor="start" x="92" y="-326.9" font-family="Arial" font-size="14.00" fill="#000000">doer_user_id </text>
<text text-anchor="start" x="177.5792" y="-326.9" font-family="Arial" font-size="14.00" fill="#666666">[bigint]</text>
<polygon fill="none" stroke="#000000" points="85,-285.5 85,-315.5 425,-315.5 425,-285.5 85,-285.5"/>
<text text-anchor="start" x="92" y="-296.9" font-family="Arial" font-size="14.00" fill="#000000">subject </text>
<text text-anchor="start" x="140.2356" y="-296.9" font-family="Arial" font-size="14.00" fill="#666666">[varchar(255)]</text>
<polygon fill="none" stroke="#000000" points="85,-255.5 85,-285.5 425,-285.5 425,-255.5 85,-255.5"/>
<text text-anchor="start" x="92" y="-266.9" font-family="Arial" font-size="14.00" fill="#000000">body </text>
<text text-anchor="start" x="126.2384" y="-266.9" font-family="Arial" font-size="14.00" fill="#666666">[text]</text>
<polygon fill="none" stroke="#000000" points="85,-225.5 85,-255.5 425,-255.5 425,-225.5 85,-225.5"/>
<text text-anchor="start" x="92" y="-236.9" font-family="Arial" font-size="14.00" fill="#000000">status </text>
<text text-anchor="start" x="133.237" y="-236.9" font-family="Arial" font-size="14.00" fill="#666666">[varchar(255)]</text>
<polygon fill="none" stroke="#000000" points="85,-195.5 85,-225.5 425,-225.5 425,-195.5 85,-195.5"/>
<text text-anchor="start" x="92" y="-206.9" font-family="Arial" font-size="14.00" fill="#000000">estimate_time </text>
<text text-anchor="start" x="183.0098" y="-206.9" font-family="Arial" font-size="14.00" fill="#666666">[numeric(8,2)]</text>
<polygon fill="none" stroke="#000000" points="85,-165.5 85,-195.5 425,-195.5 425,-165.5 85,-165.5"/>
<text text-anchor="start" x="92" y="-176.9" font-family="Arial" font-size="14.00" fill="#000000">fact_time </text>
<text text-anchor="start" x="152.6774" y="-176.9" font-family="Arial" font-size="14.00" fill="#666666">[numeric(8,2)]</text>
<polygon fill="none" stroke="#000000" points="85,-135.5 85,-165.5 425,-165.5 425,-135.5 85,-135.5"/>
<text text-anchor="start" x="92" y="-146.9" font-family="Arial" font-size="14.00" fill="#000000">deadline_at </text>
<text text-anchor="start" x="168.2552" y="-146.9" font-family="Arial" font-size="14.00" fill="#666666">[timestamp(0) without time zone]</text>
<polygon fill="none" stroke="#000000" points="85,-105.5 85,-135.5 425,-135.5 425,-105.5 85,-105.5"/>
<text text-anchor="start" x="92" y="-116.9" font-family="Arial" font-size="14.00" fill="#000000">created_at </text>
<text text-anchor="start" x="162.028" y="-116.9" font-family="Arial" font-size="14.00" fill="#666666">[timestamp(0) without time zone]</text>
<polygon fill="none" stroke="#000000" points="85,-75.5 85,-105.5 425,-105.5 425,-75.5 85,-75.5"/>
<text text-anchor="start" x="92" y="-86.9" font-family="Arial" font-size="14.00" fill="#000000">updated_at </text>
<text text-anchor="start" x="165.9326" y="-86.9" font-family="Arial" font-size="14.00" fill="#666666">[timestamp(0) without time zone]</text>
<polygon fill="none" stroke="#000000" points="85,-45.5 85,-75.5 425,-75.5 425,-45.5 85,-45.5"/>
<text text-anchor="start" x="92" y="-56.9" font-family="Arial" font-size="14.00" fill="#000000">deleted_at </text>
<text text-anchor="start" x="161.2566" y="-56.9" font-family="Arial" font-size="14.00" fill="#666666">[timestamp(0) without time zone]</text>
<polygon fill="none" stroke="#000000" stroke-width="3" points="83.5,-44.5 83.5,-472.5 426.5,-472.5 426.5,-44.5 83.5,-44.5"/>
</g>
<!-- public.servicedesk_task_comments -->
<g id="node2" class="node">
<title>public.servicedesk_task_comments</title>
<polygon fill="#efefef" stroke="transparent" points="43,-865.5 43,-900.5 467,-900.5 467,-865.5 43,-865.5"/>
<polygon fill="none" stroke="#000000" points="43,-865.5 43,-900.5 467,-900.5 467,-865.5 43,-865.5"/>
<text text-anchor="start" x="49.6928" y="-878.3" font-family="Arial Bold" font-size="18.00" fill="#000000">public.servicedesk_task_comments</text>
<text text-anchor="start" x="332.7392" y="-878.3" font-family="Arial" font-size="14.00" fill="#000000">    </text>
<text text-anchor="start" x="366.944" y="-878.3" font-family="Arial" font-size="14.00" fill="#666666">[BASE TABLE]</text>
<polygon fill="none" stroke="#000000" points="43,-835.5 43,-865.5 467,-865.5 467,-835.5 43,-835.5"/>
<text text-anchor="start" x="50" y="-846.9" font-family="Arial" font-size="14.00" fill="#000000">id    </text>
<text text-anchor="start" x="95.094" y="-846.9" font-family="Arial" font-size="14.00" fill="#666666">[bigint]</text>
<polygon fill="none" stroke="#000000" points="43,-805.5 43,-835.5 467,-835.5 467,-805.5 43,-805.5"/>
<text text-anchor="start" x="50" y="-816.9" font-family="Arial" font-size="14.00" fill="#000000">servicedesk_task_id    </text>
<text text-anchor="start" x="210.23" y="-816.9" font-family="Arial" font-size="14.00" fill="#666666">[bigint]</text>
<polygon fill="none" stroke="#000000" points="43,-775.5 43,-805.5 467,-805.5 467,-775.5 43,-775.5"/>
<text text-anchor="start" x="50" y="-786.9" font-family="Arial" font-size="14.00" fill="#000000">partner_id    </text>
<text text-anchor="start" x="147.2188" y="-786.9" font-family="Arial" font-size="14.00" fill="#666666">[bigint]</text>
<polygon fill="none" stroke="#000000" points="43,-745.5 43,-775.5 467,-775.5 467,-745.5 43,-745.5"/>
<text text-anchor="start" x="50" y="-756.9" font-family="Arial" font-size="14.00" fill="#000000">is_public    </text>
<text text-anchor="start" x="138.655" y="-756.9" font-family="Arial" font-size="14.00" fill="#666666">[boolean]</text>
<polygon fill="none" stroke="#000000" points="43,-715.5 43,-745.5 467,-745.5 467,-715.5 43,-715.5"/>
<text text-anchor="start" x="50" y="-726.9" font-family="Arial" font-size="14.00" fill="#000000">body    </text>
<text text-anchor="start" x="114.5526" y="-726.9" font-family="Arial" font-size="14.00" fill="#666666">[text]</text>
<polygon fill="none" stroke="#000000" points="43,-685.5 43,-715.5 467,-715.5 467,-685.5 43,-685.5"/>
<text text-anchor="start" x="50" y="-696.9" font-family="Arial" font-size="14.00" fill="#000000">attach    </text>
<text text-anchor="start" x="122.3338" y="-696.9" font-family="Arial" font-size="14.00" fill="#666666">[json]</text>
<polygon fill="none" stroke="#000000" points="43,-655.5 43,-685.5 467,-685.5 467,-655.5 43,-655.5"/>
<text text-anchor="start" x="50" y="-666.9" font-family="Arial" font-size="14.00" fill="#000000">created_at    </text>
<text text-anchor="start" x="150.3422" y="-666.9" font-family="Arial" font-size="14.00" fill="#666666">[timestamp(0) without time zone]</text>
<polygon fill="none" stroke="#000000" points="43,-625.5 43,-655.5 467,-655.5 467,-625.5 43,-625.5"/>
<text text-anchor="start" x="50" y="-636.9" font-family="Arial" font-size="14.00" fill="#000000">updated_at    </text>
<text text-anchor="start" x="154.2468" y="-636.9" font-family="Arial" font-size="14.00" fill="#666666">[timestamp(0) without time zone]</text>
<polygon fill="none" stroke="#000000" points="43,-595.5 43,-625.5 467,-625.5 467,-595.5 43,-595.5"/>
<text text-anchor="start" x="50" y="-606.9" font-family="Arial" font-size="14.00" fill="#000000">deleted_at    </text>
<text text-anchor="start" x="149.5708" y="-606.9" font-family="Arial" font-size="14.00" fill="#666666">[timestamp(0) without time zone]</text>
</g>
<!-- public.servicedesk_task_comments&#45;&gt;public.servicedesk_tasks -->
<g id="edge1" class="edge">
<title>public.servicedesk_task_comments:servicedesk_task_id&#45;&gt;public.servicedesk_tasks:id</title>
<path fill="none" stroke="#000000" d="M476.8775,-818.7166C553.024,-789.8604 510.8862,-420.5 425,-420.5"/>
<polygon fill="#000000" stroke="#000000" points="476.8409,-818.7232 466.2004,-816.0716 471.9204,-819.6116 467,-820.5 467,-820.5 467,-820.5 471.9204,-819.6116 467.7996,-824.9284 476.8409,-818.7232 476.8409,-818.7232"/>
<text text-anchor="start" x="474.1005" y="-830.5" font-family="Arial" font-size="10.00" fill="#000000">FOREIGN KEY (servicedesk_task_id) REFERENCES servicedesk_tasks(id)</text>
</g>
</g>
</svg>
