<?xml version="1.0" encoding="UTF-8" standalone="no"?>
<!DOCTYPE svg PUBLIC "-//W3C//DTD SVG 1.1//EN"
 "http://www.w3.org/Graphics/SVG/1.1/DTD/svg11.dtd">
<!-- Generated by graphviz version 2.40.1 (20161225.0304)
 -->
<!-- Title: public.areas_types Pages: 1 -->
<svg width="391pt" height="345pt"
 viewBox="0.00 0.00 391.00 345.00" xmlns="http://www.w3.org/2000/svg" xmlns:xlink="http://www.w3.org/1999/xlink">
<g id="graph0" class="graph" transform="scale(1 1) rotate(0) translate(4 341)">
<title>public.areas_types</title>
<polygon fill="#ffffff" stroke="transparent" points="-4,4 -4,-341 387,-341 387,4 -4,4"/>
<!-- public.areas_types -->
<g id="node1" class="node">
<title>public.areas_types</title>
<polygon fill="#efefef" stroke="transparent" points="46.5,-255.5 46.5,-290.5 337.5,-290.5 337.5,-255.5 46.5,-255.5"/>
<polygon fill="none" stroke="#000000" points="46.5,-255.5 46.5,-290.5 337.5,-290.5 337.5,-255.5 46.5,-255.5"/>
<text text-anchor="start" x="53.1956" y="-268.3" font-family="Arial Bold" font-size="18.00" fill="#000000">public.areas_types</text>
<text text-anchor="start" x="203.2364" y="-268.3" font-family="Arial" font-size="14.00" fill="#000000">    </text>
<text text-anchor="start" x="237.4412" y="-268.3" font-family="Arial" font-size="14.00" fill="#666666">[BASE TABLE]</text>
<polygon fill="none" stroke="#000000" points="46.5,-225.5 46.5,-255.5 337.5,-255.5 337.5,-225.5 46.5,-225.5"/>
<text text-anchor="start" x="53.5" y="-236.9" font-family="Arial" font-size="14.00" fill="#000000">id </text>
<text text-anchor="start" x="68.2798" y="-236.9" font-family="Arial" font-size="14.00" fill="#666666">[bigint]</text>
<polygon fill="none" stroke="#000000" points="46.5,-195.5 46.5,-225.5 337.5,-225.5 337.5,-195.5 46.5,-195.5"/>
<text text-anchor="start" x="53.5" y="-206.9" font-family="Arial" font-size="14.00" fill="#000000">name </text>
<text text-anchor="start" x="92.399" y="-206.9" font-family="Arial" font-size="14.00" fill="#666666">[varchar(255)]</text>
<polygon fill="none" stroke="#000000" points="46.5,-165.5 46.5,-195.5 337.5,-195.5 337.5,-165.5 46.5,-165.5"/>
<text text-anchor="start" x="53.5" y="-176.9" font-family="Arial" font-size="14.00" fill="#000000">lang_key </text>
<text text-anchor="start" x="113.4102" y="-176.9" font-family="Arial" font-size="14.00" fill="#666666">[varchar(255)]</text>
<polygon fill="none" stroke="#000000" points="46.5,-135.5 46.5,-165.5 337.5,-165.5 337.5,-135.5 46.5,-135.5"/>
<text text-anchor="start" x="53.5" y="-146.9" font-family="Arial" font-size="14.00" fill="#000000">flag_need_token </text>
<text text-anchor="start" x="160.887" y="-146.9" font-family="Arial" font-size="14.00" fill="#666666">[boolean]</text>
<polygon fill="none" stroke="#000000" points="46.5,-105.5 46.5,-135.5 337.5,-135.5 337.5,-105.5 46.5,-105.5"/>
<text text-anchor="start" x="53.5" y="-116.9" font-family="Arial" font-size="14.00" fill="#000000">flag_is_need_link </text>
<text text-anchor="start" x="165.5336" y="-116.9" font-family="Arial" font-size="14.00" fill="#666666">[boolean]</text>
<polygon fill="none" stroke="#000000" points="46.5,-75.5 46.5,-105.5 337.5,-105.5 337.5,-75.5 46.5,-75.5"/>
<text text-anchor="start" x="53.5" y="-86.9" font-family="Arial" font-size="14.00" fill="#000000">created_at </text>
<text text-anchor="start" x="123.528" y="-86.9" font-family="Arial" font-size="14.00" fill="#666666">[timestamp(0) without time zone]</text>
<polygon fill="none" stroke="#000000" points="46.5,-45.5 46.5,-75.5 337.5,-75.5 337.5,-45.5 46.5,-45.5"/>
<text text-anchor="start" x="53.5" y="-56.9" font-family="Arial" font-size="14.00" fill="#000000">updated_at </text>
<text text-anchor="start" x="127.4326" y="-56.9" font-family="Arial" font-size="14.00" fill="#666666">[timestamp(0) without time zone]</text>
<polygon fill="none" stroke="#000000" stroke-width="3" points="44.5,-44.5 44.5,-292.5 338.5,-292.5 338.5,-44.5 44.5,-44.5"/>
</g>
</g>
</svg>
