<?xml version="1.0" encoding="UTF-8" standalone="no"?>
<!DOCTYPE svg PUBLIC "-//W3C//DTD SVG 1.1//EN"
 "http://www.w3.org/Graphics/SVG/1.1/DTD/svg11.dtd">
<!-- Generated by graphviz version 2.40.1 (20161225.0304)
 -->
<!-- Title: public.news_users Pages: 1 -->
<svg width="942pt" height="1912pt"
 viewBox="0.00 0.00 942.00 1912.00" xmlns="http://www.w3.org/2000/svg" xmlns:xlink="http://www.w3.org/1999/xlink">
<g id="graph0" class="graph" transform="scale(1 1) rotate(0) translate(4 1908)">
<title>public.news_users</title>
<polygon fill="#ffffff" stroke="transparent" points="-4,4 -4,-1908 938,-1908 938,4 -4,4"/>
<!-- public.news_users -->
<g id="node1" class="node">
<title>public.news_users</title>
<polygon fill="#efefef" stroke="transparent" points="330,-1822.5 330,-1857.5 619,-1857.5 619,-1822.5 330,-1822.5"/>
<polygon fill="none" stroke="#000000" points="330,-1822.5 330,-1857.5 619,-1857.5 619,-1822.5 330,-1822.5"/>
<text text-anchor="start" x="336.7027" y="-1835.3" font-family="Arial Bold" font-size="18.00" fill="#000000">public.news_users</text>
<text text-anchor="start" x="484.7293" y="-1835.3" font-family="Arial" font-size="14.00" fill="#000000">    </text>
<text text-anchor="start" x="518.9341" y="-1835.3" font-family="Arial" font-size="14.00" fill="#666666">[BASE TABLE]</text>
<polygon fill="none" stroke="#000000" points="330,-1792.5 330,-1822.5 619,-1822.5 619,-1792.5 330,-1792.5"/>
<text text-anchor="start" x="337" y="-1803.9" font-family="Arial" font-size="14.00" fill="#000000">news_id </text>
<text text-anchor="start" x="392.2342" y="-1803.9" font-family="Arial" font-size="14.00" fill="#666666">[bigint]</text>
<polygon fill="none" stroke="#000000" points="330,-1762.5 330,-1792.5 619,-1792.5 619,-1762.5 330,-1762.5"/>
<text text-anchor="start" x="337" y="-1773.9" font-family="Arial" font-size="14.00" fill="#000000">user_id </text>
<text text-anchor="start" x="386.7882" y="-1773.9" font-family="Arial" font-size="14.00" fill="#666666">[bigint]</text>
<polygon fill="none" stroke="#000000" points="330,-1732.5 330,-1762.5 619,-1762.5 619,-1732.5 330,-1732.5"/>
<text text-anchor="start" x="337" y="-1743.9" font-family="Arial" font-size="14.00" fill="#000000">readed_at </text>
<text text-anchor="start" x="403.92" y="-1743.9" font-family="Arial" font-size="14.00" fill="#666666">[timestamp(0) without time zone]</text>
<polygon fill="none" stroke="#000000" points="330,-1702.5 330,-1732.5 619,-1732.5 619,-1702.5 330,-1702.5"/>
<text text-anchor="start" x="337" y="-1713.9" font-family="Arial" font-size="14.00" fill="#000000">sended_at </text>
<text text-anchor="start" x="406.2594" y="-1713.9" font-family="Arial" font-size="14.00" fill="#666666">[timestamp(0) without time zone]</text>
<polygon fill="none" stroke="#000000" stroke-width="3" points="328,-1701.5 328,-1859.5 620,-1859.5 620,-1701.5 328,-1701.5"/>
</g>
<!-- public.news -->
<g id="node2" class="node">
<title>public.news</title>
<polygon fill="#efefef" stroke="transparent" points="43,-1017.5 43,-1052.5 431,-1052.5 431,-1017.5 43,-1017.5"/>
<polygon fill="none" stroke="#000000" points="43,-1017.5 43,-1052.5 431,-1052.5 431,-1017.5 43,-1017.5"/>
<text text-anchor="start" x="126.2081" y="-1030.3" font-family="Arial Bold" font-size="18.00" fill="#000000">public.news</text>
<text text-anchor="start" x="220.2239" y="-1030.3" font-family="Arial" font-size="14.00" fill="#000000">    </text>
<text text-anchor="start" x="254.4287" y="-1030.3" font-family="Arial" font-size="14.00" fill="#666666">[BASE TABLE]</text>
<polygon fill="none" stroke="#000000" points="43,-987.5 43,-1017.5 431,-1017.5 431,-987.5 43,-987.5"/>
<text text-anchor="start" x="50" y="-998.9" font-family="Arial" font-size="14.00" fill="#000000">id    </text>
<text text-anchor="start" x="95.094" y="-998.9" font-family="Arial" font-size="14.00" fill="#666666">[bigint]</text>
<polygon fill="none" stroke="#000000" points="43,-957.5 43,-987.5 431,-987.5 431,-957.5 43,-957.5"/>
<text text-anchor="start" x="50" y="-968.9" font-family="Arial" font-size="14.00" fill="#000000">news_title    </text>
<text text-anchor="start" x="146.4362" y="-968.9" font-family="Arial" font-size="14.00" fill="#666666">[varchar(255)]</text>
<polygon fill="none" stroke="#000000" points="43,-927.5 43,-957.5 431,-957.5 431,-927.5 43,-927.5"/>
<text text-anchor="start" x="50" y="-938.9" font-family="Arial" font-size="14.00" fill="#000000">news_text    </text>
<text text-anchor="start" x="147.223" y="-938.9" font-family="Arial" font-size="14.00" fill="#666666">[text]</text>
<polygon fill="none" stroke="#000000" points="43,-897.5 43,-927.5 431,-927.5 431,-897.5 43,-897.5"/>
<text text-anchor="start" x="50" y="-908.9" font-family="Arial" font-size="14.00" fill="#000000">type    </text>
<text text-anchor="start" x="110.6606" y="-908.9" font-family="Arial" font-size="14.00" fill="#666666">[varchar(255)]</text>
<polygon fill="none" stroke="#000000" points="43,-867.5 43,-897.5 431,-897.5 431,-867.5 43,-867.5"/>
<text text-anchor="start" x="50" y="-878.9" font-family="Arial" font-size="14.00" fill="#000000">letter_style    </text>
<text text-anchor="start" x="151.8808" y="-878.9" font-family="Arial" font-size="14.00" fill="#666666">[varchar(255)]</text>
<polygon fill="none" stroke="#000000" points="43,-837.5 43,-867.5 431,-867.5 431,-837.5 43,-837.5"/>
<text text-anchor="start" x="50" y="-848.9" font-family="Arial" font-size="14.00" fill="#000000">send_to    </text>
<text text-anchor="start" x="134.0084" y="-848.9" font-family="Arial" font-size="14.00" fill="#666666">[varchar(255)]</text>
<polygon fill="none" stroke="#000000" points="43,-807.5 43,-837.5 431,-837.5 431,-807.5 43,-807.5"/>
<text text-anchor="start" x="50" y="-818.9" font-family="Arial" font-size="14.00" fill="#000000">send_to_value    </text>
<text text-anchor="start" x="175.2454" y="-818.9" font-family="Arial" font-size="14.00" fill="#666666">[text]</text>
<polygon fill="none" stroke="#000000" points="43,-777.5 43,-807.5 431,-807.5 431,-777.5 43,-777.5"/>
<text text-anchor="start" x="50" y="-788.9" font-family="Arial" font-size="14.00" fill="#000000">is_fixed    </text>
<text text-anchor="start" x="131.6564" y="-788.9" font-family="Arial" font-size="14.00" fill="#666666">[boolean]</text>
<polygon fill="none" stroke="#000000" points="43,-747.5 43,-777.5 431,-777.5 431,-747.5 43,-747.5"/>
<text text-anchor="start" x="50" y="-758.9" font-family="Arial" font-size="14.00" fill="#000000">stop_send    </text>
<text text-anchor="start" x="148.791" y="-758.9" font-family="Arial" font-size="14.00" fill="#666666">[boolean]</text>
<polygon fill="none" stroke="#000000" points="43,-717.5 43,-747.5 431,-747.5 431,-717.5 43,-717.5"/>
<text text-anchor="start" x="49.5239" y="-728.9" font-family="Arial" font-size="14.00" fill="#000000">date_of_start_sending    </text>
<text text-anchor="start" x="222.2321" y="-728.9" font-family="Arial" font-size="14.00" fill="#666666">[timestamp(0) without time zone]</text>
<polygon fill="none" stroke="#000000" points="43,-687.5 43,-717.5 431,-717.5 431,-687.5 43,-687.5"/>
<text text-anchor="start" x="50" y="-698.9" font-family="Arial" font-size="14.00" fill="#000000">deleted_at    </text>
<text text-anchor="start" x="149.5708" y="-698.9" font-family="Arial" font-size="14.00" fill="#666666">[timestamp(0) without time zone]</text>
<polygon fill="none" stroke="#000000" points="43,-657.5 43,-687.5 431,-687.5 431,-657.5 43,-657.5"/>
<text text-anchor="start" x="50" y="-668.9" font-family="Arial" font-size="14.00" fill="#000000">created_at    </text>
<text text-anchor="start" x="150.3422" y="-668.9" font-family="Arial" font-size="14.00" fill="#666666">[timestamp(0) without time zone]</text>
<polygon fill="none" stroke="#000000" points="43,-627.5 43,-657.5 431,-657.5 431,-627.5 43,-627.5"/>
<text text-anchor="start" x="50" y="-638.9" font-family="Arial" font-size="14.00" fill="#000000">updated_at    </text>
<text text-anchor="start" x="154.2468" y="-638.9" font-family="Arial" font-size="14.00" fill="#666666">[timestamp(0) without time zone]</text>
<polygon fill="none" stroke="#000000" points="43,-597.5 43,-627.5 431,-627.5 431,-597.5 43,-597.5"/>
<text text-anchor="start" x="50" y="-608.9" font-family="Arial" font-size="14.00" fill="#000000">manual    </text>
<text text-anchor="start" x="130.1024" y="-608.9" font-family="Arial" font-size="14.00" fill="#666666">[boolean]</text>
<polygon fill="none" stroke="#000000" points="43,-567.5 43,-597.5 431,-597.5 431,-567.5 43,-567.5"/>
<text text-anchor="start" x="50" y="-578.9" font-family="Arial" font-size="14.00" fill="#000000">trigger_id    </text>
<text text-anchor="start" x="142.5428" y="-578.9" font-family="Arial" font-size="14.00" fill="#666666">[integer]</text>
</g>
<!-- public.news_users&#45;&gt;public.news -->
<g id="edge1" class="edge">
<title>public.news_users:news_id&#45;&gt;public.news:id</title>
<path fill="none" stroke="#000000" d="M319.7066,-1806.4982C168.3708,-1774.821 607.594,-1002.5 431,-1002.5"/>
<polygon fill="#000000" stroke="#000000" points="320.047,-1806.5312 329.5641,-1811.9788 325.0235,-1807.0156 330,-1807.5 330,-1807.5 330,-1807.5 325.0235,-1807.0156 330.4359,-1803.0212 320.047,-1806.5312 320.047,-1806.5312"/>
<text text-anchor="start" x="96.9445" y="-1817.5" font-family="Arial" font-size="10.00" fill="#000000">FOREIGN KEY (news_id) REFERENCES news(id)</text>
</g>
<!-- public.users -->
<g id="node3" class="node">
<title>public.users</title>
<polygon fill="#efefef" stroke="transparent" points="535,-1542.5 535,-1577.5 891,-1577.5 891,-1542.5 535,-1542.5"/>
<polygon fill="none" stroke="#000000" points="535,-1542.5 535,-1577.5 891,-1577.5 891,-1542.5 535,-1542.5"/>
<text text-anchor="start" x="601.2091" y="-1555.3" font-family="Arial Bold" font-size="18.00" fill="#000000">public.users</text>
<text text-anchor="start" x="697.2229" y="-1555.3" font-family="Arial" font-size="14.00" fill="#000000">    </text>
<text text-anchor="start" x="731.4277" y="-1555.3" font-family="Arial" font-size="14.00" fill="#666666">[BASE TABLE]</text>
<polygon fill="none" stroke="#000000" points="535,-1512.5 535,-1542.5 891,-1542.5 891,-1512.5 535,-1512.5"/>
<text text-anchor="start" x="542" y="-1523.9" font-family="Arial" font-size="14.00" fill="#000000">id    </text>
<text text-anchor="start" x="587.094" y="-1523.9" font-family="Arial" font-size="14.00" fill="#666666">[bigint]</text>
<polygon fill="none" stroke="#000000" points="535,-1482.5 535,-1512.5 891,-1512.5 891,-1482.5 535,-1482.5"/>
<text text-anchor="start" x="542" y="-1493.9" font-family="Arial" font-size="14.00" fill="#000000">name    </text>
<text text-anchor="start" x="611.2132" y="-1493.9" font-family="Arial" font-size="14.00" fill="#666666">[varchar(255)]</text>
<polygon fill="none" stroke="#000000" points="535,-1452.5 535,-1482.5 891,-1482.5 891,-1452.5 535,-1452.5"/>
<text text-anchor="start" x="542" y="-1463.9" font-family="Arial" font-size="14.00" fill="#000000">email    </text>
<text text-anchor="start" x="609.6438" y="-1463.9" font-family="Arial" font-size="14.00" fill="#666666">[varchar(255)]</text>
<polygon fill="none" stroke="#000000" points="535,-1422.5 535,-1452.5 891,-1452.5 891,-1422.5 535,-1422.5"/>
<text text-anchor="start" x="542" y="-1433.9" font-family="Arial" font-size="14.00" fill="#000000">lang    </text>
<text text-anchor="start" x="602.6592" y="-1433.9" font-family="Arial" font-size="14.00" fill="#666666">[varchar(255)]</text>
<polygon fill="none" stroke="#000000" points="535,-1392.5 535,-1422.5 891,-1422.5 891,-1392.5 535,-1392.5"/>
<text text-anchor="start" x="542" y="-1403.9" font-family="Arial" font-size="14.00" fill="#000000">role    </text>
<text text-anchor="start" x="599.5372" y="-1403.9" font-family="Arial" font-size="14.00" fill="#666666">[varchar(255)]</text>
<polygon fill="none" stroke="#000000" points="535,-1362.5 535,-1392.5 891,-1392.5 891,-1362.5 535,-1362.5"/>
<text text-anchor="start" x="542" y="-1373.9" font-family="Arial" font-size="14.00" fill="#000000">hash_name    </text>
<text text-anchor="start" x="649.3436" y="-1373.9" font-family="Arial" font-size="14.00" fill="#666666">[varchar(255)]</text>
<polygon fill="none" stroke="#000000" points="535,-1332.5 535,-1362.5 891,-1362.5 891,-1332.5 535,-1332.5"/>
<text text-anchor="start" x="542" y="-1343.9" font-family="Arial" font-size="14.00" fill="#000000">user_type_id    </text>
<text text-anchor="start" x="656.3408" y="-1343.9" font-family="Arial" font-size="14.00" fill="#666666">[bigint]</text>
<polygon fill="none" stroke="#000000" points="535,-1302.5 535,-1332.5 891,-1332.5 891,-1302.5 535,-1302.5"/>
<text text-anchor="start" x="542" y="-1313.9" font-family="Arial" font-size="14.00" fill="#000000">type    </text>
<text text-anchor="start" x="602.6606" y="-1313.9" font-family="Arial" font-size="14.00" fill="#666666">[varchar(255)]</text>
<polygon fill="none" stroke="#000000" points="535,-1272.5 535,-1302.5 891,-1302.5 891,-1272.5 535,-1272.5"/>
<text text-anchor="start" x="541.8808" y="-1283.9" font-family="Arial" font-size="14.00" fill="#000000">email_verified_at    </text>
<text text-anchor="start" x="681.8752" y="-1283.9" font-family="Arial" font-size="14.00" fill="#666666">[timestamp(0) without time zone]</text>
<polygon fill="none" stroke="#000000" points="535,-1242.5 535,-1272.5 891,-1272.5 891,-1242.5 535,-1242.5"/>
<text text-anchor="start" x="542" y="-1253.9" font-family="Arial" font-size="14.00" fill="#000000">password    </text>
<text text-anchor="start" x="636.1024" y="-1253.9" font-family="Arial" font-size="14.00" fill="#666666">[varchar(255)]</text>
<polygon fill="none" stroke="#000000" points="535,-1212.5 535,-1242.5 891,-1242.5 891,-1212.5 535,-1212.5"/>
<text text-anchor="start" x="542" y="-1223.9" font-family="Arial" font-size="14.00" fill="#000000">code_for_login    </text>
<text text-anchor="start" x="668.0126" y="-1223.9" font-family="Arial" font-size="14.00" fill="#666666">[varchar(255)]</text>
<polygon fill="none" stroke="#000000" points="535,-1182.5 535,-1212.5 891,-1212.5 891,-1182.5 535,-1182.5"/>
<text text-anchor="start" x="542" y="-1193.9" font-family="Arial" font-size="14.00" fill="#000000">status    </text>
<text text-anchor="start" x="613.5512" y="-1193.9" font-family="Arial" font-size="14.00" fill="#666666">[integer]</text>
<polygon fill="none" stroke="#000000" points="535,-1152.5 535,-1182.5 891,-1182.5 891,-1152.5 535,-1152.5"/>
<text text-anchor="start" x="542" y="-1163.9" font-family="Arial" font-size="14.00" fill="#000000">partner_type    </text>
<text text-anchor="start" x="654.7854" y="-1163.9" font-family="Arial" font-size="14.00" fill="#666666">[varchar(255)]</text>
<polygon fill="none" stroke="#000000" points="535,-1122.5 535,-1152.5 891,-1152.5 891,-1122.5 535,-1122.5"/>
<text text-anchor="start" x="542" y="-1133.9" font-family="Arial" font-size="14.00" fill="#000000">direct_contract    </text>
<text text-anchor="start" x="668" y="-1133.9" font-family="Arial" font-size="14.00" fill="#666666">[boolean]</text>
<polygon fill="none" stroke="#000000" points="535,-1092.5 535,-1122.5 891,-1122.5 891,-1092.5 535,-1092.5"/>
<text text-anchor="start" x="542" y="-1103.9" font-family="Arial" font-size="14.00" fill="#000000">need_api    </text>
<text text-anchor="start" x="633.7896" y="-1103.9" font-family="Arial" font-size="14.00" fill="#666666">[boolean]</text>
<polygon fill="none" stroke="#000000" points="535,-1062.5 535,-1092.5 891,-1092.5 891,-1062.5 535,-1062.5"/>
<text text-anchor="start" x="542" y="-1073.9" font-family="Arial" font-size="14.00" fill="#000000">ref_id    </text>
<text text-anchor="start" x="611.2104" y="-1073.9" font-family="Arial" font-size="14.00" fill="#666666">[bigint]</text>
<polygon fill="none" stroke="#000000" points="535,-1032.5 535,-1062.5 891,-1062.5 891,-1032.5 535,-1032.5"/>
<text text-anchor="start" x="542" y="-1043.9" font-family="Arial" font-size="14.00" fill="#000000">comment    </text>
<text text-anchor="start" x="633.7644" y="-1043.9" font-family="Arial" font-size="14.00" fill="#666666">[varchar(255)]</text>
<polygon fill="none" stroke="#000000" points="535,-1002.5 535,-1032.5 891,-1032.5 891,-1002.5 535,-1002.5"/>
<text text-anchor="start" x="542" y="-1013.9" font-family="Arial" font-size="14.00" fill="#000000">date_of_birth    </text>
<text text-anchor="start" x="657.9046" y="-1013.9" font-family="Arial" font-size="14.00" fill="#666666">[date]</text>
<polygon fill="none" stroke="#000000" points="535,-972.5 535,-1002.5 891,-1002.5 891,-972.5 535,-972.5"/>
<text text-anchor="start" x="542" y="-983.9" font-family="Arial" font-size="14.00" fill="#000000">passport_series    </text>
<text text-anchor="start" x="675.0014" y="-983.9" font-family="Arial" font-size="14.00" fill="#666666">[varchar(255)]</text>
<polygon fill="none" stroke="#000000" points="535,-942.5 535,-972.5 891,-972.5 891,-942.5 535,-942.5"/>
<text text-anchor="start" x="542" y="-953.9" font-family="Arial" font-size="14.00" fill="#000000">passport_number    </text>
<text text-anchor="start" x="685.1206" y="-953.9" font-family="Arial" font-size="14.00" fill="#666666">[varchar(255)]</text>
<polygon fill="none" stroke="#000000" points="535,-912.5 535,-942.5 891,-942.5 891,-912.5 535,-912.5"/>
<text text-anchor="start" x="542" y="-923.9" font-family="Arial" font-size="14.00" fill="#000000">citizenship    </text>
<text text-anchor="start" x="641.5456" y="-923.9" font-family="Arial" font-size="14.00" fill="#666666">[varchar(255)]</text>
<polygon fill="none" stroke="#000000" points="535,-882.5 535,-912.5 891,-912.5 891,-882.5 535,-882.5"/>
<text text-anchor="start" x="542" y="-893.9" font-family="Arial" font-size="14.00" fill="#000000">client_id    </text>
<text text-anchor="start" x="627.5456" y="-893.9" font-family="Arial" font-size="14.00" fill="#666666">[varchar(255)]</text>
<polygon fill="none" stroke="#000000" points="535,-852.5 535,-882.5 891,-882.5 891,-852.5 535,-852.5"/>
<text text-anchor="start" x="542" y="-863.9" font-family="Arial" font-size="14.00" fill="#000000">phone    </text>
<text text-anchor="start" x="615.1178" y="-863.9" font-family="Arial" font-size="14.00" fill="#666666">[varchar(255)]</text>
<polygon fill="none" stroke="#000000" points="535,-822.5 535,-852.5 891,-852.5 891,-822.5 535,-822.5"/>
<text text-anchor="start" x="542" y="-833.9" font-family="Arial" font-size="14.00" fill="#000000">skype    </text>
<text text-anchor="start" x="612.77" y="-833.9" font-family="Arial" font-size="14.00" fill="#666666">[varchar(255)]</text>
<polygon fill="none" stroke="#000000" points="535,-792.5 535,-822.5 891,-822.5 891,-792.5 535,-792.5"/>
<text text-anchor="start" x="542" y="-803.9" font-family="Arial" font-size="14.00" fill="#000000">whatsapp    </text>
<text text-anchor="start" x="636.115" y="-803.9" font-family="Arial" font-size="14.00" fill="#666666">[varchar(255)]</text>
<polygon fill="none" stroke="#000000" points="535,-762.5 535,-792.5 891,-792.5 891,-762.5 535,-762.5"/>
<text text-anchor="start" x="542" y="-773.9" font-family="Arial" font-size="14.00" fill="#000000">telegram    </text>
<text text-anchor="start" x="630.6536" y="-773.9" font-family="Arial" font-size="14.00" fill="#666666">[varchar(255)]</text>
<polygon fill="none" stroke="#000000" points="535,-732.5 535,-762.5 891,-762.5 891,-732.5 535,-732.5"/>
<text text-anchor="start" x="542" y="-743.9" font-family="Arial" font-size="14.00" fill="#000000">address    </text>
<text text-anchor="start" x="625.9958" y="-743.9" font-family="Arial" font-size="14.00" fill="#666666">[text]</text>
<polygon fill="none" stroke="#000000" points="535,-702.5 535,-732.5 891,-732.5 891,-702.5 535,-702.5"/>
<text text-anchor="start" x="542" y="-713.9" font-family="Arial" font-size="14.00" fill="#000000">postal_code    </text>
<text text-anchor="start" x="651.6802" y="-713.9" font-family="Arial" font-size="14.00" fill="#666666">[varchar(255)]</text>
<polygon fill="none" stroke="#000000" points="535,-672.5 535,-702.5 891,-702.5 891,-672.5 535,-672.5"/>
<text text-anchor="start" x="542" y="-683.9" font-family="Arial" font-size="14.00" fill="#000000">city    </text>
<text text-anchor="start" x="597.202" y="-683.9" font-family="Arial" font-size="14.00" fill="#666666">[varchar(255)]</text>
<polygon fill="none" stroke="#000000" points="535,-642.5 535,-672.5 891,-672.5 891,-642.5 535,-642.5"/>
<text text-anchor="start" x="542" y="-653.9" font-family="Arial" font-size="14.00" fill="#000000">country    </text>
<text text-anchor="start" x="622.1038" y="-653.9" font-family="Arial" font-size="14.00" fill="#666666">[varchar(255)]</text>
<polygon fill="none" stroke="#000000" points="535,-612.5 535,-642.5 891,-642.5 891,-612.5 535,-612.5"/>
<text text-anchor="start" x="542" y="-623.9" font-family="Arial" font-size="14.00" fill="#000000">welcome_status    </text>
<text text-anchor="start" x="676.5554" y="-623.9" font-family="Arial" font-size="14.00" fill="#666666">[varchar(255)]</text>
<polygon fill="none" stroke="#000000" points="535,-582.5 535,-612.5 891,-612.5 891,-582.5 535,-582.5"/>
<text text-anchor="start" x="542" y="-593.9" font-family="Arial" font-size="14.00" fill="#000000">welcome_confirm_code    </text>
<text text-anchor="start" x="723.223" y="-593.9" font-family="Arial" font-size="14.00" fill="#666666">[integer]</text>
<polygon fill="none" stroke="#000000" points="535,-552.5 535,-582.5 891,-582.5 891,-552.5 535,-552.5"/>
<text text-anchor="start" x="542" y="-563.9" font-family="Arial" font-size="14.00" fill="#000000">all_docs    </text>
<text text-anchor="start" x="627.5484" y="-563.9" font-family="Arial" font-size="14.00" fill="#666666">[boolean]</text>
<polygon fill="none" stroke="#000000" points="535,-522.5 535,-552.5 891,-552.5 891,-522.5 535,-522.5"/>
<text text-anchor="start" x="542" y="-533.9" font-family="Arial" font-size="14.00" fill="#000000">sign_status    </text>
<text text-anchor="start" x="647.0056" y="-533.9" font-family="Arial" font-size="14.00" fill="#666666">[varchar(255)]</text>
<polygon fill="none" stroke="#000000" points="535,-492.5 535,-522.5 891,-522.5 891,-492.5 535,-492.5"/>
<text text-anchor="start" x="542" y="-503.9" font-family="Arial" font-size="14.00" fill="#000000">letter_style    </text>
<text text-anchor="start" x="643.8808" y="-503.9" font-family="Arial" font-size="14.00" fill="#666666">[varchar(255)]</text>
<polygon fill="none" stroke="#000000" points="535,-462.5 535,-492.5 891,-492.5 891,-462.5 535,-462.5"/>
<text text-anchor="start" x="542" y="-473.9" font-family="Arial" font-size="14.00" fill="#000000">all_fields    </text>
<text text-anchor="start" x="630.6522" y="-473.9" font-family="Arial" font-size="14.00" fill="#666666">[boolean]</text>
<polygon fill="none" stroke="#000000" points="535,-432.5 535,-462.5 891,-462.5 891,-432.5 535,-432.5"/>
<text text-anchor="start" x="542" y="-443.9" font-family="Arial" font-size="14.00" fill="#000000">balance_popup    </text>
<text text-anchor="start" x="671.92" y="-443.9" font-family="Arial" font-size="14.00" fill="#666666">[boolean]</text>
<polygon fill="none" stroke="#000000" points="535,-402.5 535,-432.5 891,-432.5 891,-402.5 535,-402.5"/>
<text text-anchor="start" x="542" y="-413.9" font-family="Arial" font-size="14.00" fill="#000000">email_unsubs    </text>
<text text-anchor="start" x="662.5568" y="-413.9" font-family="Arial" font-size="14.00" fill="#666666">[boolean]</text>
<polygon fill="none" stroke="#000000" points="535,-372.5 535,-402.5 891,-402.5 891,-372.5 535,-372.5"/>
<text text-anchor="start" x="542" y="-383.9" font-family="Arial" font-size="14.00" fill="#000000">model    </text>
<text text-anchor="start" x="614.3198" y="-383.9" font-family="Arial" font-size="14.00" fill="#666666">[varchar(255)]</text>
<polygon fill="none" stroke="#000000" points="535,-342.5 535,-372.5 891,-372.5 891,-342.5 535,-342.5"/>
<text text-anchor="start" x="542" y="-353.9" font-family="Arial" font-size="14.00" fill="#000000">remember_token    </text>
<text text-anchor="start" x="681.9986" y="-353.9" font-family="Arial" font-size="14.00" fill="#666666">[varchar(100)]</text>
<polygon fill="none" stroke="#000000" points="535,-312.5 535,-342.5 891,-342.5 891,-312.5 535,-312.5"/>
<text text-anchor="start" x="542" y="-323.9" font-family="Arial" font-size="14.00" fill="#000000">auth_token    </text>
<text text-anchor="start" x="645.4642" y="-323.9" font-family="Arial" font-size="14.00" fill="#666666">[varchar(100)]</text>
<polygon fill="none" stroke="#000000" points="535,-282.5 535,-312.5 891,-312.5 891,-282.5 535,-282.5"/>
<text text-anchor="start" x="542" y="-293.9" font-family="Arial" font-size="14.00" fill="#000000">utms    </text>
<text text-anchor="start" x="606.5386" y="-293.9" font-family="Arial" font-size="14.00" fill="#666666">[json]</text>
<polygon fill="none" stroke="#000000" points="535,-252.5 535,-282.5 891,-282.5 891,-252.5 535,-252.5"/>
<text text-anchor="start" x="542" y="-263.9" font-family="Arial" font-size="14.00" fill="#000000">created_at    </text>
<text text-anchor="start" x="642.3422" y="-263.9" font-family="Arial" font-size="14.00" fill="#666666">[timestamp(0) without time zone]</text>
<polygon fill="none" stroke="#000000" points="535,-222.5 535,-252.5 891,-252.5 891,-222.5 535,-222.5"/>
<text text-anchor="start" x="542" y="-233.9" font-family="Arial" font-size="14.00" fill="#000000">updated_at    </text>
<text text-anchor="start" x="646.2468" y="-233.9" font-family="Arial" font-size="14.00" fill="#666666">[timestamp(0) without time zone]</text>
<polygon fill="none" stroke="#000000" points="535,-192.5 535,-222.5 891,-222.5 891,-192.5 535,-192.5"/>
<text text-anchor="start" x="542" y="-203.9" font-family="Arial" font-size="14.00" fill="#000000">deleted_at    </text>
<text text-anchor="start" x="641.5708" y="-203.9" font-family="Arial" font-size="14.00" fill="#666666">[timestamp(0) without time zone]</text>
<polygon fill="none" stroke="#000000" points="535,-162.5 535,-192.5 891,-192.5 891,-162.5 535,-162.5"/>
<text text-anchor="start" x="542" y="-173.9" font-family="Arial" font-size="14.00" fill="#000000">send_to_ado    </text>
<text text-anchor="start" x="657.1388" y="-173.9" font-family="Arial" font-size="14.00" fill="#666666">[boolean]</text>
<polygon fill="none" stroke="#000000" points="535,-132.5 535,-162.5 891,-162.5 891,-132.5 535,-132.5"/>
<text text-anchor="start" x="542" y="-143.9" font-family="Arial" font-size="14.00" fill="#000000">ado_sent_at    </text>
<text text-anchor="start" x="653.2468" y="-143.9" font-family="Arial" font-size="14.00" fill="#666666">[timestamp(0) without time zone]</text>
<polygon fill="none" stroke="#000000" points="535,-102.5 535,-132.5 891,-132.5 891,-102.5 535,-102.5"/>
<text text-anchor="start" x="542" y="-113.9" font-family="Arial" font-size="14.00" fill="#000000">surname    </text>
<text text-anchor="start" x="630.6564" y="-113.9" font-family="Arial" font-size="14.00" fill="#666666">[varchar(255)]</text>
<polygon fill="none" stroke="#000000" points="535,-72.5 535,-102.5 891,-102.5 891,-72.5 535,-72.5"/>
<text text-anchor="start" x="542" y="-83.9" font-family="Arial" font-size="14.00" fill="#000000">mgm    </text>
<text text-anchor="start" x="607.3086" y="-83.9" font-family="Arial" font-size="14.00" fill="#666666">[boolean]</text>
<polygon fill="none" stroke="#000000" points="535,-42.5 535,-72.5 891,-72.5 891,-42.5 535,-42.5"/>
<text text-anchor="start" x="542" y="-53.9" font-family="Arial" font-size="14.00" fill="#000000">employer    </text>
<text text-anchor="start" x="633.763" y="-53.9" font-family="Arial" font-size="14.00" fill="#666666">[boolean]</text>
</g>
<!-- public.news_users&#45;&gt;public.users -->
<g id="edge2" class="edge">
<title>public.news_users:user_id&#45;&gt;public.users:id</title>
<path fill="none" stroke="#000000" d="M629.1706,-1776.4131C669.1435,-1766.9957 646.4089,-1698.5667 619,-1657 596.6405,-1623.0909 557.3595,-1654.9091 535,-1621 512.124,-1586.3077 493.4444,-1527.5 535,-1527.5"/>
<polygon fill="#000000" stroke="#000000" points="628.9434,-1776.4373 618.5218,-1773.0255 623.9717,-1776.9686 619,-1777.5 619,-1777.5 619,-1777.5 623.9717,-1776.9686 619.4782,-1781.9745 628.9434,-1776.4373 628.9434,-1776.4373"/>
<text text-anchor="start" x="626.3345" y="-1787.5" font-family="Arial" font-size="10.00" fill="#000000">FOREIGN KEY (user_id) REFERENCES users(id)</text>
</g>
</g>
</svg>
