<?xml version="1.0" encoding="UTF-8" standalone="no"?>
<!DOCTYPE svg PUBLIC "-//W3C//DTD SVG 1.1//EN"
 "http://www.w3.org/Graphics/SVG/1.1/DTD/svg11.dtd">
<!-- Generated by graphviz version 2.40.1 (20161225.0304)
 -->
<!-- Title: public.trigger_email_blocks Pages: 1 -->
<svg width="458pt" height="495pt"
 viewBox="0.00 0.00 458.00 495.00" xmlns="http://www.w3.org/2000/svg" xmlns:xlink="http://www.w3.org/1999/xlink">
<g id="graph0" class="graph" transform="scale(1 1) rotate(0) translate(4 491)">
<title>public.trigger_email_blocks</title>
<polygon fill="#ffffff" stroke="transparent" points="-4,4 -4,-491 454,-491 454,4 -4,4"/>
<!-- public.trigger_email_blocks -->
<g id="node1" class="node">
<title>public.trigger_email_blocks</title>
<polygon fill="#efefef" stroke="transparent" points="46,-405.5 46,-440.5 404,-440.5 404,-405.5 46,-405.5"/>
<polygon fill="none" stroke="#000000" points="46,-405.5 46,-440.5 404,-440.5 404,-405.5 46,-405.5"/>
<text text-anchor="start" x="52.7057" y="-418.3" font-family="Arial Bold" font-size="18.00" fill="#000000">public.trigger_email_blocks</text>
<text text-anchor="start" x="269.7263" y="-418.3" font-family="Arial" font-size="14.00" fill="#000000">    </text>
<text text-anchor="start" x="303.9311" y="-418.3" font-family="Arial" font-size="14.00" fill="#666666">[BASE TABLE]</text>
<polygon fill="none" stroke="#000000" points="46,-375.5 46,-405.5 404,-405.5 404,-375.5 46,-375.5"/>
<text text-anchor="start" x="53" y="-386.9" font-family="Arial" font-size="14.00" fill="#000000">id </text>
<text text-anchor="start" x="67.7798" y="-386.9" font-family="Arial" font-size="14.00" fill="#666666">[bigint]</text>
<polygon fill="none" stroke="#000000" points="46,-345.5 46,-375.5 404,-375.5 404,-345.5 46,-345.5"/>
<text text-anchor="start" x="53" y="-356.9" font-family="Arial" font-size="14.00" fill="#000000">trigger_news_id </text>
<text text-anchor="start" x="155.683" y="-356.9" font-family="Arial" font-size="14.00" fill="#666666">[bigint]</text>
<polygon fill="none" stroke="#000000" points="46,-315.5 46,-345.5 404,-345.5 404,-315.5 46,-315.5"/>
<text text-anchor="start" x="53" y="-326.9" font-family="Arial" font-size="14.00" fill="#000000">dom_id </text>
<text text-anchor="start" x="102.7882" y="-326.9" font-family="Arial" font-size="14.00" fill="#666666">[varchar(255)]</text>
<polygon fill="none" stroke="#000000" points="46,-285.5 46,-315.5 404,-315.5 404,-285.5 46,-285.5"/>
<text text-anchor="start" x="53" y="-296.9" font-family="Arial" font-size="14.00" fill="#000000">title </text>
<text text-anchor="start" x="78.6676" y="-296.9" font-family="Arial" font-size="14.00" fill="#666666">[varchar(255)]</text>
<polygon fill="none" stroke="#000000" points="46,-255.5 46,-285.5 404,-285.5 404,-255.5 46,-255.5"/>
<text text-anchor="start" x="53" y="-266.9" font-family="Arial" font-size="14.00" fill="#000000">readable_title </text>
<text text-anchor="start" x="140.913" y="-266.9" font-family="Arial" font-size="14.00" fill="#666666">[varchar(255)]</text>
<polygon fill="none" stroke="#000000" points="46,-225.5 46,-255.5 404,-255.5 404,-225.5 46,-225.5"/>
<text text-anchor="start" x="53" y="-236.9" font-family="Arial" font-size="14.00" fill="#000000">position </text>
<text text-anchor="start" x="105.1248" y="-236.9" font-family="Arial" font-size="14.00" fill="#666666">[varchar(255)]</text>
<polygon fill="none" stroke="#000000" points="46,-195.5 46,-225.5 404,-225.5 404,-195.5 46,-195.5"/>
<text text-anchor="start" x="53" y="-206.9" font-family="Arial" font-size="14.00" fill="#000000">fields </text>
<text text-anchor="start" x="89.5596" y="-206.9" font-family="Arial" font-size="14.00" fill="#666666">[text]</text>
<polygon fill="none" stroke="#000000" points="46,-165.5 46,-195.5 404,-195.5 404,-165.5 46,-165.5"/>
<text text-anchor="start" x="53" y="-176.9" font-family="Arial" font-size="14.00" fill="#000000">type </text>
<text text-anchor="start" x="83.3464" y="-176.9" font-family="Arial" font-size="14.00" fill="#666666">[varchar(255)]</text>
<polygon fill="none" stroke="#000000" points="46,-135.5 46,-165.5 404,-165.5 404,-135.5 46,-135.5"/>
<text text-anchor="start" x="53" y="-146.9" font-family="Arial" font-size="14.00" fill="#000000">hide </text>
<text text-anchor="start" x="83.345" y="-146.9" font-family="Arial" font-size="14.00" fill="#666666">[boolean]</text>
<polygon fill="none" stroke="#000000" points="46,-105.5 46,-135.5 404,-135.5 404,-105.5 46,-105.5"/>
<text text-anchor="start" x="53" y="-116.9" font-family="Arial" font-size="14.00" fill="#000000">created_at </text>
<text text-anchor="start" x="123.028" y="-116.9" font-family="Arial" font-size="14.00" fill="#666666">[timestamp(0) without time zone]</text>
<polygon fill="none" stroke="#000000" points="46,-75.5 46,-105.5 404,-105.5 404,-75.5 46,-75.5"/>
<text text-anchor="start" x="53" y="-86.9" font-family="Arial" font-size="14.00" fill="#000000">updated_at </text>
<text text-anchor="start" x="126.9326" y="-86.9" font-family="Arial" font-size="14.00" fill="#666666">[timestamp(0) without time zone]</text>
<polygon fill="none" stroke="#000000" points="46,-45.5 46,-75.5 404,-75.5 404,-45.5 46,-45.5"/>
<text text-anchor="start" x="53" y="-56.9" font-family="Arial" font-size="14.00" fill="#000000">deleted_at </text>
<text text-anchor="start" x="122.2566" y="-56.9" font-family="Arial" font-size="14.00" fill="#666666">[timestamp(0) without time zone]</text>
<polygon fill="none" stroke="#000000" stroke-width="3" points="44.5,-44.5 44.5,-442.5 405.5,-442.5 405.5,-44.5 44.5,-44.5"/>
</g>
</g>
</svg>
