<?xml version="1.0" encoding="UTF-8" standalone="no"?>
<!DOCTYPE svg PUBLIC "-//W3C//DTD SVG 1.1//EN"
 "http://www.w3.org/Graphics/SVG/1.1/DTD/svg11.dtd">
<!-- Generated by graphviz version 2.40.1 (20161225.0304)
 -->
<!-- Title: public.history_update_user_profiles Pages: 1 -->
<svg width="715pt" height="2032pt"
 viewBox="0.00 0.00 715.00 2032.00" xmlns="http://www.w3.org/2000/svg" xmlns:xlink="http://www.w3.org/1999/xlink">
<g id="graph0" class="graph" transform="scale(1 1) rotate(0) translate(4 2028)">
<title>public.history_update_user_profiles</title>
<polygon fill="#ffffff" stroke="transparent" points="-4,4 -4,-2028 711,-2028 711,4 -4,4"/>
<!-- public.history_update_user_profiles -->
<g id="node1" class="node">
<title>public.history_update_user_profiles</title>
<polygon fill="#efefef" stroke="transparent" points="46,-1942.5 46,-1977.5 470,-1977.5 470,-1942.5 46,-1942.5"/>
<polygon fill="none" stroke="#000000" points="46,-1942.5 46,-1977.5 470,-1977.5 470,-1942.5 46,-1942.5"/>
<text text-anchor="start" x="52.682" y="-1955.3" font-family="Arial Bold" font-size="18.00" fill="#000000">public.history_update_user_profiles</text>
<text text-anchor="start" x="335.75" y="-1955.3" font-family="Arial" font-size="14.00" fill="#000000">    </text>
<text text-anchor="start" x="369.9548" y="-1955.3" font-family="Arial" font-size="14.00" fill="#666666">[BASE TABLE]</text>
<polygon fill="none" stroke="#000000" points="46,-1912.5 46,-1942.5 470,-1942.5 470,-1912.5 46,-1912.5"/>
<text text-anchor="start" x="53" y="-1923.9" font-family="Arial" font-size="14.00" fill="#000000">id </text>
<text text-anchor="start" x="67.7798" y="-1923.9" font-family="Arial" font-size="14.00" fill="#666666">[bigint]</text>
<polygon fill="none" stroke="#000000" points="46,-1882.5 46,-1912.5 470,-1912.5 470,-1882.5 46,-1882.5"/>
<text text-anchor="start" x="53" y="-1893.9" font-family="Arial" font-size="14.00" fill="#000000">user_id </text>
<text text-anchor="start" x="102.7882" y="-1893.9" font-family="Arial" font-size="14.00" fill="#666666">[bigint]</text>
<polygon fill="none" stroke="#000000" points="46,-1852.5 46,-1882.5 470,-1882.5 470,-1852.5 46,-1852.5"/>
<text text-anchor="start" x="53" y="-1863.9" font-family="Arial" font-size="14.00" fill="#000000">table_name </text>
<text text-anchor="start" x="130.0266" y="-1863.9" font-family="Arial" font-size="14.00" fill="#666666">[text]</text>
<polygon fill="none" stroke="#000000" points="46,-1822.5 46,-1852.5 470,-1852.5 470,-1822.5 46,-1822.5"/>
<text text-anchor="start" x="53" y="-1833.9" font-family="Arial" font-size="14.00" fill="#000000">field_name </text>
<text text-anchor="start" x="125.3506" y="-1833.9" font-family="Arial" font-size="14.00" fill="#666666">[text]</text>
<polygon fill="none" stroke="#000000" points="46,-1792.5 46,-1822.5 470,-1822.5 470,-1792.5 46,-1792.5"/>
<text text-anchor="start" x="53" y="-1803.9" font-family="Arial" font-size="14.00" fill="#000000">old_value </text>
<text text-anchor="start" x="116.7994" y="-1803.9" font-family="Arial" font-size="14.00" fill="#666666">[text]</text>
<polygon fill="none" stroke="#000000" points="46,-1762.5 46,-1792.5 470,-1792.5 470,-1762.5 46,-1762.5"/>
<text text-anchor="start" x="53" y="-1773.9" font-family="Arial" font-size="14.00" fill="#000000">new_value </text>
<text text-anchor="start" x="123.7994" y="-1773.9" font-family="Arial" font-size="14.00" fill="#666666">[text]</text>
<polygon fill="none" stroke="#000000" points="46,-1732.5 46,-1762.5 470,-1762.5 470,-1732.5 46,-1732.5"/>
<text text-anchor="start" x="53" y="-1743.9" font-family="Arial" font-size="14.00" fill="#000000">created_at </text>
<text text-anchor="start" x="123.028" y="-1743.9" font-family="Arial" font-size="14.00" fill="#666666">[timestamp(0) without time zone]</text>
<polygon fill="none" stroke="#000000" points="46,-1702.5 46,-1732.5 470,-1732.5 470,-1702.5 46,-1702.5"/>
<text text-anchor="start" x="53" y="-1713.9" font-family="Arial" font-size="14.00" fill="#000000">updated_at </text>
<text text-anchor="start" x="126.9326" y="-1713.9" font-family="Arial" font-size="14.00" fill="#666666">[timestamp(0) without time zone]</text>
<polygon fill="none" stroke="#000000" stroke-width="3" points="44.5,-1701.5 44.5,-1979.5 471.5,-1979.5 471.5,-1701.5 44.5,-1701.5"/>
</g>
<!-- public.users -->
<g id="node2" class="node">
<title>public.users</title>
<polygon fill="#efefef" stroke="transparent" points="80,-1542.5 80,-1577.5 436,-1577.5 436,-1542.5 80,-1542.5"/>
<polygon fill="none" stroke="#000000" points="80,-1542.5 80,-1577.5 436,-1577.5 436,-1542.5 80,-1542.5"/>
<text text-anchor="start" x="146.2091" y="-1555.3" font-family="Arial Bold" font-size="18.00" fill="#000000">public.users</text>
<text text-anchor="start" x="242.2229" y="-1555.3" font-family="Arial" font-size="14.00" fill="#000000">    </text>
<text text-anchor="start" x="276.4277" y="-1555.3" font-family="Arial" font-size="14.00" fill="#666666">[BASE TABLE]</text>
<polygon fill="none" stroke="#000000" points="80,-1512.5 80,-1542.5 436,-1542.5 436,-1512.5 80,-1512.5"/>
<text text-anchor="start" x="87" y="-1523.9" font-family="Arial" font-size="14.00" fill="#000000">id    </text>
<text text-anchor="start" x="132.094" y="-1523.9" font-family="Arial" font-size="14.00" fill="#666666">[bigint]</text>
<polygon fill="none" stroke="#000000" points="80,-1482.5 80,-1512.5 436,-1512.5 436,-1482.5 80,-1482.5"/>
<text text-anchor="start" x="87" y="-1493.9" font-family="Arial" font-size="14.00" fill="#000000">name    </text>
<text text-anchor="start" x="156.2132" y="-1493.9" font-family="Arial" font-size="14.00" fill="#666666">[varchar(255)]</text>
<polygon fill="none" stroke="#000000" points="80,-1452.5 80,-1482.5 436,-1482.5 436,-1452.5 80,-1452.5"/>
<text text-anchor="start" x="87" y="-1463.9" font-family="Arial" font-size="14.00" fill="#000000">email    </text>
<text text-anchor="start" x="154.6438" y="-1463.9" font-family="Arial" font-size="14.00" fill="#666666">[varchar(255)]</text>
<polygon fill="none" stroke="#000000" points="80,-1422.5 80,-1452.5 436,-1452.5 436,-1422.5 80,-1422.5"/>
<text text-anchor="start" x="87" y="-1433.9" font-family="Arial" font-size="14.00" fill="#000000">lang    </text>
<text text-anchor="start" x="147.6592" y="-1433.9" font-family="Arial" font-size="14.00" fill="#666666">[varchar(255)]</text>
<polygon fill="none" stroke="#000000" points="80,-1392.5 80,-1422.5 436,-1422.5 436,-1392.5 80,-1392.5"/>
<text text-anchor="start" x="87" y="-1403.9" font-family="Arial" font-size="14.00" fill="#000000">role    </text>
<text text-anchor="start" x="144.5372" y="-1403.9" font-family="Arial" font-size="14.00" fill="#666666">[varchar(255)]</text>
<polygon fill="none" stroke="#000000" points="80,-1362.5 80,-1392.5 436,-1392.5 436,-1362.5 80,-1362.5"/>
<text text-anchor="start" x="87" y="-1373.9" font-family="Arial" font-size="14.00" fill="#000000">hash_name    </text>
<text text-anchor="start" x="194.3436" y="-1373.9" font-family="Arial" font-size="14.00" fill="#666666">[varchar(255)]</text>
<polygon fill="none" stroke="#000000" points="80,-1332.5 80,-1362.5 436,-1362.5 436,-1332.5 80,-1332.5"/>
<text text-anchor="start" x="87" y="-1343.9" font-family="Arial" font-size="14.00" fill="#000000">user_type_id    </text>
<text text-anchor="start" x="201.3408" y="-1343.9" font-family="Arial" font-size="14.00" fill="#666666">[bigint]</text>
<polygon fill="none" stroke="#000000" points="80,-1302.5 80,-1332.5 436,-1332.5 436,-1302.5 80,-1302.5"/>
<text text-anchor="start" x="87" y="-1313.9" font-family="Arial" font-size="14.00" fill="#000000">type    </text>
<text text-anchor="start" x="147.6606" y="-1313.9" font-family="Arial" font-size="14.00" fill="#666666">[varchar(255)]</text>
<polygon fill="none" stroke="#000000" points="80,-1272.5 80,-1302.5 436,-1302.5 436,-1272.5 80,-1272.5"/>
<text text-anchor="start" x="86.8808" y="-1283.9" font-family="Arial" font-size="14.00" fill="#000000">email_verified_at    </text>
<text text-anchor="start" x="226.8752" y="-1283.9" font-family="Arial" font-size="14.00" fill="#666666">[timestamp(0) without time zone]</text>
<polygon fill="none" stroke="#000000" points="80,-1242.5 80,-1272.5 436,-1272.5 436,-1242.5 80,-1242.5"/>
<text text-anchor="start" x="87" y="-1253.9" font-family="Arial" font-size="14.00" fill="#000000">password    </text>
<text text-anchor="start" x="181.1024" y="-1253.9" font-family="Arial" font-size="14.00" fill="#666666">[varchar(255)]</text>
<polygon fill="none" stroke="#000000" points="80,-1212.5 80,-1242.5 436,-1242.5 436,-1212.5 80,-1212.5"/>
<text text-anchor="start" x="87" y="-1223.9" font-family="Arial" font-size="14.00" fill="#000000">code_for_login    </text>
<text text-anchor="start" x="213.0126" y="-1223.9" font-family="Arial" font-size="14.00" fill="#666666">[varchar(255)]</text>
<polygon fill="none" stroke="#000000" points="80,-1182.5 80,-1212.5 436,-1212.5 436,-1182.5 80,-1182.5"/>
<text text-anchor="start" x="87" y="-1193.9" font-family="Arial" font-size="14.00" fill="#000000">status    </text>
<text text-anchor="start" x="158.5512" y="-1193.9" font-family="Arial" font-size="14.00" fill="#666666">[integer]</text>
<polygon fill="none" stroke="#000000" points="80,-1152.5 80,-1182.5 436,-1182.5 436,-1152.5 80,-1152.5"/>
<text text-anchor="start" x="87" y="-1163.9" font-family="Arial" font-size="14.00" fill="#000000">partner_type    </text>
<text text-anchor="start" x="199.7854" y="-1163.9" font-family="Arial" font-size="14.00" fill="#666666">[varchar(255)]</text>
<polygon fill="none" stroke="#000000" points="80,-1122.5 80,-1152.5 436,-1152.5 436,-1122.5 80,-1122.5"/>
<text text-anchor="start" x="87" y="-1133.9" font-family="Arial" font-size="14.00" fill="#000000">direct_contract    </text>
<text text-anchor="start" x="213" y="-1133.9" font-family="Arial" font-size="14.00" fill="#666666">[boolean]</text>
<polygon fill="none" stroke="#000000" points="80,-1092.5 80,-1122.5 436,-1122.5 436,-1092.5 80,-1092.5"/>
<text text-anchor="start" x="87" y="-1103.9" font-family="Arial" font-size="14.00" fill="#000000">need_api    </text>
<text text-anchor="start" x="178.7896" y="-1103.9" font-family="Arial" font-size="14.00" fill="#666666">[boolean]</text>
<polygon fill="none" stroke="#000000" points="80,-1062.5 80,-1092.5 436,-1092.5 436,-1062.5 80,-1062.5"/>
<text text-anchor="start" x="87" y="-1073.9" font-family="Arial" font-size="14.00" fill="#000000">ref_id    </text>
<text text-anchor="start" x="156.2104" y="-1073.9" font-family="Arial" font-size="14.00" fill="#666666">[bigint]</text>
<polygon fill="none" stroke="#000000" points="80,-1032.5 80,-1062.5 436,-1062.5 436,-1032.5 80,-1032.5"/>
<text text-anchor="start" x="87" y="-1043.9" font-family="Arial" font-size="14.00" fill="#000000">comment    </text>
<text text-anchor="start" x="178.7644" y="-1043.9" font-family="Arial" font-size="14.00" fill="#666666">[varchar(255)]</text>
<polygon fill="none" stroke="#000000" points="80,-1002.5 80,-1032.5 436,-1032.5 436,-1002.5 80,-1002.5"/>
<text text-anchor="start" x="87" y="-1013.9" font-family="Arial" font-size="14.00" fill="#000000">date_of_birth    </text>
<text text-anchor="start" x="202.9046" y="-1013.9" font-family="Arial" font-size="14.00" fill="#666666">[date]</text>
<polygon fill="none" stroke="#000000" points="80,-972.5 80,-1002.5 436,-1002.5 436,-972.5 80,-972.5"/>
<text text-anchor="start" x="87" y="-983.9" font-family="Arial" font-size="14.00" fill="#000000">passport_series    </text>
<text text-anchor="start" x="220.0014" y="-983.9" font-family="Arial" font-size="14.00" fill="#666666">[varchar(255)]</text>
<polygon fill="none" stroke="#000000" points="80,-942.5 80,-972.5 436,-972.5 436,-942.5 80,-942.5"/>
<text text-anchor="start" x="87" y="-953.9" font-family="Arial" font-size="14.00" fill="#000000">passport_number    </text>
<text text-anchor="start" x="230.1206" y="-953.9" font-family="Arial" font-size="14.00" fill="#666666">[varchar(255)]</text>
<polygon fill="none" stroke="#000000" points="80,-912.5 80,-942.5 436,-942.5 436,-912.5 80,-912.5"/>
<text text-anchor="start" x="87" y="-923.9" font-family="Arial" font-size="14.00" fill="#000000">citizenship    </text>
<text text-anchor="start" x="186.5456" y="-923.9" font-family="Arial" font-size="14.00" fill="#666666">[varchar(255)]</text>
<polygon fill="none" stroke="#000000" points="80,-882.5 80,-912.5 436,-912.5 436,-882.5 80,-882.5"/>
<text text-anchor="start" x="87" y="-893.9" font-family="Arial" font-size="14.00" fill="#000000">client_id    </text>
<text text-anchor="start" x="172.5456" y="-893.9" font-family="Arial" font-size="14.00" fill="#666666">[varchar(255)]</text>
<polygon fill="none" stroke="#000000" points="80,-852.5 80,-882.5 436,-882.5 436,-852.5 80,-852.5"/>
<text text-anchor="start" x="87" y="-863.9" font-family="Arial" font-size="14.00" fill="#000000">phone    </text>
<text text-anchor="start" x="160.1178" y="-863.9" font-family="Arial" font-size="14.00" fill="#666666">[varchar(255)]</text>
<polygon fill="none" stroke="#000000" points="80,-822.5 80,-852.5 436,-852.5 436,-822.5 80,-822.5"/>
<text text-anchor="start" x="87" y="-833.9" font-family="Arial" font-size="14.00" fill="#000000">skype    </text>
<text text-anchor="start" x="157.77" y="-833.9" font-family="Arial" font-size="14.00" fill="#666666">[varchar(255)]</text>
<polygon fill="none" stroke="#000000" points="80,-792.5 80,-822.5 436,-822.5 436,-792.5 80,-792.5"/>
<text text-anchor="start" x="87" y="-803.9" font-family="Arial" font-size="14.00" fill="#000000">whatsapp    </text>
<text text-anchor="start" x="181.115" y="-803.9" font-family="Arial" font-size="14.00" fill="#666666">[varchar(255)]</text>
<polygon fill="none" stroke="#000000" points="80,-762.5 80,-792.5 436,-792.5 436,-762.5 80,-762.5"/>
<text text-anchor="start" x="87" y="-773.9" font-family="Arial" font-size="14.00" fill="#000000">telegram    </text>
<text text-anchor="start" x="175.6536" y="-773.9" font-family="Arial" font-size="14.00" fill="#666666">[varchar(255)]</text>
<polygon fill="none" stroke="#000000" points="80,-732.5 80,-762.5 436,-762.5 436,-732.5 80,-732.5"/>
<text text-anchor="start" x="87" y="-743.9" font-family="Arial" font-size="14.00" fill="#000000">address    </text>
<text text-anchor="start" x="170.9958" y="-743.9" font-family="Arial" font-size="14.00" fill="#666666">[text]</text>
<polygon fill="none" stroke="#000000" points="80,-702.5 80,-732.5 436,-732.5 436,-702.5 80,-702.5"/>
<text text-anchor="start" x="87" y="-713.9" font-family="Arial" font-size="14.00" fill="#000000">postal_code    </text>
<text text-anchor="start" x="196.6802" y="-713.9" font-family="Arial" font-size="14.00" fill="#666666">[varchar(255)]</text>
<polygon fill="none" stroke="#000000" points="80,-672.5 80,-702.5 436,-702.5 436,-672.5 80,-672.5"/>
<text text-anchor="start" x="87" y="-683.9" font-family="Arial" font-size="14.00" fill="#000000">city    </text>
<text text-anchor="start" x="142.202" y="-683.9" font-family="Arial" font-size="14.00" fill="#666666">[varchar(255)]</text>
<polygon fill="none" stroke="#000000" points="80,-642.5 80,-672.5 436,-672.5 436,-642.5 80,-642.5"/>
<text text-anchor="start" x="87" y="-653.9" font-family="Arial" font-size="14.00" fill="#000000">country    </text>
<text text-anchor="start" x="167.1038" y="-653.9" font-family="Arial" font-size="14.00" fill="#666666">[varchar(255)]</text>
<polygon fill="none" stroke="#000000" points="80,-612.5 80,-642.5 436,-642.5 436,-612.5 80,-612.5"/>
<text text-anchor="start" x="87" y="-623.9" font-family="Arial" font-size="14.00" fill="#000000">welcome_status    </text>
<text text-anchor="start" x="221.5554" y="-623.9" font-family="Arial" font-size="14.00" fill="#666666">[varchar(255)]</text>
<polygon fill="none" stroke="#000000" points="80,-582.5 80,-612.5 436,-612.5 436,-582.5 80,-582.5"/>
<text text-anchor="start" x="87" y="-593.9" font-family="Arial" font-size="14.00" fill="#000000">welcome_confirm_code    </text>
<text text-anchor="start" x="268.223" y="-593.9" font-family="Arial" font-size="14.00" fill="#666666">[integer]</text>
<polygon fill="none" stroke="#000000" points="80,-552.5 80,-582.5 436,-582.5 436,-552.5 80,-552.5"/>
<text text-anchor="start" x="87" y="-563.9" font-family="Arial" font-size="14.00" fill="#000000">all_docs    </text>
<text text-anchor="start" x="172.5484" y="-563.9" font-family="Arial" font-size="14.00" fill="#666666">[boolean]</text>
<polygon fill="none" stroke="#000000" points="80,-522.5 80,-552.5 436,-552.5 436,-522.5 80,-522.5"/>
<text text-anchor="start" x="87" y="-533.9" font-family="Arial" font-size="14.00" fill="#000000">sign_status    </text>
<text text-anchor="start" x="192.0056" y="-533.9" font-family="Arial" font-size="14.00" fill="#666666">[varchar(255)]</text>
<polygon fill="none" stroke="#000000" points="80,-492.5 80,-522.5 436,-522.5 436,-492.5 80,-492.5"/>
<text text-anchor="start" x="87" y="-503.9" font-family="Arial" font-size="14.00" fill="#000000">letter_style    </text>
<text text-anchor="start" x="188.8808" y="-503.9" font-family="Arial" font-size="14.00" fill="#666666">[varchar(255)]</text>
<polygon fill="none" stroke="#000000" points="80,-462.5 80,-492.5 436,-492.5 436,-462.5 80,-462.5"/>
<text text-anchor="start" x="87" y="-473.9" font-family="Arial" font-size="14.00" fill="#000000">all_fields    </text>
<text text-anchor="start" x="175.6522" y="-473.9" font-family="Arial" font-size="14.00" fill="#666666">[boolean]</text>
<polygon fill="none" stroke="#000000" points="80,-432.5 80,-462.5 436,-462.5 436,-432.5 80,-432.5"/>
<text text-anchor="start" x="87" y="-443.9" font-family="Arial" font-size="14.00" fill="#000000">balance_popup    </text>
<text text-anchor="start" x="216.92" y="-443.9" font-family="Arial" font-size="14.00" fill="#666666">[boolean]</text>
<polygon fill="none" stroke="#000000" points="80,-402.5 80,-432.5 436,-432.5 436,-402.5 80,-402.5"/>
<text text-anchor="start" x="87" y="-413.9" font-family="Arial" font-size="14.00" fill="#000000">email_unsubs    </text>
<text text-anchor="start" x="207.5568" y="-413.9" font-family="Arial" font-size="14.00" fill="#666666">[boolean]</text>
<polygon fill="none" stroke="#000000" points="80,-372.5 80,-402.5 436,-402.5 436,-372.5 80,-372.5"/>
<text text-anchor="start" x="87" y="-383.9" font-family="Arial" font-size="14.00" fill="#000000">model    </text>
<text text-anchor="start" x="159.3198" y="-383.9" font-family="Arial" font-size="14.00" fill="#666666">[varchar(255)]</text>
<polygon fill="none" stroke="#000000" points="80,-342.5 80,-372.5 436,-372.5 436,-342.5 80,-342.5"/>
<text text-anchor="start" x="87" y="-353.9" font-family="Arial" font-size="14.00" fill="#000000">remember_token    </text>
<text text-anchor="start" x="226.9986" y="-353.9" font-family="Arial" font-size="14.00" fill="#666666">[varchar(100)]</text>
<polygon fill="none" stroke="#000000" points="80,-312.5 80,-342.5 436,-342.5 436,-312.5 80,-312.5"/>
<text text-anchor="start" x="87" y="-323.9" font-family="Arial" font-size="14.00" fill="#000000">auth_token    </text>
<text text-anchor="start" x="190.4642" y="-323.9" font-family="Arial" font-size="14.00" fill="#666666">[varchar(100)]</text>
<polygon fill="none" stroke="#000000" points="80,-282.5 80,-312.5 436,-312.5 436,-282.5 80,-282.5"/>
<text text-anchor="start" x="87" y="-293.9" font-family="Arial" font-size="14.00" fill="#000000">utms    </text>
<text text-anchor="start" x="151.5386" y="-293.9" font-family="Arial" font-size="14.00" fill="#666666">[json]</text>
<polygon fill="none" stroke="#000000" points="80,-252.5 80,-282.5 436,-282.5 436,-252.5 80,-252.5"/>
<text text-anchor="start" x="87" y="-263.9" font-family="Arial" font-size="14.00" fill="#000000">created_at    </text>
<text text-anchor="start" x="187.3422" y="-263.9" font-family="Arial" font-size="14.00" fill="#666666">[timestamp(0) without time zone]</text>
<polygon fill="none" stroke="#000000" points="80,-222.5 80,-252.5 436,-252.5 436,-222.5 80,-222.5"/>
<text text-anchor="start" x="87" y="-233.9" font-family="Arial" font-size="14.00" fill="#000000">updated_at    </text>
<text text-anchor="start" x="191.2468" y="-233.9" font-family="Arial" font-size="14.00" fill="#666666">[timestamp(0) without time zone]</text>
<polygon fill="none" stroke="#000000" points="80,-192.5 80,-222.5 436,-222.5 436,-192.5 80,-192.5"/>
<text text-anchor="start" x="87" y="-203.9" font-family="Arial" font-size="14.00" fill="#000000">deleted_at    </text>
<text text-anchor="start" x="186.5708" y="-203.9" font-family="Arial" font-size="14.00" fill="#666666">[timestamp(0) without time zone]</text>
<polygon fill="none" stroke="#000000" points="80,-162.5 80,-192.5 436,-192.5 436,-162.5 80,-162.5"/>
<text text-anchor="start" x="87" y="-173.9" font-family="Arial" font-size="14.00" fill="#000000">send_to_ado    </text>
<text text-anchor="start" x="202.1388" y="-173.9" font-family="Arial" font-size="14.00" fill="#666666">[boolean]</text>
<polygon fill="none" stroke="#000000" points="80,-132.5 80,-162.5 436,-162.5 436,-132.5 80,-132.5"/>
<text text-anchor="start" x="87" y="-143.9" font-family="Arial" font-size="14.00" fill="#000000">ado_sent_at    </text>
<text text-anchor="start" x="198.2468" y="-143.9" font-family="Arial" font-size="14.00" fill="#666666">[timestamp(0) without time zone]</text>
<polygon fill="none" stroke="#000000" points="80,-102.5 80,-132.5 436,-132.5 436,-102.5 80,-102.5"/>
<text text-anchor="start" x="87" y="-113.9" font-family="Arial" font-size="14.00" fill="#000000">surname    </text>
<text text-anchor="start" x="175.6564" y="-113.9" font-family="Arial" font-size="14.00" fill="#666666">[varchar(255)]</text>
<polygon fill="none" stroke="#000000" points="80,-72.5 80,-102.5 436,-102.5 436,-72.5 80,-72.5"/>
<text text-anchor="start" x="87" y="-83.9" font-family="Arial" font-size="14.00" fill="#000000">mgm    </text>
<text text-anchor="start" x="152.3086" y="-83.9" font-family="Arial" font-size="14.00" fill="#666666">[boolean]</text>
<polygon fill="none" stroke="#000000" points="80,-42.5 80,-72.5 436,-72.5 436,-42.5 80,-42.5"/>
<text text-anchor="start" x="87" y="-53.9" font-family="Arial" font-size="14.00" fill="#000000">employer    </text>
<text text-anchor="start" x="178.763" y="-53.9" font-family="Arial" font-size="14.00" fill="#666666">[boolean]</text>
</g>
<!-- public.history_update_user_profiles&#45;&gt;public.users -->
<g id="edge1" class="edge">
<title>public.history_update_user_profiles:user_id&#45;&gt;public.users:id</title>
<path fill="none" stroke="#000000" d="M480.0033,-1895.5093C549.5571,-1866.3863 515.0208,-1527.5 436,-1527.5"/>
<polygon fill="#000000" stroke="#000000" points="479.8077,-1895.5482 469.1217,-1893.0865 474.9038,-1896.5241 470,-1897.5 470,-1897.5 470,-1897.5 474.9038,-1896.5241 470.8783,-1901.9135 479.8077,-1895.5482 479.8077,-1895.5482"/>
<text text-anchor="start" x="477.3345" y="-1907.5" font-family="Arial" font-size="10.00" fill="#000000">FOREIGN KEY (user_id) REFERENCES users(id)</text>
</g>
</g>
</svg>
