<?xml version="1.0" encoding="UTF-8" standalone="no"?>
<!DOCTYPE svg PUBLIC "-//W3C//DTD SVG 1.1//EN"
 "http://www.w3.org/Graphics/SVG/1.1/DTD/svg11.dtd">
<!-- Generated by graphviz version 2.40.1 (20161225.0304)
 -->
<!-- Title: public.pay_methods Pages: 1 -->
<svg width="714pt" height="1432pt"
 viewBox="0.00 0.00 713.50 1432.00" xmlns="http://www.w3.org/2000/svg" xmlns:xlink="http://www.w3.org/1999/xlink">
<g id="graph0" class="graph" transform="scale(1 1) rotate(0) translate(4 1428)">
<title>public.pay_methods</title>
<polygon fill="#ffffff" stroke="transparent" points="-4,4 -4,-1428 709.5,-1428 709.5,4 -4,4"/>
<!-- public.pay_methods -->
<g id="node1" class="node">
<title>public.pay_methods</title>
<polygon fill="#efefef" stroke="transparent" points="335,-165.5 335,-200.5 636,-200.5 636,-165.5 335,-165.5"/>
<polygon fill="none" stroke="#000000" points="335,-165.5 335,-200.5 636,-200.5 636,-165.5 335,-165.5"/>
<text text-anchor="start" x="341.6925" y="-178.3" font-family="Arial Bold" font-size="18.00" fill="#000000">public.pay_methods</text>
<text text-anchor="start" x="501.7395" y="-178.3" font-family="Arial" font-size="14.00" fill="#000000">    </text>
<text text-anchor="start" x="535.9443" y="-178.3" font-family="Arial" font-size="14.00" fill="#666666">[BASE TABLE]</text>
<polygon fill="none" stroke="#000000" points="335,-135.5 335,-165.5 636,-165.5 636,-135.5 335,-135.5"/>
<text text-anchor="start" x="342" y="-146.9" font-family="Arial" font-size="14.00" fill="#000000">id </text>
<text text-anchor="start" x="356.7798" y="-146.9" font-family="Arial" font-size="14.00" fill="#666666">[bigint]</text>
<polygon fill="none" stroke="#000000" points="335,-105.5 335,-135.5 636,-135.5 636,-105.5 335,-105.5"/>
<text text-anchor="start" x="342" y="-116.9" font-family="Arial" font-size="14.00" fill="#000000">caption </text>
<text text-anchor="start" x="391.0182" y="-116.9" font-family="Arial" font-size="14.00" fill="#666666">[varchar(255)]</text>
<polygon fill="none" stroke="#000000" points="335,-75.5 335,-105.5 636,-105.5 636,-75.5 335,-75.5"/>
<text text-anchor="start" x="342" y="-86.9" font-family="Arial" font-size="14.00" fill="#000000">lang_key </text>
<text text-anchor="start" x="401.9102" y="-86.9" font-family="Arial" font-size="14.00" fill="#666666">[varchar(255)]</text>
<polygon fill="none" stroke="#000000" points="335,-45.5 335,-75.5 636,-75.5 636,-45.5 335,-45.5"/>
<text text-anchor="start" x="342" y="-56.9" font-family="Arial" font-size="14.00" fill="#000000">comment </text>
<text text-anchor="start" x="403.4502" y="-56.9" font-family="Arial" font-size="14.00" fill="#666666">[varchar(255)]</text>
<polygon fill="none" stroke="#000000" stroke-width="3" points="333,-44.5 333,-202.5 637,-202.5 637,-44.5 333,-44.5"/>
</g>
<!-- public.users_pay_methods -->
<g id="node2" class="node">
<title>public.users_pay_methods</title>
<polygon fill="#efefef" stroke="transparent" points="308,-1345.5 308,-1380.5 663,-1380.5 663,-1345.5 308,-1345.5"/>
<polygon fill="none" stroke="#000000" points="308,-1345.5 308,-1380.5 663,-1380.5 663,-1345.5 308,-1345.5"/>
<text text-anchor="start" x="314.6871" y="-1358.3" font-family="Arial Bold" font-size="18.00" fill="#000000">public.users_pay_methods</text>
<text text-anchor="start" x="528.7449" y="-1358.3" font-family="Arial" font-size="14.00" fill="#000000">    </text>
<text text-anchor="start" x="562.9497" y="-1358.3" font-family="Arial" font-size="14.00" fill="#666666">[BASE TABLE]</text>
<polygon fill="none" stroke="#000000" points="308,-1315.5 308,-1345.5 663,-1345.5 663,-1315.5 308,-1315.5"/>
<text text-anchor="start" x="315" y="-1326.9" font-family="Arial" font-size="14.00" fill="#000000">id    </text>
<text text-anchor="start" x="360.094" y="-1326.9" font-family="Arial" font-size="14.00" fill="#666666">[bigint]</text>
<polygon fill="none" stroke="#000000" points="308,-1285.5 308,-1315.5 663,-1315.5 663,-1285.5 308,-1285.5"/>
<text text-anchor="start" x="315" y="-1296.9" font-family="Arial" font-size="14.00" fill="#000000">user_id    </text>
<text text-anchor="start" x="395.1024" y="-1296.9" font-family="Arial" font-size="14.00" fill="#666666">[bigint]</text>
<polygon fill="none" stroke="#000000" points="308,-1255.5 308,-1285.5 663,-1285.5 663,-1255.5 308,-1255.5"/>
<text text-anchor="start" x="315" y="-1266.9" font-family="Arial" font-size="14.00" fill="#000000">pay_method_id    </text>
<text text-anchor="start" x="444.906" y="-1266.9" font-family="Arial" font-size="14.00" fill="#666666">[bigint]</text>
<polygon fill="none" stroke="#000000" points="308,-1225.5 308,-1255.5 663,-1255.5 663,-1225.5 308,-1225.5"/>
<text text-anchor="start" x="315" y="-1236.9" font-family="Arial" font-size="14.00" fill="#000000">snils_number    </text>
<text text-anchor="start" x="432.4348" y="-1236.9" font-family="Arial" font-size="14.00" fill="#666666">[varchar(255)]</text>
<polygon fill="none" stroke="#000000" points="308,-1195.5 308,-1225.5 663,-1225.5 663,-1195.5 308,-1195.5"/>
<text text-anchor="start" x="315" y="-1206.9" font-family="Arial" font-size="14.00" fill="#000000">cc_type    </text>
<text text-anchor="start" x="397.4432" y="-1206.9" font-family="Arial" font-size="14.00" fill="#666666">[varchar(50)]</text>
<polygon fill="none" stroke="#000000" points="308,-1165.5 308,-1195.5 663,-1195.5 663,-1165.5 308,-1165.5"/>
<text text-anchor="start" x="315" y="-1176.9" font-family="Arial" font-size="14.00" fill="#000000">cc_number    </text>
<text text-anchor="start" x="418.439" y="-1176.9" font-family="Arial" font-size="14.00" fill="#666666">[varchar(50)]</text>
<polygon fill="none" stroke="#000000" points="308,-1135.5 308,-1165.5 663,-1165.5 663,-1135.5 308,-1135.5"/>
<text text-anchor="start" x="315" y="-1146.9" font-family="Arial" font-size="14.00" fill="#000000">yandex_number    </text>
<text text-anchor="start" x="449.5694" y="-1146.9" font-family="Arial" font-size="14.00" fill="#666666">[varchar(255)]</text>
<polygon fill="none" stroke="#000000" points="308,-1105.5 308,-1135.5 663,-1135.5 663,-1105.5 308,-1105.5"/>
<text text-anchor="start" x="315" y="-1116.9" font-family="Arial" font-size="14.00" fill="#000000">company_name    </text>
<text text-anchor="start" x="448.7868" y="-1116.9" font-family="Arial" font-size="14.00" fill="#666666">[varchar(512)]</text>
<polygon fill="none" stroke="#000000" points="308,-1075.5 308,-1105.5 663,-1105.5 663,-1075.5 308,-1075.5"/>
<text text-anchor="start" x="315" y="-1086.9" font-family="Arial" font-size="14.00" fill="#000000">company_inn    </text>
<text text-anchor="start" x="432.4502" y="-1086.9" font-family="Arial" font-size="14.00" fill="#666666">[varchar(15)]</text>
<polygon fill="none" stroke="#000000" points="308,-1045.5 308,-1075.5 663,-1075.5 663,-1045.5 308,-1045.5"/>
<text text-anchor="start" x="315" y="-1056.9" font-family="Arial" font-size="14.00" fill="#000000">contract_date    </text>
<text text-anchor="start" x="434.0154" y="-1056.9" font-family="Arial" font-size="14.00" fill="#666666">[date]</text>
<polygon fill="none" stroke="#000000" points="308,-1015.5 308,-1045.5 663,-1045.5 663,-1015.5 308,-1015.5"/>
<text text-anchor="start" x="315" y="-1026.9" font-family="Arial" font-size="14.00" fill="#000000">contract_number    </text>
<text text-anchor="start" x="454.2286" y="-1026.9" font-family="Arial" font-size="14.00" fill="#666666">[varchar(255)]</text>
<polygon fill="none" stroke="#000000" points="308,-985.5 308,-1015.5 663,-1015.5 663,-985.5 308,-985.5"/>
<text text-anchor="start" x="315" y="-996.9" font-family="Arial" font-size="14.00" fill="#000000">bank_company_account    </text>
<text text-anchor="start" x="500.9298" y="-996.9" font-family="Arial" font-size="14.00" fill="#666666">[varchar(255)]</text>
<polygon fill="none" stroke="#000000" points="308,-955.5 308,-985.5 663,-985.5 663,-955.5 308,-955.5"/>
<text text-anchor="start" x="315" y="-966.9" font-family="Arial" font-size="14.00" fill="#000000">bank_identifier_code    </text>
<text text-anchor="start" x="478.3576" y="-966.9" font-family="Arial" font-size="14.00" fill="#666666">[varchar(10)]</text>
<polygon fill="none" stroke="#000000" points="308,-925.5 308,-955.5 663,-955.5 663,-925.5 308,-925.5"/>
<text text-anchor="start" x="315" y="-936.9" font-family="Arial" font-size="14.00" fill="#000000">bank_beneficiary    </text>
<text text-anchor="start" x="455.0126" y="-936.9" font-family="Arial" font-size="14.00" fill="#666666">[varchar(512)]</text>
<polygon fill="none" stroke="#000000" points="308,-895.5 308,-925.5 663,-925.5 663,-895.5 308,-895.5"/>
<text text-anchor="start" x="315" y="-906.9" font-family="Arial" font-size="14.00" fill="#000000">bank_correspondent_account    </text>
<text text-anchor="start" x="533.6114" y="-906.9" font-family="Arial" font-size="14.00" fill="#666666">[varchar(50)]</text>
<polygon fill="none" stroke="#000000" points="308,-865.5 308,-895.5 663,-895.5 663,-865.5 308,-865.5"/>
<text text-anchor="start" x="315" y="-876.9" font-family="Arial" font-size="14.00" fill="#000000">bank_swift_code    </text>
<text text-anchor="start" x="453.46" y="-876.9" font-family="Arial" font-size="14.00" fill="#666666">[varchar(255)]</text>
<polygon fill="none" stroke="#000000" points="308,-835.5 308,-865.5 663,-865.5 663,-835.5 308,-835.5"/>
<text text-anchor="start" x="315" y="-846.9" font-family="Arial" font-size="14.00" fill="#000000">company_iban    </text>
<text text-anchor="start" x="440.2328" y="-846.9" font-family="Arial" font-size="14.00" fill="#666666">[varchar(255)]</text>
<polygon fill="none" stroke="#000000" points="308,-805.5 308,-835.5 663,-835.5 663,-805.5 308,-805.5"/>
<text text-anchor="start" x="315" y="-816.9" font-family="Arial" font-size="14.00" fill="#000000">company_account_foreign    </text>
<text text-anchor="start" x="513.3702" y="-816.9" font-family="Arial" font-size="14.00" fill="#666666">[varchar(255)]</text>
<polygon fill="none" stroke="#000000" points="308,-775.5 308,-805.5 663,-805.5 663,-775.5 308,-775.5"/>
<text text-anchor="start" x="315" y="-786.9" font-family="Arial" font-size="14.00" fill="#000000">company_address    </text>
<text text-anchor="start" x="463.5694" y="-786.9" font-family="Arial" font-size="14.00" fill="#666666">[varchar(255)]</text>
<polygon fill="none" stroke="#000000" points="308,-745.5 308,-775.5 663,-775.5 663,-745.5 308,-745.5"/>
<text text-anchor="start" x="315" y="-756.9" font-family="Arial" font-size="14.00" fill="#000000">company_address_post    </text>
<text text-anchor="start" x="497.8078" y="-756.9" font-family="Arial" font-size="14.00" fill="#666666">[varchar(255)]</text>
<polygon fill="none" stroke="#000000" points="308,-715.5 308,-745.5 663,-745.5 663,-715.5 308,-715.5"/>
<text text-anchor="start" x="315" y="-726.9" font-family="Arial" font-size="14.00" fill="#000000">billing_address    </text>
<text text-anchor="start" x="442.5526" y="-726.9" font-family="Arial" font-size="14.00" fill="#666666">[varchar(255)]</text>
<polygon fill="none" stroke="#000000" points="308,-685.5 308,-715.5 663,-715.5 663,-685.5 308,-685.5"/>
<text text-anchor="start" x="315" y="-696.9" font-family="Arial" font-size="14.00" fill="#000000">billing_postal_code    </text>
<text text-anchor="start" x="468.237" y="-696.9" font-family="Arial" font-size="14.00" fill="#666666">[varchar(255)]</text>
<polygon fill="none" stroke="#000000" points="308,-655.5 308,-685.5 663,-685.5 663,-655.5 308,-655.5"/>
<text text-anchor="start" x="315" y="-666.9" font-family="Arial" font-size="14.00" fill="#000000">billing_city    </text>
<text text-anchor="start" x="413.7588" y="-666.9" font-family="Arial" font-size="14.00" fill="#666666">[varchar(255)]</text>
<polygon fill="none" stroke="#000000" points="308,-625.5 308,-655.5 663,-655.5 663,-625.5 308,-625.5"/>
<text text-anchor="start" x="315" y="-636.9" font-family="Arial" font-size="14.00" fill="#000000">billing_country    </text>
<text text-anchor="start" x="438.6606" y="-636.9" font-family="Arial" font-size="14.00" fill="#666666">[varchar(255)]</text>
<polygon fill="none" stroke="#000000" points="308,-595.5 308,-625.5 663,-625.5 663,-595.5 308,-595.5"/>
<text text-anchor="start" x="315" y="-606.9" font-family="Arial" font-size="14.00" fill="#000000">management    </text>
<text text-anchor="start" x="430.8948" y="-606.9" font-family="Arial" font-size="14.00" fill="#666666">[varchar(255)]</text>
<polygon fill="none" stroke="#000000" points="308,-565.5 308,-595.5 663,-595.5 663,-565.5 308,-565.5"/>
<text text-anchor="start" x="315" y="-576.9" font-family="Arial" font-size="14.00" fill="#000000">company_ogrnip    </text>
<text text-anchor="start" x="452.676" y="-576.9" font-family="Arial" font-size="14.00" fill="#666666">[varchar(255)]</text>
<polygon fill="none" stroke="#000000" points="308,-535.5 308,-565.5 663,-565.5 663,-535.5 308,-535.5"/>
<text text-anchor="start" x="315" y="-546.9" font-family="Arial" font-size="14.00" fill="#000000">vat_tax    </text>
<text text-anchor="start" x="394.3338" y="-546.9" font-family="Arial" font-size="14.00" fill="#666666">[boolean]</text>
<polygon fill="none" stroke="#000000" points="308,-505.5 308,-535.5 663,-535.5 663,-505.5 308,-505.5"/>
<text text-anchor="start" x="315" y="-516.9" font-family="Arial" font-size="14.00" fill="#000000">taxation_system    </text>
<text text-anchor="start" x="450.3394" y="-516.9" font-family="Arial" font-size="14.00" fill="#666666">[varchar(255)]</text>
<polygon fill="none" stroke="#000000" points="308,-475.5 308,-505.5 663,-505.5 663,-475.5 308,-475.5"/>
<text text-anchor="start" x="315" y="-486.9" font-family="Arial" font-size="14.00" fill="#000000">tax_authority    </text>
<text text-anchor="start" x="429.3394" y="-486.9" font-family="Arial" font-size="14.00" fill="#666666">[varchar(255)]</text>
<polygon fill="none" stroke="#000000" points="308,-445.5 308,-475.5 663,-475.5 663,-445.5 308,-445.5"/>
<text text-anchor="start" x="315" y="-456.9" font-family="Arial" font-size="14.00" fill="#000000">tax_number_id    </text>
<text text-anchor="start" x="441.784" y="-456.9" font-family="Arial" font-size="14.00" fill="#666666">[varchar(255)]</text>
<polygon fill="none" stroke="#000000" points="308,-415.5 308,-445.5 663,-445.5 663,-415.5 308,-415.5"/>
<text text-anchor="start" x="315" y="-426.9" font-family="Arial" font-size="14.00" fill="#000000">tax_vat_id    </text>
<text text-anchor="start" x="413.0056" y="-426.9" font-family="Arial" font-size="14.00" fill="#666666">[varchar(255)]</text>
<polygon fill="none" stroke="#000000" points="308,-385.5 308,-415.5 663,-415.5 663,-385.5 308,-385.5"/>
<text text-anchor="start" x="315" y="-396.9" font-family="Arial" font-size="14.00" fill="#000000">created_at    </text>
<text text-anchor="start" x="415.3422" y="-396.9" font-family="Arial" font-size="14.00" fill="#666666">[timestamp(0) without time zone]</text>
<polygon fill="none" stroke="#000000" points="308,-355.5 308,-385.5 663,-385.5 663,-355.5 308,-355.5"/>
<text text-anchor="start" x="315" y="-366.9" font-family="Arial" font-size="14.00" fill="#000000">updated_at    </text>
<text text-anchor="start" x="419.2468" y="-366.9" font-family="Arial" font-size="14.00" fill="#666666">[timestamp(0) without time zone]</text>
<polygon fill="none" stroke="#000000" points="308,-325.5 308,-355.5 663,-355.5 663,-325.5 308,-325.5"/>
<text text-anchor="start" x="315" y="-336.9" font-family="Arial" font-size="14.00" fill="#000000">deleted_at    </text>
<text text-anchor="start" x="414.5708" y="-336.9" font-family="Arial" font-size="14.00" fill="#666666">[timestamp(0) without time zone]</text>
</g>
<!-- public.users_pay_methods&#45;&gt;public.pay_methods -->
<g id="edge1" class="edge">
<title>public.users_pay_methods:pay_method_id&#45;&gt;public.pay_methods:id</title>
<path fill="none" stroke="#000000" d="M300.1475,-1263.9227C248.2566,-1172.1351 275.5557,-150.5 335,-150.5"/>
<polygon fill="#000000" stroke="#000000" points="300.3339,-1264.0788 305.1105,-1273.9497 304.167,-1267.2894 308,-1270.5 308,-1270.5 308,-1270.5 304.167,-1267.2894 310.8895,-1267.0503 300.3339,-1264.0788 300.3339,-1264.0788"/>
<text text-anchor="start" x="6.7605" y="-1280.5" font-family="Arial" font-size="10.00" fill="#000000">FOREIGN KEY (pay_method_id) REFERENCES pay_methods(id)</text>
</g>
</g>
</svg>
