<?xml version="1.0" encoding="UTF-8" standalone="no"?>
<!DOCTYPE svg PUBLIC "-//W3C//DTD SVG 1.1//EN"
 "http://www.w3.org/Graphics/SVG/1.1/DTD/svg11.dtd">
<!-- Generated by graphviz version 2.40.1 (20161225.0304)
 -->
<!-- Title: public.partner_payments Pages: 1 -->
<svg width="907pt" height="2242pt"
 viewBox="0.00 0.00 907.00 2242.00" xmlns="http://www.w3.org/2000/svg" xmlns:xlink="http://www.w3.org/1999/xlink">
<g id="graph0" class="graph" transform="scale(1 1) rotate(0) translate(4 2238)">
<title>public.partner_payments</title>
<polygon fill="#ffffff" stroke="transparent" points="-4,4 -4,-2238 903,-2238 903,4 -4,4"/>
<!-- public.partner_payments -->
<g id="node1" class="node">
<title>public.partner_payments</title>
<polygon fill="#efefef" stroke="transparent" points="280,-2152.5 280,-2187.5 618,-2187.5 618,-2152.5 280,-2152.5"/>
<polygon fill="none" stroke="#000000" points="280,-2152.5 280,-2187.5 618,-2187.5 618,-2152.5 280,-2152.5"/>
<text text-anchor="start" x="286.693" y="-2165.3" font-family="Arial Bold" font-size="18.00" fill="#000000">public.partner_payments</text>
<text text-anchor="start" x="483.739" y="-2165.3" font-family="Arial" font-size="14.00" fill="#000000">    </text>
<text text-anchor="start" x="517.9438" y="-2165.3" font-family="Arial" font-size="14.00" fill="#666666">[BASE TABLE]</text>
<polygon fill="none" stroke="#000000" points="280,-2122.5 280,-2152.5 618,-2152.5 618,-2122.5 280,-2122.5"/>
<text text-anchor="start" x="287" y="-2133.9" font-family="Arial" font-size="14.00" fill="#000000">payment_id </text>
<text text-anchor="start" x="363.244" y="-2133.9" font-family="Arial" font-size="14.00" fill="#666666">[bigint]</text>
<polygon fill="none" stroke="#000000" points="280,-2092.5 280,-2122.5 618,-2122.5 618,-2092.5 280,-2092.5"/>
<text text-anchor="start" x="287" y="-2103.9" font-family="Arial" font-size="14.00" fill="#000000">reestr_id </text>
<text text-anchor="start" x="345.3394" y="-2103.9" font-family="Arial" font-size="14.00" fill="#666666">[bigint]</text>
<polygon fill="none" stroke="#000000" points="280,-2062.5 280,-2092.5 618,-2092.5 618,-2062.5 280,-2062.5"/>
<text text-anchor="start" x="287" y="-2073.9" font-family="Arial" font-size="14.00" fill="#000000">partner_id </text>
<text text-anchor="start" x="353.9046" y="-2073.9" font-family="Arial" font-size="14.00" fill="#666666">[bigint]</text>
<polygon fill="none" stroke="#000000" points="280,-2032.5 280,-2062.5 618,-2062.5 618,-2032.5 280,-2032.5"/>
<text text-anchor="start" x="287" y="-2043.9" font-family="Arial" font-size="14.00" fill="#000000">partner_type </text>
<text text-anchor="start" x="369.4712" y="-2043.9" font-family="Arial" font-size="14.00" fill="#666666">[varchar(255)]</text>
<polygon fill="none" stroke="#000000" points="280,-2002.5 280,-2032.5 618,-2032.5 618,-2002.5 280,-2002.5"/>
<text text-anchor="start" x="287" y="-2013.9" font-family="Arial" font-size="14.00" fill="#000000">user_type </text>
<text text-anchor="start" x="352.3548" y="-2013.9" font-family="Arial" font-size="14.00" fill="#666666">[varchar(255)]</text>
<polygon fill="none" stroke="#000000" points="280,-1972.5 280,-2002.5 618,-2002.5 618,-1972.5 280,-1972.5"/>
<text text-anchor="start" x="287" y="-1983.9" font-family="Arial" font-size="14.00" fill="#000000">pay_method </text>
<text text-anchor="start" x="367.92" y="-1983.9" font-family="Arial" font-size="14.00" fill="#666666">[varchar(255)]</text>
<polygon fill="none" stroke="#000000" points="280,-1942.5 280,-1972.5 618,-1972.5 618,-1942.5 280,-1942.5"/>
<text text-anchor="start" x="287" y="-1953.9" font-family="Arial" font-size="14.00" fill="#000000">pay_account </text>
<text text-anchor="start" x="370.2594" y="-1953.9" font-family="Arial" font-size="14.00" fill="#666666">[varchar(255)]</text>
<polygon fill="none" stroke="#000000" points="280,-1912.5 280,-1942.5 618,-1942.5 618,-1912.5 280,-1912.5"/>
<text text-anchor="start" x="287" y="-1923.9" font-family="Arial" font-size="14.00" fill="#000000">revenue </text>
<text text-anchor="start" x="341.4642" y="-1923.9" font-family="Arial" font-size="14.00" fill="#666666">[numeric(12,2)]</text>
<polygon fill="none" stroke="#000000" points="280,-1882.5 280,-1912.5 618,-1912.5 618,-1882.5 280,-1882.5"/>
<text text-anchor="start" x="287" y="-1893.9" font-family="Arial" font-size="14.00" fill="#000000">status </text>
<text text-anchor="start" x="328.237" y="-1893.9" font-family="Arial" font-size="14.00" fill="#666666">[integer]</text>
<polygon fill="none" stroke="#000000" points="280,-1852.5 280,-1882.5 618,-1882.5 618,-1852.5 280,-1852.5"/>
<text text-anchor="start" x="287" y="-1863.9" font-family="Arial" font-size="14.00" fill="#000000">created_at </text>
<text text-anchor="start" x="357.028" y="-1863.9" font-family="Arial" font-size="14.00" fill="#666666">[timestamp(0) without time zone]</text>
<polygon fill="none" stroke="#000000" points="280,-1822.5 280,-1852.5 618,-1852.5 618,-1822.5 280,-1822.5"/>
<text text-anchor="start" x="287" y="-1833.9" font-family="Arial" font-size="14.00" fill="#000000">updated_at </text>
<text text-anchor="start" x="360.9326" y="-1833.9" font-family="Arial" font-size="14.00" fill="#666666">[timestamp(0) without time zone]</text>
<polygon fill="none" stroke="#000000" points="280,-1792.5 280,-1822.5 618,-1822.5 618,-1792.5 280,-1792.5"/>
<text text-anchor="start" x="287" y="-1803.9" font-family="Arial" font-size="14.00" fill="#000000">deleted_at </text>
<text text-anchor="start" x="356.2566" y="-1803.9" font-family="Arial" font-size="14.00" fill="#666666">[timestamp(0) without time zone]</text>
<polygon fill="none" stroke="#000000" points="280,-1762.5 280,-1792.5 618,-1792.5 618,-1762.5 280,-1762.5"/>
<text text-anchor="start" x="287" y="-1773.9" font-family="Arial" font-size="14.00" fill="#000000">paid </text>
<text text-anchor="start" x="317.345" y="-1773.9" font-family="Arial" font-size="14.00" fill="#666666">[integer]</text>
<polygon fill="none" stroke="#000000" points="280,-1732.5 280,-1762.5 618,-1762.5 618,-1732.5 280,-1732.5"/>
<text text-anchor="start" x="287" y="-1743.9" font-family="Arial" font-size="14.00" fill="#000000">link </text>
<text text-anchor="start" x="311.8864" y="-1743.9" font-family="Arial" font-size="14.00" fill="#666666">[varchar(255)]</text>
<polygon fill="none" stroke="#000000" points="280,-1702.5 280,-1732.5 618,-1732.5 618,-1702.5 280,-1702.5"/>
<text text-anchor="start" x="287" y="-1713.9" font-family="Arial" font-size="14.00" fill="#000000">datetime </text>
<text text-anchor="start" x="344.5694" y="-1713.9" font-family="Arial" font-size="14.00" fill="#666666">[timestamp(0) without time zone]</text>
<polygon fill="none" stroke="#000000" stroke-width="3" points="278.5,-1701.5 278.5,-2189.5 619.5,-2189.5 619.5,-1701.5 278.5,-1701.5"/>
</g>
<!-- public.reestrs -->
<g id="node2" class="node">
<title>public.reestrs</title>
<polygon fill="#efefef" stroke="transparent" points="46,-1017.5 46,-1052.5 396,-1052.5 396,-1017.5 46,-1017.5"/>
<polygon fill="none" stroke="#000000" points="46,-1017.5 46,-1052.5 396,-1052.5 396,-1017.5 46,-1017.5"/>
<text text-anchor="start" x="103.7119" y="-1030.3" font-family="Arial Bold" font-size="18.00" fill="#000000">public.reestrs</text>
<text text-anchor="start" x="210.7201" y="-1030.3" font-family="Arial" font-size="14.00" fill="#000000">    </text>
<text text-anchor="start" x="244.9249" y="-1030.3" font-family="Arial" font-size="14.00" fill="#666666">[BASE TABLE]</text>
<polygon fill="none" stroke="#000000" points="46,-987.5 46,-1017.5 396,-1017.5 396,-987.5 46,-987.5"/>
<text text-anchor="start" x="53" y="-998.9" font-family="Arial" font-size="14.00" fill="#000000">reestr_id    </text>
<text text-anchor="start" x="141.6536" y="-998.9" font-family="Arial" font-size="14.00" fill="#666666">[bigint]</text>
<polygon fill="none" stroke="#000000" points="46,-957.5 46,-987.5 396,-987.5 396,-957.5 46,-957.5"/>
<text text-anchor="start" x="53" y="-968.9" font-family="Arial" font-size="14.00" fill="#000000">type    </text>
<text text-anchor="start" x="113.6606" y="-968.9" font-family="Arial" font-size="14.00" fill="#666666">[varchar(255)]</text>
<polygon fill="none" stroke="#000000" points="46,-927.5 46,-957.5 396,-957.5 396,-927.5 46,-927.5"/>
<text text-anchor="start" x="53" y="-938.9" font-family="Arial" font-size="14.00" fill="#000000">contract    </text>
<text text-anchor="start" x="136.9944" y="-938.9" font-family="Arial" font-size="14.00" fill="#666666">[varchar(255)]</text>
<polygon fill="none" stroke="#000000" points="46,-897.5 46,-927.5 396,-927.5 396,-897.5 46,-897.5"/>
<text text-anchor="start" x="53" y="-908.9" font-family="Arial" font-size="14.00" fill="#000000">datetime    </text>
<text text-anchor="start" x="140.8836" y="-908.9" font-family="Arial" font-size="14.00" fill="#666666">[timestamp(0) without time zone]</text>
<polygon fill="none" stroke="#000000" points="46,-867.5 46,-897.5 396,-897.5 396,-867.5 46,-867.5"/>
<text text-anchor="start" x="53" y="-878.9" font-family="Arial" font-size="14.00" fill="#000000">total    </text>
<text text-anchor="start" x="113.6578" y="-878.9" font-family="Arial" font-size="14.00" fill="#666666">[numeric(16,2)]</text>
<polygon fill="none" stroke="#000000" points="46,-837.5 46,-867.5 396,-867.5 396,-837.5 46,-837.5"/>
<text text-anchor="start" x="53" y="-848.9" font-family="Arial" font-size="14.00" fill="#000000">payed    </text>
<text text-anchor="start" x="125.3352" y="-848.9" font-family="Arial" font-size="14.00" fill="#666666">[numeric(16,2)]</text>
<polygon fill="none" stroke="#000000" points="46,-807.5 46,-837.5 396,-837.5 396,-807.5 46,-807.5"/>
<text text-anchor="start" x="53" y="-818.9" font-family="Arial" font-size="14.00" fill="#000000">status    </text>
<text text-anchor="start" x="124.5512" y="-818.9" font-family="Arial" font-size="14.00" fill="#666666">[integer]</text>
<polygon fill="none" stroke="#000000" points="46,-777.5 46,-807.5 396,-807.5 396,-777.5 46,-777.5"/>
<text text-anchor="start" x="53" y="-788.9" font-family="Arial" font-size="14.00" fill="#000000">sent    </text>
<text text-anchor="start" x="113.6606" y="-788.9" font-family="Arial" font-size="14.00" fill="#666666">[boolean]</text>
<polygon fill="none" stroke="#000000" points="46,-747.5 46,-777.5 396,-777.5 396,-747.5 46,-747.5"/>
<text text-anchor="start" x="53" y="-758.9" font-family="Arial" font-size="14.00" fill="#000000">path_to_file    </text>
<text text-anchor="start" x="159.568" y="-758.9" font-family="Arial" font-size="14.00" fill="#666666">[varchar(255)]</text>
<polygon fill="none" stroke="#000000" points="46,-717.5 46,-747.5 396,-747.5 396,-717.5 46,-717.5"/>
<text text-anchor="start" x="52.9881" y="-728.9" font-family="Arial" font-size="14.00" fill="#000000">start_create_file    </text>
<text text-anchor="start" x="186.7679" y="-728.9" font-family="Arial" font-size="14.00" fill="#666666">[timestamp(0) without time zone]</text>
<polygon fill="none" stroke="#000000" points="46,-687.5 46,-717.5 396,-717.5 396,-687.5 46,-687.5"/>
<text text-anchor="start" x="53" y="-698.9" font-family="Arial" font-size="14.00" fill="#000000">job_status    </text>
<text text-anchor="start" x="151.0056" y="-698.9" font-family="Arial" font-size="14.00" fill="#666666">[varchar(255)]</text>
<polygon fill="none" stroke="#000000" points="46,-657.5 46,-687.5 396,-687.5 396,-657.5 46,-657.5"/>
<text text-anchor="start" x="53" y="-668.9" font-family="Arial" font-size="14.00" fill="#000000">created_at    </text>
<text text-anchor="start" x="153.3422" y="-668.9" font-family="Arial" font-size="14.00" fill="#666666">[timestamp(0) without time zone]</text>
<polygon fill="none" stroke="#000000" points="46,-627.5 46,-657.5 396,-657.5 396,-627.5 46,-627.5"/>
<text text-anchor="start" x="53" y="-638.9" font-family="Arial" font-size="14.00" fill="#000000">updated_at    </text>
<text text-anchor="start" x="157.2468" y="-638.9" font-family="Arial" font-size="14.00" fill="#666666">[timestamp(0) without time zone]</text>
<polygon fill="none" stroke="#000000" points="46,-597.5 46,-627.5 396,-627.5 396,-597.5 46,-597.5"/>
<text text-anchor="start" x="53" y="-608.9" font-family="Arial" font-size="14.00" fill="#000000">deleted_at    </text>
<text text-anchor="start" x="152.5708" y="-608.9" font-family="Arial" font-size="14.00" fill="#666666">[timestamp(0) without time zone]</text>
<polygon fill="none" stroke="#000000" points="46,-567.5 46,-597.5 396,-597.5 396,-567.5 46,-567.5"/>
<text text-anchor="start" x="53" y="-578.9" font-family="Arial" font-size="14.00" fill="#000000">is_null    </text>
<text text-anchor="start" x="126.8724" y="-578.9" font-family="Arial" font-size="14.00" fill="#666666">[boolean]</text>
</g>
<!-- public.partner_payments&#45;&gt;public.reestrs -->
<g id="edge1" class="edge">
<title>public.partner_payments:reestr_id&#45;&gt;public.reestrs:reestr_id</title>
<path fill="none" stroke="#000000" d="M269.9521,-2106.3139C126.2717,-2070.5381 381.6332,-1236.431 396,-1096 400.2293,-1054.6602 437.5556,-1002.5 396,-1002.5"/>
<polygon fill="#000000" stroke="#000000" points="270.069,-2106.3276 279.4724,-2111.969 275.0345,-2106.9138 280,-2107.5 280,-2107.5 280,-2107.5 275.0345,-2106.9138 280.5276,-2103.031 270.069,-2106.3276 270.069,-2106.3276"/>
<text text-anchor="start" x="6.6695" y="-2117.5" font-family="Arial" font-size="10.00" fill="#000000">FOREIGN KEY (reestr_id) REFERENCES reestrs(reestr_id)</text>
</g>
<!-- public.users -->
<g id="node3" class="node">
<title>public.users</title>
<polygon fill="#efefef" stroke="transparent" points="500,-1542.5 500,-1577.5 856,-1577.5 856,-1542.5 500,-1542.5"/>
<polygon fill="none" stroke="#000000" points="500,-1542.5 500,-1577.5 856,-1577.5 856,-1542.5 500,-1542.5"/>
<text text-anchor="start" x="566.2091" y="-1555.3" font-family="Arial Bold" font-size="18.00" fill="#000000">public.users</text>
<text text-anchor="start" x="662.2229" y="-1555.3" font-family="Arial" font-size="14.00" fill="#000000">    </text>
<text text-anchor="start" x="696.4277" y="-1555.3" font-family="Arial" font-size="14.00" fill="#666666">[BASE TABLE]</text>
<polygon fill="none" stroke="#000000" points="500,-1512.5 500,-1542.5 856,-1542.5 856,-1512.5 500,-1512.5"/>
<text text-anchor="start" x="507" y="-1523.9" font-family="Arial" font-size="14.00" fill="#000000">id    </text>
<text text-anchor="start" x="552.094" y="-1523.9" font-family="Arial" font-size="14.00" fill="#666666">[bigint]</text>
<polygon fill="none" stroke="#000000" points="500,-1482.5 500,-1512.5 856,-1512.5 856,-1482.5 500,-1482.5"/>
<text text-anchor="start" x="507" y="-1493.9" font-family="Arial" font-size="14.00" fill="#000000">name    </text>
<text text-anchor="start" x="576.2132" y="-1493.9" font-family="Arial" font-size="14.00" fill="#666666">[varchar(255)]</text>
<polygon fill="none" stroke="#000000" points="500,-1452.5 500,-1482.5 856,-1482.5 856,-1452.5 500,-1452.5"/>
<text text-anchor="start" x="507" y="-1463.9" font-family="Arial" font-size="14.00" fill="#000000">email    </text>
<text text-anchor="start" x="574.6438" y="-1463.9" font-family="Arial" font-size="14.00" fill="#666666">[varchar(255)]</text>
<polygon fill="none" stroke="#000000" points="500,-1422.5 500,-1452.5 856,-1452.5 856,-1422.5 500,-1422.5"/>
<text text-anchor="start" x="507" y="-1433.9" font-family="Arial" font-size="14.00" fill="#000000">lang    </text>
<text text-anchor="start" x="567.6592" y="-1433.9" font-family="Arial" font-size="14.00" fill="#666666">[varchar(255)]</text>
<polygon fill="none" stroke="#000000" points="500,-1392.5 500,-1422.5 856,-1422.5 856,-1392.5 500,-1392.5"/>
<text text-anchor="start" x="507" y="-1403.9" font-family="Arial" font-size="14.00" fill="#000000">role    </text>
<text text-anchor="start" x="564.5372" y="-1403.9" font-family="Arial" font-size="14.00" fill="#666666">[varchar(255)]</text>
<polygon fill="none" stroke="#000000" points="500,-1362.5 500,-1392.5 856,-1392.5 856,-1362.5 500,-1362.5"/>
<text text-anchor="start" x="507" y="-1373.9" font-family="Arial" font-size="14.00" fill="#000000">hash_name    </text>
<text text-anchor="start" x="614.3436" y="-1373.9" font-family="Arial" font-size="14.00" fill="#666666">[varchar(255)]</text>
<polygon fill="none" stroke="#000000" points="500,-1332.5 500,-1362.5 856,-1362.5 856,-1332.5 500,-1332.5"/>
<text text-anchor="start" x="507" y="-1343.9" font-family="Arial" font-size="14.00" fill="#000000">user_type_id    </text>
<text text-anchor="start" x="621.3408" y="-1343.9" font-family="Arial" font-size="14.00" fill="#666666">[bigint]</text>
<polygon fill="none" stroke="#000000" points="500,-1302.5 500,-1332.5 856,-1332.5 856,-1302.5 500,-1302.5"/>
<text text-anchor="start" x="507" y="-1313.9" font-family="Arial" font-size="14.00" fill="#000000">type    </text>
<text text-anchor="start" x="567.6606" y="-1313.9" font-family="Arial" font-size="14.00" fill="#666666">[varchar(255)]</text>
<polygon fill="none" stroke="#000000" points="500,-1272.5 500,-1302.5 856,-1302.5 856,-1272.5 500,-1272.5"/>
<text text-anchor="start" x="506.8808" y="-1283.9" font-family="Arial" font-size="14.00" fill="#000000">email_verified_at    </text>
<text text-anchor="start" x="646.8752" y="-1283.9" font-family="Arial" font-size="14.00" fill="#666666">[timestamp(0) without time zone]</text>
<polygon fill="none" stroke="#000000" points="500,-1242.5 500,-1272.5 856,-1272.5 856,-1242.5 500,-1242.5"/>
<text text-anchor="start" x="507" y="-1253.9" font-family="Arial" font-size="14.00" fill="#000000">password    </text>
<text text-anchor="start" x="601.1024" y="-1253.9" font-family="Arial" font-size="14.00" fill="#666666">[varchar(255)]</text>
<polygon fill="none" stroke="#000000" points="500,-1212.5 500,-1242.5 856,-1242.5 856,-1212.5 500,-1212.5"/>
<text text-anchor="start" x="507" y="-1223.9" font-family="Arial" font-size="14.00" fill="#000000">code_for_login    </text>
<text text-anchor="start" x="633.0126" y="-1223.9" font-family="Arial" font-size="14.00" fill="#666666">[varchar(255)]</text>
<polygon fill="none" stroke="#000000" points="500,-1182.5 500,-1212.5 856,-1212.5 856,-1182.5 500,-1182.5"/>
<text text-anchor="start" x="507" y="-1193.9" font-family="Arial" font-size="14.00" fill="#000000">status    </text>
<text text-anchor="start" x="578.5512" y="-1193.9" font-family="Arial" font-size="14.00" fill="#666666">[integer]</text>
<polygon fill="none" stroke="#000000" points="500,-1152.5 500,-1182.5 856,-1182.5 856,-1152.5 500,-1152.5"/>
<text text-anchor="start" x="507" y="-1163.9" font-family="Arial" font-size="14.00" fill="#000000">partner_type    </text>
<text text-anchor="start" x="619.7854" y="-1163.9" font-family="Arial" font-size="14.00" fill="#666666">[varchar(255)]</text>
<polygon fill="none" stroke="#000000" points="500,-1122.5 500,-1152.5 856,-1152.5 856,-1122.5 500,-1122.5"/>
<text text-anchor="start" x="507" y="-1133.9" font-family="Arial" font-size="14.00" fill="#000000">direct_contract    </text>
<text text-anchor="start" x="633" y="-1133.9" font-family="Arial" font-size="14.00" fill="#666666">[boolean]</text>
<polygon fill="none" stroke="#000000" points="500,-1092.5 500,-1122.5 856,-1122.5 856,-1092.5 500,-1092.5"/>
<text text-anchor="start" x="507" y="-1103.9" font-family="Arial" font-size="14.00" fill="#000000">need_api    </text>
<text text-anchor="start" x="598.7896" y="-1103.9" font-family="Arial" font-size="14.00" fill="#666666">[boolean]</text>
<polygon fill="none" stroke="#000000" points="500,-1062.5 500,-1092.5 856,-1092.5 856,-1062.5 500,-1062.5"/>
<text text-anchor="start" x="507" y="-1073.9" font-family="Arial" font-size="14.00" fill="#000000">ref_id    </text>
<text text-anchor="start" x="576.2104" y="-1073.9" font-family="Arial" font-size="14.00" fill="#666666">[bigint]</text>
<polygon fill="none" stroke="#000000" points="500,-1032.5 500,-1062.5 856,-1062.5 856,-1032.5 500,-1032.5"/>
<text text-anchor="start" x="507" y="-1043.9" font-family="Arial" font-size="14.00" fill="#000000">comment    </text>
<text text-anchor="start" x="598.7644" y="-1043.9" font-family="Arial" font-size="14.00" fill="#666666">[varchar(255)]</text>
<polygon fill="none" stroke="#000000" points="500,-1002.5 500,-1032.5 856,-1032.5 856,-1002.5 500,-1002.5"/>
<text text-anchor="start" x="507" y="-1013.9" font-family="Arial" font-size="14.00" fill="#000000">date_of_birth    </text>
<text text-anchor="start" x="622.9046" y="-1013.9" font-family="Arial" font-size="14.00" fill="#666666">[date]</text>
<polygon fill="none" stroke="#000000" points="500,-972.5 500,-1002.5 856,-1002.5 856,-972.5 500,-972.5"/>
<text text-anchor="start" x="507" y="-983.9" font-family="Arial" font-size="14.00" fill="#000000">passport_series    </text>
<text text-anchor="start" x="640.0014" y="-983.9" font-family="Arial" font-size="14.00" fill="#666666">[varchar(255)]</text>
<polygon fill="none" stroke="#000000" points="500,-942.5 500,-972.5 856,-972.5 856,-942.5 500,-942.5"/>
<text text-anchor="start" x="507" y="-953.9" font-family="Arial" font-size="14.00" fill="#000000">passport_number    </text>
<text text-anchor="start" x="650.1206" y="-953.9" font-family="Arial" font-size="14.00" fill="#666666">[varchar(255)]</text>
<polygon fill="none" stroke="#000000" points="500,-912.5 500,-942.5 856,-942.5 856,-912.5 500,-912.5"/>
<text text-anchor="start" x="507" y="-923.9" font-family="Arial" font-size="14.00" fill="#000000">citizenship    </text>
<text text-anchor="start" x="606.5456" y="-923.9" font-family="Arial" font-size="14.00" fill="#666666">[varchar(255)]</text>
<polygon fill="none" stroke="#000000" points="500,-882.5 500,-912.5 856,-912.5 856,-882.5 500,-882.5"/>
<text text-anchor="start" x="507" y="-893.9" font-family="Arial" font-size="14.00" fill="#000000">client_id    </text>
<text text-anchor="start" x="592.5456" y="-893.9" font-family="Arial" font-size="14.00" fill="#666666">[varchar(255)]</text>
<polygon fill="none" stroke="#000000" points="500,-852.5 500,-882.5 856,-882.5 856,-852.5 500,-852.5"/>
<text text-anchor="start" x="507" y="-863.9" font-family="Arial" font-size="14.00" fill="#000000">phone    </text>
<text text-anchor="start" x="580.1178" y="-863.9" font-family="Arial" font-size="14.00" fill="#666666">[varchar(255)]</text>
<polygon fill="none" stroke="#000000" points="500,-822.5 500,-852.5 856,-852.5 856,-822.5 500,-822.5"/>
<text text-anchor="start" x="507" y="-833.9" font-family="Arial" font-size="14.00" fill="#000000">skype    </text>
<text text-anchor="start" x="577.77" y="-833.9" font-family="Arial" font-size="14.00" fill="#666666">[varchar(255)]</text>
<polygon fill="none" stroke="#000000" points="500,-792.5 500,-822.5 856,-822.5 856,-792.5 500,-792.5"/>
<text text-anchor="start" x="507" y="-803.9" font-family="Arial" font-size="14.00" fill="#000000">whatsapp    </text>
<text text-anchor="start" x="601.115" y="-803.9" font-family="Arial" font-size="14.00" fill="#666666">[varchar(255)]</text>
<polygon fill="none" stroke="#000000" points="500,-762.5 500,-792.5 856,-792.5 856,-762.5 500,-762.5"/>
<text text-anchor="start" x="507" y="-773.9" font-family="Arial" font-size="14.00" fill="#000000">telegram    </text>
<text text-anchor="start" x="595.6536" y="-773.9" font-family="Arial" font-size="14.00" fill="#666666">[varchar(255)]</text>
<polygon fill="none" stroke="#000000" points="500,-732.5 500,-762.5 856,-762.5 856,-732.5 500,-732.5"/>
<text text-anchor="start" x="507" y="-743.9" font-family="Arial" font-size="14.00" fill="#000000">address    </text>
<text text-anchor="start" x="590.9958" y="-743.9" font-family="Arial" font-size="14.00" fill="#666666">[text]</text>
<polygon fill="none" stroke="#000000" points="500,-702.5 500,-732.5 856,-732.5 856,-702.5 500,-702.5"/>
<text text-anchor="start" x="507" y="-713.9" font-family="Arial" font-size="14.00" fill="#000000">postal_code    </text>
<text text-anchor="start" x="616.6802" y="-713.9" font-family="Arial" font-size="14.00" fill="#666666">[varchar(255)]</text>
<polygon fill="none" stroke="#000000" points="500,-672.5 500,-702.5 856,-702.5 856,-672.5 500,-672.5"/>
<text text-anchor="start" x="507" y="-683.9" font-family="Arial" font-size="14.00" fill="#000000">city    </text>
<text text-anchor="start" x="562.202" y="-683.9" font-family="Arial" font-size="14.00" fill="#666666">[varchar(255)]</text>
<polygon fill="none" stroke="#000000" points="500,-642.5 500,-672.5 856,-672.5 856,-642.5 500,-642.5"/>
<text text-anchor="start" x="507" y="-653.9" font-family="Arial" font-size="14.00" fill="#000000">country    </text>
<text text-anchor="start" x="587.1038" y="-653.9" font-family="Arial" font-size="14.00" fill="#666666">[varchar(255)]</text>
<polygon fill="none" stroke="#000000" points="500,-612.5 500,-642.5 856,-642.5 856,-612.5 500,-612.5"/>
<text text-anchor="start" x="507" y="-623.9" font-family="Arial" font-size="14.00" fill="#000000">welcome_status    </text>
<text text-anchor="start" x="641.5554" y="-623.9" font-family="Arial" font-size="14.00" fill="#666666">[varchar(255)]</text>
<polygon fill="none" stroke="#000000" points="500,-582.5 500,-612.5 856,-612.5 856,-582.5 500,-582.5"/>
<text text-anchor="start" x="507" y="-593.9" font-family="Arial" font-size="14.00" fill="#000000">welcome_confirm_code    </text>
<text text-anchor="start" x="688.223" y="-593.9" font-family="Arial" font-size="14.00" fill="#666666">[integer]</text>
<polygon fill="none" stroke="#000000" points="500,-552.5 500,-582.5 856,-582.5 856,-552.5 500,-552.5"/>
<text text-anchor="start" x="507" y="-563.9" font-family="Arial" font-size="14.00" fill="#000000">all_docs    </text>
<text text-anchor="start" x="592.5484" y="-563.9" font-family="Arial" font-size="14.00" fill="#666666">[boolean]</text>
<polygon fill="none" stroke="#000000" points="500,-522.5 500,-552.5 856,-552.5 856,-522.5 500,-522.5"/>
<text text-anchor="start" x="507" y="-533.9" font-family="Arial" font-size="14.00" fill="#000000">sign_status    </text>
<text text-anchor="start" x="612.0056" y="-533.9" font-family="Arial" font-size="14.00" fill="#666666">[varchar(255)]</text>
<polygon fill="none" stroke="#000000" points="500,-492.5 500,-522.5 856,-522.5 856,-492.5 500,-492.5"/>
<text text-anchor="start" x="507" y="-503.9" font-family="Arial" font-size="14.00" fill="#000000">letter_style    </text>
<text text-anchor="start" x="608.8808" y="-503.9" font-family="Arial" font-size="14.00" fill="#666666">[varchar(255)]</text>
<polygon fill="none" stroke="#000000" points="500,-462.5 500,-492.5 856,-492.5 856,-462.5 500,-462.5"/>
<text text-anchor="start" x="507" y="-473.9" font-family="Arial" font-size="14.00" fill="#000000">all_fields    </text>
<text text-anchor="start" x="595.6522" y="-473.9" font-family="Arial" font-size="14.00" fill="#666666">[boolean]</text>
<polygon fill="none" stroke="#000000" points="500,-432.5 500,-462.5 856,-462.5 856,-432.5 500,-432.5"/>
<text text-anchor="start" x="507" y="-443.9" font-family="Arial" font-size="14.00" fill="#000000">balance_popup    </text>
<text text-anchor="start" x="636.92" y="-443.9" font-family="Arial" font-size="14.00" fill="#666666">[boolean]</text>
<polygon fill="none" stroke="#000000" points="500,-402.5 500,-432.5 856,-432.5 856,-402.5 500,-402.5"/>
<text text-anchor="start" x="507" y="-413.9" font-family="Arial" font-size="14.00" fill="#000000">email_unsubs    </text>
<text text-anchor="start" x="627.5568" y="-413.9" font-family="Arial" font-size="14.00" fill="#666666">[boolean]</text>
<polygon fill="none" stroke="#000000" points="500,-372.5 500,-402.5 856,-402.5 856,-372.5 500,-372.5"/>
<text text-anchor="start" x="507" y="-383.9" font-family="Arial" font-size="14.00" fill="#000000">model    </text>
<text text-anchor="start" x="579.3198" y="-383.9" font-family="Arial" font-size="14.00" fill="#666666">[varchar(255)]</text>
<polygon fill="none" stroke="#000000" points="500,-342.5 500,-372.5 856,-372.5 856,-342.5 500,-342.5"/>
<text text-anchor="start" x="507" y="-353.9" font-family="Arial" font-size="14.00" fill="#000000">remember_token    </text>
<text text-anchor="start" x="646.9986" y="-353.9" font-family="Arial" font-size="14.00" fill="#666666">[varchar(100)]</text>
<polygon fill="none" stroke="#000000" points="500,-312.5 500,-342.5 856,-342.5 856,-312.5 500,-312.5"/>
<text text-anchor="start" x="507" y="-323.9" font-family="Arial" font-size="14.00" fill="#000000">auth_token    </text>
<text text-anchor="start" x="610.4642" y="-323.9" font-family="Arial" font-size="14.00" fill="#666666">[varchar(100)]</text>
<polygon fill="none" stroke="#000000" points="500,-282.5 500,-312.5 856,-312.5 856,-282.5 500,-282.5"/>
<text text-anchor="start" x="507" y="-293.9" font-family="Arial" font-size="14.00" fill="#000000">utms    </text>
<text text-anchor="start" x="571.5386" y="-293.9" font-family="Arial" font-size="14.00" fill="#666666">[json]</text>
<polygon fill="none" stroke="#000000" points="500,-252.5 500,-282.5 856,-282.5 856,-252.5 500,-252.5"/>
<text text-anchor="start" x="507" y="-263.9" font-family="Arial" font-size="14.00" fill="#000000">created_at    </text>
<text text-anchor="start" x="607.3422" y="-263.9" font-family="Arial" font-size="14.00" fill="#666666">[timestamp(0) without time zone]</text>
<polygon fill="none" stroke="#000000" points="500,-222.5 500,-252.5 856,-252.5 856,-222.5 500,-222.5"/>
<text text-anchor="start" x="507" y="-233.9" font-family="Arial" font-size="14.00" fill="#000000">updated_at    </text>
<text text-anchor="start" x="611.2468" y="-233.9" font-family="Arial" font-size="14.00" fill="#666666">[timestamp(0) without time zone]</text>
<polygon fill="none" stroke="#000000" points="500,-192.5 500,-222.5 856,-222.5 856,-192.5 500,-192.5"/>
<text text-anchor="start" x="507" y="-203.9" font-family="Arial" font-size="14.00" fill="#000000">deleted_at    </text>
<text text-anchor="start" x="606.5708" y="-203.9" font-family="Arial" font-size="14.00" fill="#666666">[timestamp(0) without time zone]</text>
<polygon fill="none" stroke="#000000" points="500,-162.5 500,-192.5 856,-192.5 856,-162.5 500,-162.5"/>
<text text-anchor="start" x="507" y="-173.9" font-family="Arial" font-size="14.00" fill="#000000">send_to_ado    </text>
<text text-anchor="start" x="622.1388" y="-173.9" font-family="Arial" font-size="14.00" fill="#666666">[boolean]</text>
<polygon fill="none" stroke="#000000" points="500,-132.5 500,-162.5 856,-162.5 856,-132.5 500,-132.5"/>
<text text-anchor="start" x="507" y="-143.9" font-family="Arial" font-size="14.00" fill="#000000">ado_sent_at    </text>
<text text-anchor="start" x="618.2468" y="-143.9" font-family="Arial" font-size="14.00" fill="#666666">[timestamp(0) without time zone]</text>
<polygon fill="none" stroke="#000000" points="500,-102.5 500,-132.5 856,-132.5 856,-102.5 500,-102.5"/>
<text text-anchor="start" x="507" y="-113.9" font-family="Arial" font-size="14.00" fill="#000000">surname    </text>
<text text-anchor="start" x="595.6564" y="-113.9" font-family="Arial" font-size="14.00" fill="#666666">[varchar(255)]</text>
<polygon fill="none" stroke="#000000" points="500,-72.5 500,-102.5 856,-102.5 856,-72.5 500,-72.5"/>
<text text-anchor="start" x="507" y="-83.9" font-family="Arial" font-size="14.00" fill="#000000">mgm    </text>
<text text-anchor="start" x="572.3086" y="-83.9" font-family="Arial" font-size="14.00" fill="#666666">[boolean]</text>
<polygon fill="none" stroke="#000000" points="500,-42.5 500,-72.5 856,-72.5 856,-42.5 500,-42.5"/>
<text text-anchor="start" x="507" y="-53.9" font-family="Arial" font-size="14.00" fill="#000000">employer    </text>
<text text-anchor="start" x="598.763" y="-53.9" font-family="Arial" font-size="14.00" fill="#666666">[boolean]</text>
</g>
<!-- public.partner_payments&#45;&gt;public.users -->
<g id="edge2" class="edge">
<title>public.partner_payments:partner_id&#45;&gt;public.users:id</title>
<path fill="none" stroke="#000000" d="M628.1333,-2077.2233C802.0683,-2067.5106 727.1467,-1804.4122 618,-1657 585.3724,-1612.9335 532.6276,-1665.0665 500,-1621 475.2719,-1587.6026 458.4444,-1527.5 500,-1527.5"/>
<polygon fill="#000000" stroke="#000000" points="627.9963,-2077.227 617.8771,-2073.0017 622.9981,-2077.3635 618,-2077.5 618,-2077.5 618,-2077.5 622.9981,-2077.3635 618.1229,-2081.9983 627.9963,-2077.227 627.9963,-2077.227"/>
<text text-anchor="start" x="625.2215" y="-2087.5" font-family="Arial" font-size="10.00" fill="#000000">FOREIGN KEY (partner_id) REFERENCES users(id)</text>
</g>
</g>
</svg>
